0
SECTION
2
HEADER
9
$ACADVER
1
AC1006
9
$INSUNITS
70
6
0
ENDSEC
0
SECTION
2
ENTITIES
0
POLYLINE
8
0
62
255
66
1
10
0
20
0
30
0
70
8
0
VERTEX
8
0
62
255
10
98.22708
20
0
30
0
70
32
0
VERTEX
8
0
62
255
10
98.214901
20
1.5467505
30
0
70
32
0
VERTEX
8
0
62
255
10
98.178368
20
3.0931174
30
0
70
32
0
VERTEX
8
0
62
255
10
98.117488
20
4.6387173
30
0
70
32
0
VERTEX
8
0
62
255
10
98.032279
20
6.1831669
30
0
70
32
0
VERTEX
8
0
62
255
10
97.92276
20
7.7260833
30
0
70
32
0
VERTEX
8
0
62
255
10
97.788958
20
9.2670838
30
0
70
32
0
VERTEX
8
0
62
255
10
97.630908
20
10.805786
30
0
70
32
0
VERTEX
8
0
62
255
10
97.448648
20
12.341809
30
0
70
32
0
VERTEX
8
0
62
255
10
97.242223
20
13.874772
30
0
70
32
0
VERTEX
8
0
62
255
10
97.011685
20
15.404294
30
0
70
32
0
VERTEX
8
0
62
255
10
96.75709
20
16.929996
30
0
70
32
0
VERTEX
8
0
62
255
10
96.478502
20
18.4515
30
0
70
32
0
VERTEX
8
0
62
255
10
96.17599
20
19.968428
30
0
70
32
0
VERTEX
8
0
62
255
10
95.849629
20
21.480405
30
0
70
32
0
VERTEX
8
0
62
255
10
95.4995
20
22.987055
30
0
70
32
0
VERTEX
8
0
62
255
10
95.12569
20
24.488005
30
0
70
32
0
VERTEX
8
0
62
255
10
94.728291
20
25.982883
30
0
70
32
0
VERTEX
8
0
62
255
10
94.307401
20
27.471318
30
0
70
32
0
VERTEX
8
0
62
255
10
93.863126
20
28.95294
30
0
70
32
0
VERTEX
8
0
62
255
10
93.395576
20
30.427383
30
0
70
32
0
VERTEX
8
0
62
255
10
92.904866
20
31.894281
30
0
70
32
0
VERTEX
8
0
62
255
10
92.391118
20
33.35327
30
0
70
32
0
VERTEX
8
0
62
255
10
91.854459
20
34.803988
30
0
70
32
0
VERTEX
8
0
62
255
10
91.295023
20
36.246075
30
0
70
32
0
VERTEX
8
0
62
255
10
90.712948
20
37.679175
30
0
70
32
0
VERTEX
8
0
62
255
10
90.108379
20
39.102931
30
0
70
32
0
VERTEX
8
0
62
255
10
89.481466
20
40.516991
30
0
70
32
0
VERTEX
8
0
62
255
10
88.832363
20
41.921003
30
0
70
32
0
VERTEX
8
0
62
255
10
88.161232
20
43.31462
30
0
70
32
0
VERTEX
8
0
62
255
10
87.46824
20
44.697497
30
0
70
32
0
VERTEX
8
0
62
255
10
86.753558
20
46.069289
30
0
70
32
0
VERTEX
8
0
62
255
10
86.017363
20
47.429658
30
0
70
32
0
VERTEX
8
0
62
255
10
85.259839
20
48.778265
30
0
70
32
0
VERTEX
8
0
62
255
10
84.481172
20
50.114777
30
0
70
32
0
VERTEX
8
0
62
255
10
83.681556
20
51.438861
30
0
70
32
0
VERTEX
8
0
62
255
10
82.861189
20
52.75019
30
0
70
32
0
VERTEX
8
0
62
255
10
82.020275
20
54.048439
30
0
70
32
0
VERTEX
8
0
62
255
10
81.159022
20
55.333284
30
0
70
32
0
VERTEX
8
0
62
255
10
80.277644
20
56.604409
30
0
70
32
0
VERTEX
8
0
62
255
10
79.376359
20
57.861497
30
0
70
32
0
VERTEX
8
0
62
255
10
78.455391
20
59.104237
30
0
70
32
0
VERTEX
8
0
62
255
10
77.514968
20
60.332321
30
0
70
32
0
VERTEX
8
0
62
255
10
76.555323
20
61.545444
30
0
70
32
0
VERTEX
8
0
62
255
10
75.576695
20
62.743306
30
0
70
32
0
VERTEX
8
0
62
255
10
74.579326
20
63.925608
30
0
70
32
0
VERTEX
8
0
62
255
10
73.563463
20
65.092059
30
0
70
32
0
VERTEX
8
0
62
255
10
72.529358
20
66.242369
30
0
70
32
0
VERTEX
8
0
62
255
10
71.477268
20
67.376253
30
0
70
32
0
VERTEX
8
0
62
255
10
70.407453
20
68.493429
30
0
70
32
0
VERTEX
8
0
62
255
10
69.320179
20
69.59362
30
0
70
32
0
VERTEX
8
0
62
255
10
68.215716
20
70.676554
30
0
70
32
0
VERTEX
8
0
62
255
10
67.094337
20
71.741962
30
0
70
32
0
VERTEX
8
0
62
255
10
65.956321
20
72.78958
30
0
70
32
0
VERTEX
8
0
62
255
10
64.801949
20
73.819149
30
0
70
32
0
VERTEX
8
0
62
255
10
63.631507
20
74.830412
30
0
70
32
0
VERTEX
8
0
62
255
10
62.445287
20
75.823119
30
0
70
32
0
VERTEX
8
0
62
255
10
61.243583
20
76.797024
30
0
70
32
0
VERTEX
8
0
62
255
10
60.026691
20
77.751885
30
0
70
32
0
VERTEX
8
0
62
255
10
58.794914
20
78.687466
30
0
70
32
0
VERTEX
8
0
62
255
10
57.548558
20
79.603534
30
0
70
32
0
VERTEX
8
0
62
255
10
56.287932
20
80.499863
30
0
70
32
0
VERTEX
8
0
62
255
10
55.013347
20
81.376231
30
0
70
32
0
VERTEX
8
0
62
255
10
53.72512
20
82.232419
30
0
70
32
0
VERTEX
8
0
62
255
10
52.423572
20
83.068215
30
0
70
32
0
VERTEX
8
0
62
255
10
51.109023
20
83.883413
30
0
70
32
0
VERTEX
8
0
62
255
10
49.781801
20
84.67781
30
0
70
32
0
VERTEX
8
0
62
255
10
48.442234
20
85.451209
30
0
70
32
0
VERTEX
8
0
62
255
10
47.090655
20
86.203419
30
0
70
32
0
VERTEX
8
0
62
255
10
45.727399
20
86.934252
30
0
70
32
0
VERTEX
8
0
62
255
10
44.352803
20
87.643528
30
0
70
32
0
VERTEX
8
0
62
255
10
42.967209
20
88.331071
30
0
70
32
0
VERTEX
8
0
62
255
10
41.570961
20
88.99671
30
0
70
32
0
VERTEX
8
0
62
255
10
40.164404
20
89.640281
30
0
70
32
0
VERTEX
8
0
62
255
10
38.747887
20
90.261622
30
0
70
32
0
VERTEX
8
0
62
255
10
37.321762
20
90.860582
30
0
70
32
0
VERTEX
8
0
62
255
10
35.886382
20
91.43701
30
0
70
32
0
VERTEX
8
0
62
255
10
34.442103
20
91.990765
30
0
70
32
0
VERTEX
8
0
62
255
10
32.989284
20
92.521708
30
0
70
32
0
VERTEX
8
0
62
255
10
31.528284
20
93.029708
30
0
70
32
0
VERTEX
8
0
62
255
10
30.059465
20
93.514639
30
0
70
32
0
VERTEX
8
0
62
255
10
28.583193
20
93.976382
30
0
70
32
0
VERTEX
8
0
62
255
10
27.099833
20
94.41482
30
0
70
32
0
VERTEX
8
0
62
255
10
25.609753
20
94.829846
30
0
70
32
0
VERTEX
8
0
62
255
10
24.113323
20
95.221357
30
0
70
32
0
VERTEX
8
0
62
255
10
22.610913
20
95.589256
30
0
70
32
0
VERTEX
8
0
62
255
10
21.102896
20
95.933451
30
0
70
32
0
VERTEX
8
0
62
255
10
19.589646
20
96.253857
30
0
70
32
0
VERTEX
8
0
62
255
10
18.071538
20
96.550395
30
0
70
32
0
VERTEX
8
0
62
255
10
16.548949
20
96.822991
30
0
70
32
0
VERTEX
8
0
62
255
10
15.022257
20
97.071577
30
0
70
32
0
VERTEX
8
0
62
255
10
13.491839
20
97.296092
30
0
70
32
0
VERTEX
8
0
62
255
10
11.958076
20
97.49648
30
0
70
32
0
VERTEX
8
0
62
255
10
10.421347
20
97.672692
30
0
70
32
0
VERTEX
8
0
62
255
10
8.8820342
20
97.824684
30
0
70
32
0
VERTEX
8
0
62
255
10
7.3405189
20
97.952417
30
0
70
32
0
VERTEX
8
0
62
255
10
5.7971833
20
98.055861
30
0
70
32
0
VERTEX
8
0
62
255
10
4.2524102
20
98.13499
30
0
70
32
0
VERTEX
8
0
62
255
10
2.7065826
20
98.189784
30
0
70
32
0
VERTEX
8
0
62
255
10
1.1600838
20
98.220229
30
0
70
32
0
VERTEX
8
0
62
255
10
-0.3867026
20
98.226319
30
0
70
32
0
VERTEX
8
0
62
255
10
-1.9333931
20
98.208051
30
0
70
32
0
VERTEX
8
0
62
255
10
-3.4796042
20
98.16543
30
0
70
32
0
VERTEX
8
0
62
255
10
-5.0249525
20
98.098466
30
0
70
32
0
VERTEX
8
0
62
255
10
-6.5690547
20
98.007177
30
0
70
32
0
VERTEX
8
0
62
255
10
-8.111528
20
97.891585
30
0
70
32
0
VERTEX
8
0
62
255
10
-9.6519898
20
97.751718
30
0
70
32
0
VERTEX
8
0
62
255
10
-11.190058
20
97.587611
30
0
70
32
0
VERTEX
8
0
62
255
10
-12.725352
20
97.399305
30
0
70
32
0
VERTEX
8
0
62
255
10
-14.25749
20
97.186847
30
0
70
32
0
VERTEX
8
0
62
255
10
-15.786092
20
96.950289
30
0
70
32
0
VERTEX
8
0
62
255
10
-17.31078
20
96.68969
30
0
70
32
0
VERTEX
8
0
62
255
10
-18.831176
20
96.405114
30
0
70
32
0
VERTEX
8
0
62
255
10
-20.346901
20
96.096633
30
0
70
32
0
VERTEX
8
0
62
255
10
-21.857582
20
95.764322
30
0
70
32
0
VERTEX
8
0
62
255
10
-23.362842
20
95.408264
30
0
70
32
0
VERTEX
8
0
62
255
10
-24.862309
20
95.028548
30
0
70
32
0
VERTEX
8
0
62
255
10
-26.35561
20
94.625266
30
0
70
32
0
VERTEX
8
0
62
255
10
-27.842376
20
94.198521
30
0
70
32
0
VERTEX
8
0
62
255
10
-29.322238
20
93.748416
30
0
70
32
0
VERTEX
8
0
62
255
10
-30.794829
20
93.275065
30
0
70
32
0
VERTEX
8
0
62
255
10
-32.259784
20
92.778584
30
0
70
32
0
VERTEX
8
0
62
255
10
-33.716739
20
92.259096
30
0
70
32
0
VERTEX
8
0
62
255
10
-35.165333
20
91.71673
30
0
70
32
0
VERTEX
8
0
62
255
10
-36.605207
20
91.151621
30
0
70
32
0
VERTEX
8
0
62
255
10
-38.036004
20
90.563909
30
0
70
32
0
VERTEX
8
0
62
255
10
-39.457369
20
89.95374
30
0
70
32
0
VERTEX
8
0
62
255
10
-40.868949
20
89.321264
30
0
70
32
0
VERTEX
8
0
62
255
10
-42.270395
20
88.666639
30
0
70
32
0
VERTEX
8
0
62
255
10
-43.66136
20
87.990027
30
0
70
32
0
VERTEX
8
0
62
255
10
-45.041497
20
87.291596
30
0
70
32
0
VERTEX
8
0
62
255
10
-46.410466
20
86.571519
30
0
70
32
0
VERTEX
8
0
62
255
10
-47.767925
20
85.829975
30
0
70
32
0
VERTEX
8
0
62
255
10
-49.11354
20
85.067147
30
0
70
32
0
VERTEX
8
0
62
255
10
-50.446976
20
84.283224
30
0
70
32
0
VERTEX
8
0
62
255
10
-51.767902
20
83.478402
30
0
70
32
0
VERTEX
8
0
62
255
10
-53.075991
20
82.652879
30
0
70
32
0
VERTEX
8
0
62
255
10
-54.370919
20
81.80686
30
0
70
32
0
VERTEX
8
0
62
255
10
-55.652364
20
80.940556
30
0
70
32
0
VERTEX
8
0
62
255
10
-56.920009
20
80.05418
30
0
70
32
0
VERTEX
8
0
62
255
10
-58.17354
20
79.147953
30
0
70
32
0
VERTEX
8
0
62
255
10
-59.412644
20
78.2221
30
0
70
32
0
VERTEX
8
0
62
255
10
-60.637016
20
77.27685
30
0
70
32
0
VERTEX
8
0
62
255
10
-61.846352
20
76.312437
30
0
70
32
0
VERTEX
8
0
62
255
10
-63.040352
20
75.3291
30
0
70
32
0
VERTEX
8
0
62
255
10
-64.218719
20
74.327084
30
0
70
32
0
VERTEX
8
0
62
255
10
-65.381161
20
73.306637
30
0
70
32
0
VERTEX
8
0
62
255
10
-66.527391
20
72.268011
30
0
70
32
0
VERTEX
8
0
62
255
10
-67.657124
20
71.211466
30
0
70
32
0
VERTEX
8
0
62
255
10
-68.77008
20
70.137261
30
0
70
32
0
VERTEX
8
0
62
255
10
-69.865982
20
69.045665
30
0
70
32
0
VERTEX
8
0
62
255
10
-70.94456
20
67.936946
30
0
70
32
0
VERTEX
8
0
62
255
10
-72.005545
20
66.811382
30
0
70
32
0
VERTEX
8
0
62
255
10
-73.048675
20
65.66925
30
0
70
32
0
VERTEX
8
0
62
255
10
-74.07369
20
64.510834
30
0
70
32
0
VERTEX
8
0
62
255
10
-75.080338
20
63.33642
30
0
70
32
0
VERTEX
8
0
62
255
10
-76.068367
20
62.146301
30
0
70
32
0
VERTEX
8
0
62
255
10
-77.037534
20
60.940772
30
0
70
32
0
VERTEX
8
0
62
255
10
-77.987597
20
59.72013
30
0
70
32
0
VERTEX
8
0
62
255
10
-78.918321
20
58.48468
30
0
70
32
0
VERTEX
8
0
62
255
10
-79.829476
20
57.234727
30
0
70
32
0
VERTEX
8
0
62
255
10
-80.720835
20
55.970582
30
0
70
32
0
VERTEX
8
0
62
255
10
-81.592178
20
54.692557
30
0
70
32
0
VERTEX
8
0
62
255
10
-82.443288
20
53.40097
30
0
70
32
0
VERTEX
8
0
62
255
10
-83.273954
20
52.096141
30
0
70
32
0
VERTEX
8
0
62
255
10
-84.08397
20
50.778393
30
0
70
32
0
VERTEX
8
0
62
255
10
-84.873136
20
49.448054
30
0
70
32
0
VERTEX
8
0
62
255
10
-85.641256
20
48.105453
30
0
70
32
0
VERTEX
8
0
62
255
10
-86.388138
20
46.750923
30
0
70
32
0
VERTEX
8
0
62
255
10
-87.113599
20
45.3848
30
0
70
32
0
VERTEX
8
0
62
255
10
-87.817458
20
44.007423
30
0
70
32
0
VERTEX
8
0
62
255
10
-88.499541
20
42.619133
30
0
70
32
0
VERTEX
8
0
62
255
10
-89.159678
20
41.220275
30
0
70
32
0
VERTEX
8
0
62
255
10
-89.797706
20
39.811195
30
0
70
32
0
VERTEX
8
0
62
255
10
-90.413466
20
38.392243
30
0
70
32
0
VERTEX
8
0
62
255
10
-91.006807
20
36.963771
30
0
70
32
0
VERTEX
8
0
62
255
10
-91.57758
20
35.526133
30
0
70
32
0
VERTEX
8
0
62
255
10
-92.125644
20
34.079685
30
0
70
32
0
VERTEX
8
0
62
255
10
-92.650864
20
32.624786
30
0
70
32
0
VERTEX
8
0
62
255
10
-93.153108
20
31.161798
30
0
70
32
0
VERTEX
8
0
62
255
10
-93.632253
20
29.691082
30
0
70
32
0
VERTEX
8
0
62
255
10
-94.08818
20
28.213003
30
0
70
32
0
VERTEX
8
0
62
255
10
-94.520776
20
26.727929
30
0
70
32
0
VERTEX
8
0
62
255
10
-94.929933
20
25.236226
30
0
70
32
0
VERTEX
8
0
62
255
10
-95.315549
20
23.738266
30
0
70
32
0
VERTEX
8
0
62
255
10
-95.67753
20
22.234419
30
0
70
32
0
VERTEX
8
0
62
255
10
-96.015786
20
20.725059
30
0
70
32
0
VERTEX
8
0
62
255
10
-96.330232
20
19.210559
30
0
70
32
0
VERTEX
8
0
62
255
10
-96.620791
20
17.691296
30
0
70
32
0
VERTEX
8
0
62
255
10
-96.887391
20
16.167646
30
0
70
32
0
VERTEX
8
0
62
255
10
-97.129965
20
14.639987
30
0
70
32
0
VERTEX
8
0
62
255
10
-97.348453
20
13.108697
30
0
70
32
0
VERTEX
8
0
62
255
10
-97.542802
20
11.574157
30
0
70
32
0
VERTEX
8
0
62
255
10
-97.712962
20
10.036746
30
0
70
32
0
VERTEX
8
0
62
255
10
-97.858892
20
8.4968469
30
0
70
32
0
VERTEX
8
0
62
255
10
-97.980556
20
6.9548407
30
0
70
32
0
VERTEX
8
0
62
255
10
-98.077924
20
5.4111098
30
0
70
32
0
VERTEX
8
0
62
255
10
-98.15097
20
3.8660372
30
0
70
32
0
VERTEX
8
0
62
255
10
-98.199678
20
2.3200058
30
0
70
32
0
VERTEX
8
0
62
255
10
-98.224035
20
0.77339921
30
0
70
32
0
VERTEX
8
0
62
255
10
-98.224035
20
-0.77339921
30
0
70
32
0
VERTEX
8
0
62
255
10
-98.199678
20
-2.3200058
30
0
70
32
0
VERTEX
8
0
62
255
10
-98.15097
20
-3.8660372
30
0
70
32
0
VERTEX
8
0
62
255
10
-98.077924
20
-5.4111098
30
0
70
32
0
VERTEX
8
0
62
255
10
-97.980556
20
-6.9548407
30
0
70
32
0
VERTEX
8
0
62
255
10
-97.858892
20
-8.4968469
30
0
70
32
0
VERTEX
8
0
62
255
10
-97.712962
20
-10.036746
30
0
70
32
0
VERTEX
8
0
62
255
10
-97.542802
20
-11.574157
30
0
70
32
0
VERTEX
8
0
62
255
10
-97.348453
20
-13.108697
30
0
70
32
0
VERTEX
8
0
62
255
10
-97.129965
20
-14.639987
30
0
70
32
0
VERTEX
8
0
62
255
10
-96.887391
20
-16.167646
30
0
70
32
0
VERTEX
8
0
62
255
10
-96.620791
20
-17.691296
30
0
70
32
0
VERTEX
8
0
62
255
10
-96.330232
20
-19.210559
30
0
70
32
0
VERTEX
8
0
62
255
10
-96.015786
20
-20.725059
30
0
70
32
0
VERTEX
8
0
62
255
10
-95.67753
20
-22.234419
30
0
70
32
0
VERTEX
8
0
62
255
10
-95.315549
20
-23.738266
30
0
70
32
0
VERTEX
8
0
62
255
10
-94.929933
20
-25.236226
30
0
70
32
0
VERTEX
8
0
62
255
10
-94.520776
20
-26.727929
30
0
70
32
0
VERTEX
8
0
62
255
10
-94.08818
20
-28.213003
30
0
70
32
0
VERTEX
8
0
62
255
10
-93.632253
20
-29.691082
30
0
70
32
0
VERTEX
8
0
62
255
10
-93.153108
20
-31.161798
30
0
70
32
0
VERTEX
8
0
62
255
10
-92.650864
20
-32.624786
30
0
70
32
0
VERTEX
8
0
62
255
10
-92.125644
20
-34.079685
30
0
70
32
0
VERTEX
8
0
62
255
10
-91.57758
20
-35.526133
30
0
70
32
0
VERTEX
8
0
62
255
10
-91.006807
20
-36.963771
30
0
70
32
0
VERTEX
8
0
62
255
10
-90.413466
20
-38.392243
30
0
70
32
0
VERTEX
8
0
62
255
10
-89.797706
20
-39.811195
30
0
70
32
0
VERTEX
8
0
62
255
10
-89.159678
20
-41.220275
30
0
70
32
0
VERTEX
8
0
62
255
10
-88.499541
20
-42.619133
30
0
70
32
0
VERTEX
8
0
62
255
10
-87.817458
20
-44.007423
30
0
70
32
0
VERTEX
8
0
62
255
10
-87.113599
20
-45.3848
30
0
70
32
0
VERTEX
8
0
62
255
10
-86.388138
20
-46.750923
30
0
70
32
0
VERTEX
8
0
62
255
10
-85.641256
20
-48.105453
30
0
70
32
0
VERTEX
8
0
62
255
10
-84.873136
20
-49.448054
30
0
70
32
0
VERTEX
8
0
62
255
10
-84.08397
20
-50.778393
30
0
70
32
0
VERTEX
8
0
62
255
10
-83.273954
20
-52.096141
30
0
70
32
0
VERTEX
8
0
62
255
10
-82.443288
20
-53.40097
30
0
70
32
0
VERTEX
8
0
62
255
10
-81.592178
20
-54.692557
30
0
70
32
0
VERTEX
8
0
62
255
10
-80.720835
20
-55.970582
30
0
70
32
0
VERTEX
8
0
62
255
10
-79.829476
20
-57.234727
30
0
70
32
0
VERTEX
8
0
62
255
10
-78.918321
20
-58.48468
30
0
70
32
0
VERTEX
8
0
62
255
10
-77.987597
20
-59.72013
30
0
70
32
0
VERTEX
8
0
62
255
10
-77.037534
20
-60.940772
30
0
70
32
0
VERTEX
8
0
62
255
10
-76.068367
20
-62.146301
30
0
70
32
0
VERTEX
8
0
62
255
10
-75.080338
20
-63.33642
30
0
70
32
0
VERTEX
8
0
62
255
10
-74.07369
20
-64.510834
30
0
70
32
0
VERTEX
8
0
62
255
10
-73.048675
20
-65.66925
30
0
70
32
0
VERTEX
8
0
62
255
10
-72.005545
20
-66.811382
30
0
70
32
0
VERTEX
8
0
62
255
10
-70.94456
20
-67.936946
30
0
70
32
0
VERTEX
8
0
62
255
10
-69.865982
20
-69.045665
30
0
70
32
0
VERTEX
8
0
62
255
10
-68.77008
20
-70.137261
30
0
70
32
0
VERTEX
8
0
62
255
10
-67.657124
20
-71.211466
30
0
70
32
0
VERTEX
8
0
62
255
10
-66.527391
20
-72.268011
30
0
70
32
0
VERTEX
8
0
62
255
10
-65.381161
20
-73.306637
30
0
70
32
0
VERTEX
8
0
62
255
10
-64.218719
20
-74.327084
30
0
70
32
0
VERTEX
8
0
62
255
10
-63.040352
20
-75.3291
30
0
70
32
0
VERTEX
8
0
62
255
10
-61.846352
20
-76.312437
30
0
70
32
0
VERTEX
8
0
62
255
10
-60.637016
20
-77.27685
30
0
70
32
0
VERTEX
8
0
62
255
10
-59.412644
20
-78.2221
30
0
70
32
0
VERTEX
8
0
62
255
10
-58.17354
20
-79.147953
30
0
70
32
0
VERTEX
8
0
62
255
10
-56.920009
20
-80.05418
30
0
70
32
0
VERTEX
8
0
62
255
10
-55.652364
20
-80.940556
30
0
70
32
0
VERTEX
8
0
62
255
10
-54.370919
20
-81.80686
30
0
70
32
0
VERTEX
8
0
62
255
10
-53.075991
20
-82.652879
30
0
70
32
0
VERTEX
8
0
62
255
10
-51.767902
20
-83.478402
30
0
70
32
0
VERTEX
8
0
62
255
10
-50.446976
20
-84.283224
30
0
70
32
0
VERTEX
8
0
62
255
10
-49.11354
20
-85.067147
30
0
70
32
0
VERTEX
8
0
62
255
10
-47.767925
20
-85.829975
30
0
70
32
0
VERTEX
8
0
62
255
10
-46.410466
20
-86.571519
30
0
70
32
0
VERTEX
8
0
62
255
10
-45.041497
20
-87.291596
30
0
70
32
0
VERTEX
8
0
62
255
10
-43.66136
20
-87.990027
30
0
70
32
0
VERTEX
8
0
62
255
10
-42.270395
20
-88.666639
30
0
70
32
0
VERTEX
8
0
62
255
10
-40.868949
20
-89.321264
30
0
70
32
0
VERTEX
8
0
62
255
10
-39.457369
20
-89.95374
30
0
70
32
0
VERTEX
8
0
62
255
10
-38.036004
20
-90.563909
30
0
70
32
0
VERTEX
8
0
62
255
10
-36.605207
20
-91.151621
30
0
70
32
0
VERTEX
8
0
62
255
10
-35.165333
20
-91.71673
30
0
70
32
0
VERTEX
8
0
62
255
10
-33.716739
20
-92.259096
30
0
70
32
0
VERTEX
8
0
62
255
10
-32.259784
20
-92.778584
30
0
70
32
0
VERTEX
8
0
62
255
10
-30.794829
20
-93.275065
30
0
70
32
0
VERTEX
8
0
62
255
10
-29.322238
20
-93.748416
30
0
70
32
0
VERTEX
8
0
62
255
10
-27.842376
20
-94.198521
30
0
70
32
0
VERTEX
8
0
62
255
10
-26.35561
20
-94.625266
30
0
70
32
0
VERTEX
8
0
62
255
10
-24.862309
20
-95.028548
30
0
70
32
0
VERTEX
8
0
62
255
10
-23.362842
20
-95.408264
30
0
70
32
0
VERTEX
8
0
62
255
10
-21.857582
20
-95.764322
30
0
70
32
0
VERTEX
8
0
62
255
10
-20.346901
20
-96.096633
30
0
70
32
0
VERTEX
8
0
62
255
10
-18.831176
20
-96.405114
30
0
70
32
0
VERTEX
8
0
62
255
10
-17.31078
20
-96.68969
30
0
70
32
0
VERTEX
8
0
62
255
10
-15.786092
20
-96.950289
30
0
70
32
0
VERTEX
8
0
62
255
10
-14.25749
20
-97.186847
30
0
70
32
0
VERTEX
8
0
62
255
10
-12.725352
20
-97.399305
30
0
70
32
0
VERTEX
8
0
62
255
10
-11.190058
20
-97.587611
30
0
70
32
0
VERTEX
8
0
62
255
10
-9.6519898
20
-97.751718
30
0
70
32
0
VERTEX
8
0
62
255
10
-8.111528
20
-97.891585
30
0
70
32
0
VERTEX
8
0
62
255
10
-6.5690547
20
-98.007177
30
0
70
32
0
VERTEX
8
0
62
255
10
-5.0249525
20
-98.098466
30
0
70
32
0
VERTEX
8
0
62
255
10
-3.4796042
20
-98.16543
30
0
70
32
0
VERTEX
8
0
62
255
10
-1.9333931
20
-98.208051
30
0
70
32
0
VERTEX
8
0
62
255
10
-0.3867026
20
-98.226319
30
0
70
32
0
VERTEX
8
0
62
255
10
1.1600838
20
-98.220229
30
0
70
32
0
VERTEX
8
0
62
255
10
2.7065826
20
-98.189784
30
0
70
32
0
VERTEX
8
0
62
255
10
4.2524102
20
-98.13499
30
0
70
32
0
VERTEX
8
0
62
255
10
5.7971833
20
-98.055861
30
0
70
32
0
VERTEX
8
0
62
255
10
7.3405189
20
-97.952417
30
0
70
32
0
VERTEX
8
0
62
255
10
8.8820342
20
-97.824684
30
0
70
32
0
VERTEX
8
0
62
255
10
10.421347
20
-97.672692
30
0
70
32
0
VERTEX
8
0
62
255
10
11.958076
20
-97.49648
30
0
70
32
0
VERTEX
8
0
62
255
10
13.491839
20
-97.296092
30
0
70
32
0
VERTEX
8
0
62
255
10
15.022257
20
-97.071577
30
0
70
32
0
VERTEX
8
0
62
255
10
16.548949
20
-96.822991
30
0
70
32
0
VERTEX
8
0
62
255
10
18.071538
20
-96.550395
30
0
70
32
0
VERTEX
8
0
62
255
10
19.589646
20
-96.253857
30
0
70
32
0
VERTEX
8
0
62
255
10
21.102896
20
-95.933451
30
0
70
32
0
VERTEX
8
0
62
255
10
22.610913
20
-95.589256
30
0
70
32
0
VERTEX
8
0
62
255
10
24.113323
20
-95.221357
30
0
70
32
0
VERTEX
8
0
62
255
10
25.609753
20
-94.829846
30
0
70
32
0
VERTEX
8
0
62
255
10
27.099833
20
-94.41482
30
0
70
32
0
VERTEX
8
0
62
255
10
28.583193
20
-93.976382
30
0
70
32
0
VERTEX
8
0
62
255
10
30.059465
20
-93.514639
30
0
70
32
0
VERTEX
8
0
62
255
10
31.528284
20
-93.029708
30
0
70
32
0
VERTEX
8
0
62
255
10
32.989284
20
-92.521708
30
0
70
32
0
VERTEX
8
0
62
255
10
34.442103
20
-91.990765
30
0
70
32
0
VERTEX
8
0
62
255
10
35.886382
20
-91.43701
30
0
70
32
0
VERTEX
8
0
62
255
10
37.321762
20
-90.860582
30
0
70
32
0
VERTEX
8
0
62
255
10
38.747887
20
-90.261622
30
0
70
32
0
VERTEX
8
0
62
255
10
40.164404
20
-89.640281
30
0
70
32
0
VERTEX
8
0
62
255
10
41.570961
20
-88.99671
30
0
70
32
0
VERTEX
8
0
62
255
10
42.967209
20
-88.331071
30
0
70
32
0
VERTEX
8
0
62
255
10
44.352803
20
-87.643528
30
0
70
32
0
VERTEX
8
0
62
255
10
45.727399
20
-86.934252
30
0
70
32
0
VERTEX
8
0
62
255
10
47.090655
20
-86.203419
30
0
70
32
0
VERTEX
8
0
62
255
10
48.442234
20
-85.451209
30
0
70
32
0
VERTEX
8
0
62
255
10
49.781801
20
-84.67781
30
0
70
32
0
VERTEX
8
0
62
255
10
51.109023
20
-83.883413
30
0
70
32
0
VERTEX
8
0
62
255
10
52.423572
20
-83.068215
30
0
70
32
0
VERTEX
8
0
62
255
10
53.72512
20
-82.232419
30
0
70
32
0
VERTEX
8
0
62
255
10
55.013347
20
-81.376231
30
0
70
32
0
VERTEX
8
0
62
255
10
56.287932
20
-80.499863
30
0
70
32
0
VERTEX
8
0
62
255
10
57.548558
20
-79.603534
30
0
70
32
0
VERTEX
8
0
62
255
10
58.794914
20
-78.687466
30
0
70
32
0
VERTEX
8
0
62
255
10
60.026691
20
-77.751885
30
0
70
32
0
VERTEX
8
0
62
255
10
61.243583
20
-76.797024
30
0
70
32
0
VERTEX
8
0
62
255
10
62.445287
20
-75.823119
30
0
70
32
0
VERTEX
8
0
62
255
10
63.631507
20
-74.830412
30
0
70
32
0
VERTEX
8
0
62
255
10
64.801949
20
-73.819149
30
0
70
32
0
VERTEX
8
0
62
255
10
65.956321
20
-72.78958
30
0
70
32
0
VERTEX
8
0
62
255
10
67.094337
20
-71.741962
30
0
70
32
0
VERTEX
8
0
62
255
10
68.215716
20
-70.676554
30
0
70
32
0
VERTEX
8
0
62
255
10
69.320179
20
-69.59362
30
0
70
32
0
VERTEX
8
0
62
255
10
70.407453
20
-68.493429
30
0
70
32
0
VERTEX
8
0
62
255
10
71.477268
20
-67.376253
30
0
70
32
0
VERTEX
8
0
62
255
10
72.529358
20
-66.242369
30
0
70
32
0
VERTEX
8
0
62
255
10
73.563463
20
-65.092059
30
0
70
32
0
VERTEX
8
0
62
255
10
74.579326
20
-63.925608
30
0
70
32
0
VERTEX
8
0
62
255
10
75.576695
20
-62.743306
30
0
70
32
0
VERTEX
8
0
62
255
10
76.555323
20
-61.545444
30
0
70
32
0
VERTEX
8
0
62
255
10
77.514968
20
-60.332321
30
0
70
32
0
VERTEX
8
0
62
255
10
78.455391
20
-59.104237
30
0
70
32
0
VERTEX
8
0
62
255
10
79.376359
20
-57.861497
30
0
70
32
0
VERTEX
8
0
62
255
10
80.277644
20
-56.604409
30
0
70
32
0
VERTEX
8
0
62
255
10
81.159022
20
-55.333284
30
0
70
32
0
VERTEX
8
0
62
255
10
82.020275
20
-54.048439
30
0
70
32
0
VERTEX
8
0
62
255
10
82.861189
20
-52.75019
30
0
70
32
0
VERTEX
8
0
62
255
10
83.681556
20
-51.438861
30
0
70
32
0
VERTEX
8
0
62
255
10
84.481172
20
-50.114777
30
0
70
32
0
VERTEX
8
0
62
255
10
85.259839
20
-48.778265
30
0
70
32
0
VERTEX
8
0
62
255
10
86.017363
20
-47.429658
30
0
70
32
0
VERTEX
8
0
62
255
10
86.753558
20
-46.069289
30
0
70
32
0
VERTEX
8
0
62
255
10
87.46824
20
-44.697497
30
0
70
32
0
VERTEX
8
0
62
255
10
88.161232
20
-43.31462
30
0
70
32
0
VERTEX
8
0
62
255
10
88.832363
20
-41.921003
30
0
70
32
0
VERTEX
8
0
62
255
10
89.481466
20
-40.516991
30
0
70
32
0
VERTEX
8
0
62
255
10
90.108379
20
-39.102931
30
0
70
32
0
VERTEX
8
0
62
255
10
90.712948
20
-37.679175
30
0
70
32
0
VERTEX
8
0
62
255
10
91.295023
20
-36.246075
30
0
70
32
0
VERTEX
8
0
62
255
10
91.854459
20
-34.803988
30
0
70
32
0
VERTEX
8
0
62
255
10
92.391118
20
-33.35327
30
0
70
32
0
VERTEX
8
0
62
255
10
92.904866
20
-31.894281
30
0
70
32
0
VERTEX
8
0
62
255
10
93.395576
20
-30.427383
30
0
70
32
0
VERTEX
8
0
62
255
10
93.863126
20
-28.95294
30
0
70
32
0
VERTEX
8
0
62
255
10
94.307401
20
-27.471318
30
0
70
32
0
VERTEX
8
0
62
255
10
94.728291
20
-25.982883
30
0
70
32
0
VERTEX
8
0
62
255
10
95.12569
20
-24.488005
30
0
70
32
0
VERTEX
8
0
62
255
10
95.4995
20
-22.987055
30
0
70
32
0
VERTEX
8
0
62
255
10
95.849629
20
-21.480405
30
0
70
32
0
VERTEX
8
0
62
255
10
96.17599
20
-19.968428
30
0
70
32
0
VERTEX
8
0
62
255
10
96.478502
20
-18.4515
30
0
70
32
0
VERTEX
8
0
62
255
10
96.75709
20
-16.929996
30
0
70
32
0
VERTEX
8
0
62
255
10
97.011685
20
-15.404294
30
0
70
32
0
VERTEX
8
0
62
255
10
97.242223
20
-13.874772
30
0
70
32
0
VERTEX
8
0
62
255
10
97.448648
20
-12.341809
30
0
70
32
0
VERTEX
8
0
62
255
10
97.630908
20
-10.805786
30
0
70
32
0
VERTEX
8
0
62
255
10
97.788958
20
-9.2670838
30
0
70
32
0
VERTEX
8
0
62
255
10
97.92276
20
-7.7260833
30
0
70
32
0
VERTEX
8
0
62
255
10
98.032279
20
-6.1831669
30
0
70
32
0
VERTEX
8
0
62
255
10
98.117488
20
-4.6387173
30
0
70
32
0
VERTEX
8
0
62
255
10
98.178368
20
-3.0931174
30
0
70
32
0
VERTEX
8
0
62
255
10
98.214901
20
-1.5467505
30
0
70
32
0
VERTEX
8
0
62
255
10
98.22708
20
-2.4058696e-14
30
0
70
32
0
SEQEND
8
0
0
POLYLINE
8
0
62
255
66
1
10
0
20
0
30
0
70
8
0
VERTEX
8
0
62
255
10
0.90369333
20
45.553281
30
0
70
32
0
VERTEX
8
0
62
255
10
4.4208678
20
47.583922
30
0
70
32
0
VERTEX
8
0
62
255
10
7.9208678
20
67.838474
30
0
70
32
0
VERTEX
8
0
62
255
10
-7.9208678
20
67.838474
30
0
70
32
0
VERTEX
8
0
62
255
10
-4.4208678
20
47.583922
30
0
70
32
0
VERTEX
8
0
62
255
10
-0.90369333
20
45.553281
30
0
70
32
0
VERTEX
8
0
62
255
10
-0.90369333
20
44.992972
30
0
70
32
0
VERTEX
8
0
62
255
10
-2.4471209
20
44.935463
30
0
70
32
0
VERTEX
8
0
62
255
10
-3.9876659
20
44.825024
30
0
70
32
0
VERTEX
8
0
62
255
10
-5.5235139
20
44.661785
30
0
70
32
0
VERTEX
8
0
62
255
10
-7.0528556
20
44.445938
30
0
70
32
0
VERTEX
8
0
62
255
10
-8.5738898
20
44.177739
30
0
70
32
0
VERTEX
8
0
62
255
10
-10.084825
20
43.857503
30
0
70
32
0
VERTEX
8
0
62
255
10
-11.583881
20
43.485606
30
0
70
32
0
VERTEX
8
0
62
255
10
-13.069292
20
43.062487
30
0
70
32
0
VERTEX
8
0
62
255
10
-14.539309
20
42.588645
30
0
70
32
0
VERTEX
8
0
62
255
10
-14.730946
20
43.115163
30
0
70
32
0
VERTEX
8
0
62
255
10
-12.120403
20
46.226287
30
0
70
32
0
VERTEX
8
0
62
255
10
-15.758944
20
66.45641
30
0
70
32
0
VERTEX
8
0
62
255
10
-30.645306
20
61.038217
30
0
70
32
0
VERTEX
8
0
62
255
10
-20.428917
20
43.202235
30
0
70
32
0
VERTEX
8
0
62
255
10
-16.429334
20
42.497001
30
0
70
32
0
VERTEX
8
0
62
255
10
-16.237697
20
41.970483
30
0
70
32
0
VERTEX
8
0
62
255
10
-17.668375
20
41.388558
30
0
70
32
0
VERTEX
8
0
62
255
10
-19.078241
20
40.757882
30
0
70
32
0
VERTEX
8
0
62
255
10
-20.465635
20
40.079196
30
0
70
32
0
VERTEX
8
0
62
255
10
-21.828923
20
39.353302
30
0
70
32
0
VERTEX
8
0
62
255
10
-23.166498
20
38.581052
30
0
70
32
0
VERTEX
8
0
62
255
10
-24.476785
20
37.763358
30
0
70
32
0
VERTEX
8
0
62
255
10
-25.75824
20
36.901182
30
0
70
32
0
VERTEX
8
0
62
255
10
-27.009355
20
35.995541
30
0
70
32
0
VERTEX
8
0
62
255
10
-28.228656
20
35.047499
30
0
70
32
0
VERTEX
8
0
62
255
10
-28.588815
20
35.476721
30
0
70
32
0
VERTEX
8
0
62
255
10
-27.199775
20
39.293078
30
0
70
32
0
VERTEX
8
0
62
255
10
-37.537994
20
57.058722
30
0
70
32
0
VERTEX
8
0
62
255
10
-49.673467
20
46.875851
30
0
70
32
0
VERTEX
8
0
62
255
10
-33.972937
20
33.60972
30
0
70
32
0
VERTEX
8
0
62
255
10
-29.973354
20
34.314955
30
0
70
32
0
VERTEX
8
0
62
255
10
-29.613194
20
33.885734
30
0
70
32
0
VERTEX
8
0
62
255
10
-30.758562
20
32.849583
30
0
70
32
0
VERTEX
8
0
62
255
10
-31.867699
20
31.774738
30
0
70
32
0
VERTEX
8
0
62
255
10
-32.939299
20
30.662466
30
0
70
32
0
VERTEX
8
0
62
255
10
-33.972099
20
29.514076
30
0
70
32
0
VERTEX
8
0
62
255
10
-34.964884
20
28.330921
30
0
70
32
0
VERTEX
8
0
62
255
10
-35.916483
20
27.114396
30
0
70
32
0
VERTEX
8
0
62
255
10
-36.825776
20
25.865932
30
0
70
32
0
VERTEX
8
0
62
255
10
-37.691692
20
24.587
30
0
70
32
0
VERTEX
8
0
62
255
10
-38.51321
20
23.279108
30
0
70
32
0
VERTEX
8
0
62
255
10
-38.998452
20
23.559262
30
0
70
32
0
VERTEX
8
0
62
255
10
-38.998452
20
27.620545
30
0
70
32
0
VERTEX
8
0
62
255
10
-54.789408
20
40.77891
30
0
70
32
0
VERTEX
8
0
62
255
10
-62.710276
20
27.059564
30
0
70
32
0
VERTEX
8
0
62
255
10
-43.41932
20
19.963377
30
0
70
32
0
VERTEX
8
0
62
255
10
-39.902145
20
21.994019
30
0
70
32
0
VERTEX
8
0
62
255
10
-39.416904
20
21.713865
30
0
70
32
0
VERTEX
8
0
62
255
10
-40.138813
20
20.348463
30
0
70
32
0
VERTEX
8
0
62
255
10
-40.813442
20
18.959092
30
0
70
32
0
VERTEX
8
0
62
255
10
-41.439997
20
17.547389
30
0
70
32
0
VERTEX
8
0
62
255
10
-42.01774
20
16.115017
30
0
70
32
0
VERTEX
8
0
62
255
10
-42.545989
20
14.663663
30
0
70
32
0
VERTEX
8
0
62
255
10
-43.024124
20
13.195037
30
0
70
32
0
VERTEX
8
0
62
255
10
-43.45158
20
11.710868
30
0
70
32
0
VERTEX
8
0
62
255
10
-43.827854
20
10.212905
30
0
70
32
0
VERTEX
8
0
62
255
10
-44.152503
20
8.7029118
30
0
70
32
0
VERTEX
8
0
62
255
10
-44.704299
20
8.8002084
30
0
70
32
0
VERTEX
8
0
62
255
10
-46.09334
20
12.616566
30
0
70
32
0
VERTEX
8
0
62
255
10
-65.432411
20
19.580559
30
0
70
32
0
VERTEX
8
0
62
255
10
-68.1833
20
3.9794954
30
0
70
32
0
VERTEX
8
0
62
255
10
-47.628691
20
3.9091566
30
0
70
32
0
VERTEX
8
0
62
255
10
-45.018149
20
7.02028
30
0
70
32
0
VERTEX
8
0
62
255
10
-44.466353
20
6.9229835
30
0
70
32
0
VERTEX
8
0
62
255
10
-44.67773
20
5.3930176
30
0
70
32
0
VERTEX
8
0
62
255
10
-44.836482
20
3.8566994
30
0
70
32
0
VERTEX
8
0
62
255
10
-44.94242
20
2.3158382
30
0
70
32
0
VERTEX
8
0
62
255
10
-44.99542
20
0.77224929
30
0
70
32
0
VERTEX
8
0
62
255
10
-44.99542
20
-0.77224929
30
0
70
32
0
VERTEX
8
0
62
255
10
-44.94242
20
-2.3158382
30
0
70
32
0
VERTEX
8
0
62
255
10
-44.836482
20
-3.8566994
30
0
70
32
0
VERTEX
8
0
62
255
10
-44.67773
20
-5.3930176
30
0
70
32
0
VERTEX
8
0
62
255
10
-44.466353
20
-6.9229835
30
0
70
32
0
VERTEX
8
0
62
255
10
-45.018149
20
-7.02028
30
0
70
32
0
VERTEX
8
0
62
255
10
-47.628691
20
-3.9091566
30
0
70
32
0
VERTEX
8
0
62
255
10
-68.1833
20
-3.9794954
30
0
70
32
0
VERTEX
8
0
62
255
10
-65.432411
20
-19.580559
30
0
70
32
0
VERTEX
8
0
62
255
10
-46.09334
20
-12.616566
30
0
70
32
0
VERTEX
8
0
62
255
10
-44.704299
20
-8.8002084
30
0
70
32
0
VERTEX
8
0
62
255
10
-44.152503
20
-8.7029118
30
0
70
32
0
VERTEX
8
0
62
255
10
-43.827854
20
-10.212905
30
0
70
32
0
VERTEX
8
0
62
255
10
-43.45158
20
-11.710868
30
0
70
32
0
VERTEX
8
0
62
255
10
-43.024124
20
-13.195037
30
0
70
32
0
VERTEX
8
0
62
255
10
-42.545989
20
-14.663663
30
0
70
32
0
VERTEX
8
0
62
255
10
-42.01774
20
-16.115017
30
0
70
32
0
VERTEX
8
0
62
255
10
-41.439997
20
-17.547389
30
0
70
32
0
VERTEX
8
0
62
255
10
-40.813442
20
-18.959092
30
0
70
32
0
VERTEX
8
0
62
255
10
-40.138813
20
-20.348463
30
0
70
32
0
VERTEX
8
0
62
255
10
-39.416904
20
-21.713865
30
0
70
32
0
VERTEX
8
0
62
255
10
-39.902145
20
-21.994019
30
0
70
32
0
VERTEX
8
0
62
255
10
-43.41932
20
-19.963377
30
0
70
32
0
VERTEX
8
0
62
255
10
-62.710276
20
-27.059564
30
0
70
32
0
VERTEX
8
0
62
255
10
-54.789408
20
-40.77891
30
0
70
32
0
VERTEX
8
0
62
255
10
-38.998452
20
-27.620545
30
0
70
32
0
VERTEX
8
0
62
255
10
-38.998452
20
-23.559262
30
0
70
32
0
VERTEX
8
0
62
255
10
-38.51321
20
-23.279108
30
0
70
32
0
VERTEX
8
0
62
255
10
-37.691692
20
-24.587
30
0
70
32
0
VERTEX
8
0
62
255
10
-36.825776
20
-25.865932
30
0
70
32
0
VERTEX
8
0
62
255
10
-35.916483
20
-27.114396
30
0
70
32
0
VERTEX
8
0
62
255
10
-34.964884
20
-28.330921
30
0
70
32
0
VERTEX
8
0
62
255
10
-33.972099
20
-29.514076
30
0
70
32
0
VERTEX
8
0
62
255
10
-32.939299
20
-30.662466
30
0
70
32
0
VERTEX
8
0
62
255
10
-31.867699
20
-31.774738
30
0
70
32
0
VERTEX
8
0
62
255
10
-30.758562
20
-32.849583
30
0
70
32
0
VERTEX
8
0
62
255
10
-29.613194
20
-33.885734
30
0
70
32
0
VERTEX
8
0
62
255
10
-29.973354
20
-34.314955
30
0
70
32
0
VERTEX
8
0
62
255
10
-33.972937
20
-33.60972
30
0
70
32
0
VERTEX
8
0
62
255
10
-49.673467
20
-46.875851
30
0
70
32
0
VERTEX
8
0
62
255
10
-37.537994
20
-57.058722
30
0
70
32
0
VERTEX
8
0
62
255
10
-27.199775
20
-39.293078
30
0
70
32
0
VERTEX
8
0
62
255
10
-28.588815
20
-35.476721
30
0
70
32
0
VERTEX
8
0
62
255
10
-28.228656
20
-35.047499
30
0
70
32
0
VERTEX
8
0
62
255
10
-27.009355
20
-35.995541
30
0
70
32
0
VERTEX
8
0
62
255
10
-25.75824
20
-36.901182
30
0
70
32
0
VERTEX
8
0
62
255
10
-24.476785
20
-37.763358
30
0
70
32
0
VERTEX
8
0
62
255
10
-23.166498
20
-38.581052
30
0
70
32
0
VERTEX
8
0
62
255
10
-21.828923
20
-39.353302
30
0
70
32
0
VERTEX
8
0
62
255
10
-20.465635
20
-40.079196
30
0
70
32
0
VERTEX
8
0
62
255
10
-19.078241
20
-40.757882
30
0
70
32
0
VERTEX
8
0
62
255
10
-17.668375
20
-41.388558
30
0
70
32
0
VERTEX
8
0
62
255
10
-16.237697
20
-41.970483
30
0
70
32
0
VERTEX
8
0
62
255
10
-16.429334
20
-42.497001
30
0
70
32
0
VERTEX
8
0
62
255
10
-20.428917
20
-43.202235
30
0
70
32
0
VERTEX
8
0
62
255
10
-30.645306
20
-61.038217
30
0
70
32
0
VERTEX
8
0
62
255
10
-15.758944
20
-66.45641
30
0
70
32
0
VERTEX
8
0
62
255
10
-12.120403
20
-46.226287
30
0
70
32
0
VERTEX
8
0
62
255
10
-14.730946
20
-43.115163
30
0
70
32
0
VERTEX
8
0
62
255
10
-14.539309
20
-42.588645
30
0
70
32
0
VERTEX
8
0
62
255
10
-13.069292
20
-43.062487
30
0
70
32
0
VERTEX
8
0
62
255
10
-11.583881
20
-43.485606
30
0
70
32
0
VERTEX
8
0
62
255
10
-10.084825
20
-43.857503
30
0
70
32
0
VERTEX
8
0
62
255
10
-8.5738898
20
-44.177739
30
0
70
32
0
VERTEX
8
0
62
255
10
-7.0528556
20
-44.445938
30
0
70
32
0
VERTEX
8
0
62
255
10
-5.5235139
20
-44.661785
30
0
70
32
0
VERTEX
8
0
62
255
10
-3.9876659
20
-44.825024
30
0
70
32
0
VERTEX
8
0
62
255
10
-2.4471209
20
-44.935463
30
0
70
32
0
VERTEX
8
0
62
255
10
-0.90369333
20
-44.992972
30
0
70
32
0
VERTEX
8
0
62
255
10
-0.90369333
20
-45.553281
30
0
70
32
0
VERTEX
8
0
62
255
10
-4.4208678
20
-47.583922
30
0
70
32
0
VERTEX
8
0
62
255
10
-7.9208678
20
-67.838474
30
0
70
32
0
VERTEX
8
0
62
255
10
7.9208678
20
-67.838474
30
0
70
32
0
VERTEX
8
0
62
255
10
4.4208678
20
-47.583922
30
0
70
32
0
VERTEX
8
0
62
255
10
0.90369333
20
-45.553281
30
0
70
32
0
VERTEX
8
0
62
255
10
0.90369333
20
-44.992972
30
0
70
32
0
VERTEX
8
0
62
255
10
2.4471209
20
-44.935463
30
0
70
32
0
VERTEX
8
0
62
255
10
3.9876659
20
-44.825024
30
0
70
32
0
VERTEX
8
0
62
255
10
5.5235139
20
-44.661785
30
0
70
32
0
VERTEX
8
0
62
255
10
7.0528556
20
-44.445938
30
0
70
32
0
VERTEX
8
0
62
255
10
8.5738898
20
-44.177739
30
0
70
32
0
VERTEX
8
0
62
255
10
10.084825
20
-43.857503
30
0
70
32
0
VERTEX
8
0
62
255
10
11.583881
20
-43.485606
30
0
70
32
0
VERTEX
8
0
62
255
10
13.069292
20
-43.062487
30
0
70
32
0
VERTEX
8
0
62
255
10
14.539309
20
-42.588645
30
0
70
32
0
VERTEX
8
0
62
255
10
14.730946
20
-43.115163
30
0
70
32
0
VERTEX
8
0
62
255
10
12.120403
20
-46.226287
30
0
70
32
0
VERTEX
8
0
62
255
10
15.758944
20
-66.45641
30
0
70
32
0
VERTEX
8
0
62
255
10
30.645306
20
-61.038217
30
0
70
32
0
VERTEX
8
0
62
255
10
20.428917
20
-43.202235
30
0
70
32
0
VERTEX
8
0
62
255
10
16.429334
20
-42.497001
30
0
70
32
0
VERTEX
8
0
62
255
10
16.237697
20
-41.970483
30
0
70
32
0
VERTEX
8
0
62
255
10
17.668375
20
-41.388558
30
0
70
32
0
VERTEX
8
0
62
255
10
19.078241
20
-40.757882
30
0
70
32
0
VERTEX
8
0
62
255
10
20.465635
20
-40.079196
30
0
70
32
0
VERTEX
8
0
62
255
10
21.828923
20
-39.353302
30
0
70
32
0
VERTEX
8
0
62
255
10
23.166498
20
-38.581052
30
0
70
32
0
VERTEX
8
0
62
255
10
24.476785
20
-37.763358
30
0
70
32
0
VERTEX
8
0
62
255
10
25.75824
20
-36.901182
30
0
70
32
0
VERTEX
8
0
62
255
10
27.009355
20
-35.995541
30
0
70
32
0
VERTEX
8
0
62
255
10
28.228656
20
-35.047499
30
0
70
32
0
VERTEX
8
0
62
255
10
28.588815
20
-35.476721
30
0
70
32
0
VERTEX
8
0
62
255
10
27.199775
20
-39.293078
30
0
70
32
0
VERTEX
8
0
62
255
10
37.537994
20
-57.058722
30
0
70
32
0
VERTEX
8
0
62
255
10
49.673467
20
-46.875851
30
0
70
32
0
VERTEX
8
0
62
255
10
33.972937
20
-33.60972
30
0
70
32
0
VERTEX
8
0
62
255
10
29.973354
20
-34.314955
30
0
70
32
0
VERTEX
8
0
62
255
10
29.613194
20
-33.885734
30
0
70
32
0
VERTEX
8
0
62
255
10
30.758562
20
-32.849583
30
0
70
32
0
VERTEX
8
0
62
255
10
31.867699
20
-31.774738
30
0
70
32
0
VERTEX
8
0
62
255
10
32.939299
20
-30.662466
30
0
70
32
0
VERTEX
8
0
62
255
10
33.972099
20
-29.514076
30
0
70
32
0
VERTEX
8
0
62
255
10
34.964884
20
-28.330921
30
0
70
32
0
VERTEX
8
0
62
255
10
35.916483
20
-27.114396
30
0
70
32
0
VERTEX
8
0
62
255
10
36.825776
20
-25.865932
30
0
70
32
0
VERTEX
8
0
62
255
10
37.691692
20
-24.587
30
0
70
32
0
VERTEX
8
0
62
255
10
38.51321
20
-23.279108
30
0
70
32
0
VERTEX
8
0
62
255
10
38.998452
20
-23.559262
30
0
70
32
0
VERTEX
8
0
62
255
10
38.998452
20
-27.620545
30
0
70
32
0
VERTEX
8
0
62
255
10
54.789408
20
-40.77891
30
0
70
32
0
VERTEX
8
0
62
255
10
62.710276
20
-27.059564
30
0
70
32
0
VERTEX
8
0
62
255
10
43.41932
20
-19.963377
30
0
70
32
0
VERTEX
8
0
62
255
10
39.902145
20
-21.994019
30
0
70
32
0
VERTEX
8
0
62
255
10
39.416904
20
-21.713865
30
0
70
32
0
VERTEX
8
0
62
255
10
40.138813
20
-20.348463
30
0
70
32
0
VERTEX
8
0
62
255
10
40.813442
20
-18.959092
30
0
70
32
0
VERTEX
8
0
62
255
10
41.439997
20
-17.547389
30
0
70
32
0
VERTEX
8
0
62
255
10
42.01774
20
-16.115017
30
0
70
32
0
VERTEX
8
0
62
255
10
42.545989
20
-14.663663
30
0
70
32
0
VERTEX
8
0
62
255
10
43.024124
20
-13.195037
30
0
70
32
0
VERTEX
8
0
62
255
10
43.45158
20
-11.710868
30
0
70
32
0
VERTEX
8
0
62
255
10
43.827854
20
-10.212905
30
0
70
32
0
VERTEX
8
0
62
255
10
44.152503
20
-8.7029118
30
0
70
32
0
VERTEX
8
0
62
255
10
44.704299
20
-8.8002084
30
0
70
32
0
VERTEX
8
0
62
255
10
46.09334
20
-12.616566
30
0
70
32
0
VERTEX
8
0
62
255
10
65.432411
20
-19.580559
30
0
70
32
0
VERTEX
8
0
62
255
10
68.1833
20
-3.9794954
30
0
70
32
0
VERTEX
8
0
62
255
10
47.628691
20
-3.9091566
30
0
70
32
0
VERTEX
8
0
62
255
10
45.018149
20
-7.02028
30
0
70
32
0
VERTEX
8
0
62
255
10
44.466353
20
-6.9229835
30
0
70
32
0
VERTEX
8
0
62
255
10
44.67773
20
-5.3930176
30
0
70
32
0
VERTEX
8
0
62
255
10
44.836482
20
-3.8566994
30
0
70
32
0
VERTEX
8
0
62
255
10
44.94242
20
-2.3158382
30
0
70
32
0
VERTEX
8
0
62
255
10
44.99542
20
-0.77224929
30
0
70
32
0
VERTEX
8
0
62
255
10
44.99542
20
0.77224929
30
0
70
32
0
VERTEX
8
0
62
255
10
44.94242
20
2.3158382
30
0
70
32
0
VERTEX
8
0
62
255
10
44.836482
20
3.8566994
30
0
70
32
0
VERTEX
8
0
62
255
10
44.67773
20
5.3930176
30
0
70
32
0
VERTEX
8
0
62
255
10
44.466353
20
6.9229835
30
0
70
32
0
VERTEX
8
0
62
255
10
45.018149
20
7.02028
30
0
70
32
0
VERTEX
8
0
62
255
10
47.628691
20
3.9091566
30
0
70
32
0
VERTEX
8
0
62
255
10
68.1833
20
3.9794954
30
0
70
32
0
VERTEX
8
0
62
255
10
65.432411
20
19.580559
30
0
70
32
0
VERTEX
8
0
62
255
10
46.09334
20
12.616566
30
0
70
32
0
VERTEX
8
0
62
255
10
44.704299
20
8.8002084
30
0
70
32
0
VERTEX
8
0
62
255
10
44.152503
20
8.7029118
30
0
70
32
0
VERTEX
8
0
62
255
10
43.827854
20
10.212905
30
0
70
32
0
VERTEX
8
0
62
255
10
43.45158
20
11.710868
30
0
70
32
0
VERTEX
8
0
62
255
10
43.024124
20
13.195037
30
0
70
32
0
VERTEX
8
0
62
255
10
42.545989
20
14.663663
30
0
70
32
0
VERTEX
8
0
62
255
10
42.01774
20
16.115017
30
0
70
32
0
VERTEX
8
0
62
255
10
41.439997
20
17.547389
30
0
70
32
0
VERTEX
8
0
62
255
10
40.813442
20
18.959092
30
0
70
32
0
VERTEX
8
0
62
255
10
40.138813
20
20.348463
30
0
70
32
0
VERTEX
8
0
62
255
10
39.416904
20
21.713865
30
0
70
32
0
VERTEX
8
0
62
255
10
39.902145
20
21.994019
30
0
70
32
0
VERTEX
8
0
62
255
10
43.41932
20
19.963377
30
0
70
32
0
VERTEX
8
0
62
255
10
62.710276
20
27.059564
30
0
70
32
0
VERTEX
8
0
62
255
10
54.789408
20
40.77891
30
0
70
32
0
VERTEX
8
0
62
255
10
38.998452
20
27.620545
30
0
70
32
0
VERTEX
8
0
62
255
10
38.998452
20
23.559262
30
0
70
32
0
VERTEX
8
0
62
255
10
38.51321
20
23.279108
30
0
70
32
0
VERTEX
8
0
62
255
10
37.691692
20
24.587
30
0
70
32
0
VERTEX
8
0
62
255
10
36.825776
20
25.865932
30
0
70
32
0
VERTEX
8
0
62
255
10
35.916483
20
27.114396
30
0
70
32
0
VERTEX
8
0
62
255
10
34.964884
20
28.330921
30
0
70
32
0
VERTEX
8
0
62
255
10
33.972099
20
29.514076
30
0
70
32
0
VERTEX
8
0
62
255
10
32.939299
20
30.662466
30
0
70
32
0
VERTEX
8
0
62
255
10
31.867699
20
31.774738
30
0
70
32
0
VERTEX
8
0
62
255
10
30.758562
20
32.849583
30
0
70
32
0
VERTEX
8
0
62
255
10
29.613194
20
33.885734
30
0
70
32
0
VERTEX
8
0
62
255
10
29.973354
20
34.314955
30
0
70
32
0
VERTEX
8
0
62
255
10
33.972937
20
33.60972
30
0
70
32
0
VERTEX
8
0
62
255
10
49.673467
20
46.875851
30
0
70
32
0
VERTEX
8
0
62
255
10
37.537994
20
57.058722
30
0
70
32
0
VERTEX
8
0
62
255
10
27.199775
20
39.293078
30
0
70
32
0
VERTEX
8
0
62
255
10
28.588815
20
35.476721
30
0
70
32
0
VERTEX
8
0
62
255
10
28.228656
20
35.047499
30
0
70
32
0
VERTEX
8
0
62
255
10
27.009355
20
35.995541
30
0
70
32
0
VERTEX
8
0
62
255
10
25.75824
20
36.901182
30
0
70
32
0
VERTEX
8
0
62
255
10
24.476785
20
37.763358
30
0
70
32
0
VERTEX
8
0
62
255
10
23.166498
20
38.581052
30
0
70
32
0
VERTEX
8
0
62
255
10
21.828923
20
39.353302
30
0
70
32
0
VERTEX
8
0
62
255
10
20.465635
20
40.079196
30
0
70
32
0
VERTEX
8
0
62
255
10
19.078241
20
40.757882
30
0
70
32
0
VERTEX
8
0
62
255
10
17.668375
20
41.388558
30
0
70
32
0
VERTEX
8
0
62
255
10
16.237697
20
41.970483
30
0
70
32
0
VERTEX
8
0
62
255
10
16.429334
20
42.497001
30
0
70
32
0
VERTEX
8
0
62
255
10
20.428917
20
43.202235
30
0
70
32
0
VERTEX
8
0
62
255
10
30.645306
20
61.038217
30
0
70
32
0
VERTEX
8
0
62
255
10
15.758944
20
66.45641
30
0
70
32
0
VERTEX
8
0
62
255
10
12.120403
20
46.226287
30
0
70
32
0
VERTEX
8
0
62
255
10
14.730946
20
43.115163
30
0
70
32
0
VERTEX
8
0
62
255
10
14.539309
20
42.588645
30
0
70
32
0
VERTEX
8
0
62
255
10
13.069292
20
43.062487
30
0
70
32
0
VERTEX
8
0
62
255
10
11.583881
20
43.485606
30
0
70
32
0
VERTEX
8
0
62
255
10
10.084825
20
43.857503
30
0
70
32
0
VERTEX
8
0
62
255
10
8.5738898
20
44.177739
30
0
70
32
0
VERTEX
8
0
62
255
10
7.0528556
20
44.445938
30
0
70
32
0
VERTEX
8
0
62
255
10
5.5235139
20
44.661785
30
0
70
32
0
VERTEX
8
0
62
255
10
3.9876659
20
44.825024
30
0
70
32
0
VERTEX
8
0
62
255
10
2.4471209
20
44.935463
30
0
70
32
0
VERTEX
8
0
62
255
10
0.90369333
20
44.992972
30
0
70
32
0
VERTEX
8
0
62
255
10
0.90369333
20
45.553281
30
0
70
32
0
SEQEND
8
0
0
POLYLINE
8
0
62
255
66
1
10
0
20
0
30
0
70
8
0
VERTEX
8
0
62
255
10
42.324677
20
0
30
0
70
32
0
VERTEX
8
0
62
255
10
42.315394
20
0.88638115
30
0
70
32
0
VERTEX
8
0
62
255
10
42.287551
20
1.7723735
30
0
70
32
0
VERTEX
8
0
62
255
10
42.241158
20
2.6575884
30
0
70
32
0
VERTEX
8
0
62
255
10
42.176238
20
3.5416377
30
0
70
32
0
VERTEX
8
0
62
255
10
42.092818
20
4.4241334
30
0
70
32
0
VERTEX
8
0
62
255
10
41.990934
20
5.3046886
30
0
70
32
0
VERTEX
8
0
62
255
10
41.870632
20
6.1829169
30
0
70
32
0
VERTEX
8
0
62
255
10
41.731963
20
7.0584333
30
0
70
32
0
VERTEX
8
0
62
255
10
41.57499
20
7.9308535
30
0
70
32
0
VERTEX
8
0
62
255
10
41.399781
20
8.7997951
30
0
70
32
0
VERTEX
8
0
62
255
10
41.206412
20
9.6648767
30
0
70
32
0
VERTEX
8
0
62
255
10
40.994969
20
10.525719
30
0
70
32
0
VERTEX
8
0
62
255
10
40.765544
20
11.381944
30
0
70
32
0
VERTEX
8
0
62
255
10
40.518238
20
12.233177
30
0
70
32
0
VERTEX
8
0
62
255
10
40.253159
20
13.079044
30
0
70
32
0
VERTEX
8
0
62
255
10
39.970424
20
13.919174
30
0
70
32
0
VERTEX
8
0
62
255
10
39.670157
20
14.753199
30
0
70
32
0
VERTEX
8
0
62
255
10
39.352489
20
15.580753
30
0
70
32
0
VERTEX
8
0
62
255
10
39.01756
20
16.401472
30
0
70
32
0
VERTEX
8
0
62
255
10
38.665516
20
17.214997
30
0
70
32
0
VERTEX
8
0
62
255
10
38.296512
20
18.020971
30
0
70
32
0
VERTEX
8
0
62
255
10
37.910711
20
18.81904
30
0
70
32
0
VERTEX
8
0
62
255
10
37.50828
20
19.608855
30
0
70
32
0
VERTEX
8
0
62
255
10
37.089397
20
20.390068
30
0
70
32
0
VERTEX
8
0
62
255
10
36.654245
20
21.162338
30
0
70
32
0
VERTEX
8
0
62
255
10
36.203016
20
21.925326
30
0
70
32
0
VERTEX
8
0
62
255
10
35.735906
20
22.678696
30
0
70
32
0
VERTEX
8
0
62
255
10
35.253122
20
23.422118
30
0
70
32
0
VERTEX
8
0
62
255
10
34.754875
20
24.155267
30
0
70
32
0
VERTEX
8
0
62
255
10
34.241383
20
24.877821
30
0
70
32
0
VERTEX
8
0
62
255
10
33.712871
20
25.589462
30
0
70
32
0
VERTEX
8
0
62
255
10
33.169572
20
26.289879
30
0
70
32
0
VERTEX
8
0
62
255
10
32.611724
20
26.978764
30
0
70
32
0
VERTEX
8
0
62
255
10
32.039571
20
27.655816
30
0
70
32
0
VERTEX
8
0
62
255
10
31.453364
20
28.320736
30
0
70
32
0
VERTEX
8
0
62
255
10
30.853361
20
28.973235
30
0
70
32
0
VERTEX
8
0
62
255
10
30.239825
20
29.613025
30
0
70
32
0
VERTEX
8
0
62
255
10
29.613025
20
30.239825
30
0
70
32
0
VERTEX
8
0
62
255
10
28.973235
20
30.853361
30
0
70
32
0
VERTEX
8
0
62
255
10
28.320736
20
31.453364
30
0
70
32
0
VERTEX
8
0
62
255
10
27.655816
20
32.039571
30
0
70
32
0
VERTEX
8
0
62
255
10
26.978764
20
32.611724
30
0
70
32
0
VERTEX
8
0
62
255
10
26.289879
20
33.169572
30
0
70
32
0
VERTEX
8
0
62
255
10
25.589462
20
33.712871
30
0
70
32
0
VERTEX
8
0
62
255
10
24.877821
20
34.241383
30
0
70
32
0
VERTEX
8
0
62
255
10
24.155267
20
34.754875
30
0
70
32
0
VERTEX
8
0
62
255
10
23.422118
20
35.253122
30
0
70
32
0
VERTEX
8
0
62
255
10
22.678696
20
35.735906
30
0
70
32
0
VERTEX
8
0
62
255
10
21.925326
20
36.203016
30
0
70
32
0
VERTEX
8
0
62
255
10
21.162338
20
36.654245
30
0
70
32
0
VERTEX
8
0
62
255
10
20.390068
20
37.089397
30
0
70
32
0
VERTEX
8
0
62
255
10
19.608855
20
37.50828
30
0
70
32
0
VERTEX
8
0
62
255
10
18.81904
20
37.910711
30
0
70
32
0
VERTEX
8
0
62
255
10
18.020971
20
38.296512
30
0
70
32
0
VERTEX
8
0
62
255
10
17.214997
20
38.665516
30
0
70
32
0
VERTEX
8
0
62
255
10
16.401472
20
39.01756
30
0
70
32
0
VERTEX
8
0
62
255
10
15.580753
20
39.352489
30
0
70
32
0
VERTEX
8
0
62
255
10
14.753199
20
39.670157
30
0
70
32
0
VERTEX
8
0
62
255
10
13.919174
20
39.970424
30
0
70
32
0
VERTEX
8
0
62
255
10
13.079044
20
40.253159
30
0
70
32
0
VERTEX
8
0
62
255
10
12.233177
20
40.518238
30
0
70
32
0
VERTEX
8
0
62
255
10
11.381944
20
40.765544
30
0
70
32
0
VERTEX
8
0
62
255
10
10.525719
20
40.994969
30
0
70
32
0
VERTEX
8
0
62
255
10
9.6648767
20
41.206412
30
0
70
32
0
VERTEX
8
0
62
255
10
8.7997951
20
41.399781
30
0
70
32
0
VERTEX
8
0
62
255
10
7.9308535
20
41.57499
30
0
70
32
0
VERTEX
8
0
62
255
10
7.0584333
20
41.731963
30
0
70
32
0
VERTEX
8
0
62
255
10
6.1829169
20
41.870632
30
0
70
32
0
VERTEX
8
0
62
255
10
5.3046886
20
41.990934
30
0
70
32
0
VERTEX
8
0
62
255
10
4.4241334
20
42.092818
30
0
70
32
0
VERTEX
8
0
62
255
10
3.5416377
20
42.176238
30
0
70
32
0
VERTEX
8
0
62
255
10
2.6575884
20
42.241158
30
0
70
32
0
VERTEX
8
0
62
255
10
1.7723735
20
42.287551
30
0
70
32
0
VERTEX
8
0
62
255
10
0.88638115
20
42.315394
30
0
70
32
0
VERTEX
8
0
62
255
10
1.1989605e-14
20
42.324677
30
0
70
32
0
VERTEX
8
0
62
255
10
-0.88638115
20
42.315394
30
0
70
32
0
VERTEX
8
0
62
255
10
-1.7723735
20
42.287551
30
0
70
32
0
VERTEX
8
0
62
255
10
-2.6575884
20
42.241158
30
0
70
32
0
VERTEX
8
0
62
255
10
-3.5416377
20
42.176238
30
0
70
32
0
VERTEX
8
0
62
255
10
-4.4241334
20
42.092818
30
0
70
32
0
VERTEX
8
0
62
255
10
-5.3046886
20
41.990934
30
0
70
32
0
VERTEX
8
0
62
255
10
-6.1829169
20
41.870632
30
0
70
32
0
VERTEX
8
0
62
255
10
-7.0584333
20
41.731963
30
0
70
32
0
VERTEX
8
0
62
255
10
-7.9308535
20
41.57499
30
0
70
32
0
VERTEX
8
0
62
255
10
-8.7997951
20
41.399781
30
0
70
32
0
VERTEX
8
0
62
255
10
-9.6648767
20
41.206412
30
0
70
32
0
VERTEX
8
0
62
255
10
-10.525719
20
40.994969
30
0
70
32
0
VERTEX
8
0
62
255
10
-11.381944
20
40.765544
30
0
70
32
0
VERTEX
8
0
62
255
10
-12.233177
20
40.518238
30
0
70
32
0
VERTEX
8
0
62
255
10
-13.079044
20
40.253159
30
0
70
32
0
VERTEX
8
0
62
255
10
-13.919174
20
39.970424
30
0
70
32
0
VERTEX
8
0
62
255
10
-14.753199
20
39.670157
30
0
70
32
0
VERTEX
8
0
62
255
10
-15.580753
20
39.352489
30
0
70
32
0
VERTEX
8
0
62
255
10
-16.401472
20
39.01756
30
0
70
32
0
VERTEX
8
0
62
255
10
-17.214997
20
38.665516
30
0
70
32
0
VERTEX
8
0
62
255
10
-18.020971
20
38.296512
30
0
70
32
0
VERTEX
8
0
62
255
10
-18.81904
20
37.910711
30
0
70
32
0
VERTEX
8
0
62
255
10
-19.608855
20
37.50828
30
0
70
32
0
VERTEX
8
0
62
255
10
-20.390068
20
37.089397
30
0
70
32
0
VERTEX
8
0
62
255
10
-21.162338
20
36.654245
30
0
70
32
0
VERTEX
8
0
62
255
10
-21.925326
20
36.203016
30
0
70
32
0
VERTEX
8
0
62
255
10
-22.678696
20
35.735906
30
0
70
32
0
VERTEX
8
0
62
255
10
-23.422118
20
35.253122
30
0
70
32
0
VERTEX
8
0
62
255
10
-24.155267
20
34.754875
30
0
70
32
0
VERTEX
8
0
62
255
10
-24.877821
20
34.241383
30
0
70
32
0
VERTEX
8
0
62
255
10
-25.589462
20
33.712871
30
0
70
32
0
VERTEX
8
0
62
255
10
-26.289879
20
33.169572
30
0
70
32
0
VERTEX
8
0
62
255
10
-26.978764
20
32.611724
30
0
70
32
0
VERTEX
8
0
62
255
10
-27.655816
20
32.039571
30
0
70
32
0
VERTEX
8
0
62
255
10
-28.320736
20
31.453364
30
0
70
32
0
VERTEX
8
0
62
255
10
-28.973235
20
30.853361
30
0
70
32
0
VERTEX
8
0
62
255
10
-29.613025
20
30.239825
30
0
70
32
0
VERTEX
8
0
62
255
10
-30.239825
20
29.613025
30
0
70
32
0
VERTEX
8
0
62
255
10
-30.853361
20
28.973235
30
0
70
32
0
VERTEX
8
0
62
255
10
-31.453364
20
28.320736
30
0
70
32
0
VERTEX
8
0
62
255
10
-32.039571
20
27.655816
30
0
70
32
0
VERTEX
8
0
62
255
10
-32.611724
20
26.978764
30
0
70
32
0
VERTEX
8
0
62
255
10
-33.169572
20
26.289879
30
0
70
32
0
VERTEX
8
0
62
255
10
-33.712871
20
25.589462
30
0
70
32
0
VERTEX
8
0
62
255
10
-34.241383
20
24.877821
30
0
70
32
0
VERTEX
8
0
62
255
10
-34.754875
20
24.155267
30
0
70
32
0
VERTEX
8
0
62
255
10
-35.253122
20
23.422118
30
0
70
32
0
VERTEX
8
0
62
255
10
-35.735906
20
22.678696
30
0
70
32
0
VERTEX
8
0
62
255
10
-36.203016
20
21.925326
30
0
70
32
0
VERTEX
8
0
62
255
10
-36.654245
20
21.162338
30
0
70
32
0
VERTEX
8
0
62
255
10
-37.089397
20
20.390068
30
0
70
32
0
VERTEX
8
0
62
255
10
-37.50828
20
19.608855
30
0
70
32
0
VERTEX
8
0
62
255
10
-37.910711
20
18.81904
30
0
70
32
0
VERTEX
8
0
62
255
10
-38.296512
20
18.020971
30
0
70
32
0
VERTEX
8
0
62
255
10
-38.665516
20
17.214997
30
0
70
32
0
VERTEX
8
0
62
255
10
-39.01756
20
16.401472
30
0
70
32
0
VERTEX
8
0
62
255
10
-39.352489
20
15.580753
30
0
70
32
0
VERTEX
8
0
62
255
10
-39.670157
20
14.753199
30
0
70
32
0
VERTEX
8
0
62
255
10
-39.970424
20
13.919174
30
0
70
32
0
VERTEX
8
0
62
255
10
-40.253159
20
13.079044
30
0
70
32
0
VERTEX
8
0
62
255
10
-40.518238
20
12.233177
30
0
70
32
0
VERTEX
8
0
62
255
10
-40.765544
20
11.381944
30
0
70
32
0
VERTEX
8
0
62
255
10
-40.994969
20
10.525719
30
0
70
32
0
VERTEX
8
0
62
255
10
-41.206412
20
9.6648767
30
0
70
32
0
VERTEX
8
0
62
255
10
-41.399781
20
8.7997951
30
0
70
32
0
VERTEX
8
0
62
255
10
-41.57499
20
7.9308535
30
0
70
32
0
VERTEX
8
0
62
255
10
-41.731963
20
7.0584333
30
0
70
32
0
VERTEX
8
0
62
255
10
-41.870632
20
6.1829169
30
0
70
32
0
VERTEX
8
0
62
255
10
-41.990934
20
5.3046886
30
0
70
32
0
VERTEX
8
0
62
255
10
-42.092818
20
4.4241334
30
0
70
32
0
VERTEX
8
0
62
255
10
-42.176238
20
3.5416377
30
0
70
32
0
VERTEX
8
0
62
255
10
-42.241158
20
2.6575884
30
0
70
32
0
VERTEX
8
0
62
255
10
-42.287551
20
1.7723735
30
0
70
32
0
VERTEX
8
0
62
255
10
-42.315394
20
0.88638115
30
0
70
32
0
VERTEX
8
0
62
255
10
-42.324677
20
5.183278e-15
30
0
70
32
0
VERTEX
8
0
62
255
10
-42.315394
20
-0.88638115
30
0
70
32
0
VERTEX
8
0
62
255
10
-42.287551
20
-1.7723735
30
0
70
32
0
VERTEX
8
0
62
255
10
-42.241158
20
-2.6575884
30
0
70
32
0
VERTEX
8
0
62
255
10
-42.176238
20
-3.5416377
30
0
70
32
0
VERTEX
8
0
62
255
10
-42.092818
20
-4.4241334
30
0
70
32
0
VERTEX
8
0
62
255
10
-41.990934
20
-5.3046886
30
0
70
32
0
VERTEX
8
0
62
255
10
-41.870632
20
-6.1829169
30
0
70
32
0
VERTEX
8
0
62
255
10
-41.731963
20
-7.0584333
30
0
70
32
0
VERTEX
8
0
62
255
10
-41.57499
20
-7.9308535
30
0
70
32
0
VERTEX
8
0
62
255
10
-41.399781
20
-8.7997951
30
0
70
32
0
VERTEX
8
0
62
255
10
-41.206412
20
-9.6648767
30
0
70
32
0
VERTEX
8
0
62
255
10
-40.994969
20
-10.525719
30
0
70
32
0
VERTEX
8
0
62
255
10
-40.765544
20
-11.381944
30
0
70
32
0
VERTEX
8
0
62
255
10
-40.518238
20
-12.233177
30
0
70
32
0
VERTEX
8
0
62
255
10
-40.253159
20
-13.079044
30
0
70
32
0
VERTEX
8
0
62
255
10
-39.970424
20
-13.919174
30
0
70
32
0
VERTEX
8
0
62
255
10
-39.670157
20
-14.753199
30
0
70
32
0
VERTEX
8
0
62
255
10
-39.352489
20
-15.580753
30
0
70
32
0
VERTEX
8
0
62
255
10
-39.01756
20
-16.401472
30
0
70
32
0
VERTEX
8
0
62
255
10
-38.665516
20
-17.214997
30
0
70
32
0
VERTEX
8
0
62
255
10
-38.296512
20
-18.020971
30
0
70
32
0
VERTEX
8
0
62
255
10
-37.910711
20
-18.81904
30
0
70
32
0
VERTEX
8
0
62
255
10
-37.50828
20
-19.608855
30
0
70
32
0
VERTEX
8
0
62
255
10
-37.089397
20
-20.390068
30
0
70
32
0
VERTEX
8
0
62
255
10
-36.654245
20
-21.162338
30
0
70
32
0
VERTEX
8
0
62
255
10
-36.203016
20
-21.925326
30
0
70
32
0
VERTEX
8
0
62
255
10
-35.735906
20
-22.678696
30
0
70
32
0
VERTEX
8
0
62
255
10
-35.253122
20
-23.422118
30
0
70
32
0
VERTEX
8
0
62
255
10
-34.754875
20
-24.155267
30
0
70
32
0
VERTEX
8
0
62
255
10
-34.241383
20
-24.877821
30
0
70
32
0
VERTEX
8
0
62
255
10
-33.712871
20
-25.589462
30
0
70
32
0
VERTEX
8
0
62
255
10
-33.169572
20
-26.289879
30
0
70
32
0
VERTEX
8
0
62
255
10
-32.611724
20
-26.978764
30
0
70
32
0
VERTEX
8
0
62
255
10
-32.039571
20
-27.655816
30
0
70
32
0
VERTEX
8
0
62
255
10
-31.453364
20
-28.320736
30
0
70
32
0
VERTEX
8
0
62
255
10
-30.853361
20
-28.973235
30
0
70
32
0
VERTEX
8
0
62
255
10
-30.239825
20
-29.613025
30
0
70
32
0
VERTEX
8
0
62
255
10
-29.613025
20
-30.239825
30
0
70
32
0
VERTEX
8
0
62
255
10
-28.973235
20
-30.853361
30
0
70
32
0
VERTEX
8
0
62
255
10
-28.320736
20
-31.453364
30
0
70
32
0
VERTEX
8
0
62
255
10
-27.655816
20
-32.039571
30
0
70
32
0
VERTEX
8
0
62
255
10
-26.978764
20
-32.611724
30
0
70
32
0
VERTEX
8
0
62
255
10
-26.289879
20
-33.169572
30
0
70
32
0
VERTEX
8
0
62
255
10
-25.589462
20
-33.712871
30
0
70
32
0
VERTEX
8
0
62
255
10
-24.877821
20
-34.241383
30
0
70
32
0
VERTEX
8
0
62
255
10
-24.155267
20
-34.754875
30
0
70
32
0
VERTEX
8
0
62
255
10
-23.422118
20
-35.253122
30
0
70
32
0
VERTEX
8
0
62
255
10
-22.678696
20
-35.735906
30
0
70
32
0
VERTEX
8
0
62
255
10
-21.925326
20
-36.203016
30
0
70
32
0
VERTEX
8
0
62
255
10
-21.162338
20
-36.654245
30
0
70
32
0
VERTEX
8
0
62
255
10
-20.390068
20
-37.089397
30
0
70
32
0
VERTEX
8
0
62
255
10
-19.608855
20
-37.50828
30
0
70
32
0
VERTEX
8
0
62
255
10
-18.81904
20
-37.910711
30
0
70
32
0
VERTEX
8
0
62
255
10
-18.020971
20
-38.296512
30
0
70
32
0
VERTEX
8
0
62
255
10
-17.214997
20
-38.665516
30
0
70
32
0
VERTEX
8
0
62
255
10
-16.401472
20
-39.01756
30
0
70
32
0
VERTEX
8
0
62
255
10
-15.580753
20
-39.352489
30
0
70
32
0
VERTEX
8
0
62
255
10
-14.753199
20
-39.670157
30
0
70
32
0
VERTEX
8
0
62
255
10
-13.919174
20
-39.970424
30
0
70
32
0
VERTEX
8
0
62
255
10
-13.079044
20
-40.253159
30
0
70
32
0
VERTEX
8
0
62
255
10
-12.233177
20
-40.518238
30
0
70
32
0
VERTEX
8
0
62
255
10
-11.381944
20
-40.765544
30
0
70
32
0
VERTEX
8
0
62
255
10
-10.525719
20
-40.994969
30
0
70
32
0
VERTEX
8
0
62
255
10
-9.6648767
20
-41.206412
30
0
70
32
0
VERTEX
8
0
62
255
10
-8.7997951
20
-41.399781
30
0
70
32
0
VERTEX
8
0
62
255
10
-7.9308535
20
-41.57499
30
0
70
32
0
VERTEX
8
0
62
255
10
-7.0584333
20
-41.731963
30
0
70
32
0
VERTEX
8
0
62
255
10
-6.1829169
20
-41.870632
30
0
70
32
0
VERTEX
8
0
62
255
10
-5.3046886
20
-41.990934
30
0
70
32
0
VERTEX
8
0
62
255
10
-4.4241334
20
-42.092818
30
0
70
32
0
VERTEX
8
0
62
255
10
-3.5416377
20
-42.176238
30
0
70
32
0
VERTEX
8
0
62
255
10
-2.6575884
20
-42.241158
30
0
70
32
0
VERTEX
8
0
62
255
10
-1.7723735
20
-42.287551
30
0
70
32
0
VERTEX
8
0
62
255
10
-0.88638115
20
-42.315394
30
0
70
32
0
VERTEX
8
0
62
255
10
-7.774917e-15
20
-42.324677
30
0
70
32
0
VERTEX
8
0
62
255
10
0.88638115
20
-42.315394
30
0
70
32
0
VERTEX
8
0
62
255
10
1.7723735
20
-42.287551
30
0
70
32
0
VERTEX
8
0
62
255
10
2.6575884
20
-42.241158
30
0
70
32
0
VERTEX
8
0
62
255
10
3.5416377
20
-42.176238
30
0
70
32
0
VERTEX
8
0
62
255
10
4.4241334
20
-42.092818
30
0
70
32
0
VERTEX
8
0
62
255
10
5.3046886
20
-41.990934
30
0
70
32
0
VERTEX
8
0
62
255
10
6.1829169
20
-41.870632
30
0
70
32
0
VERTEX
8
0
62
255
10
7.0584333
20
-41.731963
30
0
70
32
0
VERTEX
8
0
62
255
10
7.9308535
20
-41.57499
30
0
70
32
0
VERTEX
8
0
62
255
10
8.7997951
20
-41.399781
30
0
70
32
0
VERTEX
8
0
62
255
10
9.6648767
20
-41.206412
30
0
70
32
0
VERTEX
8
0
62
255
10
10.525719
20
-40.994969
30
0
70
32
0
VERTEX
8
0
62
255
10
11.381944
20
-40.765544
30
0
70
32
0
VERTEX
8
0
62
255
10
12.233177
20
-40.518238
30
0
70
32
0
VERTEX
8
0
62
255
10
13.079044
20
-40.253159
30
0
70
32
0
VERTEX
8
0
62
255
10
13.919174
20
-39.970424
30
0
70
32
0
VERTEX
8
0
62
255
10
14.753199
20
-39.670157
30
0
70
32
0
VERTEX
8
0
62
255
10
15.580753
20
-39.352489
30
0
70
32
0
VERTEX
8
0
62
255
10
16.401472
20
-39.01756
30
0
70
32
0
VERTEX
8
0
62
255
10
17.214997
20
-38.665516
30
0
70
32
0
VERTEX
8
0
62
255
10
18.020971
20
-38.296512
30
0
70
32
0
VERTEX
8
0
62
255
10
18.81904
20
-37.910711
30
0
70
32
0
VERTEX
8
0
62
255
10
19.608855
20
-37.50828
30
0
70
32
0
VERTEX
8
0
62
255
10
20.390068
20
-37.089397
30
0
70
32
0
VERTEX
8
0
62
255
10
21.162338
20
-36.654245
30
0
70
32
0
VERTEX
8
0
62
255
10
21.925326
20
-36.203016
30
0
70
32
0
VERTEX
8
0
62
255
10
22.678696
20
-35.735906
30
0
70
32
0
VERTEX
8
0
62
255
10
23.422118
20
-35.253122
30
0
70
32
0
VERTEX
8
0
62
255
10
24.155267
20
-34.754875
30
0
70
32
0
VERTEX
8
0
62
255
10
24.877821
20
-34.241383
30
0
70
32
0
VERTEX
8
0
62
255
10
25.589462
20
-33.712871
30
0
70
32
0
VERTEX
8
0
62
255
10
26.289879
20
-33.169572
30
0
70
32
0
VERTEX
8
0
62
255
10
26.978764
20
-32.611724
30
0
70
32
0
VERTEX
8
0
62
255
10
27.655816
20
-32.039571
30
0
70
32
0
VERTEX
8
0
62
255
10
28.320736
20
-31.453364
30
0
70
32
0
VERTEX
8
0
62
255
10
28.973235
20
-30.853361
30
0
70
32
0
VERTEX
8
0
62
255
10
29.613025
20
-30.239825
30
0
70
32
0
VERTEX
8
0
62
255
10
30.239825
20
-29.613025
30
0
70
32
0
VERTEX
8
0
62
255
10
30.853361
20
-28.973235
30
0
70
32
0
VERTEX
8
0
62
255
10
31.453364
20
-28.320736
30
0
70
32
0
VERTEX
8
0
62
255
10
32.039571
20
-27.655816
30
0
70
32
0
VERTEX
8
0
62
255
10
32.611724
20
-26.978764
30
0
70
32
0
VERTEX
8
0
62
255
10
33.169572
20
-26.289879
30
0
70
32
0
VERTEX
8
0
62
255
10
33.712871
20
-25.589462
30
0
70
32
0
VERTEX
8
0
62
255
10
34.241383
20
-24.877821
30
0
70
32
0
VERTEX
8
0
62
255
10
34.754875
20
-24.155267
30
0
70
32
0
VERTEX
8
0
62
255
10
35.253122
20
-23.422118
30
0
70
32
0
VERTEX
8
0
62
255
10
35.735906
20
-22.678696
30
0
70
32
0
VERTEX
8
0
62
255
10
36.203016
20
-21.925326
30
0
70
32
0
VERTEX
8
0
62
255
10
36.654245
20
-21.162338
30
0
70
32
0
VERTEX
8
0
62
255
10
37.089397
20
-20.390068
30
0
70
32
0
VERTEX
8
0
62
255
10
37.50828
20
-19.608855
30
0
70
32
0
VERTEX
8
0
62
255
10
37.910711
20
-18.81904
30
0
70
32
0
VERTEX
8
0
62
255
10
38.296512
20
-18.020971
30
0
70
32
0
VERTEX
8
0
62
255
10
38.665516
20
-17.214997
30
0
70
32
0
VERTEX
8
0
62
255
10
39.01756
20
-16.401472
30
0
70
32
0
VERTEX
8
0
62
255
10
39.352489
20
-15.580753
30
0
70
32
0
VERTEX
8
0
62
255
10
39.670157
20
-14.753199
30
0
70
32
0
VERTEX
8
0
62
255
10
39.970424
20
-13.919174
30
0
70
32
0
VERTEX
8
0
62
255
10
40.253159
20
-13.079044
30
0
70
32
0
VERTEX
8
0
62
255
10
40.518238
20
-12.233177
30
0
70
32
0
VERTEX
8
0
62
255
10
40.765544
20
-11.381944
30
0
70
32
0
VERTEX
8
0
62
255
10
40.994969
20
-10.525719
30
0
70
32
0
VERTEX
8
0
62
255
10
41.206412
20
-9.6648767
30
0
70
32
0
VERTEX
8
0
62
255
10
41.399781
20
-8.7997951
30
0
70
32
0
VERTEX
8
0
62
255
10
41.57499
20
-7.9308535
30
0
70
32
0
VERTEX
8
0
62
255
10
41.731963
20
-7.0584333
30
0
70
32
0
VERTEX
8
0
62
255
10
41.870632
20
-6.1829169
30
0
70
32
0
VERTEX
8
0
62
255
10
41.990934
20
-5.3046886
30
0
70
32
0
VERTEX
8
0
62
255
10
42.092818
20
-4.4241334
30
0
70
32
0
VERTEX
8
0
62
255
10
42.176238
20
-3.5416377
30
0
70
32
0
VERTEX
8
0
62
255
10
42.241158
20
-2.6575884
30
0
70
32
0
VERTEX
8
0
62
255
10
42.287551
20
-1.7723735
30
0
70
32
0
VERTEX
8
0
62
255
10
42.315394
20
-0.88638115
30
0
70
32
0
VERTEX
8
0
62
255
10
42.324677
20
-1.0366556e-14
30
0
70
32
0
VERTEX
8
0
62
255
10
42.324677
20
0
30
0
70
32
0
SEQEND
8
0
0
POLYLINE
8
0
62
255
66
1
10
0
20
0
30
0
70
8
0
VERTEX
8
0
62
255
10
14.681692
20
0
30
0
70
32
0
VERTEX
8
0
62
255
10
14.679871
20
0.23118791
30
0
70
32
0
VERTEX
8
0
62
255
10
14.674411
20
0.4623185
30
0
70
32
0
VERTEX
8
0
62
255
10
14.665311
20
0.69333444
30
0
70
32
0
VERTEX
8
0
62
255
10
14.652575
20
0.92417846
30
0
70
32
0
VERTEX
8
0
62
255
10
14.636206
20
1.1547933
30
0
70
32
0
VERTEX
8
0
62
255
10
14.616207
20
1.3851218
30
0
70
32
0
VERTEX
8
0
62
255
10
14.592584
20
1.6151068
30
0
70
32
0
VERTEX
8
0
62
255
10
14.565342
20
1.8446913
30
0
70
32
0
VERTEX
8
0
62
255
10
14.534488
20
2.0738184
30
0
70
32
0
VERTEX
8
0
62
255
10
14.50003
20
2.3024312
30
0
70
32
0
VERTEX
8
0
62
255
10
14.461977
20
2.5304731
30
0
70
32
0
VERTEX
8
0
62
255
10
14.420337
20
2.7578875
30
0
70
32
0
VERTEX
8
0
62
255
10
14.375122
20
2.984618
30
0
70
32
0
VERTEX
8
0
62
255
10
14.326342
20
3.2106084
30
0
70
32
0
VERTEX
8
0
62
255
10
14.274009
20
3.4358026
30
0
70
32
0
VERTEX
8
0
62
255
10
14.218137
20
3.6601449
30
0
70
32
0
VERTEX
8
0
62
255
10
14.158739
20
3.8835796
30
0
70
32
0
VERTEX
8
0
62
255
10
14.09583
20
4.1060512
30
0
70
32
0
VERTEX
8
0
62
255
10
14.029425
20
4.3275046
30
0
70
32
0
VERTEX
8
0
62
255
10
13.959542
20
4.547885
30
0
70
32
0
VERTEX
8
0
62
255
10
13.886197
20
4.7671375
30
0
70
32
0
VERTEX
8
0
62
255
10
13.809409
20
4.985208
30
0
70
32
0
VERTEX
8
0
62
255
10
13.729196
20
5.2020422
30
0
70
32
0
VERTEX
8
0
62
255
10
13.645579
20
5.4175865
30
0
70
32
0
VERTEX
8
0
62
255
10
13.558578
20
5.6317874
30
0
70
32
0
VERTEX
8
0
62
255
10
13.468215
20
5.8445917
30
0
70
32
0
VERTEX
8
0
62
255
10
13.374512
20
6.0559468
30
0
70
32
0
VERTEX
8
0
62
255
10
13.277493
20
6.2658001
30
0
70
32
0
VERTEX
8
0
62
255
10
13.177181
20
6.4740997
30
0
70
32
0
VERTEX
8
0
62
255
10
13.073602
20
6.6807938
30
0
70
32
0
VERTEX
8
0
62
255
10
12.966781
20
6.8858313
30
0
70
32
0
VERTEX
8
0
62
255
10
12.856744
20
7.0891613
30
0
70
32
0
VERTEX
8
0
62
255
10
12.743519
20
7.2907334
30
0
70
32
0
VERTEX
8
0
62
255
10
12.627134
20
7.4904976
30
0
70
32
0
VERTEX
8
0
62
255
10
12.507618
20
7.6884043
30
0
70
32
0
VERTEX
8
0
62
255
10
12.385001
20
7.8844045
30
0
70
32
0
VERTEX
8
0
62
255
10
12.259312
20
8.0784496
30
0
70
32
0
VERTEX
8
0
62
255
10
12.130583
20
8.2704915
30
0
70
32
0
VERTEX
8
0
62
255
10
11.998846
20
8.4604825
30
0
70
32
0
VERTEX
8
0
62
255
10
11.864134
20
8.6483755
30
0
70
32
0
VERTEX
8
0
62
255
10
11.72648
20
8.8341239
30
0
70
32
0
VERTEX
8
0
62
255
10
11.585918
20
9.0176817
30
0
70
32
0
VERTEX
8
0
62
255
10
11.442483
20
9.1990034
30
0
70
32
0
VERTEX
8
0
62
255
10
11.29621
20
9.378044
30
0
70
32
0
VERTEX
8
0
62
255
10
11.147137
20
9.554759
30
0
70
32
0
VERTEX
8
0
62
255
10
10.995299
20
9.7291048
30
0
70
32
0
VERTEX
8
0
62
255
10
10.840734
20
9.901038
30
0
70
32
0
VERTEX
8
0
62
255
10
10.683482
20
10.070516
30
0
70
32
0
VERTEX
8
0
62
255
10
10.52358
20
10.237497
30
0
70
32
0
VERTEX
8
0
62
255
10
10.361069
20
10.401939
30
0
70
32
0
VERTEX
8
0
62
255
10
10.195988
20
10.563802
30
0
70
32
0
VERTEX
8
0
62
255
10
10.028379
20
10.723045
30
0
70
32
0
VERTEX
8
0
62
255
10
9.8582832
20
10.879629
30
0
70
32
0
VERTEX
8
0
62
255
10
9.6857428
20
11.033515
30
0
70
32
0
VERTEX
8
0
62
255
10
9.5108007
20
11.184666
30
0
70
32
0
VERTEX
8
0
62
255
10
9.3335001
20
11.333042
30
0
70
32
0
VERTEX
8
0
62
255
10
9.1538851
20
11.478609
30
0
70
32
0
VERTEX
8
0
62
255
10
8.9720001
20
11.621329
30
0
70
32
0
VERTEX
8
0
62
255
10
8.7878904
20
11.761167
30
0
70
32
0
VERTEX
8
0
62
255
10
8.6016015
20
11.898089
30
0
70
32
0
VERTEX
8
0
62
255
10
8.4131796
20
12.032061
30
0
70
32
0
VERTEX
8
0
62
255
10
8.2226714
20
12.163048
30
0
70
32
0
VERTEX
8
0
62
255
10
8.0301243
20
12.29102
30
0
70
32
0
VERTEX
8
0
62
255
10
7.8355859
20
12.415944
30
0
70
32
0
VERTEX
8
0
62
255
10
7.6391045
20
12.537789
30
0
70
32
0
VERTEX
8
0
62
255
10
7.4407288
20
12.656525
30
0
70
32
0
VERTEX
8
0
62
255
10
7.2405079
20
12.772123
30
0
70
32
0
VERTEX
8
0
62
255
10
7.0384917
20
12.884553
30
0
70
32
0
VERTEX
8
0
62
255
10
6.83473
20
12.993788
30
0
70
32
0
VERTEX
8
0
62
255
10
6.6292736
20
13.099802
30
0
70
32
0
VERTEX
8
0
62
255
10
6.4221733
20
13.202567
30
0
70
32
0
VERTEX
8
0
62
255
10
6.2134804
20
13.302058
30
0
70
32
0
VERTEX
8
0
62
255
10
6.0032467
20
13.39825
30
0
70
32
0
VERTEX
8
0
62
255
10
5.7915245
20
13.49112
30
0
70
32
0
VERTEX
8
0
62
255
10
5.578366
20
13.580645
30
0
70
32
0
VERTEX
8
0
62
255
10
5.3638243
20
13.666801
30
0
70
32
0
VERTEX
8
0
62
255
10
5.1479525
20
13.749569
30
0
70
32
0
VERTEX
8
0
62
255
10
4.9308042
20
13.828928
30
0
70
32
0
VERTEX
8
0
62
255
10
4.7124331
20
13.904857
30
0
70
32
0
VERTEX
8
0
62
255
10
4.4928935
20
13.977338
30
0
70
32
0
VERTEX
8
0
62
255
10
4.2722397
20
14.046353
30
0
70
32
0
VERTEX
8
0
62
255
10
4.0505266
20
14.111885
30
0
70
32
0
VERTEX
8
0
62
255
10
3.827809
20
14.173918
30
0
70
32
0
VERTEX
8
0
62
255
10
3.6041423
20
14.232436
30
0
70
32
0
VERTEX
8
0
62
255
10
3.3795818
20
14.287425
30
0
70
32
0
VERTEX
8
0
62
255
10
3.1541832
20
14.33887
30
0
70
32
0
VERTEX
8
0
62
255
10
2.9280025
20
14.38676
30
0
70
32
0
VERTEX
8
0
62
255
10
2.7010958
20
14.431083
30
0
70
32
0
VERTEX
8
0
62
255
10
2.4735192
20
14.471827
30
0
70
32
0
VERTEX
8
0
62
255
10
2.2453293
20
14.508982
30
0
70
32
0
VERTEX
8
0
62
255
10
2.0165826
20
14.54254
30
0
70
32
0
VERTEX
8
0
62
255
10
1.7873358
20
14.572491
30
0
70
32
0
VERTEX
8
0
62
255
10
1.5576459
20
14.598829
30
0
70
32
0
VERTEX
8
0
62
255
10
1.3275696
20
14.621547
30
0
70
32
0
VERTEX
8
0
62
255
10
1.0971642
20
14.640639
30
0
70
32
0
VERTEX
8
0
62
255
10
0.8664867
20
14.6561
30
0
70
32
0
VERTEX
8
0
62
255
10
0.63559434
20
14.667927
30
0
70
32
0
VERTEX
8
0
62
255
10
0.40454436
20
14.676117
30
0
70
32
0
VERTEX
8
0
62
255
10
0.17339407
20
14.680668
30
0
70
32
0
VERTEX
8
0
62
255
10
-0.057799218
20
14.681578
30
0
70
32
0
VERTEX
8
0
62
255
10
-0.28897817
20
14.678848
30
0
70
32
0
VERTEX
8
0
62
255
10
-0.52008547
20
14.672477
30
0
70
32
0
VERTEX
8
0
62
255
10
-0.7510638
20
14.662468
30
0
70
32
0
VERTEX
8
0
62
255
10
-0.98185589
20
14.648824
30
0
70
32
0
VERTEX
8
0
62
255
10
-1.2124045
20
14.631546
30
0
70
32
0
VERTEX
8
0
62
255
10
-1.4426525
20
14.610641
30
0
70
32
0
VERTEX
8
0
62
255
10
-1.6725427
20
14.586112
30
0
70
32
0
VERTEX
8
0
62
255
10
-1.9020182
20
14.557967
30
0
70
32
0
VERTEX
8
0
62
255
10
-2.131022
20
14.526211
30
0
70
32
0
VERTEX
8
0
62
255
10
-2.3594974
20
14.490854
30
0
70
32
0
VERTEX
8
0
62
255
10
-2.5873877
20
14.451903
30
0
70
32
0
VERTEX
8
0
62
255
10
-2.8146364
20
14.409368
30
0
70
32
0
VERTEX
8
0
62
255
10
-3.0411872
20
14.363261
30
0
70
32
0
VERTEX
8
0
62
255
10
-3.2669838
20
14.313591
30
0
70
32
0
VERTEX
8
0
62
255
10
-3.4919703
20
14.260372
30
0
70
32
0
VERTEX
8
0
62
255
10
-3.7160908
20
14.203617
30
0
70
32
0
VERTEX
8
0
62
255
10
-3.9392899
20
14.14334
30
0
70
32
0
VERTEX
8
0
62
255
10
-4.1615121
20
14.079556
30
0
70
32
0
VERTEX
8
0
62
255
10
-4.3827024
20
14.01228
30
0
70
32
0
VERTEX
8
0
62
255
10
-4.602806
20
13.94153
30
0
70
32
0
VERTEX
8
0
62
255
10
-4.8217681
20
13.867322
30
0
70
32
0
VERTEX
8
0
62
255
10
-5.0395345
20
13.789676
30
0
70
32
0
VERTEX
8
0
62
255
10
-5.2560513
20
13.70861
30
0
70
32
0
VERTEX
8
0
62
255
10
-5.4712648
20
13.624145
30
0
70
32
0
VERTEX
8
0
62
255
10
-5.6851215
20
13.536302
30
0
70
32
0
VERTEX
8
0
62
255
10
-5.8975684
20
13.445102
30
0
70
32
0
VERTEX
8
0
62
255
10
-6.1085529
20
13.350568
30
0
70
32
0
VERTEX
8
0
62
255
10
-6.3180227
20
13.252723
30
0
70
32
0
VERTEX
8
0
62
255
10
-6.5259257
20
13.151592
30
0
70
32
0
VERTEX
8
0
62
255
10
-6.7322105
20
13.0472
30
0
70
32
0
VERTEX
8
0
62
255
10
-6.9368259
20
12.939572
30
0
70
32
0
VERTEX
8
0
62
255
10
-7.1397211
20
12.828736
30
0
70
32
0
VERTEX
8
0
62
255
10
-7.3408459
20
12.714718
30
0
70
32
0
VERTEX
8
0
62
255
10
-7.5401503
20
12.597548
30
0
70
32
0
VERTEX
8
0
62
255
10
-7.737585
20
12.477253
30
0
70
32
0
VERTEX
8
0
62
255
10
-7.933101
20
12.353865
30
0
70
32
0
VERTEX
8
0
62
255
10
-8.1266498
20
12.227413
30
0
70
32
0
VERTEX
8
0
62
255
10
-8.3181833
20
12.09793
30
0
70
32
0
VERTEX
8
0
62
255
10
-8.5076542
20
11.965446
30
0
70
32
0
VERTEX
8
0
62
255
10
-8.6950154
20
11.829995
30
0
70
32
0
VERTEX
8
0
62
255
10
-8.8802205
20
11.691611
30
0
70
32
0
VERTEX
8
0
62
255
10
-9.0632236
20
11.550327
30
0
70
32
0
VERTEX
8
0
62
255
10
-9.2439791
20
11.406179
30
0
70
32
0
VERTEX
8
0
62
255
10
-9.4224425
20
11.259203
30
0
70
32
0
VERTEX
8
0
62
255
10
-9.5985693
20
11.109435
30
0
70
32
0
VERTEX
8
0
62
255
10
-9.7723159
20
10.956912
30
0
70
32
0
VERTEX
8
0
62
255
10
-9.9436393
20
10.801672
30
0
70
32
0
VERTEX
8
0
62
255
10
-10.112497
20
10.643753
30
0
70
32
0
VERTEX
8
0
62
255
10
-10.278847
20
10.483195
30
0
70
32
0
VERTEX
8
0
62
255
10
-10.442648
20
10.320038
30
0
70
32
0
VERTEX
8
0
62
255
10
-10.60386
20
10.154321
30
0
70
32
0
VERTEX
8
0
62
255
10
-10.762442
20
9.9860865
30
0
70
32
0
VERTEX
8
0
62
255
10
-10.918355
20
9.8153756
30
0
70
32
0
VERTEX
8
0
62
255
10
-11.071561
20
9.6422308
30
0
70
32
0
VERTEX
8
0
62
255
10
-11.222021
20
9.466695
30
0
70
32
0
VERTEX
8
0
62
255
10
-11.369699
20
9.2888116
30
0
70
32
0
VERTEX
8
0
62
255
10
-11.514557
20
9.1086249
30
0
70
32
0
VERTEX
8
0
62
255
10
-11.65656
20
8.9261795
30
0
70
32
0
VERTEX
8
0
62
255
10
-11.795673
20
8.7415207
30
0
70
32
0
VERTEX
8
0
62
255
10
-11.93186
20
8.5546941
30
0
70
32
0
VERTEX
8
0
62
255
10
-12.065089
20
8.3657463
30
0
70
32
0
VERTEX
8
0
62
255
10
-12.195325
20
8.1747239
30
0
70
32
0
VERTEX
8
0
62
255
10
-12.322538
20
7.9816745
30
0
70
32
0
VERTEX
8
0
62
255
10
-12.446695
20
7.7866458
30
0
70
32
0
VERTEX
8
0
62
255
10
-12.567766
20
7.5896862
30
0
70
32
0
VERTEX
8
0
62
255
10
-12.68572
20
7.3908446
30
0
70
32
0
VERTEX
8
0
62
255
10
-12.800528
20
7.1901702
30
0
70
32
0
VERTEX
8
0
62
255
10
-12.912163
20
6.9877129
30
0
70
32
0
VERTEX
8
0
62
255
10
-13.020595
20
6.7835228
30
0
70
32
0
VERTEX
8
0
62
255
10
-13.125798
20
6.5776506
30
0
70
32
0
VERTEX
8
0
62
255
10
-13.227747
20
6.3701473
30
0
70
32
0
VERTEX
8
0
62
255
10
-13.326416
20
6.1610644
30
0
70
32
0
VERTEX
8
0
62
255
10
-13.42178
20
5.9504537
30
0
70
32
0
VERTEX
8
0
62
255
10
-13.513816
20
5.7383674
30
0
70
32
0
VERTEX
8
0
62
255
10
-13.6025
20
5.5248582
30
0
70
32
0
VERTEX
8
0
62
255
10
-13.687812
20
5.309979
30
0
70
32
0
VERTEX
8
0
62
255
10
-13.769729
20
5.093783
30
0
70
32
0
VERTEX
8
0
62
255
10
-13.848232
20
4.8763239
30
0
70
32
0
VERTEX
8
0
62
255
10
-13.923301
20
4.6576556
30
0
70
32
0
VERTEX
8
0
62
255
10
-13.994918
20
4.4378323
30
0
70
32
0
VERTEX
8
0
62
255
10
-14.063064
20
4.2169086
30
0
70
32
0
VERTEX
8
0
62
255
10
-14.127722
20
3.9949392
30
0
70
32
0
VERTEX
8
0
62
255
10
-14.188878
20
3.7719792
30
0
70
32
0
VERTEX
8
0
62
255
10
-14.246514
20
3.5480838
30
0
70
32
0
VERTEX
8
0
62
255
10
-14.300619
20
3.3233085
30
0
70
32
0
VERTEX
8
0
62
255
10
-14.351177
20
3.0977092
30
0
70
32
0
VERTEX
8
0
62
255
10
-14.398176
20
2.8713417
30
0
70
32
0
VERTEX
8
0
62
255
10
-14.441605
20
2.6442622
30
0
70
32
0
VERTEX
8
0
62
255
10
-14.481453
20
2.416527
30
0
70
32
0
VERTEX
8
0
62
255
10
-14.517709
20
2.1881926
30
0
70
32
0
VERTEX
8
0
62
255
10
-14.550366
20
1.9593156
30
0
70
32
0
VERTEX
8
0
62
255
10
-14.579415
20
1.7299527
30
0
70
32
0
VERTEX
8
0
62
255
10
-14.604848
20
1.5001608
30
0
70
32
0
VERTEX
8
0
62
255
10
-14.62666
20
1.2699969
30
0
70
32
0
VERTEX
8
0
62
255
10
-14.644845
20
1.0395181
30
0
70
32
0
VERTEX
8
0
62
255
10
-14.659398
20
0.80878152
30
0
70
32
0
VERTEX
8
0
62
255
10
-14.670316
20
0.57784438
30
0
70
32
0
VERTEX
8
0
62
255
10
-14.677596
20
0.34676395
30
0
70
32
0
VERTEX
8
0
62
255
10
-14.681237
20
0.11559754
30
0
70
32
0
VERTEX
8
0
62
255
10
-14.681237
20
-0.11559754
30
0
70
32
0
VERTEX
8
0
62
255
10
-14.677596
20
-0.34676395
30
0
70
32
0
VERTEX
8
0
62
255
10
-14.670316
20
-0.57784438
30
0
70
32
0
VERTEX
8
0
62
255
10
-14.659398
20
-0.80878152
30
0
70
32
0
VERTEX
8
0
62
255
10
-14.644845
20
-1.0395181
30
0
70
32
0
VERTEX
8
0
62
255
10
-14.62666
20
-1.2699969
30
0
70
32
0
VERTEX
8
0
62
255
10
-14.604848
20
-1.5001608
30
0
70
32
0
VERTEX
8
0
62
255
10
-14.579415
20
-1.7299527
30
0
70
32
0
VERTEX
8
0
62
255
10
-14.550366
20
-1.9593156
30
0
70
32
0
VERTEX
8
0
62
255
10
-14.517709
20
-2.1881926
30
0
70
32
0
VERTEX
8
0
62
255
10
-14.481453
20
-2.416527
30
0
70
32
0
VERTEX
8
0
62
255
10
-14.441605
20
-2.6442622
30
0
70
32
0
VERTEX
8
0
62
255
10
-14.398176
20
-2.8713417
30
0
70
32
0
VERTEX
8
0
62
255
10
-14.351177
20
-3.0977092
30
0
70
32
0
VERTEX
8
0
62
255
10
-14.300619
20
-3.3233085
30
0
70
32
0
VERTEX
8
0
62
255
10
-14.246514
20
-3.5480838
30
0
70
32
0
VERTEX
8
0
62
255
10
-14.188878
20
-3.7719792
30
0
70
32
0
VERTEX
8
0
62
255
10
-14.127722
20
-3.9949392
30
0
70
32
0
VERTEX
8
0
62
255
10
-14.063064
20
-4.2169086
30
0
70
32
0
VERTEX
8
0
62
255
10
-13.994918
20
-4.4378323
30
0
70
32
0
VERTEX
8
0
62
255
10
-13.923301
20
-4.6576556
30
0
70
32
0
VERTEX
8
0
62
255
10
-13.848232
20
-4.8763239
30
0
70
32
0
VERTEX
8
0
62
255
10
-13.769729
20
-5.093783
30
0
70
32
0
VERTEX
8
0
62
255
10
-13.687812
20
-5.309979
30
0
70
32
0
VERTEX
8
0
62
255
10
-13.6025
20
-5.5248582
30
0
70
32
0
VERTEX
8
0
62
255
10
-13.513816
20
-5.7383674
30
0
70
32
0
VERTEX
8
0
62
255
10
-13.42178
20
-5.9504537
30
0
70
32
0
VERTEX
8
0
62
255
10
-13.326416
20
-6.1610644
30
0
70
32
0
VERTEX
8
0
62
255
10
-13.227747
20
-6.3701473
30
0
70
32
0
VERTEX
8
0
62
255
10
-13.125798
20
-6.5776506
30
0
70
32
0
VERTEX
8
0
62
255
10
-13.020595
20
-6.7835228
30
0
70
32
0
VERTEX
8
0
62
255
10
-12.912163
20
-6.9877129
30
0
70
32
0
VERTEX
8
0
62
255
10
-12.800528
20
-7.1901702
30
0
70
32
0
VERTEX
8
0
62
255
10
-12.68572
20
-7.3908446
30
0
70
32
0
VERTEX
8
0
62
255
10
-12.567766
20
-7.5896862
30
0
70
32
0
VERTEX
8
0
62
255
10
-12.446695
20
-7.7866458
30
0
70
32
0
VERTEX
8
0
62
255
10
-12.322538
20
-7.9816745
30
0
70
32
0
VERTEX
8
0
62
255
10
-12.195325
20
-8.1747239
30
0
70
32
0
VERTEX
8
0
62
255
10
-12.065089
20
-8.3657463
30
0
70
32
0
VERTEX
8
0
62
255
10
-11.93186
20
-8.5546941
30
0
70
32
0
VERTEX
8
0
62
255
10
-11.795673
20
-8.7415207
30
0
70
32
0
VERTEX
8
0
62
255
10
-11.65656
20
-8.9261795
30
0
70
32
0
VERTEX
8
0
62
255
10
-11.514557
20
-9.1086249
30
0
70
32
0
VERTEX
8
0
62
255
10
-11.369699
20
-9.2888116
30
0
70
32
0
VERTEX
8
0
62
255
10
-11.222021
20
-9.466695
30
0
70
32
0
VERTEX
8
0
62
255
10
-11.071561
20
-9.6422308
30
0
70
32
0
VERTEX
8
0
62
255
10
-10.918355
20
-9.8153756
30
0
70
32
0
VERTEX
8
0
62
255
10
-10.762442
20
-9.9860865
30
0
70
32
0
VERTEX
8
0
62
255
10
-10.60386
20
-10.154321
30
0
70
32
0
VERTEX
8
0
62
255
10
-10.442648
20
-10.320038
30
0
70
32
0
VERTEX
8
0
62
255
10
-10.278847
20
-10.483195
30
0
70
32
0
VERTEX
8
0
62
255
10
-10.112497
20
-10.643753
30
0
70
32
0
VERTEX
8
0
62
255
10
-9.9436393
20
-10.801672
30
0
70
32
0
VERTEX
8
0
62
255
10
-9.7723159
20
-10.956912
30
0
70
32
0
VERTEX
8
0
62
255
10
-9.5985693
20
-11.109435
30
0
70
32
0
VERTEX
8
0
62
255
10
-9.4224425
20
-11.259203
30
0
70
32
0
VERTEX
8
0
62
255
10
-9.2439791
20
-11.406179
30
0
70
32
0
VERTEX
8
0
62
255
10
-9.0632236
20
-11.550327
30
0
70
32
0
VERTEX
8
0
62
255
10
-8.8802205
20
-11.691611
30
0
70
32
0
VERTEX
8
0
62
255
10
-8.6950154
20
-11.829995
30
0
70
32
0
VERTEX
8
0
62
255
10
-8.5076542
20
-11.965446
30
0
70
32
0
VERTEX
8
0
62
255
10
-8.3181833
20
-12.09793
30
0
70
32
0
VERTEX
8
0
62
255
10
-8.1266498
20
-12.227413
30
0
70
32
0
VERTEX
8
0
62
255
10
-7.933101
20
-12.353865
30
0
70
32
0
VERTEX
8
0
62
255
10
-7.737585
20
-12.477253
30
0
70
32
0
VERTEX
8
0
62
255
10
-7.5401503
20
-12.597548
30
0
70
32
0
VERTEX
8
0
62
255
10
-7.3408459
20
-12.714718
30
0
70
32
0
VERTEX
8
0
62
255
10
-7.1397211
20
-12.828736
30
0
70
32
0
VERTEX
8
0
62
255
10
-6.9368259
20
-12.939572
30
0
70
32
0
VERTEX
8
0
62
255
10
-6.7322105
20
-13.0472
30
0
70
32
0
VERTEX
8
0
62
255
10
-6.5259257
20
-13.151592
30
0
70
32
0
VERTEX
8
0
62
255
10
-6.3180227
20
-13.252723
30
0
70
32
0
VERTEX
8
0
62
255
10
-6.1085529
20
-13.350568
30
0
70
32
0
VERTEX
8
0
62
255
10
-5.8975684
20
-13.445102
30
0
70
32
0
VERTEX
8
0
62
255
10
-5.6851215
20
-13.536302
30
0
70
32
0
VERTEX
8
0
62
255
10
-5.4712648
20
-13.624145
30
0
70
32
0
VERTEX
8
0
62
255
10
-5.2560513
20
-13.70861
30
0
70
32
0
VERTEX
8
0
62
255
10
-5.0395345
20
-13.789676
30
0
70
32
0
VERTEX
8
0
62
255
10
-4.8217681
20
-13.867322
30
0
70
32
0
VERTEX
8
0
62
255
10
-4.602806
20
-13.94153
30
0
70
32
0
VERTEX
8
0
62
255
10
-4.3827024
20
-14.01228
30
0
70
32
0
VERTEX
8
0
62
255
10
-4.1615121
20
-14.079556
30
0
70
32
0
VERTEX
8
0
62
255
10
-3.9392899
20
-14.14334
30
0
70
32
0
VERTEX
8
0
62
255
10
-3.7160908
20
-14.203617
30
0
70
32
0
VERTEX
8
0
62
255
10
-3.4919703
20
-14.260372
30
0
70
32
0
VERTEX
8
0
62
255
10
-3.2669838
20
-14.313591
30
0
70
32
0
VERTEX
8
0
62
255
10
-3.0411872
20
-14.363261
30
0
70
32
0
VERTEX
8
0
62
255
10
-2.8146364
20
-14.409368
30
0
70
32
0
VERTEX
8
0
62
255
10
-2.5873877
20
-14.451903
30
0
70
32
0
VERTEX
8
0
62
255
10
-2.3594974
20
-14.490854
30
0
70
32
0
VERTEX
8
0
62
255
10
-2.131022
20
-14.526211
30
0
70
32
0
VERTEX
8
0
62
255
10
-1.9020182
20
-14.557967
30
0
70
32
0
VERTEX
8
0
62
255
10
-1.6725427
20
-14.586112
30
0
70
32
0
VERTEX
8
0
62
255
10
-1.4426525
20
-14.610641
30
0
70
32
0
VERTEX
8
0
62
255
10
-1.2124045
20
-14.631546
30
0
70
32
0
VERTEX
8
0
62
255
10
-0.98185589
20
-14.648824
30
0
70
32
0
VERTEX
8
0
62
255
10
-0.7510638
20
-14.662468
30
0
70
32
0
VERTEX
8
0
62
255
10
-0.52008547
20
-14.672477
30
0
70
32
0
VERTEX
8
0
62
255
10
-0.28897817
20
-14.678848
30
0
70
32
0
VERTEX
8
0
62
255
10
-0.057799218
20
-14.681578
30
0
70
32
0
VERTEX
8
0
62
255
10
0.17339407
20
-14.680668
30
0
70
32
0
VERTEX
8
0
62
255
10
0.40454436
20
-14.676117
30
0
70
32
0
VERTEX
8
0
62
255
10
0.63559434
20
-14.667927
30
0
70
32
0
VERTEX
8
0
62
255
10
0.8664867
20
-14.6561
30
0
70
32
0
VERTEX
8
0
62
255
10
1.0971642
20
-14.640639
30
0
70
32
0
VERTEX
8
0
62
255
10
1.3275696
20
-14.621547
30
0
70
32
0
VERTEX
8
0
62
255
10
1.5576459
20
-14.598829
30
0
70
32
0
VERTEX
8
0
62
255
10
1.7873358
20
-14.572491
30
0
70
32
0
VERTEX
8
0
62
255
10
2.0165826
20
-14.54254
30
0
70
32
0
VERTEX
8
0
62
255
10
2.2453293
20
-14.508982
30
0
70
32
0
VERTEX
8
0
62
255
10
2.4735192
20
-14.471827
30
0
70
32
0
VERTEX
8
0
62
255
10
2.7010958
20
-14.431083
30
0
70
32
0
VERTEX
8
0
62
255
10
2.9280025
20
-14.38676
30
0
70
32
0
VERTEX
8
0
62
255
10
3.1541832
20
-14.33887
30
0
70
32
0
VERTEX
8
0
62
255
10
3.3795818
20
-14.287425
30
0
70
32
0
VERTEX
8
0
62
255
10
3.6041423
20
-14.232436
30
0
70
32
0
VERTEX
8
0
62
255
10
3.827809
20
-14.173918
30
0
70
32
0
VERTEX
8
0
62
255
10
4.0505266
20
-14.111885
30
0
70
32
0
VERTEX
8
0
62
255
10
4.2722397
20
-14.046353
30
0
70
32
0
VERTEX
8
0
62
255
10
4.4928935
20
-13.977338
30
0
70
32
0
VERTEX
8
0
62
255
10
4.7124331
20
-13.904857
30
0
70
32
0
VERTEX
8
0
62
255
10
4.9308042
20
-13.828928
30
0
70
32
0
VERTEX
8
0
62
255
10
5.1479525
20
-13.749569
30
0
70
32
0
VERTEX
8
0
62
255
10
5.3638243
20
-13.666801
30
0
70
32
0
VERTEX
8
0
62
255
10
5.578366
20
-13.580645
30
0
70
32
0
VERTEX
8
0
62
255
10
5.7915245
20
-13.49112
30
0
70
32
0
VERTEX
8
0
62
255
10
6.0032467
20
-13.39825
30
0
70
32
0
VERTEX
8
0
62
255
10
6.2134804
20
-13.302058
30
0
70
32
0
VERTEX
8
0
62
255
10
6.4221733
20
-13.202567
30
0
70
32
0
VERTEX
8
0
62
255
10
6.6292736
20
-13.099802
30
0
70
32
0
VERTEX
8
0
62
255
10
6.83473
20
-12.993788
30
0
70
32
0
VERTEX
8
0
62
255
10
7.0384917
20
-12.884553
30
0
70
32
0
VERTEX
8
0
62
255
10
7.2405079
20
-12.772123
30
0
70
32
0
VERTEX
8
0
62
255
10
7.4407288
20
-12.656525
30
0
70
32
0
VERTEX
8
0
62
255
10
7.6391045
20
-12.537789
30
0
70
32
0
VERTEX
8
0
62
255
10
7.8355859
20
-12.415944
30
0
70
32
0
VERTEX
8
0
62
255
10
8.0301243
20
-12.29102
30
0
70
32
0
VERTEX
8
0
62
255
10
8.2226714
20
-12.163048
30
0
70
32
0
VERTEX
8
0
62
255
10
8.4131796
20
-12.032061
30
0
70
32
0
VERTEX
8
0
62
255
10
8.6016015
20
-11.898089
30
0
70
32
0
VERTEX
8
0
62
255
10
8.7878904
20
-11.761167
30
0
70
32
0
VERTEX
8
0
62
255
10
8.9720001
20
-11.621329
30
0
70
32
0
VERTEX
8
0
62
255
10
9.1538851
20
-11.478609
30
0
70
32
0
VERTEX
8
0
62
255
10
9.3335001
20
-11.333042
30
0
70
32
0
VERTEX
8
0
62
255
10
9.5108007
20
-11.184666
30
0
70
32
0
VERTEX
8
0
62
255
10
9.6857428
20
-11.033515
30
0
70
32
0
VERTEX
8
0
62
255
10
9.8582832
20
-10.879629
30
0
70
32
0
VERTEX
8
0
62
255
10
10.028379
20
-10.723045
30
0
70
32
0
VERTEX
8
0
62
255
10
10.195988
20
-10.563802
30
0
70
32
0
VERTEX
8
0
62
255
10
10.361069
20
-10.401939
30
0
70
32
0
VERTEX
8
0
62
255
10
10.52358
20
-10.237497
30
0
70
32
0
VERTEX
8
0
62
255
10
10.683482
20
-10.070516
30
0
70
32
0
VERTEX
8
0
62
255
10
10.840734
20
-9.901038
30
0
70
32
0
VERTEX
8
0
62
255
10
10.995299
20
-9.7291048
30
0
70
32
0
VERTEX
8
0
62
255
10
11.147137
20
-9.554759
30
0
70
32
0
VERTEX
8
0
62
255
10
11.29621
20
-9.378044
30
0
70
32
0
VERTEX
8
0
62
255
10
11.442483
20
-9.1990034
30
0
70
32
0
VERTEX
8
0
62
255
10
11.585918
20
-9.0176817
30
0
70
32
0
VERTEX
8
0
62
255
10
11.72648
20
-8.8341239
30
0
70
32
0
VERTEX
8
0
62
255
10
11.864134
20
-8.6483755
30
0
70
32
0
VERTEX
8
0
62
255
10
11.998846
20
-8.4604825
30
0
70
32
0
VERTEX
8
0
62
255
10
12.130583
20
-8.2704915
30
0
70
32
0
VERTEX
8
0
62
255
10
12.259312
20
-8.0784496
30
0
70
32
0
VERTEX
8
0
62
255
10
12.385001
20
-7.8844045
30
0
70
32
0
VERTEX
8
0
62
255
10
12.507618
20
-7.6884043
30
0
70
32
0
VERTEX
8
0
62
255
10
12.627134
20
-7.4904976
30
0
70
32
0
VERTEX
8
0
62
255
10
12.743519
20
-7.2907334
30
0
70
32
0
VERTEX
8
0
62
255
10
12.856744
20
-7.0891613
30
0
70
32
0
VERTEX
8
0
62
255
10
12.966781
20
-6.8858313
30
0
70
32
0
VERTEX
8
0
62
255
10
13.073602
20
-6.6807938
30
0
70
32
0
VERTEX
8
0
62
255
10
13.177181
20
-6.4740997
30
0
70
32
0
VERTEX
8
0
62
255
10
13.277493
20
-6.2658001
30
0
70
32
0
VERTEX
8
0
62
255
10
13.374512
20
-6.0559468
30
0
70
32
0
VERTEX
8
0
62
255
10
13.468215
20
-5.8445917
30
0
70
32
0
VERTEX
8
0
62
255
10
13.558578
20
-5.6317874
30
0
70
32
0
VERTEX
8
0
62
255
10
13.645579
20
-5.4175865
30
0
70
32
0
VERTEX
8
0
62
255
10
13.729196
20
-5.2020422
30
0
70
32
0
VERTEX
8
0
62
255
10
13.809409
20
-4.985208
30
0
70
32
0
VERTEX
8
0
62
255
10
13.886197
20
-4.7671375
30
0
70
32
0
VERTEX
8
0
62
255
10
13.959542
20
-4.547885
30
0
70
32
0
VERTEX
8
0
62
255
10
14.029425
20
-4.3275046
30
0
70
32
0
VERTEX
8
0
62
255
10
14.09583
20
-4.1060512
30
0
70
32
0
VERTEX
8
0
62
255
10
14.158739
20
-3.8835796
30
0
70
32
0
VERTEX
8
0
62
255
10
14.218137
20
-3.6601449
30
0
70
32
0
VERTEX
8
0
62
255
10
14.274009
20
-3.4358026
30
0
70
32
0
VERTEX
8
0
62
255
10
14.326342
20
-3.2106084
30
0
70
32
0
VERTEX
8
0
62
255
10
14.375122
20
-2.984618
30
0
70
32
0
VERTEX
8
0
62
255
10
14.420337
20
-2.7578875
30
0
70
32
0
VERTEX
8
0
62
255
10
14.461977
20
-2.5304731
30
0
70
32
0
VERTEX
8
0
62
255
10
14.50003
20
-2.3024312
30
0
70
32
0
VERTEX
8
0
62
255
10
14.534488
20
-2.0738184
30
0
70
32
0
VERTEX
8
0
62
255
10
14.565342
20
-1.8446913
30
0
70
32
0
VERTEX
8
0
62
255
10
14.592584
20
-1.6151068
30
0
70
32
0
VERTEX
8
0
62
255
10
14.616207
20
-1.3851218
30
0
70
32
0
VERTEX
8
0
62
255
10
14.636206
20
-1.1547933
30
0
70
32
0
VERTEX
8
0
62
255
10
14.652575
20
-0.92417846
30
0
70
32
0
VERTEX
8
0
62
255
10
14.665311
20
-0.69333444
30
0
70
32
0
VERTEX
8
0
62
255
10
14.674411
20
-0.4623185
30
0
70
32
0
VERTEX
8
0
62
255
10
14.679871
20
-0.23118791
30
0
70
32
0
VERTEX
8
0
62
255
10
14.681692
20
-3.5959774e-15
30
0
70
32
0
SEQEND
8
0
0
POLYLINE
8
0
62
255
66
1
10
0
20
0
30
0
70
8
0
VERTEX
8
0
62
255
10
4.1208678
20
48.083922
30
0
70
32
0
VERTEX
8
0
62
255
10
7.6208678
20
67.538474
30
0
70
32
0
VERTEX
8
0
62
255
10
-7.6208678
20
67.538474
30
0
70
32
0
VERTEX
8
0
62
255
10
-4.1208678
20
48.083922
30
0
70
32
0
VERTEX
8
0
62
255
10
4.1208678
20
48.083922
30
0
70
32
0
SEQEND
8
0
0
POLYLINE
8
0
62
255
66
1
10
0
20
0
30
0
70
8
0
VERTEX
8
0
62
255
10
-12.573321
20
46.593527
30
0
70
32
0
VERTEX
8
0
62
255
10
-15.938245
20
66.071896
30
0
70
32
0
VERTEX
8
0
62
255
10
-30.260792
20
60.858916
30
0
70
32
0
VERTEX
8
0
62
255
10
-20.318019
20
43.774687
30
0
70
32
0
VERTEX
8
0
62
255
10
-12.573321
20
46.593527
30
0
70
32
0
SEQEND
8
0
0
POLYLINE
8
0
62
255
66
1
10
0
20
0
30
0
70
8
0
VERTEX
8
0
62
255
10
-27.750982
20
39.483264
30
0
70
32
0
VERTEX
8
0
62
255
10
-37.574971
20
56.636072
30
0
70
32
0
VERTEX
8
0
62
255
10
-49.250818
20
46.838873
30
0
70
32
0
VERTEX
8
0
62
255
10
-34.064517
20
34.185579
30
0
70
32
0
VERTEX
8
0
62
255
10
-27.750982
20
39.483264
30
0
70
32
0
SEQEND
8
0
0
POLYLINE
8
0
62
255
66
1
10
0
20
0
30
0
70
8
0
VERTEX
8
0
62
255
10
-39.581464
20
27.610737
30
0
70
32
0
VERTEX
8
0
62
255
10
-54.679601
20
40.369102
30
0
70
32
0
VERTEX
8
0
62
255
10
-62.300468
20
27.169372
30
0
70
32
0
VERTEX
8
0
62
255
10
-43.702332
20
20.473185
30
0
70
32
0
VERTEX
8
0
62
255
10
-39.581464
20
27.610737
30
0
70
32
0
SEQEND
8
0
0
POLYLINE
8
0
62
255
66
1
10
0
20
0
30
0
70
8
0
VERTEX
8
0
62
255
10
-46.637838
20
12.407948
30
0
70
32
0
VERTEX
8
0
62
255
10
-65.189063
20
19.233023
30
0
70
32
0
VERTEX
8
0
62
255
10
-67.835763
20
4.2228433
30
0
70
32
0
VERTEX
8
0
62
255
10
-48.069001
20
4.291423
30
0
70
32
0
VERTEX
8
0
62
255
10
-46.637838
20
12.407948
30
0
70
32
0
SEQEND
8
0
0
POLYLINE
8
0
62
255
66
1
10
0
20
0
30
0
70
8
0
VERTEX
8
0
62
255
10
-48.069001
20
-4.291423
30
0
70
32
0
VERTEX
8
0
62
255
10
-67.835763
20
-4.2228433
30
0
70
32
0
VERTEX
8
0
62
255
10
-65.189063
20
-19.233023
30
0
70
32
0
VERTEX
8
0
62
255
10
-46.637838
20
-12.407948
30
0
70
32
0
VERTEX
8
0
62
255
10
-48.069001
20
-4.291423
30
0
70
32
0
SEQEND
8
0
0
POLYLINE
8
0
62
255
66
1
10
0
20
0
30
0
70
8
0
VERTEX
8
0
62
255
10
-43.702332
20
-20.473185
30
0
70
32
0
VERTEX
8
0
62
255
10
-62.300468
20
-27.169372
30
0
70
32
0
VERTEX
8
0
62
255
10
-54.679601
20
-40.369102
30
0
70
32
0
VERTEX
8
0
62
255
10
-39.581464
20
-27.610737
30
0
70
32
0
VERTEX
8
0
62
255
10
-43.702332
20
-20.473185
30
0
70
32
0
SEQEND
8
0
0
POLYLINE
8
0
62
255
66
1
10
0
20
0
30
0
70
8
0
VERTEX
8
0
62
255
10
-34.064517
20
-34.185579
30
0
70
32
0
VERTEX
8
0
62
255
10
-49.250818
20
-46.838873
30
0
70
32
0
VERTEX
8
0
62
255
10
-37.574971
20
-56.636072
30
0
70
32
0
VERTEX
8
0
62
255
10
-27.750982
20
-39.483264
30
0
70
32
0
VERTEX
8
0
62
255
10
-34.064517
20
-34.185579
30
0
70
32
0
SEQEND
8
0
0
POLYLINE
8
0
62
255
66
1
10
0
20
0
30
0
70
8
0
VERTEX
8
0
62
255
10
-20.318019
20
-43.774687
30
0
70
32
0
VERTEX
8
0
62
255
10
-30.260792
20
-60.858916
30
0
70
32
0
VERTEX
8
0
62
255
10
-15.938245
20
-66.071896
30
0
70
32
0
VERTEX
8
0
62
255
10
-12.573321
20
-46.593527
30
0
70
32
0
VERTEX
8
0
62
255
10
-20.318019
20
-43.774687
30
0
70
32
0
SEQEND
8
0
0
POLYLINE
8
0
62
255
66
1
10
0
20
0
30
0
70
8
0
VERTEX
8
0
62
255
10
-4.1208678
20
-48.083922
30
0
70
32
0
VERTEX
8
0
62
255
10
-7.6208678
20
-67.538474
30
0
70
32
0
VERTEX
8
0
62
255
10
7.6208678
20
-67.538474
30
0
70
32
0
VERTEX
8
0
62
255
10
4.1208678
20
-48.083922
30
0
70
32
0
VERTEX
8
0
62
255
10
-4.1208678
20
-48.083922
30
0
70
32
0
SEQEND
8
0
0
POLYLINE
8
0
62
255
66
1
10
0
20
0
30
0
70
8
0
VERTEX
8
0
62
255
10
12.573321
20
-46.593527
30
0
70
32
0
VERTEX
8
0
62
255
10
15.938245
20
-66.071896
30
0
70
32
0
VERTEX
8
0
62
255
10
30.260792
20
-60.858916
30
0
70
32
0
VERTEX
8
0
62
255
10
20.318019
20
-43.774687
30
0
70
32
0
VERTEX
8
0
62
255
10
12.573321
20
-46.593527
30
0
70
32
0
SEQEND
8
0
0
POLYLINE
8
0
62
255
66
1
10
0
20
0
30
0
70
8
0
VERTEX
8
0
62
255
10
27.750982
20
-39.483264
30
0
70
32
0
VERTEX
8
0
62
255
10
37.574971
20
-56.636072
30
0
70
32
0
VERTEX
8
0
62
255
10
49.250818
20
-46.838873
30
0
70
32
0
VERTEX
8
0
62
255
10
34.064517
20
-34.185579
30
0
70
32
0
VERTEX
8
0
62
255
10
27.750982
20
-39.483264
30
0
70
32
0
SEQEND
8
0
0
POLYLINE
8
0
62
255
66
1
10
0
20
0
30
0
70
8
0
VERTEX
8
0
62
255
10
39.581464
20
-27.610737
30
0
70
32
0
VERTEX
8
0
62
255
10
54.679601
20
-40.369102
30
0
70
32
0
VERTEX
8
0
62
255
10
62.300468
20
-27.169372
30
0
70
32
0
VERTEX
8
0
62
255
10
43.702332
20
-20.473185
30
0
70
32
0
VERTEX
8
0
62
255
10
39.581464
20
-27.610737
30
0
70
32
0
SEQEND
8
0
0
POLYLINE
8
0
62
255
66
1
10
0
20
0
30
0
70
8
0
VERTEX
8
0
62
255
10
46.637838
20
-12.407948
30
0
70
32
0
VERTEX
8
0
62
255
10
65.189063
20
-19.233023
30
0
70
32
0
VERTEX
8
0
62
255
10
67.835763
20
-4.2228433
30
0
70
32
0
VERTEX
8
0
62
255
10
48.069001
20
-4.291423
30
0
70
32
0
VERTEX
8
0
62
255
10
46.637838
20
-12.407948
30
0
70
32
0
SEQEND
8
0
0
POLYLINE
8
0
62
255
66
1
10
0
20
0
30
0
70
8
0
VERTEX
8
0
62
255
10
48.069001
20
4.291423
30
0
70
32
0
VERTEX
8
0
62
255
10
67.835763
20
4.2228433
30
0
70
32
0
VERTEX
8
0
62
255
10
65.189063
20
19.233023
30
0
70
32
0
VERTEX
8
0
62
255
10
46.637838
20
12.407948
30
0
70
32
0
VERTEX
8
0
62
255
10
48.069001
20
4.291423
30
0
70
32
0
SEQEND
8
0
0
POLYLINE
8
0
62
255
66
1
10
0
20
0
30
0
70
8
0
VERTEX
8
0
62
255
10
43.702332
20
20.473185
30
0
70
32
0
VERTEX
8
0
62
255
10
62.300468
20
27.169372
30
0
70
32
0
VERTEX
8
0
62
255
10
54.679601
20
40.369102
30
0
70
32
0
VERTEX
8
0
62
255
10
39.581464
20
27.610737
30
0
70
32
0
VERTEX
8
0
62
255
10
43.702332
20
20.473185
30
0
70
32
0
SEQEND
8
0
0
POLYLINE
8
0
62
255
66
1
10
0
20
0
30
0
70
8
0
VERTEX
8
0
62
255
10
34.064517
20
34.185579
30
0
70
32
0
VERTEX
8
0
62
255
10
49.250818
20
46.838873
30
0
70
32
0
VERTEX
8
0
62
255
10
37.574971
20
56.636072
30
0
70
32
0
VERTEX
8
0
62
255
10
27.750982
20
39.483264
30
0
70
32
0
VERTEX
8
0
62
255
10
34.064517
20
34.185579
30
0
70
32
0
SEQEND
8
0
0
POLYLINE
8
0
62
255
66
1
10
0
20
0
30
0
70
8
0
VERTEX
8
0
62
255
10
20.318019
20
43.774687
30
0
70
32
0
VERTEX
8
0
62
255
10
30.260792
20
60.858916
30
0
70
32
0
VERTEX
8
0
62
255
10
15.938245
20
66.071896
30
0
70
32
0
VERTEX
8
0
62
255
10
12.573321
20
46.593527
30
0
70
32
0
VERTEX
8
0
62
255
10
20.318019
20
43.774687
30
0
70
32
0
SEQEND
8
0
0
POLYLINE
8
0
62
255
66
1
10
0
20
0
30
0
70
8
0
VERTEX
8
0
62
255
10
-0.88638115
20
42.315394
30
0
70
32
0
VERTEX
8
0
62
255
10
-0.92241046
20
44.035416
30
0
70
32
0
VERTEX
8
0
62
255
10
-1.8444163
20
44.00644
30
0
70
32
0
VERTEX
8
0
62
255
10
-2.7656132
20
43.958162
30
0
70
32
0
VERTEX
8
0
62
255
10
-3.6855969
20
43.890603
30
0
70
32
0
VERTEX
8
0
62
255
10
-4.603964
20
43.803792
30
0
70
32
0
VERTEX
8
0
62
255
10
-5.5203117
20
43.697767
30
0
70
32
0
VERTEX
8
0
62
255
10
-6.434238
20
43.572574
30
0
70
32
0
VERTEX
8
0
62
255
10
-7.345342
20
43.42827
30
0
70
32
0
VERTEX
8
0
62
255
10
-8.2532241
20
43.264916
30
0
70
32
0
VERTEX
8
0
62
255
10
-9.1574861
20
43.082585
30
0
70
32
0
VERTEX
8
0
62
255
10
-10.057731
20
42.881356
30
0
70
32
0
VERTEX
8
0
62
255
10
-10.953565
20
42.661318
30
0
70
32
0
VERTEX
8
0
62
255
10
-11.844594
20
42.422568
30
0
70
32
0
VERTEX
8
0
62
255
10
-12.730427
20
42.165209
30
0
70
32
0
VERTEX
8
0
62
255
10
-13.610677
20
41.889356
30
0
70
32
0
VERTEX
8
0
62
255
10
-14.484956
20
41.595128
30
0
70
32
0
VERTEX
8
0
62
255
10
-15.352882
20
41.282656
30
0
70
32
0
VERTEX
8
0
62
255
10
-16.214074
20
40.952075
30
0
70
32
0
VERTEX
8
0
62
255
10
-17.068153
20
40.603532
30
0
70
32
0
VERTEX
8
0
62
255
10
-17.914746
20
40.237179
30
0
70
32
0
VERTEX
8
0
62
255
10
-18.753481
20
39.853176
30
0
70
32
0
VERTEX
8
0
62
255
10
-19.58399
20
39.451692
30
0
70
32
0
VERTEX
8
0
62
255
10
-20.405909
20
39.032903
30
0
70
32
0
VERTEX
8
0
62
255
10
-21.218877
20
38.596994
30
0
70
32
0
VERTEX
8
0
62
255
10
-22.022538
20
38.144154
30
0
70
32
0
VERTEX
8
0
62
255
10
-22.816539
20
37.674583
30
0
70
32
0
VERTEX
8
0
62
255
10
-23.600532
20
37.188487
30
0
70
32
0
VERTEX
8
0
62
255
10
-24.374172
20
36.686079
30
0
70
32
0
VERTEX
8
0
62
255
10
-25.137122
20
36.167579
30
0
70
32
0
VERTEX
8
0
62
255
10
-25.889046
20
35.633214
30
0
70
32
0
VERTEX
8
0
62
255
10
-26.629614
20
35.08322
30
0
70
32
0
VERTEX
8
0
62
255
10
-27.358501
20
34.517837
30
0
70
32
0
VERTEX
8
0
62
255
10
-28.075388
20
33.937314
30
0
70
32
0
VERTEX
8
0
62
255
10
-28.77996
20
33.341904
30
0
70
32
0
VERTEX
8
0
62
255
10
-29.471908
20
32.73187
30
0
70
32
0
VERTEX
8
0
62
255
10
-30.150929
20
32.107478
30
0
70
32
0
VERTEX
8
0
62
255
10
-30.816725
20
31.469003
30
0
70
32
0
VERTEX
8
0
62
255
10
-31.469003
20
30.816725
30
0
70
32
0
VERTEX
8
0
62
255
10
-32.107478
20
30.150929
30
0
70
32
0
VERTEX
8
0
62
255
10
-32.73187
20
29.471908
30
0
70
32
0
VERTEX
8
0
62
255
10
-33.341904
20
28.77996
30
0
70
32
0
VERTEX
8
0
62
255
10
-33.937314
20
28.075388
30
0
70
32
0
VERTEX
8
0
62
255
10
-34.517837
20
27.358501
30
0
70
32
0
VERTEX
8
0
62
255
10
-35.08322
20
26.629614
30
0
70
32
0
VERTEX
8
0
62
255
10
-35.633214
20
25.889046
30
0
70
32
0
VERTEX
8
0
62
255
10
-36.167579
20
25.137122
30
0
70
32
0
VERTEX
8
0
62
255
10
-36.686079
20
24.374172
30
0
70
32
0
VERTEX
8
0
62
255
10
-37.188487
20
23.600532
30
0
70
32
0
VERTEX
8
0
62
255
10
-37.674583
20
22.816539
30
0
70
32
0
VERTEX
8
0
62
255
10
-38.144154
20
22.022538
30
0
70
32
0
VERTEX
8
0
62
255
10
-38.596994
20
21.218877
30
0
70
32
0
VERTEX
8
0
62
255
10
-39.032903
20
20.405909
30
0
70
32
0
VERTEX
8
0
62
255
10
-39.451692
20
19.58399
30
0
70
32
0
VERTEX
8
0
62
255
10
-39.853176
20
18.753481
30
0
70
32
0
VERTEX
8
0
62
255
10
-40.237179
20
17.914746
30
0
70
32
0
VERTEX
8
0
62
255
10
-40.603532
20
17.068153
30
0
70
32
0
VERTEX
8
0
62
255
10
-40.952075
20
16.214074
30
0
70
32
0
VERTEX
8
0
62
255
10
-41.282656
20
15.352882
30
0
70
32
0
VERTEX
8
0
62
255
10
-41.595128
20
14.484956
30
0
70
32
0
VERTEX
8
0
62
255
10
-41.889356
20
13.610677
30
0
70
32
0
VERTEX
8
0
62
255
10
-42.165209
20
12.730427
30
0
70
32
0
VERTEX
8
0
62
255
10
-42.422568
20
11.844594
30
0
70
32
0
VERTEX
8
0
62
255
10
-42.661318
20
10.953565
30
0
70
32
0
VERTEX
8
0
62
255
10
-42.881356
20
10.057731
30
0
70
32
0
VERTEX
8
0
62
255
10
-43.082585
20
9.1574861
30
0
70
32
0
VERTEX
8
0
62
255
10
-43.264916
20
8.2532241
30
0
70
32
0
VERTEX
8
0
62
255
10
-43.42827
20
7.345342
30
0
70
32
0
VERTEX
8
0
62
255
10
-43.572574
20
6.434238
30
0
70
32
0
VERTEX
8
0
62
255
10
-43.697767
20
5.5203117
30
0
70
32
0
VERTEX
8
0
62
255
10
-43.803792
20
4.603964
30
0
70
32
0
VERTEX
8
0
62
255
10
-43.890603
20
3.6855969
30
0
70
32
0
VERTEX
8
0
62
255
10
-43.958162
20
2.7656132
30
0
70
32
0
VERTEX
8
0
62
255
10
-44.00644
20
1.8444163
30
0
70
32
0
VERTEX
8
0
62
255
10
-44.035416
20
0.92241046
30
0
70
32
0
VERTEX
8
0
62
255
10
-44.045075
20
5.3939661e-15
30
0
70
32
0
VERTEX
8
0
62
255
10
-44.035416
20
-0.92241046
30
0
70
32
0
VERTEX
8
0
62
255
10
-44.00644
20
-1.8444163
30
0
70
32
0
VERTEX
8
0
62
255
10
-43.958162
20
-2.7656132
30
0
70
32
0
VERTEX
8
0
62
255
10
-43.890603
20
-3.6855969
30
0
70
32
0
VERTEX
8
0
62
255
10
-43.803792
20
-4.603964
30
0
70
32
0
VERTEX
8
0
62
255
10
-43.697767
20
-5.5203117
30
0
70
32
0
VERTEX
8
0
62
255
10
-43.572574
20
-6.434238
30
0
70
32
0
VERTEX
8
0
62
255
10
-43.42827
20
-7.345342
30
0
70
32
0
VERTEX
8
0
62
255
10
-43.264916
20
-8.2532241
30
0
70
32
0
VERTEX
8
0
62
255
10
-43.082585
20
-9.1574861
30
0
70
32
0
VERTEX
8
0
62
255
10
-42.881356
20
-10.057731
30
0
70
32
0
VERTEX
8
0
62
255
10
-42.661318
20
-10.953565
30
0
70
32
0
VERTEX
8
0
62
255
10
-42.422568
20
-11.844594
30
0
70
32
0
VERTEX
8
0
62
255
10
-42.165209
20
-12.730427
30
0
70
32
0
VERTEX
8
0
62
255
10
-41.889356
20
-13.610677
30
0
70
32
0
VERTEX
8
0
62
255
10
-41.595128
20
-14.484956
30
0
70
32
0
VERTEX
8
0
62
255
10
-41.282656
20
-15.352882
30
0
70
32
0
VERTEX
8
0
62
255
10
-40.952075
20
-16.214074
30
0
70
32
0
VERTEX
8
0
62
255
10
-40.603532
20
-17.068153
30
0
70
32
0
VERTEX
8
0
62
255
10
-40.237179
20
-17.914746
30
0
70
32
0
VERTEX
8
0
62
255
10
-39.853176
20
-18.753481
30
0
70
32
0
VERTEX
8
0
62
255
10
-39.451692
20
-19.58399
30
0
70
32
0
VERTEX
8
0
62
255
10
-39.032903
20
-20.405909
30
0
70
32
0
VERTEX
8
0
62
255
10
-38.596994
20
-21.218877
30
0
70
32
0
VERTEX
8
0
62
255
10
-38.144154
20
-22.022538
30
0
70
32
0
VERTEX
8
0
62
255
10
-36.654245
20
-21.162338
30
0
70
32
0
VERTEX
8
0
62
255
10
-37.089397
20
-20.390068
30
0
70
32
0
VERTEX
8
0
62
255
10
-37.50828
20
-19.608855
30
0
70
32
0
VERTEX
8
0
62
255
10
-37.910711
20
-18.81904
30
0
70
32
0
VERTEX
8
0
62
255
10
-38.296512
20
-18.020971
30
0
70
32
0
VERTEX
8
0
62
255
10
-38.665516
20
-17.214997
30
0
70
32
0
VERTEX
8
0
62
255
10
-39.01756
20
-16.401472
30
0
70
32
0
VERTEX
8
0
62
255
10
-39.352489
20
-15.580753
30
0
70
32
0
VERTEX
8
0
62
255
10
-39.670157
20
-14.753199
30
0
70
32
0
VERTEX
8
0
62
255
10
-39.970424
20
-13.919174
30
0
70
32
0
VERTEX
8
0
62
255
10
-40.253159
20
-13.079044
30
0
70
32
0
VERTEX
8
0
62
255
10
-40.518238
20
-12.233177
30
0
70
32
0
VERTEX
8
0
62
255
10
-40.765544
20
-11.381944
30
0
70
32
0
VERTEX
8
0
62
255
10
-40.994969
20
-10.525719
30
0
70
32
0
VERTEX
8
0
62
255
10
-41.206412
20
-9.6648767
30
0
70
32
0
VERTEX
8
0
62
255
10
-41.399781
20
-8.7997951
30
0
70
32
0
VERTEX
8
0
62
255
10
-41.57499
20
-7.9308535
30
0
70
32
0
VERTEX
8
0
62
255
10
-41.731963
20
-7.0584333
30
0
70
32
0
VERTEX
8
0
62
255
10
-41.870632
20
-6.1829169
30
0
70
32
0
VERTEX
8
0
62
255
10
-41.990934
20
-5.3046886
30
0
70
32
0
VERTEX
8
0
62
255
10
-42.092818
20
-4.4241334
30
0
70
32
0
VERTEX
8
0
62
255
10
-42.176238
20
-3.5416377
30
0
70
32
0
VERTEX
8
0
62
255
10
-42.241158
20
-2.6575884
30
0
70
32
0
VERTEX
8
0
62
255
10
-42.287551
20
-1.7723735
30
0
70
32
0
VERTEX
8
0
62
255
10
-42.315394
20
-0.88638115
30
0
70
32
0
VERTEX
8
0
62
255
10
-42.324677
20
5.183278e-15
30
0
70
32
0
VERTEX
8
0
62
255
10
-42.315394
20
0.88638115
30
0
70
32
0
VERTEX
8
0
62
255
10
-42.287551
20
1.7723735
30
0
70
32
0
VERTEX
8
0
62
255
10
-42.241158
20
2.6575884
30
0
70
32
0
VERTEX
8
0
62
255
10
-42.176238
20
3.5416377
30
0
70
32
0
VERTEX
8
0
62
255
10
-42.092818
20
4.4241334
30
0
70
32
0
VERTEX
8
0
62
255
10
-41.990934
20
5.3046886
30
0
70
32
0
VERTEX
8
0
62
255
10
-41.870632
20
6.1829169
30
0
70
32
0
VERTEX
8
0
62
255
10
-41.731963
20
7.0584333
30
0
70
32
0
VERTEX
8
0
62
255
10
-41.57499
20
7.9308535
30
0
70
32
0
VERTEX
8
0
62
255
10
-41.399781
20
8.7997951
30
0
70
32
0
VERTEX
8
0
62
255
10
-41.206412
20
9.6648767
30
0
70
32
0
VERTEX
8
0
62
255
10
-40.994969
20
10.525719
30
0
70
32
0
VERTEX
8
0
62
255
10
-40.765544
20
11.381944
30
0
70
32
0
VERTEX
8
0
62
255
10
-40.518238
20
12.233177
30
0
70
32
0
VERTEX
8
0
62
255
10
-40.253159
20
13.079044
30
0
70
32
0
VERTEX
8
0
62
255
10
-39.970424
20
13.919174
30
0
70
32
0
VERTEX
8
0
62
255
10
-39.670157
20
14.753199
30
0
70
32
0
VERTEX
8
0
62
255
10
-39.352489
20
15.580753
30
0
70
32
0
VERTEX
8
0
62
255
10
-39.01756
20
16.401472
30
0
70
32
0
VERTEX
8
0
62
255
10
-38.665516
20
17.214997
30
0
70
32
0
VERTEX
8
0
62
255
10
-38.296512
20
18.020971
30
0
70
32
0
VERTEX
8
0
62
255
10
-37.910711
20
18.81904
30
0
70
32
0
VERTEX
8
0
62
255
10
-37.50828
20
19.608855
30
0
70
32
0
VERTEX
8
0
62
255
10
-37.089397
20
20.390068
30
0
70
32
0
VERTEX
8
0
62
255
10
-36.654245
20
21.162338
30
0
70
32
0
VERTEX
8
0
62
255
10
-36.203016
20
21.925326
30
0
70
32
0
VERTEX
8
0
62
255
10
-35.735906
20
22.678696
30
0
70
32
0
VERTEX
8
0
62
255
10
-35.253122
20
23.422118
30
0
70
32
0
VERTEX
8
0
62
255
10
-34.754875
20
24.155267
30
0
70
32
0
VERTEX
8
0
62
255
10
-34.241383
20
24.877821
30
0
70
32
0
VERTEX
8
0
62
255
10
-33.712871
20
25.589462
30
0
70
32
0
VERTEX
8
0
62
255
10
-33.169572
20
26.289879
30
0
70
32
0
VERTEX
8
0
62
255
10
-32.611724
20
26.978764
30
0
70
32
0
VERTEX
8
0
62
255
10
-32.039571
20
27.655816
30
0
70
32
0
VERTEX
8
0
62
255
10
-31.453364
20
28.320736
30
0
70
32
0
VERTEX
8
0
62
255
10
-30.853361
20
28.973235
30
0
70
32
0
VERTEX
8
0
62
255
10
-30.239825
20
29.613025
30
0
70
32
0
VERTEX
8
0
62
255
10
-29.613025
20
30.239825
30
0
70
32
0
VERTEX
8
0
62
255
10
-28.973235
20
30.853361
30
0
70
32
0
VERTEX
8
0
62
255
10
-28.320736
20
31.453364
30
0
70
32
0
VERTEX
8
0
62
255
10
-27.655816
20
32.039571
30
0
70
32
0
VERTEX
8
0
62
255
10
-26.978764
20
32.611724
30
0
70
32
0
VERTEX
8
0
62
255
10
-26.289879
20
33.169572
30
0
70
32
0
VERTEX
8
0
62
255
10
-25.589462
20
33.712871
30
0
70
32
0
VERTEX
8
0
62
255
10
-24.877821
20
34.241383
30
0
70
32
0
VERTEX
8
0
62
255
10
-24.155267
20
34.754875
30
0
70
32
0
VERTEX
8
0
62
255
10
-23.422118
20
35.253122
30
0
70
32
0
VERTEX
8
0
62
255
10
-22.678696
20
35.735906
30
0
70
32
0
VERTEX
8
0
62
255
10
-21.925326
20
36.203016
30
0
70
32
0
VERTEX
8
0
62
255
10
-21.162338
20
36.654245
30
0
70
32
0
VERTEX
8
0
62
255
10
-20.390068
20
37.089397
30
0
70
32
0
VERTEX
8
0
62
255
10
-19.608855
20
37.50828
30
0
70
32
0
VERTEX
8
0
62
255
10
-18.81904
20
37.910711
30
0
70
32
0
VERTEX
8
0
62
255
10
-18.020971
20
38.296512
30
0
70
32
0
VERTEX
8
0
62
255
10
-17.214997
20
38.665516
30
0
70
32
0
VERTEX
8
0
62
255
10
-16.401472
20
39.01756
30
0
70
32
0
VERTEX
8
0
62
255
10
-15.580753
20
39.352489
30
0
70
32
0
VERTEX
8
0
62
255
10
-14.753199
20
39.670157
30
0
70
32
0
VERTEX
8
0
62
255
10
-13.919174
20
39.970424
30
0
70
32
0
VERTEX
8
0
62
255
10
-13.079044
20
40.253159
30
0
70
32
0
VERTEX
8
0
62
255
10
-12.233177
20
40.518238
30
0
70
32
0
VERTEX
8
0
62
255
10
-11.381944
20
40.765544
30
0
70
32
0
VERTEX
8
0
62
255
10
-10.525719
20
40.994969
30
0
70
32
0
VERTEX
8
0
62
255
10
-9.6648767
20
41.206412
30
0
70
32
0
VERTEX
8
0
62
255
10
-8.7997951
20
41.399781
30
0
70
32
0
VERTEX
8
0
62
255
10
-7.9308535
20
41.57499
30
0
70
32
0
VERTEX
8
0
62
255
10
-7.0584333
20
41.731963
30
0
70
32
0
VERTEX
8
0
62
255
10
-6.1829169
20
41.870632
30
0
70
32
0
VERTEX
8
0
62
255
10
-5.3046886
20
41.990934
30
0
70
32
0
VERTEX
8
0
62
255
10
-4.4241334
20
42.092818
30
0
70
32
0
VERTEX
8
0
62
255
10
-3.5416377
20
42.176238
30
0
70
32
0
VERTEX
8
0
62
255
10
-2.6575884
20
42.241158
30
0
70
32
0
VERTEX
8
0
62
255
10
-1.7723735
20
42.287551
30
0
70
32
0
VERTEX
8
0
62
255
10
-0.88638115
20
42.315394
30
0
70
32
0
SEQEND
8
0
0
POLYLINE
8
0
62
255
66
1
10
0
20
0
30
0
70
8
0
VERTEX
8
0
62
255
10
-7.774917e-15
20
-42.324677
30
0
70
32
0
VERTEX
8
0
62
255
10
-8.0909491e-15
20
-44.045075
30
0
70
32
0
VERTEX
8
0
62
255
10
0.92241046
20
-44.035416
30
0
70
32
0
VERTEX
8
0
62
255
10
1.8444163
20
-44.00644
30
0
70
32
0
VERTEX
8
0
62
255
10
2.7656132
20
-43.958162
30
0
70
32
0
VERTEX
8
0
62
255
10
3.6855969
20
-43.890603
30
0
70
32
0
VERTEX
8
0
62
255
10
4.603964
20
-43.803792
30
0
70
32
0
VERTEX
8
0
62
255
10
5.5203117
20
-43.697767
30
0
70
32
0
VERTEX
8
0
62
255
10
6.434238
20
-43.572574
30
0
70
32
0
VERTEX
8
0
62
255
10
7.345342
20
-43.42827
30
0
70
32
0
VERTEX
8
0
62
255
10
8.2532241
20
-43.264916
30
0
70
32
0
VERTEX
8
0
62
255
10
9.1574861
20
-43.082585
30
0
70
32
0
VERTEX
8
0
62
255
10
10.057731
20
-42.881356
30
0
70
32
0
VERTEX
8
0
62
255
10
10.953565
20
-42.661318
30
0
70
32
0
VERTEX
8
0
62
255
10
11.844594
20
-42.422568
30
0
70
32
0
VERTEX
8
0
62
255
10
12.730427
20
-42.165209
30
0
70
32
0
VERTEX
8
0
62
255
10
13.610677
20
-41.889356
30
0
70
32
0
VERTEX
8
0
62
255
10
14.484956
20
-41.595128
30
0
70
32
0
VERTEX
8
0
62
255
10
15.352882
20
-41.282656
30
0
70
32
0
VERTEX
8
0
62
255
10
16.214074
20
-40.952075
30
0
70
32
0
VERTEX
8
0
62
255
10
17.068153
20
-40.603532
30
0
70
32
0
VERTEX
8
0
62
255
10
17.914746
20
-40.237179
30
0
70
32
0
VERTEX
8
0
62
255
10
18.753481
20
-39.853176
30
0
70
32
0
VERTEX
8
0
62
255
10
19.58399
20
-39.451692
30
0
70
32
0
VERTEX
8
0
62
255
10
20.405909
20
-39.032903
30
0
70
32
0
VERTEX
8
0
62
255
10
21.218877
20
-38.596994
30
0
70
32
0
VERTEX
8
0
62
255
10
22.022538
20
-38.144154
30
0
70
32
0
VERTEX
8
0
62
255
10
22.816539
20
-37.674583
30
0
70
32
0
VERTEX
8
0
62
255
10
23.600532
20
-37.188487
30
0
70
32
0
VERTEX
8
0
62
255
10
24.374172
20
-36.686079
30
0
70
32
0
VERTEX
8
0
62
255
10
25.137122
20
-36.167579
30
0
70
32
0
VERTEX
8
0
62
255
10
25.889046
20
-35.633214
30
0
70
32
0
VERTEX
8
0
62
255
10
26.629614
20
-35.08322
30
0
70
32
0
VERTEX
8
0
62
255
10
27.358501
20
-34.517837
30
0
70
32
0
VERTEX
8
0
62
255
10
28.075388
20
-33.937314
30
0
70
32
0
VERTEX
8
0
62
255
10
28.77996
20
-33.341904
30
0
70
32
0
VERTEX
8
0
62
255
10
29.471908
20
-32.73187
30
0
70
32
0
VERTEX
8
0
62
255
10
30.150929
20
-32.107478
30
0
70
32
0
VERTEX
8
0
62
255
10
30.816725
20
-31.469003
30
0
70
32
0
VERTEX
8
0
62
255
10
31.469003
20
-30.816725
30
0
70
32
0
VERTEX
8
0
62
255
10
32.107478
20
-30.150929
30
0
70
32
0
VERTEX
8
0
62
255
10
32.73187
20
-29.471908
30
0
70
32
0
VERTEX
8
0
62
255
10
33.341904
20
-28.77996
30
0
70
32
0
VERTEX
8
0
62
255
10
33.937314
20
-28.075388
30
0
70
32
0
VERTEX
8
0
62
255
10
34.517837
20
-27.358501
30
0
70
32
0
VERTEX
8
0
62
255
10
35.08322
20
-26.629614
30
0
70
32
0
VERTEX
8
0
62
255
10
35.633214
20
-25.889046
30
0
70
32
0
VERTEX
8
0
62
255
10
36.167579
20
-25.137122
30
0
70
32
0
VERTEX
8
0
62
255
10
36.686079
20
-24.374172
30
0
70
32
0
VERTEX
8
0
62
255
10
37.188487
20
-23.600532
30
0
70
32
0
VERTEX
8
0
62
255
10
37.674583
20
-22.816539
30
0
70
32
0
VERTEX
8
0
62
255
10
38.144154
20
-22.022538
30
0
70
32
0
VERTEX
8
0
62
255
10
38.596994
20
-21.218877
30
0
70
32
0
VERTEX
8
0
62
255
10
39.032903
20
-20.405909
30
0
70
32
0
VERTEX
8
0
62
255
10
39.451692
20
-19.58399
30
0
70
32
0
VERTEX
8
0
62
255
10
39.853176
20
-18.753481
30
0
70
32
0
VERTEX
8
0
62
255
10
40.237179
20
-17.914746
30
0
70
32
0
VERTEX
8
0
62
255
10
40.603532
20
-17.068153
30
0
70
32
0
VERTEX
8
0
62
255
10
40.952075
20
-16.214074
30
0
70
32
0
VERTEX
8
0
62
255
10
41.282656
20
-15.352882
30
0
70
32
0
VERTEX
8
0
62
255
10
41.595128
20
-14.484956
30
0
70
32
0
VERTEX
8
0
62
255
10
41.889356
20
-13.610677
30
0
70
32
0
VERTEX
8
0
62
255
10
42.165209
20
-12.730427
30
0
70
32
0
VERTEX
8
0
62
255
10
42.422568
20
-11.844594
30
0
70
32
0
VERTEX
8
0
62
255
10
42.661318
20
-10.953565
30
0
70
32
0
VERTEX
8
0
62
255
10
42.881356
20
-10.057731
30
0
70
32
0
VERTEX
8
0
62
255
10
43.082585
20
-9.1574861
30
0
70
32
0
VERTEX
8
0
62
255
10
43.264916
20
-8.2532241
30
0
70
32
0
VERTEX
8
0
62
255
10
43.42827
20
-7.345342
30
0
70
32
0
VERTEX
8
0
62
255
10
43.572574
20
-6.434238
30
0
70
32
0
VERTEX
8
0
62
255
10
43.697767
20
-5.5203117
30
0
70
32
0
VERTEX
8
0
62
255
10
43.803792
20
-4.603964
30
0
70
32
0
VERTEX
8
0
62
255
10
43.890603
20
-3.6855969
30
0
70
32
0
VERTEX
8
0
62
255
10
43.958162
20
-2.7656132
30
0
70
32
0
VERTEX
8
0
62
255
10
44.00644
20
-1.8444163
30
0
70
32
0
VERTEX
8
0
62
255
10
44.035416
20
-0.92241046
30
0
70
32
0
VERTEX
8
0
62
255
10
44.045075
20
-1.0787932e-14
30
0
70
32
0
VERTEX
8
0
62
255
10
44.035416
20
0.92241046
30
0
70
32
0
VERTEX
8
0
62
255
10
44.00644
20
1.8444163
30
0
70
32
0
VERTEX
8
0
62
255
10
43.958162
20
2.7656132
30
0
70
32
0
VERTEX
8
0
62
255
10
43.890603
20
3.6855969
30
0
70
32
0
VERTEX
8
0
62
255
10
43.803792
20
4.603964
30
0
70
32
0
VERTEX
8
0
62
255
10
43.697767
20
5.5203117
30
0
70
32
0
VERTEX
8
0
62
255
10
43.572574
20
6.434238
30
0
70
32
0
VERTEX
8
0
62
255
10
43.42827
20
7.345342
30
0
70
32
0
VERTEX
8
0
62
255
10
43.264916
20
8.2532241
30
0
70
32
0
VERTEX
8
0
62
255
10
43.082585
20
9.1574861
30
0
70
32
0
VERTEX
8
0
62
255
10
42.881356
20
10.057731
30
0
70
32
0
VERTEX
8
0
62
255
10
42.661318
20
10.953565
30
0
70
32
0
VERTEX
8
0
62
255
10
42.422568
20
11.844594
30
0
70
32
0
VERTEX
8
0
62
255
10
42.165209
20
12.730427
30
0
70
32
0
VERTEX
8
0
62
255
10
41.889356
20
13.610677
30
0
70
32
0
VERTEX
8
0
62
255
10
41.595128
20
14.484956
30
0
70
32
0
VERTEX
8
0
62
255
10
41.282656
20
15.352882
30
0
70
32
0
VERTEX
8
0
62
255
10
40.952075
20
16.214074
30
0
70
32
0
VERTEX
8
0
62
255
10
40.603532
20
17.068153
30
0
70
32
0
VERTEX
8
0
62
255
10
40.237179
20
17.914746
30
0
70
32
0
VERTEX
8
0
62
255
10
39.853176
20
18.753481
30
0
70
32
0
VERTEX
8
0
62
255
10
39.451692
20
19.58399
30
0
70
32
0
VERTEX
8
0
62
255
10
39.032903
20
20.405909
30
0
70
32
0
VERTEX
8
0
62
255
10
38.596994
20
21.218877
30
0
70
32
0
VERTEX
8
0
62
255
10
38.144154
20
22.022538
30
0
70
32
0
VERTEX
8
0
62
255
10
36.654245
20
21.162338
30
0
70
32
0
VERTEX
8
0
62
255
10
37.089397
20
20.390068
30
0
70
32
0
VERTEX
8
0
62
255
10
37.50828
20
19.608855
30
0
70
32
0
VERTEX
8
0
62
255
10
37.910711
20
18.81904
30
0
70
32
0
VERTEX
8
0
62
255
10
38.296512
20
18.020971
30
0
70
32
0
VERTEX
8
0
62
255
10
38.665516
20
17.214997
30
0
70
32
0
VERTEX
8
0
62
255
10
39.01756
20
16.401472
30
0
70
32
0
VERTEX
8
0
62
255
10
39.352489
20
15.580753
30
0
70
32
0
VERTEX
8
0
62
255
10
39.670157
20
14.753199
30
0
70
32
0
VERTEX
8
0
62
255
10
39.970424
20
13.919174
30
0
70
32
0
VERTEX
8
0
62
255
10
40.253159
20
13.079044
30
0
70
32
0
VERTEX
8
0
62
255
10
40.518238
20
12.233177
30
0
70
32
0
VERTEX
8
0
62
255
10
40.765544
20
11.381944
30
0
70
32
0
VERTEX
8
0
62
255
10
40.994969
20
10.525719
30
0
70
32
0
VERTEX
8
0
62
255
10
41.206412
20
9.6648767
30
0
70
32
0
VERTEX
8
0
62
255
10
41.399781
20
8.7997951
30
0
70
32
0
VERTEX
8
0
62
255
10
41.57499
20
7.9308535
30
0
70
32
0
VERTEX
8
0
62
255
10
41.731963
20
7.0584333
30
0
70
32
0
VERTEX
8
0
62
255
10
41.870632
20
6.1829169
30
0
70
32
0
VERTEX
8
0
62
255
10
41.990934
20
5.3046886
30
0
70
32
0
VERTEX
8
0
62
255
10
42.092818
20
4.4241334
30
0
70
32
0
VERTEX
8
0
62
255
10
42.176238
20
3.5416377
30
0
70
32
0
VERTEX
8
0
62
255
10
42.241158
20
2.6575884
30
0
70
32
0
VERTEX
8
0
62
255
10
42.287551
20
1.7723735
30
0
70
32
0
VERTEX
8
0
62
255
10
42.315394
20
0.88638115
30
0
70
32
0
VERTEX
8
0
62
255
10
42.324677
20
-1.0366556e-14
30
0
70
32
0
VERTEX
8
0
62
255
10
42.315394
20
-0.88638115
30
0
70
32
0
VERTEX
8
0
62
255
10
42.287551
20
-1.7723735
30
0
70
32
0
VERTEX
8
0
62
255
10
42.241158
20
-2.6575884
30
0
70
32
0
VERTEX
8
0
62
255
10
42.176238
20
-3.5416377
30
0
70
32
0
VERTEX
8
0
62
255
10
42.092818
20
-4.4241334
30
0
70
32
0
VERTEX
8
0
62
255
10
41.990934
20
-5.3046886
30
0
70
32
0
VERTEX
8
0
62
255
10
41.870632
20
-6.1829169
30
0
70
32
0
VERTEX
8
0
62
255
10
41.731963
20
-7.0584333
30
0
70
32
0
VERTEX
8
0
62
255
10
41.57499
20
-7.9308535
30
0
70
32
0
VERTEX
8
0
62
255
10
41.399781
20
-8.7997951
30
0
70
32
0
VERTEX
8
0
62
255
10
41.206412
20
-9.6648767
30
0
70
32
0
VERTEX
8
0
62
255
10
40.994969
20
-10.525719
30
0
70
32
0
VERTEX
8
0
62
255
10
40.765544
20
-11.381944
30
0
70
32
0
VERTEX
8
0
62
255
10
40.518238
20
-12.233177
30
0
70
32
0
VERTEX
8
0
62
255
10
40.253159
20
-13.079044
30
0
70
32
0
VERTEX
8
0
62
255
10
39.970424
20
-13.919174
30
0
70
32
0
VERTEX
8
0
62
255
10
39.670157
20
-14.753199
30
0
70
32
0
VERTEX
8
0
62
255
10
39.352489
20
-15.580753
30
0
70
32
0
VERTEX
8
0
62
255
10
39.01756
20
-16.401472
30
0
70
32
0
VERTEX
8
0
62
255
10
38.665516
20
-17.214997
30
0
70
32
0
VERTEX
8
0
62
255
10
38.296512
20
-18.020971
30
0
70
32
0
VERTEX
8
0
62
255
10
37.910711
20
-18.81904
30
0
70
32
0
VERTEX
8
0
62
255
10
37.50828
20
-19.608855
30
0
70
32
0
VERTEX
8
0
62
255
10
37.089397
20
-20.390068
30
0
70
32
0
VERTEX
8
0
62
255
10
36.654245
20
-21.162338
30
0
70
32
0
VERTEX
8
0
62
255
10
36.203016
20
-21.925326
30
0
70
32
0
VERTEX
8
0
62
255
10
35.735906
20
-22.678696
30
0
70
32
0
VERTEX
8
0
62
255
10
35.253122
20
-23.422118
30
0
70
32
0
VERTEX
8
0
62
255
10
34.754875
20
-24.155267
30
0
70
32
0
VERTEX
8
0
62
255
10
34.241383
20
-24.877821
30
0
70
32
0
VERTEX
8
0
62
255
10
33.712871
20
-25.589462
30
0
70
32
0
VERTEX
8
0
62
255
10
33.169572
20
-26.289879
30
0
70
32
0
VERTEX
8
0
62
255
10
32.611724
20
-26.978764
30
0
70
32
0
VERTEX
8
0
62
255
10
32.039571
20
-27.655816
30
0
70
32
0
VERTEX
8
0
62
255
10
31.453364
20
-28.320736
30
0
70
32
0
VERTEX
8
0
62
255
10
30.853361
20
-28.973235
30
0
70
32
0
VERTEX
8
0
62
255
10
30.239825
20
-29.613025
30
0
70
32
0
VERTEX
8
0
62
255
10
29.613025
20
-30.239825
30
0
70
32
0
VERTEX
8
0
62
255
10
28.973235
20
-30.853361
30
0
70
32
0
VERTEX
8
0
62
255
10
28.320736
20
-31.453364
30
0
70
32
0
VERTEX
8
0
62
255
10
27.655816
20
-32.039571
30
0
70
32
0
VERTEX
8
0
62
255
10
26.978764
20
-32.611724
30
0
70
32
0
VERTEX
8
0
62
255
10
26.289879
20
-33.169572
30
0
70
32
0
VERTEX
8
0
62
255
10
25.589462
20
-33.712871
30
0
70
32
0
VERTEX
8
0
62
255
10
24.877821
20
-34.241383
30
0
70
32
0
VERTEX
8
0
62
255
10
24.155267
20
-34.754875
30
0
70
32
0
VERTEX
8
0
62
255
10
23.422118
20
-35.253122
30
0
70
32
0
VERTEX
8
0
62
255
10
22.678696
20
-35.735906
30
0
70
32
0
VERTEX
8
0
62
255
10
21.925326
20
-36.203016
30
0
70
32
0
VERTEX
8
0
62
255
10
21.162338
20
-36.654245
30
0
70
32
0
VERTEX
8
0
62
255
10
20.390068
20
-37.089397
30
0
70
32
0
VERTEX
8
0
62
255
10
19.608855
20
-37.50828
30
0
70
32
0
VERTEX
8
0
62
255
10
18.81904
20
-37.910711
30
0
70
32
0
VERTEX
8
0
62
255
10
18.020971
20
-38.296512
30
0
70
32
0
VERTEX
8
0
62
255
10
17.214997
20
-38.665516
30
0
70
32
0
VERTEX
8
0
62
255
10
16.401472
20
-39.01756
30
0
70
32
0
VERTEX
8
0
62
255
10
15.580753
20
-39.352489
30
0
70
32
0
VERTEX
8
0
62
255
10
14.753199
20
-39.670157
30
0
70
32
0
VERTEX
8
0
62
255
10
13.919174
20
-39.970424
30
0
70
32
0
VERTEX
8
0
62
255
10
13.079044
20
-40.253159
30
0
70
32
0
VERTEX
8
0
62
255
10
12.233177
20
-40.518238
30
0
70
32
0
VERTEX
8
0
62
255
10
11.381944
20
-40.765544
30
0
70
32
0
VERTEX
8
0
62
255
10
10.525719
20
-40.994969
30
0
70
32
0
VERTEX
8
0
62
255
10
9.6648767
20
-41.206412
30
0
70
32
0
VERTEX
8
0
62
255
10
8.7997951
20
-41.399781
30
0
70
32
0
VERTEX
8
0
62
255
10
7.9308535
20
-41.57499
30
0
70
32
0
VERTEX
8
0
62
255
10
7.0584333
20
-41.731963
30
0
70
32
0
VERTEX
8
0
62
255
10
6.1829169
20
-41.870632
30
0
70
32
0
VERTEX
8
0
62
255
10
5.3046886
20
-41.990934
30
0
70
32
0
VERTEX
8
0
62
255
10
4.4241334
20
-42.092818
30
0
70
32
0
VERTEX
8
0
62
255
10
3.5416377
20
-42.176238
30
0
70
32
0
VERTEX
8
0
62
255
10
2.6575884
20
-42.241158
30
0
70
32
0
VERTEX
8
0
62
255
10
1.7723735
20
-42.287551
30
0
70
32
0
VERTEX
8
0
62
255
10
0.88638115
20
-42.315394
30
0
70
32
0
VERTEX
8
0
62
255
10
-7.774917e-15
20
-42.324677
30
0
70
32
0
SEQEND
8
0
0
ENDSEC
0
EOF
