0
SECTION
2
HEADER
9
$ACADVER
1
AC1006
9
$INSUNITS
70
6
0
ENDSEC
0
SECTION
2
ENTITIES
0
POLYLINE
8
0
62
255
66
1
10
0
20
0
30
0
70
8
0
VERTEX
8
0
62
255
10
126.32628
20
0
30
0
70
32
0
VERTEX
8
0
62
255
10
126.31062
20
1.9892196
30
0
70
32
0
VERTEX
8
0
62
255
10
126.26363
20
3.977946
30
0
70
32
0
VERTEX
8
0
62
255
10
126.18534
20
5.9656859
30
0
70
32
0
VERTEX
8
0
62
255
10
126.07576
20
7.9519465
30
0
70
32
0
VERTEX
8
0
62
255
10
125.93491
20
9.9362353
30
0
70
32
0
VERTEX
8
0
62
255
10
125.76283
20
11.91806
30
0
70
32
0
VERTEX
8
0
62
255
10
125.55957
20
13.89693
30
0
70
32
0
VERTEX
8
0
62
255
10
125.32517
20
15.872353
30
0
70
32
0
VERTEX
8
0
62
255
10
125.05969
20
17.84384
30
0
70
32
0
VERTEX
8
0
62
255
10
124.76321
20
19.810903
30
0
70
32
0
VERTEX
8
0
62
255
10
124.43578
20
21.773053
30
0
70
32
0
VERTEX
8
0
62
255
10
124.0775
20
23.729804
30
0
70
32
0
VERTEX
8
0
62
255
10
123.68845
20
25.680671
30
0
70
32
0
VERTEX
8
0
62
255
10
123.26873
20
27.625169
30
0
70
32
0
VERTEX
8
0
62
255
10
122.81844
20
29.562817
30
0
70
32
0
VERTEX
8
0
62
255
10
122.3377
20
31.493135
30
0
70
32
0
VERTEX
8
0
62
255
10
121.82662
20
33.415643
30
0
70
32
0
VERTEX
8
0
62
255
10
121.28533
20
35.329864
30
0
70
32
0
VERTEX
8
0
62
255
10
120.71396
20
37.235325
30
0
70
32
0
VERTEX
8
0
62
255
10
120.11266
20
39.131553
30
0
70
32
0
VERTEX
8
0
62
255
10
119.48158
20
41.018077
30
0
70
32
0
VERTEX
8
0
62
255
10
118.82086
20
42.894429
30
0
70
32
0
VERTEX
8
0
62
255
10
118.13069
20
44.760145
30
0
70
32
0
VERTEX
8
0
62
255
10
117.41122
20
46.614762
30
0
70
32
0
VERTEX
8
0
62
255
10
116.66263
20
48.457819
30
0
70
32
0
VERTEX
8
0
62
255
10
115.88512
20
50.28886
30
0
70
32
0
VERTEX
8
0
62
255
10
115.07886
20
52.107431
30
0
70
32
0
VERTEX
8
0
62
255
10
114.24408
20
53.91308
30
0
70
32
0
VERTEX
8
0
62
255
10
113.38096
20
55.705361
30
0
70
32
0
VERTEX
8
0
62
255
10
112.48973
20
57.483828
30
0
70
32
0
VERTEX
8
0
62
255
10
111.5706
20
59.24804
30
0
70
32
0
VERTEX
8
0
62
255
10
110.62381
20
60.997561
30
0
70
32
0
VERTEX
8
0
62
255
10
109.64958
20
62.731956
30
0
70
32
0
VERTEX
8
0
62
255
10
108.64817
20
64.450795
30
0
70
32
0
VERTEX
8
0
62
255
10
107.61981
20
66.153652
30
0
70
32
0
VERTEX
8
0
62
255
10
106.56477
20
67.840105
30
0
70
32
0
VERTEX
8
0
62
255
10
105.4833
20
69.509735
30
0
70
32
0
VERTEX
8
0
62
255
10
104.37567
20
71.162128
30
0
70
32
0
VERTEX
8
0
62
255
10
103.24216
20
72.796876
30
0
70
32
0
VERTEX
8
0
62
255
10
102.08305
20
74.413571
30
0
70
32
0
VERTEX
8
0
62
255
10
100.89863
20
76.011814
30
0
70
32
0
VERTEX
8
0
62
255
10
99.689186
20
77.591208
30
0
70
32
0
VERTEX
8
0
62
255
10
98.455022
20
79.151362
30
0
70
32
0
VERTEX
8
0
62
255
10
97.196444
20
80.691888
30
0
70
32
0
VERTEX
8
0
62
255
10
95.913763
20
82.212404
30
0
70
32
0
VERTEX
8
0
62
255
10
94.607299
20
83.712535
30
0
70
32
0
VERTEX
8
0
62
255
10
93.277374
20
85.191906
30
0
70
32
0
VERTEX
8
0
62
255
10
91.924319
20
86.650153
30
0
70
32
0
VERTEX
8
0
62
255
10
90.54847
20
88.086912
30
0
70
32
0
VERTEX
8
0
62
255
10
89.150166
20
89.501828
30
0
70
32
0
VERTEX
8
0
62
255
10
87.729756
20
90.894551
30
0
70
32
0
VERTEX
8
0
62
255
10
86.287591
20
92.264733
30
0
70
32
0
VERTEX
8
0
62
255
10
84.82403
20
93.612037
30
0
70
32
0
VERTEX
8
0
62
255
10
83.339434
20
94.936127
30
0
70
32
0
VERTEX
8
0
62
255
10
81.834172
20
96.236676
30
0
70
32
0
VERTEX
8
0
62
255
10
80.308617
20
97.51336
30
0
70
32
0
VERTEX
8
0
62
255
10
78.763148
20
98.765864
30
0
70
32
0
VERTEX
8
0
62
255
10
77.198148
20
99.993877
30
0
70
32
0
VERTEX
8
0
62
255
10
75.614005
20
101.19709
30
0
70
32
0
VERTEX
8
0
62
255
10
74.011112
20
102.37522
30
0
70
32
0
VERTEX
8
0
62
255
10
72.389865
20
103.52795
30
0
70
32
0
VERTEX
8
0
62
255
10
70.750668
20
104.65502
30
0
70
32
0
VERTEX
8
0
62
255
10
69.093927
20
105.75613
30
0
70
32
0
VERTEX
8
0
62
255
10
67.420052
20
106.83102
30
0
70
32
0
VERTEX
8
0
62
255
10
65.729459
20
107.87941
30
0
70
32
0
VERTEX
8
0
62
255
10
64.022567
20
108.90106
30
0
70
32
0
VERTEX
8
0
62
255
10
62.299799
20
109.8957
30
0
70
32
0
VERTEX
8
0
62
255
10
60.561582
20
110.86309
30
0
70
32
0
VERTEX
8
0
62
255
10
58.808348
20
111.80299
30
0
70
32
0
VERTEX
8
0
62
255
10
57.04053
20
112.71516
30
0
70
32
0
VERTEX
8
0
62
255
10
55.258568
20
113.59938
30
0
70
32
0
VERTEX
8
0
62
255
10
53.462904
20
114.45544
30
0
70
32
0
VERTEX
8
0
62
255
10
51.653982
20
115.28311
30
0
70
32
0
VERTEX
8
0
62
255
10
49.832251
20
116.0822
30
0
70
32
0
VERTEX
8
0
62
255
10
47.998163
20
116.8525
30
0
70
32
0
VERTEX
8
0
62
255
10
46.152173
20
117.59382
30
0
70
32
0
VERTEX
8
0
62
255
10
44.294739
20
118.30598
30
0
70
32
0
VERTEX
8
0
62
255
10
42.42632
20
118.98881
30
0
70
32
0
VERTEX
8
0
62
255
10
40.547381
20
119.64213
30
0
70
32
0
VERTEX
8
0
62
255
10
38.658387
20
120.26578
30
0
70
32
0
VERTEX
8
0
62
255
10
36.759807
20
120.85961
30
0
70
32
0
VERTEX
8
0
62
255
10
34.852112
20
121.42347
30
0
70
32
0
VERTEX
8
0
62
255
10
32.935774
20
121.95722
30
0
70
32
0
VERTEX
8
0
62
255
10
31.011269
20
122.46073
30
0
70
32
0
VERTEX
8
0
62
255
10
29.079074
20
122.93387
30
0
70
32
0
VERTEX
8
0
62
255
10
27.139668
20
123.37653
30
0
70
32
0
VERTEX
8
0
62
255
10
25.193532
20
123.78859
30
0
70
32
0
VERTEX
8
0
62
255
10
23.241149
20
124.16996
30
0
70
32
0
VERTEX
8
0
62
255
10
21.283003
20
124.52053
30
0
70
32
0
VERTEX
8
0
62
255
10
19.319579
20
124.84023
30
0
70
32
0
VERTEX
8
0
62
255
10
17.351364
20
125.12897
30
0
70
32
0
VERTEX
8
0
62
255
10
15.378847
20
125.38668
30
0
70
32
0
VERTEX
8
0
62
255
10
13.402516
20
125.6133
30
0
70
32
0
VERTEX
8
0
62
255
10
11.422862
20
125.80877
30
0
70
32
0
VERTEX
8
0
62
255
10
9.4403749
20
125.97305
30
0
70
32
0
VERTEX
8
0
62
255
10
7.455547
20
126.10608
30
0
70
32
0
VERTEX
8
0
62
255
10
5.4688704
20
126.20785
30
0
70
32
0
VERTEX
8
0
62
255
10
3.4808376
20
126.27832
30
0
70
32
0
VERTEX
8
0
62
255
10
1.4919417
20
126.31747
30
0
70
32
0
VERTEX
8
0
62
255
10
-0.49732418
20
126.3253
30
0
70
32
0
VERTEX
8
0
62
255
10
-2.4864667
20
126.30181
30
0
70
32
0
VERTEX
8
0
62
255
10
-4.4749927
20
126.247
30
0
70
32
0
VERTEX
8
0
62
255
10
-6.462409
20
126.16088
30
0
70
32
0
VERTEX
8
0
62
255
10
-8.4482228
20
126.04347
30
0
70
32
0
VERTEX
8
0
62
255
10
-10.431942
20
125.89481
30
0
70
32
0
VERTEX
8
0
62
255
10
-12.413074
20
125.71494
30
0
70
32
0
VERTEX
8
0
62
255
10
-14.391128
20
125.50388
30
0
70
32
0
VERTEX
8
0
62
255
10
-16.365613
20
125.26171
30
0
70
32
0
VERTEX
8
0
62
255
10
-18.33604
20
124.98848
30
0
70
32
0
VERTEX
8
0
62
255
10
-20.30192
20
124.68425
30
0
70
32
0
VERTEX
8
0
62
255
10
-22.262766
20
124.3491
30
0
70
32
0
VERTEX
8
0
62
255
10
-24.218091
20
123.98312
30
0
70
32
0
VERTEX
8
0
62
255
10
-26.167411
20
123.58639
30
0
70
32
0
VERTEX
8
0
62
255
10
-28.110242
20
123.15902
30
0
70
32
0
VERTEX
8
0
62
255
10
-30.046103
20
122.70111
30
0
70
32
0
VERTEX
8
0
62
255
10
-31.974512
20
122.21277
30
0
70
32
0
VERTEX
8
0
62
255
10
-33.894993
20
121.69412
30
0
70
32
0
VERTEX
8
0
62
255
10
-35.807069
20
121.1453
30
0
70
32
0
VERTEX
8
0
62
255
10
-37.710266
20
120.56644
30
0
70
32
0
VERTEX
8
0
62
255
10
-39.604112
20
119.95768
30
0
70
32
0
VERTEX
8
0
62
255
10
-41.488137
20
119.31917
30
0
70
32
0
VERTEX
8
0
62
255
10
-43.361873
20
118.65107
30
0
70
32
0
VERTEX
8
0
62
255
10
-45.224858
20
117.95356
30
0
70
32
0
VERTEX
8
0
62
255
10
-47.076627
20
117.22679
30
0
70
32
0
VERTEX
8
0
62
255
10
-48.916723
20
116.47096
30
0
70
32
0
VERTEX
8
0
62
255
10
-50.744689
20
115.68624
30
0
70
32
0
VERTEX
8
0
62
255
10
-52.560072
20
114.87284
30
0
70
32
0
VERTEX
8
0
62
255
10
-54.362421
20
114.03095
30
0
70
32
0
VERTEX
8
0
62
255
10
-56.15129
20
113.16078
30
0
70
32
0
VERTEX
8
0
62
255
10
-57.926234
20
112.26255
30
0
70
32
0
VERTEX
8
0
62
255
10
-59.686815
20
111.33649
30
0
70
32
0
VERTEX
8
0
62
255
10
-61.432595
20
110.38281
30
0
70
32
0
VERTEX
8
0
62
255
10
-63.163141
20
109.40177
30
0
70
32
0
VERTEX
8
0
62
255
10
-64.878024
20
108.39359
30
0
70
32
0
VERTEX
8
0
62
255
10
-66.57682
20
107.35854
30
0
70
32
0
VERTEX
8
0
62
255
10
-68.259106
20
106.29687
30
0
70
32
0
VERTEX
8
0
62
255
10
-69.924465
20
105.20883
30
0
70
32
0
VERTEX
8
0
62
255
10
-71.572485
20
104.09471
30
0
70
32
0
VERTEX
8
0
62
255
10
-73.202758
20
102.95478
30
0
70
32
0
VERTEX
8
0
62
255
10
-74.814877
20
101.78931
30
0
70
32
0
VERTEX
8
0
62
255
10
-76.408445
20
100.5986
30
0
70
32
0
VERTEX
8
0
62
255
10
-77.983066
20
99.382951
30
0
70
32
0
VERTEX
8
0
62
255
10
-79.538348
20
98.142654
30
0
70
32
0
VERTEX
8
0
62
255
10
-81.073908
20
96.878021
30
0
70
32
0
VERTEX
8
0
62
255
10
-82.589363
20
95.589364
30
0
70
32
0
VERTEX
8
0
62
255
10
-84.084338
20
94.277004
30
0
70
32
0
VERTEX
8
0
62
255
10
-85.558463
20
92.941266
30
0
70
32
0
VERTEX
8
0
62
255
10
-87.011371
20
91.582481
30
0
70
32
0
VERTEX
8
0
62
255
10
-88.442703
20
90.200985
30
0
70
32
0
VERTEX
8
0
62
255
10
-89.852103
20
88.797123
30
0
70
32
0
VERTEX
8
0
62
255
10
-91.239223
20
87.371241
30
0
70
32
0
VERTEX
8
0
62
255
10
-92.603717
20
85.923693
30
0
70
32
0
VERTEX
8
0
62
255
10
-93.945249
20
84.454838
30
0
70
32
0
VERTEX
8
0
62
255
10
-95.263484
20
82.965041
30
0
70
32
0
VERTEX
8
0
62
255
10
-96.558097
20
81.454671
30
0
70
32
0
VERTEX
8
0
62
255
10
-97.828765
20
79.924102
30
0
70
32
0
VERTEX
8
0
62
255
10
-99.075175
20
78.373714
30
0
70
32
0
VERTEX
8
0
62
255
10
-100.29702
20
76.803892
30
0
70
32
0
VERTEX
8
0
62
255
10
-101.49399
20
75.215024
30
0
70
32
0
VERTEX
8
0
62
255
10
-102.66579
20
73.607505
30
0
70
32
0
VERTEX
8
0
62
255
10
-103.81214
20
71.981733
30
0
70
32
0
VERTEX
8
0
62
255
10
-104.93274
20
70.338112
30
0
70
32
0
VERTEX
8
0
62
255
10
-106.02732
20
68.677049
30
0
70
32
0
VERTEX
8
0
62
255
10
-107.09561
20
66.998955
30
0
70
32
0
VERTEX
8
0
62
255
10
-108.13734
20
65.304248
30
0
70
32
0
VERTEX
8
0
62
255
10
-109.15226
20
63.593347
30
0
70
32
0
VERTEX
8
0
62
255
10
-110.14011
20
61.866676
30
0
70
32
0
VERTEX
8
0
62
255
10
-111.10065
20
60.124664
30
0
70
32
0
VERTEX
8
0
62
255
10
-112.03364
20
58.367743
30
0
70
32
0
VERTEX
8
0
62
255
10
-112.93885
20
56.596349
30
0
70
32
0
VERTEX
8
0
62
255
10
-113.81605
20
54.810919
30
0
70
32
0
VERTEX
8
0
62
255
10
-114.66503
20
53.011899
30
0
70
32
0
VERTEX
8
0
62
255
10
-115.48557
20
51.199732
30
0
70
32
0
VERTEX
8
0
62
255
10
-116.27748
20
49.37487
30
0
70
32
0
VERTEX
8
0
62
255
10
-117.04055
20
47.537764
30
0
70
32
0
VERTEX
8
0
62
255
10
-117.7746
20
45.68887
30
0
70
32
0
VERTEX
8
0
62
255
10
-118.47945
20
43.828646
30
0
70
32
0
VERTEX
8
0
62
255
10
-119.15491
20
41.957553
30
0
70
32
0
VERTEX
8
0
62
255
10
-119.80083
20
40.076057
30
0
70
32
0
VERTEX
8
0
62
255
10
-120.41704
20
38.184623
30
0
70
32
0
VERTEX
8
0
62
255
10
-121.00339
20
36.283719
30
0
70
32
0
VERTEX
8
0
62
255
10
-121.55974
20
34.373819
30
0
70
32
0
VERTEX
8
0
62
255
10
-122.08594
20
32.455395
30
0
70
32
0
VERTEX
8
0
62
255
10
-122.58187
20
30.528922
30
0
70
32
0
VERTEX
8
0
62
255
10
-123.0474
20
28.59488
30
0
70
32
0
VERTEX
8
0
62
255
10
-123.48242
20
26.653746
30
0
70
32
0
VERTEX
8
0
62
255
10
-123.88681
20
24.706003
30
0
70
32
0
VERTEX
8
0
62
255
10
-124.26049
20
22.752134
30
0
70
32
0
VERTEX
8
0
62
255
10
-124.60336
20
20.792623
30
0
70
32
0
VERTEX
8
0
62
255
10
-124.91532
20
18.827955
30
0
70
32
0
VERTEX
8
0
62
255
10
-125.19631
20
16.858619
30
0
70
32
0
VERTEX
8
0
62
255
10
-125.44626
20
14.885103
30
0
70
32
0
VERTEX
8
0
62
255
10
-125.66509
20
12.907895
30
0
70
32
0
VERTEX
8
0
62
255
10
-125.85277
20
10.927486
30
0
70
32
0
VERTEX
8
0
62
255
10
-126.00924
20
8.9443681
30
0
70
32
0
VERTEX
8
0
62
255
10
-126.13446
20
6.9590319
30
0
70
32
0
VERTEX
8
0
62
255
10
-126.2284
20
4.9719701
30
0
70
32
0
VERTEX
8
0
62
255
10
-126.29104
20
2.9836753
30
0
70
32
0
VERTEX
8
0
62
255
10
-126.32237
20
0.99464065
30
0
70
32
0
VERTEX
8
0
62
255
10
-126.32237
20
-0.99464065
30
0
70
32
0
VERTEX
8
0
62
255
10
-126.29104
20
-2.9836753
30
0
70
32
0
VERTEX
8
0
62
255
10
-126.2284
20
-4.9719701
30
0
70
32
0
VERTEX
8
0
62
255
10
-126.13446
20
-6.9590319
30
0
70
32
0
VERTEX
8
0
62
255
10
-126.00924
20
-8.9443681
30
0
70
32
0
VERTEX
8
0
62
255
10
-125.85277
20
-10.927486
30
0
70
32
0
VERTEX
8
0
62
255
10
-125.66509
20
-12.907895
30
0
70
32
0
VERTEX
8
0
62
255
10
-125.44626
20
-14.885103
30
0
70
32
0
VERTEX
8
0
62
255
10
-125.19631
20
-16.858619
30
0
70
32
0
VERTEX
8
0
62
255
10
-124.91532
20
-18.827955
30
0
70
32
0
VERTEX
8
0
62
255
10
-124.60336
20
-20.792623
30
0
70
32
0
VERTEX
8
0
62
255
10
-124.26049
20
-22.752134
30
0
70
32
0
VERTEX
8
0
62
255
10
-123.88681
20
-24.706003
30
0
70
32
0
VERTEX
8
0
62
255
10
-123.48242
20
-26.653746
30
0
70
32
0
VERTEX
8
0
62
255
10
-123.0474
20
-28.59488
30
0
70
32
0
VERTEX
8
0
62
255
10
-122.58187
20
-30.528922
30
0
70
32
0
VERTEX
8
0
62
255
10
-122.08594
20
-32.455395
30
0
70
32
0
VERTEX
8
0
62
255
10
-121.55974
20
-34.373819
30
0
70
32
0
VERTEX
8
0
62
255
10
-121.00339
20
-36.283719
30
0
70
32
0
VERTEX
8
0
62
255
10
-120.41704
20
-38.184623
30
0
70
32
0
VERTEX
8
0
62
255
10
-119.80083
20
-40.076057
30
0
70
32
0
VERTEX
8
0
62
255
10
-119.15491
20
-41.957553
30
0
70
32
0
VERTEX
8
0
62
255
10
-118.47945
20
-43.828646
30
0
70
32
0
VERTEX
8
0
62
255
10
-117.7746
20
-45.68887
30
0
70
32
0
VERTEX
8
0
62
255
10
-117.04055
20
-47.537764
30
0
70
32
0
VERTEX
8
0
62
255
10
-116.27748
20
-49.37487
30
0
70
32
0
VERTEX
8
0
62
255
10
-115.48557
20
-51.199732
30
0
70
32
0
VERTEX
8
0
62
255
10
-114.66503
20
-53.011899
30
0
70
32
0
VERTEX
8
0
62
255
10
-113.81605
20
-54.810919
30
0
70
32
0
VERTEX
8
0
62
255
10
-112.93885
20
-56.596349
30
0
70
32
0
VERTEX
8
0
62
255
10
-112.03364
20
-58.367743
30
0
70
32
0
VERTEX
8
0
62
255
10
-111.10065
20
-60.124664
30
0
70
32
0
VERTEX
8
0
62
255
10
-110.14011
20
-61.866676
30
0
70
32
0
VERTEX
8
0
62
255
10
-109.15226
20
-63.593347
30
0
70
32
0
VERTEX
8
0
62
255
10
-108.13734
20
-65.304248
30
0
70
32
0
VERTEX
8
0
62
255
10
-107.09561
20
-66.998955
30
0
70
32
0
VERTEX
8
0
62
255
10
-106.02732
20
-68.677049
30
0
70
32
0
VERTEX
8
0
62
255
10
-104.93274
20
-70.338112
30
0
70
32
0
VERTEX
8
0
62
255
10
-103.81214
20
-71.981733
30
0
70
32
0
VERTEX
8
0
62
255
10
-102.66579
20
-73.607505
30
0
70
32
0
VERTEX
8
0
62
255
10
-101.49399
20
-75.215024
30
0
70
32
0
VERTEX
8
0
62
255
10
-100.29702
20
-76.803892
30
0
70
32
0
VERTEX
8
0
62
255
10
-99.075175
20
-78.373714
30
0
70
32
0
VERTEX
8
0
62
255
10
-97.828765
20
-79.924102
30
0
70
32
0
VERTEX
8
0
62
255
10
-96.558097
20
-81.454671
30
0
70
32
0
VERTEX
8
0
62
255
10
-95.263484
20
-82.965041
30
0
70
32
0
VERTEX
8
0
62
255
10
-93.945249
20
-84.454838
30
0
70
32
0
VERTEX
8
0
62
255
10
-92.603717
20
-85.923693
30
0
70
32
0
VERTEX
8
0
62
255
10
-91.239223
20
-87.371241
30
0
70
32
0
VERTEX
8
0
62
255
10
-89.852103
20
-88.797123
30
0
70
32
0
VERTEX
8
0
62
255
10
-88.442703
20
-90.200985
30
0
70
32
0
VERTEX
8
0
62
255
10
-87.011371
20
-91.582481
30
0
70
32
0
VERTEX
8
0
62
255
10
-85.558463
20
-92.941266
30
0
70
32
0
VERTEX
8
0
62
255
10
-84.084338
20
-94.277004
30
0
70
32
0
VERTEX
8
0
62
255
10
-82.589363
20
-95.589364
30
0
70
32
0
VERTEX
8
0
62
255
10
-81.073908
20
-96.878021
30
0
70
32
0
VERTEX
8
0
62
255
10
-79.538348
20
-98.142654
30
0
70
32
0
VERTEX
8
0
62
255
10
-77.983066
20
-99.382951
30
0
70
32
0
VERTEX
8
0
62
255
10
-76.408445
20
-100.5986
30
0
70
32
0
VERTEX
8
0
62
255
10
-74.814877
20
-101.78931
30
0
70
32
0
VERTEX
8
0
62
255
10
-73.202758
20
-102.95478
30
0
70
32
0
VERTEX
8
0
62
255
10
-71.572485
20
-104.09471
30
0
70
32
0
VERTEX
8
0
62
255
10
-69.924465
20
-105.20883
30
0
70
32
0
VERTEX
8
0
62
255
10
-68.259106
20
-106.29687
30
0
70
32
0
VERTEX
8
0
62
255
10
-66.57682
20
-107.35854
30
0
70
32
0
VERTEX
8
0
62
255
10
-64.878024
20
-108.39359
30
0
70
32
0
VERTEX
8
0
62
255
10
-63.163141
20
-109.40177
30
0
70
32
0
VERTEX
8
0
62
255
10
-61.432595
20
-110.38281
30
0
70
32
0
VERTEX
8
0
62
255
10
-59.686815
20
-111.33649
30
0
70
32
0
VERTEX
8
0
62
255
10
-57.926234
20
-112.26255
30
0
70
32
0
VERTEX
8
0
62
255
10
-56.15129
20
-113.16078
30
0
70
32
0
VERTEX
8
0
62
255
10
-54.362421
20
-114.03095
30
0
70
32
0
VERTEX
8
0
62
255
10
-52.560072
20
-114.87284
30
0
70
32
0
VERTEX
8
0
62
255
10
-50.744689
20
-115.68624
30
0
70
32
0
VERTEX
8
0
62
255
10
-48.916723
20
-116.47096
30
0
70
32
0
VERTEX
8
0
62
255
10
-47.076627
20
-117.22679
30
0
70
32
0
VERTEX
8
0
62
255
10
-45.224858
20
-117.95356
30
0
70
32
0
VERTEX
8
0
62
255
10
-43.361873
20
-118.65107
30
0
70
32
0
VERTEX
8
0
62
255
10
-41.488137
20
-119.31917
30
0
70
32
0
VERTEX
8
0
62
255
10
-39.604112
20
-119.95768
30
0
70
32
0
VERTEX
8
0
62
255
10
-37.710266
20
-120.56644
30
0
70
32
0
VERTEX
8
0
62
255
10
-35.807069
20
-121.1453
30
0
70
32
0
VERTEX
8
0
62
255
10
-33.894993
20
-121.69412
30
0
70
32
0
VERTEX
8
0
62
255
10
-31.974512
20
-122.21277
30
0
70
32
0
VERTEX
8
0
62
255
10
-30.046103
20
-122.70111
30
0
70
32
0
VERTEX
8
0
62
255
10
-28.110242
20
-123.15902
30
0
70
32
0
VERTEX
8
0
62
255
10
-26.167411
20
-123.58639
30
0
70
32
0
VERTEX
8
0
62
255
10
-24.218091
20
-123.98312
30
0
70
32
0
VERTEX
8
0
62
255
10
-22.262766
20
-124.3491
30
0
70
32
0
VERTEX
8
0
62
255
10
-20.30192
20
-124.68425
30
0
70
32
0
VERTEX
8
0
62
255
10
-18.33604
20
-124.98848
30
0
70
32
0
VERTEX
8
0
62
255
10
-16.365613
20
-125.26171
30
0
70
32
0
VERTEX
8
0
62
255
10
-14.391128
20
-125.50388
30
0
70
32
0
VERTEX
8
0
62
255
10
-12.413074
20
-125.71494
30
0
70
32
0
VERTEX
8
0
62
255
10
-10.431942
20
-125.89481
30
0
70
32
0
VERTEX
8
0
62
255
10
-8.4482228
20
-126.04347
30
0
70
32
0
VERTEX
8
0
62
255
10
-6.462409
20
-126.16088
30
0
70
32
0
VERTEX
8
0
62
255
10
-4.4749927
20
-126.247
30
0
70
32
0
VERTEX
8
0
62
255
10
-2.4864667
20
-126.30181
30
0
70
32
0
VERTEX
8
0
62
255
10
-0.49732418
20
-126.3253
30
0
70
32
0
VERTEX
8
0
62
255
10
1.4919417
20
-126.31747
30
0
70
32
0
VERTEX
8
0
62
255
10
3.4808376
20
-126.27832
30
0
70
32
0
VERTEX
8
0
62
255
10
5.4688704
20
-126.20785
30
0
70
32
0
VERTEX
8
0
62
255
10
7.455547
20
-126.10608
30
0
70
32
0
VERTEX
8
0
62
255
10
9.4403749
20
-125.97305
30
0
70
32
0
VERTEX
8
0
62
255
10
11.422862
20
-125.80877
30
0
70
32
0
VERTEX
8
0
62
255
10
13.402516
20
-125.6133
30
0
70
32
0
VERTEX
8
0
62
255
10
15.378847
20
-125.38668
30
0
70
32
0
VERTEX
8
0
62
255
10
17.351364
20
-125.12897
30
0
70
32
0
VERTEX
8
0
62
255
10
19.319579
20
-124.84023
30
0
70
32
0
VERTEX
8
0
62
255
10
21.283003
20
-124.52053
30
0
70
32
0
VERTEX
8
0
62
255
10
23.241149
20
-124.16996
30
0
70
32
0
VERTEX
8
0
62
255
10
25.193532
20
-123.78859
30
0
70
32
0
VERTEX
8
0
62
255
10
27.139668
20
-123.37653
30
0
70
32
0
VERTEX
8
0
62
255
10
29.079074
20
-122.93387
30
0
70
32
0
VERTEX
8
0
62
255
10
31.011269
20
-122.46073
30
0
70
32
0
VERTEX
8
0
62
255
10
32.935774
20
-121.95722
30
0
70
32
0
VERTEX
8
0
62
255
10
34.852112
20
-121.42347
30
0
70
32
0
VERTEX
8
0
62
255
10
36.759807
20
-120.85961
30
0
70
32
0
VERTEX
8
0
62
255
10
38.658387
20
-120.26578
30
0
70
32
0
VERTEX
8
0
62
255
10
40.547381
20
-119.64213
30
0
70
32
0
VERTEX
8
0
62
255
10
42.42632
20
-118.98881
30
0
70
32
0
VERTEX
8
0
62
255
10
44.294739
20
-118.30598
30
0
70
32
0
VERTEX
8
0
62
255
10
46.152173
20
-117.59382
30
0
70
32
0
VERTEX
8
0
62
255
10
47.998163
20
-116.8525
30
0
70
32
0
VERTEX
8
0
62
255
10
49.832251
20
-116.0822
30
0
70
32
0
VERTEX
8
0
62
255
10
51.653982
20
-115.28311
30
0
70
32
0
VERTEX
8
0
62
255
10
53.462904
20
-114.45544
30
0
70
32
0
VERTEX
8
0
62
255
10
55.258568
20
-113.59938
30
0
70
32
0
VERTEX
8
0
62
255
10
57.04053
20
-112.71516
30
0
70
32
0
VERTEX
8
0
62
255
10
58.808348
20
-111.80299
30
0
70
32
0
VERTEX
8
0
62
255
10
60.561582
20
-110.86309
30
0
70
32
0
VERTEX
8
0
62
255
10
62.299799
20
-109.8957
30
0
70
32
0
VERTEX
8
0
62
255
10
64.022567
20
-108.90106
30
0
70
32
0
VERTEX
8
0
62
255
10
65.729459
20
-107.87941
30
0
70
32
0
VERTEX
8
0
62
255
10
67.420052
20
-106.83102
30
0
70
32
0
VERTEX
8
0
62
255
10
69.093927
20
-105.75613
30
0
70
32
0
VERTEX
8
0
62
255
10
70.750668
20
-104.65502
30
0
70
32
0
VERTEX
8
0
62
255
10
72.389865
20
-103.52795
30
0
70
32
0
VERTEX
8
0
62
255
10
74.011112
20
-102.37522
30
0
70
32
0
VERTEX
8
0
62
255
10
75.614005
20
-101.19709
30
0
70
32
0
VERTEX
8
0
62
255
10
77.198148
20
-99.993877
30
0
70
32
0
VERTEX
8
0
62
255
10
78.763148
20
-98.765864
30
0
70
32
0
VERTEX
8
0
62
255
10
80.308617
20
-97.51336
30
0
70
32
0
VERTEX
8
0
62
255
10
81.834172
20
-96.236676
30
0
70
32
0
VERTEX
8
0
62
255
10
83.339434
20
-94.936127
30
0
70
32
0
VERTEX
8
0
62
255
10
84.82403
20
-93.612037
30
0
70
32
0
VERTEX
8
0
62
255
10
86.287591
20
-92.264733
30
0
70
32
0
VERTEX
8
0
62
255
10
87.729756
20
-90.894551
30
0
70
32
0
VERTEX
8
0
62
255
10
89.150166
20
-89.501828
30
0
70
32
0
VERTEX
8
0
62
255
10
90.54847
20
-88.086912
30
0
70
32
0
VERTEX
8
0
62
255
10
91.924319
20
-86.650153
30
0
70
32
0
VERTEX
8
0
62
255
10
93.277374
20
-85.191906
30
0
70
32
0
VERTEX
8
0
62
255
10
94.607299
20
-83.712535
30
0
70
32
0
VERTEX
8
0
62
255
10
95.913763
20
-82.212404
30
0
70
32
0
VERTEX
8
0
62
255
10
97.196444
20
-80.691888
30
0
70
32
0
VERTEX
8
0
62
255
10
98.455022
20
-79.151362
30
0
70
32
0
VERTEX
8
0
62
255
10
99.689186
20
-77.591208
30
0
70
32
0
VERTEX
8
0
62
255
10
100.89863
20
-76.011814
30
0
70
32
0
VERTEX
8
0
62
255
10
102.08305
20
-74.413571
30
0
70
32
0
VERTEX
8
0
62
255
10
103.24216
20
-72.796876
30
0
70
32
0
VERTEX
8
0
62
255
10
104.37567
20
-71.162128
30
0
70
32
0
VERTEX
8
0
62
255
10
105.4833
20
-69.509735
30
0
70
32
0
VERTEX
8
0
62
255
10
106.56477
20
-67.840105
30
0
70
32
0
VERTEX
8
0
62
255
10
107.61981
20
-66.153652
30
0
70
32
0
VERTEX
8
0
62
255
10
108.64817
20
-64.450795
30
0
70
32
0
VERTEX
8
0
62
255
10
109.64958
20
-62.731956
30
0
70
32
0
VERTEX
8
0
62
255
10
110.62381
20
-60.997561
30
0
70
32
0
VERTEX
8
0
62
255
10
111.5706
20
-59.24804
30
0
70
32
0
VERTEX
8
0
62
255
10
112.48973
20
-57.483828
30
0
70
32
0
VERTEX
8
0
62
255
10
113.38096
20
-55.705361
30
0
70
32
0
VERTEX
8
0
62
255
10
114.24408
20
-53.91308
30
0
70
32
0
VERTEX
8
0
62
255
10
115.07886
20
-52.107431
30
0
70
32
0
VERTEX
8
0
62
255
10
115.88512
20
-50.28886
30
0
70
32
0
VERTEX
8
0
62
255
10
116.66263
20
-48.457819
30
0
70
32
0
VERTEX
8
0
62
255
10
117.41122
20
-46.614762
30
0
70
32
0
VERTEX
8
0
62
255
10
118.13069
20
-44.760145
30
0
70
32
0
VERTEX
8
0
62
255
10
118.82086
20
-42.894429
30
0
70
32
0
VERTEX
8
0
62
255
10
119.48158
20
-41.018077
30
0
70
32
0
VERTEX
8
0
62
255
10
120.11266
20
-39.131553
30
0
70
32
0
VERTEX
8
0
62
255
10
120.71396
20
-37.235325
30
0
70
32
0
VERTEX
8
0
62
255
10
121.28533
20
-35.329864
30
0
70
32
0
VERTEX
8
0
62
255
10
121.82662
20
-33.415643
30
0
70
32
0
VERTEX
8
0
62
255
10
122.3377
20
-31.493135
30
0
70
32
0
VERTEX
8
0
62
255
10
122.81844
20
-29.562817
30
0
70
32
0
VERTEX
8
0
62
255
10
123.26873
20
-27.625169
30
0
70
32
0
VERTEX
8
0
62
255
10
123.68845
20
-25.680671
30
0
70
32
0
VERTEX
8
0
62
255
10
124.0775
20
-23.729804
30
0
70
32
0
VERTEX
8
0
62
255
10
124.43578
20
-21.773053
30
0
70
32
0
VERTEX
8
0
62
255
10
124.76321
20
-19.810903
30
0
70
32
0
VERTEX
8
0
62
255
10
125.05969
20
-17.84384
30
0
70
32
0
VERTEX
8
0
62
255
10
125.32517
20
-15.872353
30
0
70
32
0
VERTEX
8
0
62
255
10
125.55957
20
-13.89693
30
0
70
32
0
VERTEX
8
0
62
255
10
125.76283
20
-11.91806
30
0
70
32
0
VERTEX
8
0
62
255
10
125.93491
20
-9.9362353
30
0
70
32
0
VERTEX
8
0
62
255
10
126.07576
20
-7.9519465
30
0
70
32
0
VERTEX
8
0
62
255
10
126.18534
20
-5.9656859
30
0
70
32
0
VERTEX
8
0
62
255
10
126.26363
20
-3.977946
30
0
70
32
0
VERTEX
8
0
62
255
10
126.31062
20
-1.9892196
30
0
70
32
0
VERTEX
8
0
62
255
10
126.32628
20
-3.0941015e-14
30
0
70
32
0
SEQEND
8
0
0
POLYLINE
8
0
62
255
66
1
10
0
20
0
30
0
70
8
0
VERTEX
8
0
62
255
10
1.3209792
20
96.581331
30
0
70
32
0
VERTEX
8
0
62
255
10
2.1709792
20
97.072079
30
0
70
32
0
VERTEX
8
0
62
255
10
2.9709792
20
115.58133
30
0
70
32
0
VERTEX
8
0
62
255
10
-2.9709792
20
115.58133
30
0
70
32
0
VERTEX
8
0
62
255
10
-2.1709792
20
97.072079
30
0
70
32
0
VERTEX
8
0
62
255
10
-1.3209792
20
96.581331
30
0
70
32
0
VERTEX
8
0
62
255
10
-1.3209792
20
95.663349
30
0
70
32
0
VERTEX
8
0
62
255
10
-1.9549912
20
95.652492
30
0
70
32
0
VERTEX
8
0
62
255
10
-2.5889174
20
95.637434
30
0
70
32
0
VERTEX
8
0
62
255
10
-3.2227299
20
95.618174
30
0
70
32
0
VERTEX
8
0
62
255
10
-3.8564008
20
95.594714
30
0
70
32
0
VERTEX
8
0
62
255
10
-4.4899023
20
95.567055
30
0
70
32
0
VERTEX
8
0
62
255
10
-5.1232066
20
95.535198
30
0
70
32
0
VERTEX
8
0
62
255
10
-5.7562858
20
95.499144
30
0
70
32
0
VERTEX
8
0
62
255
10
-6.3891121
20
95.458894
30
0
70
32
0
VERTEX
8
0
62
255
10
-7.0216578
20
95.414452
30
0
70
32
0
VERTEX
8
0
62
255
10
-7.1016652
20
96.328941
30
0
70
32
0
VERTEX
8
0
62
255
10
-6.2976712
20
96.891903
30
0
70
32
0
VERTEX
8
0
62
255
10
-7.1139031
20
115.40045
30
0
70
32
0
VERTEX
8
0
62
255
10
-13.03325
20
114.88257
30
0
70
32
0
VERTEX
8
0
62
255
10
-10.623107
20
96.513477
30
0
70
32
0
VERTEX
8
0
62
255
10
-9.7335701
20
96.098679
30
0
70
32
0
VERTEX
8
0
62
255
10
-9.6535626
20
95.18419
30
0
70
32
0
VERTEX
8
0
62
255
10
-10.284216
20
95.118117
30
0
70
32
0
VERTEX
8
0
62
255
10
-10.914417
20
95.047866
30
0
70
32
0
VERTEX
8
0
62
255
10
-11.544139
20
94.973439
30
0
70
32
0
VERTEX
8
0
62
255
10
-12.173354
20
94.89484
30
0
70
32
0
VERTEX
8
0
62
255
10
-12.802035
20
94.812073
30
0
70
32
0
VERTEX
8
0
62
255
10
-13.430152
20
94.725141
30
0
70
32
0
VERTEX
8
0
62
255
10
-14.05768
20
94.634047
30
0
70
32
0
VERTEX
8
0
62
255
10
-14.68459
20
94.538797
30
0
70
32
0
VERTEX
8
0
62
255
10
-15.310856
20
94.439393
30
0
70
32
0
VERTEX
8
0
62
255
10
-15.470262
20
95.343429
30
0
70
32
0
VERTEX
8
0
62
255
10
-14.718392
20
95.974322
30
0
70
32
0
VERTEX
8
0
62
255
10
-17.144644
20
114.3413
30
0
70
32
0
VERTEX
8
0
62
255
10
-22.996331
20
113.30949
30
0
70
32
0
VERTEX
8
0
62
255
10
-18.994387
20
95.220349
30
0
70
32
0
VERTEX
8
0
62
255
10
-18.072083
20
94.884658
30
0
70
32
0
VERTEX
8
0
62
255
10
-17.912677
20
93.980622
30
0
70
32
0
VERTEX
8
0
62
255
10
-18.535171
20
93.859835
30
0
70
32
0
VERTEX
8
0
62
255
10
-19.156852
20
93.734926
30
0
70
32
0
VERTEX
8
0
62
255
10
-19.777691
20
93.605898
30
0
70
32
0
VERTEX
8
0
62
255
10
-20.397661
20
93.472759
30
0
70
32
0
VERTEX
8
0
62
255
10
-21.016736
20
93.335514
30
0
70
32
0
VERTEX
8
0
62
255
10
-21.634887
20
93.194168
30
0
70
32
0
VERTEX
8
0
62
255
10
-22.252087
20
93.048729
30
0
70
32
0
VERTEX
8
0
62
255
10
-22.86831
20
92.899202
30
0
70
32
0
VERTEX
8
0
62
255
10
-23.483529
20
92.745594
30
0
70
32
0
VERTEX
8
0
62
255
10
-23.72112
20
93.632296
30
0
70
32
0
VERTEX
8
0
62
255
10
-23.027098
20
94.326318
30
0
70
32
0
VERTEX
8
0
62
255
10
-27.044904
20
112.41194
30
0
70
32
0
VERTEX
8
0
62
255
10
-32.784395
20
110.87405
30
0
70
32
0
VERTEX
8
0
62
255
10
-27.221108
20
93.202537
30
0
70
32
0
VERTEX
8
0
62
255
10
-26.273056
20
92.948507
30
0
70
32
0
VERTEX
8
0
62
255
10
-26.035464
20
92.061805
30
0
70
32
0
VERTEX
8
0
62
255
10
-26.645063
20
91.887224
30
0
70
32
0
VERTEX
8
0
62
255
10
-27.253492
20
91.708606
30
0
70
32
0
VERTEX
8
0
62
255
10
-27.860723
20
91.52596
30
0
70
32
0
VERTEX
8
0
62
255
10
-28.46673
20
91.339294
30
0
70
32
0
VERTEX
8
0
62
255
10
-29.071487
20
91.148615
30
0
70
32
0
VERTEX
8
0
62
255
10
-29.674966
20
90.953931
30
0
70
32
0
VERTEX
8
0
62
255
10
-30.277142
20
90.755253
30
0
70
32
0
VERTEX
8
0
62
255
10
-30.877988
20
90.552588
30
0
70
32
0
VERTEX
8
0
62
255
10
-31.477478
20
90.345944
30
0
70
32
0
VERTEX
8
0
62
255
10
-31.791446
20
91.208565
30
0
70
32
0
VERTEX
8
0
62
255
10
-31.160553
20
91.960434
30
0
70
32
0
VERTEX
8
0
62
255
10
-36.739336
20
109.62706
30
0
70
32
0
VERTEX
8
0
62
255
10
-42.322951
20
107.59479
30
0
70
32
0
VERTEX
8
0
62
255
10
-35.240659
20
90.475397
30
0
70
32
0
VERTEX
8
0
62
255
10
-34.274075
20
90.304962
30
0
70
32
0
VERTEX
8
0
62
255
10
-33.960107
20
89.442341
30
0
70
32
0
VERTEX
8
0
62
255
10
-34.55217
20
89.215295
30
0
70
32
0
VERTEX
8
0
62
255
10
-35.142715
20
88.984329
30
0
70
32
0
VERTEX
8
0
62
255
10
-35.731717
20
88.749454
30
0
70
32
0
VERTEX
8
0
62
255
10
-36.319149
20
88.510681
30
0
70
32
0
VERTEX
8
0
62
255
10
-36.904986
20
88.26802
30
0
70
32
0
VERTEX
8
0
62
255
10
-37.489201
20
88.021481
30
0
70
32
0
VERTEX
8
0
62
255
10
-38.07177
20
87.771075
30
0
70
32
0
VERTEX
8
0
62
255
10
-38.652666
20
87.516814
30
0
70
32
0
VERTEX
8
0
62
255
10
-39.231864
20
87.258708
30
0
70
32
0
VERTEX
8
0
62
255
10
-39.61982
20
88.090682
30
0
70
32
0
VERTEX
8
0
62
255
10
-39.056858
20
88.894676
30
0
70
32
0
VERTEX
8
0
62
255
10
-46.15416
20
106.00785
30
0
70
32
0
VERTEX
8
0
62
255
10
-51.539403
20
103.49667
30
0
70
32
0
VERTEX
8
0
62
255
10
-42.992008
20
87.059685
30
0
70
32
0
VERTEX
8
0
62
255
10
-42.014248
20
86.974142
30
0
70
32
0
VERTEX
8
0
62
255
10
-41.626292
20
86.142168
30
0
70
32
0
VERTEX
8
0
62
255
10
-42.196314
20
85.864384
30
0
70
32
0
VERTEX
8
0
62
255
10
-42.764482
20
85.582827
30
0
70
32
0
VERTEX
8
0
62
255
10
-43.330772
20
85.297512
30
0
70
32
0
VERTEX
8
0
62
255
10
-43.895158
20
85.008449
30
0
70
32
0
VERTEX
8
0
62
255
10
-44.457616
20
84.715652
30
0
70
32
0
VERTEX
8
0
62
255
10
-45.018121
20
84.419133
30
0
70
32
0
VERTEX
8
0
62
255
10
-45.576649
20
84.118906
30
0
70
32
0
VERTEX
8
0
62
255
10
-46.133174
20
83.814984
30
0
70
32
0
VERTEX
8
0
62
255
10
-46.687673
20
83.50738
30
0
70
32
0
VERTEX
8
0
62
255
10
-47.146664
20
84.302376
30
0
70
32
0
VERTEX
8
0
62
255
10
-46.655916
20
85.152376
30
0
70
32
0
VERTEX
8
0
62
255
10
-55.217722
20
101.58186
30
0
70
32
0
VERTEX
8
0
62
255
10
-60.363609
20
98.610879
30
0
70
32
0
VERTEX
8
0
62
255
10
-50.416162
20
82.981396
30
0
70
32
0
VERTEX
8
0
62
255
10
-49.434667
20
82.981396
30
0
70
32
0
VERTEX
8
0
62
255
10
-48.975676
20
82.186401
30
0
70
32
0
VERTEX
8
0
62
255
10
-49.519318
20
81.859993
30
0
70
32
0
VERTEX
8
0
62
255
10
-50.060785
20
81.529989
30
0
70
32
0
VERTEX
8
0
62
255
10
-50.600053
20
81.196403
30
0
70
32
0
VERTEX
8
0
62
255
10
-51.137098
20
80.859251
30
0
70
32
0
VERTEX
8
0
62
255
10
-51.671897
20
80.518546
30
0
70
32
0
VERTEX
8
0
62
255
10
-52.204426
20
80.174305
30
0
70
32
0
VERTEX
8
0
62
255
10
-52.734662
20
79.826542
30
0
70
32
0
VERTEX
8
0
62
255
10
-53.262581
20
79.475271
30
0
70
32
0
VERTEX
8
0
62
255
10
-53.78816
20
79.12051
30
0
70
32
0
VERTEX
8
0
62
255
10
-54.314693
20
79.872477
30
0
70
32
0
VERTEX
8
0
62
255
10
-53.899895
20
80.762014
30
0
70
32
0
VERTEX
8
0
62
255
10
-63.861044
20
96.382767
30
0
70
32
0
VERTEX
8
0
62
255
10
-68.728411
20
92.9746
30
0
70
32
0
VERTEX
8
0
62
255
10
-57.456619
20
78.271569
30
0
70
32
0
VERTEX
8
0
62
255
10
-56.478858
20
78.357112
30
0
70
32
0
VERTEX
8
0
62
255
10
-55.952325
20
77.605145
30
0
70
32
0
VERTEX
8
0
62
255
10
-56.465451
20
77.232598
30
0
70
32
0
VERTEX
8
0
62
255
10
-56.976096
20
76.856657
30
0
70
32
0
VERTEX
8
0
62
255
10
-57.484238
20
76.477341
30
0
70
32
0
VERTEX
8
0
62
255
10
-57.989854
20
76.094665
30
0
70
32
0
VERTEX
8
0
62
255
10
-58.492924
20
75.708646
30
0
70
32
0
VERTEX
8
0
62
255
10
-58.993423
20
75.319302
30
0
70
32
0
VERTEX
8
0
62
255
10
-59.491332
20
74.926649
30
0
70
32
0
VERTEX
8
0
62
255
10
-59.986627
20
74.530704
30
0
70
32
0
VERTEX
8
0
62
255
10
-60.479286
20
74.131486
30
0
70
32
0
VERTEX
8
0
62
255
10
-61.069354
20
74.834701
30
0
70
32
0
VERTEX
8
0
62
255
10
-60.733663
20
75.757005
30
0
70
32
0
VERTEX
8
0
62
255
10
-72.018345
20
90.450145
30
0
70
32
0
VERTEX
8
0
62
255
10
-76.570149
20
86.630728
30
0
70
32
0
VERTEX
8
0
62
255
10
-64.059796
20
72.966048
30
0
70
32
0
VERTEX
8
0
62
255
10
-63.093212
20
73.136483
30
0
70
32
0
VERTEX
8
0
62
255
10
-62.503144
20
72.433268
30
0
70
32
0
VERTEX
8
0
62
255
10
-62.981847
20
72.017416
30
0
70
32
0
VERTEX
8
0
62
255
10
-63.457783
20
71.598401
30
0
70
32
0
VERTEX
8
0
62
255
10
-63.930932
20
71.17624
30
0
70
32
0
VERTEX
8
0
62
255
10
-64.401272
20
70.750953
30
0
70
32
0
VERTEX
8
0
62
255
10
-64.868784
20
70.322558
30
0
70
32
0
VERTEX
8
0
62
255
10
-65.333445
20
69.891074
30
0
70
32
0
VERTEX
8
0
62
255
10
-65.795237
20
69.456519
30
0
70
32
0
VERTEX
8
0
62
255
10
-66.254138
20
69.018913
30
0
70
32
0
VERTEX
8
0
62
255
10
-66.710129
20
68.578276
30
0
70
32
0
VERTEX
8
0
62
255
10
-67.359241
20
69.227387
30
0
70
32
0
VERTEX
8
0
62
255
10
-67.105211
20
70.175439
30
0
70
32
0
VERTEX
8
0
62
255
10
-79.627543
20
83.829142
30
0
70
32
0
VERTEX
8
0
62
255
10
-83.829142
20
79.627543
30
0
70
32
0
VERTEX
8
0
62
255
10
-70.175439
20
67.105211
30
0
70
32
0
VERTEX
8
0
62
255
10
-69.227387
20
67.359241
30
0
70
32
0
VERTEX
8
0
62
255
10
-68.578276
20
66.710129
30
0
70
32
0
VERTEX
8
0
62
255
10
-69.018913
20
66.254138
30
0
70
32
0
VERTEX
8
0
62
255
10
-69.456519
20
65.795237
30
0
70
32
0
VERTEX
8
0
62
255
10
-69.891074
20
65.333445
30
0
70
32
0
VERTEX
8
0
62
255
10
-70.322558
20
64.868784
30
0
70
32
0
VERTEX
8
0
62
255
10
-70.750953
20
64.401272
30
0
70
32
0
VERTEX
8
0
62
255
10
-71.17624
20
63.930932
30
0
70
32
0
VERTEX
8
0
62
255
10
-71.598401
20
63.457783
30
0
70
32
0
VERTEX
8
0
62
255
10
-72.017416
20
62.981847
30
0
70
32
0
VERTEX
8
0
62
255
10
-72.433268
20
62.503144
30
0
70
32
0
VERTEX
8
0
62
255
10
-73.136483
20
63.093212
30
0
70
32
0
VERTEX
8
0
62
255
10
-72.966048
20
64.059796
30
0
70
32
0
VERTEX
8
0
62
255
10
-86.630728
20
76.570149
30
0
70
32
0
VERTEX
8
0
62
255
10
-90.450145
20
72.018345
30
0
70
32
0
VERTEX
8
0
62
255
10
-75.757005
20
60.733663
30
0
70
32
0
VERTEX
8
0
62
255
10
-74.834701
20
61.069354
30
0
70
32
0
VERTEX
8
0
62
255
10
-74.131486
20
60.479286
30
0
70
32
0
VERTEX
8
0
62
255
10
-74.530704
20
59.986627
30
0
70
32
0
VERTEX
8
0
62
255
10
-74.926649
20
59.491332
30
0
70
32
0
VERTEX
8
0
62
255
10
-75.319302
20
58.993423
30
0
70
32
0
VERTEX
8
0
62
255
10
-75.708646
20
58.492924
30
0
70
32
0
VERTEX
8
0
62
255
10
-76.094665
20
57.989854
30
0
70
32
0
VERTEX
8
0
62
255
10
-76.477341
20
57.484238
30
0
70
32
0
VERTEX
8
0
62
255
10
-76.856657
20
56.976096
30
0
70
32
0
VERTEX
8
0
62
255
10
-77.232598
20
56.465451
30
0
70
32
0
VERTEX
8
0
62
255
10
-77.605145
20
55.952325
30
0
70
32
0
VERTEX
8
0
62
255
10
-78.357112
20
56.478858
30
0
70
32
0
VERTEX
8
0
62
255
10
-78.271569
20
57.456619
30
0
70
32
0
VERTEX
8
0
62
255
10
-92.9746
20
68.728411
30
0
70
32
0
VERTEX
8
0
62
255
10
-96.382767
20
63.861044
30
0
70
32
0
VERTEX
8
0
62
255
10
-80.762014
20
53.899895
30
0
70
32
0
VERTEX
8
0
62
255
10
-79.872477
20
54.314693
30
0
70
32
0
VERTEX
8
0
62
255
10
-79.12051
20
53.78816
30
0
70
32
0
VERTEX
8
0
62
255
10
-79.475271
20
53.262581
30
0
70
32
0
VERTEX
8
0
62
255
10
-79.826542
20
52.734662
30
0
70
32
0
VERTEX
8
0
62
255
10
-80.174305
20
52.204426
30
0
70
32
0
VERTEX
8
0
62
255
10
-80.518546
20
51.671897
30
0
70
32
0
VERTEX
8
0
62
255
10
-80.859251
20
51.137098
30
0
70
32
0
VERTEX
8
0
62
255
10
-81.196403
20
50.600053
30
0
70
32
0
VERTEX
8
0
62
255
10
-81.529989
20
50.060785
30
0
70
32
0
VERTEX
8
0
62
255
10
-81.859993
20
49.519318
30
0
70
32
0
VERTEX
8
0
62
255
10
-82.186401
20
48.975676
30
0
70
32
0
VERTEX
8
0
62
255
10
-82.981396
20
49.434667
30
0
70
32
0
VERTEX
8
0
62
255
10
-82.981396
20
50.416162
30
0
70
32
0
VERTEX
8
0
62
255
10
-98.610879
20
60.363609
30
0
70
32
0
VERTEX
8
0
62
255
10
-101.58186
20
55.217722
30
0
70
32
0
VERTEX
8
0
62
255
10
-85.152376
20
46.655916
30
0
70
32
0
VERTEX
8
0
62
255
10
-84.302376
20
47.146664
30
0
70
32
0
VERTEX
8
0
62
255
10
-83.50738
20
46.687673
30
0
70
32
0
VERTEX
8
0
62
255
10
-83.814984
20
46.133174
30
0
70
32
0
VERTEX
8
0
62
255
10
-84.118906
20
45.576649
30
0
70
32
0
VERTEX
8
0
62
255
10
-84.419133
20
45.018121
30
0
70
32
0
VERTEX
8
0
62
255
10
-84.715652
20
44.457616
30
0
70
32
0
VERTEX
8
0
62
255
10
-85.008449
20
43.895158
30
0
70
32
0
VERTEX
8
0
62
255
10
-85.297512
20
43.330772
30
0
70
32
0
VERTEX
8
0
62
255
10
-85.582827
20
42.764482
30
0
70
32
0
VERTEX
8
0
62
255
10
-85.864384
20
42.196314
30
0
70
32
0
VERTEX
8
0
62
255
10
-86.142168
20
41.626292
30
0
70
32
0
VERTEX
8
0
62
255
10
-86.974142
20
42.014248
30
0
70
32
0
VERTEX
8
0
62
255
10
-87.059685
20
42.992008
30
0
70
32
0
VERTEX
8
0
62
255
10
-103.49667
20
51.539403
30
0
70
32
0
VERTEX
8
0
62
255
10
-106.00785
20
46.15416
30
0
70
32
0
VERTEX
8
0
62
255
10
-88.894676
20
39.056858
30
0
70
32
0
VERTEX
8
0
62
255
10
-88.090682
20
39.61982
30
0
70
32
0
VERTEX
8
0
62
255
10
-87.258708
20
39.231864
30
0
70
32
0
VERTEX
8
0
62
255
10
-87.516814
20
38.652666
30
0
70
32
0
VERTEX
8
0
62
255
10
-87.771075
20
38.07177
30
0
70
32
0
VERTEX
8
0
62
255
10
-88.021481
20
37.489201
30
0
70
32
0
VERTEX
8
0
62
255
10
-88.26802
20
36.904986
30
0
70
32
0
VERTEX
8
0
62
255
10
-88.510681
20
36.319149
30
0
70
32
0
VERTEX
8
0
62
255
10
-88.749454
20
35.731717
30
0
70
32
0
VERTEX
8
0
62
255
10
-88.984329
20
35.142715
30
0
70
32
0
VERTEX
8
0
62
255
10
-89.215295
20
34.55217
30
0
70
32
0
VERTEX
8
0
62
255
10
-89.442341
20
33.960107
30
0
70
32
0
VERTEX
8
0
62
255
10
-90.304962
20
34.274075
30
0
70
32
0
VERTEX
8
0
62
255
10
-90.475397
20
35.240659
30
0
70
32
0
VERTEX
8
0
62
255
10
-107.59479
20
42.322951
30
0
70
32
0
VERTEX
8
0
62
255
10
-109.62706
20
36.739336
30
0
70
32
0
VERTEX
8
0
62
255
10
-91.960434
20
31.160553
30
0
70
32
0
VERTEX
8
0
62
255
10
-91.208565
20
31.791446
30
0
70
32
0
VERTEX
8
0
62
255
10
-90.345944
20
31.477478
30
0
70
32
0
VERTEX
8
0
62
255
10
-90.552588
20
30.877988
30
0
70
32
0
VERTEX
8
0
62
255
10
-90.755253
20
30.277142
30
0
70
32
0
VERTEX
8
0
62
255
10
-90.953931
20
29.674966
30
0
70
32
0
VERTEX
8
0
62
255
10
-91.148615
20
29.071487
30
0
70
32
0
VERTEX
8
0
62
255
10
-91.339294
20
28.46673
30
0
70
32
0
VERTEX
8
0
62
255
10
-91.52596
20
27.860723
30
0
70
32
0
VERTEX
8
0
62
255
10
-91.708606
20
27.253492
30
0
70
32
0
VERTEX
8
0
62
255
10
-91.887224
20
26.645063
30
0
70
32
0
VERTEX
8
0
62
255
10
-92.061805
20
26.035464
30
0
70
32
0
VERTEX
8
0
62
255
10
-92.948507
20
26.273056
30
0
70
32
0
VERTEX
8
0
62
255
10
-93.202537
20
27.221108
30
0
70
32
0
VERTEX
8
0
62
255
10
-110.87405
20
32.784395
30
0
70
32
0
VERTEX
8
0
62
255
10
-112.41194
20
27.044904
30
0
70
32
0
VERTEX
8
0
62
255
10
-94.326318
20
23.027098
30
0
70
32
0
VERTEX
8
0
62
255
10
-93.632296
20
23.72112
30
0
70
32
0
VERTEX
8
0
62
255
10
-92.745594
20
23.483529
30
0
70
32
0
VERTEX
8
0
62
255
10
-92.899202
20
22.86831
30
0
70
32
0
VERTEX
8
0
62
255
10
-93.048729
20
22.252087
30
0
70
32
0
VERTEX
8
0
62
255
10
-93.194168
20
21.634887
30
0
70
32
0
VERTEX
8
0
62
255
10
-93.335514
20
21.016736
30
0
70
32
0
VERTEX
8
0
62
255
10
-93.472759
20
20.397661
30
0
70
32
0
VERTEX
8
0
62
255
10
-93.605898
20
19.777691
30
0
70
32
0
VERTEX
8
0
62
255
10
-93.734926
20
19.156852
30
0
70
32
0
VERTEX
8
0
62
255
10
-93.859835
20
18.535171
30
0
70
32
0
VERTEX
8
0
62
255
10
-93.980622
20
17.912677
30
0
70
32
0
VERTEX
8
0
62
255
10
-94.884658
20
18.072083
30
0
70
32
0
VERTEX
8
0
62
255
10
-95.220349
20
18.994387
30
0
70
32
0
VERTEX
8
0
62
255
10
-113.30949
20
22.996331
30
0
70
32
0
VERTEX
8
0
62
255
10
-114.3413
20
17.144644
30
0
70
32
0
VERTEX
8
0
62
255
10
-95.974322
20
14.718392
30
0
70
32
0
VERTEX
8
0
62
255
10
-95.343429
20
15.470262
30
0
70
32
0
VERTEX
8
0
62
255
10
-94.439393
20
15.310856
30
0
70
32
0
VERTEX
8
0
62
255
10
-94.538797
20
14.68459
30
0
70
32
0
VERTEX
8
0
62
255
10
-94.634047
20
14.05768
30
0
70
32
0
VERTEX
8
0
62
255
10
-94.725141
20
13.430152
30
0
70
32
0
VERTEX
8
0
62
255
10
-94.812073
20
12.802035
30
0
70
32
0
VERTEX
8
0
62
255
10
-94.89484
20
12.173354
30
0
70
32
0
VERTEX
8
0
62
255
10
-94.973439
20
11.544139
30
0
70
32
0
VERTEX
8
0
62
255
10
-95.047866
20
10.914417
30
0
70
32
0
VERTEX
8
0
62
255
10
-95.118117
20
10.284216
30
0
70
32
0
VERTEX
8
0
62
255
10
-95.18419
20
9.6535626
30
0
70
32
0
VERTEX
8
0
62
255
10
-96.098679
20
9.7335701
30
0
70
32
0
VERTEX
8
0
62
255
10
-96.513477
20
10.623107
30
0
70
32
0
VERTEX
8
0
62
255
10
-114.88257
20
13.03325
30
0
70
32
0
VERTEX
8
0
62
255
10
-115.40045
20
7.1139031
30
0
70
32
0
VERTEX
8
0
62
255
10
-96.891903
20
6.2976712
30
0
70
32
0
VERTEX
8
0
62
255
10
-96.328941
20
7.1016652
30
0
70
32
0
VERTEX
8
0
62
255
10
-95.414452
20
7.0216578
30
0
70
32
0
VERTEX
8
0
62
255
10
-95.458894
20
6.3891121
30
0
70
32
0
VERTEX
8
0
62
255
10
-95.499144
20
5.7562858
30
0
70
32
0
VERTEX
8
0
62
255
10
-95.535198
20
5.1232066
30
0
70
32
0
VERTEX
8
0
62
255
10
-95.567055
20
4.4899023
30
0
70
32
0
VERTEX
8
0
62
255
10
-95.594714
20
3.8564008
30
0
70
32
0
VERTEX
8
0
62
255
10
-95.618174
20
3.2227299
30
0
70
32
0
VERTEX
8
0
62
255
10
-95.637434
20
2.5889174
30
0
70
32
0
VERTEX
8
0
62
255
10
-95.652492
20
1.9549912
30
0
70
32
0
VERTEX
8
0
62
255
10
-95.663349
20
1.3209792
30
0
70
32
0
VERTEX
8
0
62
255
10
-96.581331
20
1.3209792
30
0
70
32
0
VERTEX
8
0
62
255
10
-97.072079
20
2.1709792
30
0
70
32
0
VERTEX
8
0
62
255
10
-115.58133
20
2.9709792
30
0
70
32
0
VERTEX
8
0
62
255
10
-115.58133
20
-2.9709792
30
0
70
32
0
VERTEX
8
0
62
255
10
-97.072079
20
-2.1709792
30
0
70
32
0
VERTEX
8
0
62
255
10
-96.581331
20
-1.3209792
30
0
70
32
0
VERTEX
8
0
62
255
10
-95.663349
20
-1.3209792
30
0
70
32
0
VERTEX
8
0
62
255
10
-95.652492
20
-1.9549912
30
0
70
32
0
VERTEX
8
0
62
255
10
-95.637434
20
-2.5889174
30
0
70
32
0
VERTEX
8
0
62
255
10
-95.618174
20
-3.2227299
30
0
70
32
0
VERTEX
8
0
62
255
10
-95.594714
20
-3.8564008
30
0
70
32
0
VERTEX
8
0
62
255
10
-95.567055
20
-4.4899023
30
0
70
32
0
VERTEX
8
0
62
255
10
-95.535198
20
-5.1232066
30
0
70
32
0
VERTEX
8
0
62
255
10
-95.499144
20
-5.7562858
30
0
70
32
0
VERTEX
8
0
62
255
10
-95.458894
20
-6.3891121
30
0
70
32
0
VERTEX
8
0
62
255
10
-95.414452
20
-7.0216578
30
0
70
32
0
VERTEX
8
0
62
255
10
-96.328941
20
-7.1016652
30
0
70
32
0
VERTEX
8
0
62
255
10
-96.891903
20
-6.2976712
30
0
70
32
0
VERTEX
8
0
62
255
10
-115.40045
20
-7.1139031
30
0
70
32
0
VERTEX
8
0
62
255
10
-114.88257
20
-13.03325
30
0
70
32
0
VERTEX
8
0
62
255
10
-96.513477
20
-10.623107
30
0
70
32
0
VERTEX
8
0
62
255
10
-96.098679
20
-9.7335701
30
0
70
32
0
VERTEX
8
0
62
255
10
-95.18419
20
-9.6535626
30
0
70
32
0
VERTEX
8
0
62
255
10
-95.118117
20
-10.284216
30
0
70
32
0
VERTEX
8
0
62
255
10
-95.047866
20
-10.914417
30
0
70
32
0
VERTEX
8
0
62
255
10
-94.973439
20
-11.544139
30
0
70
32
0
VERTEX
8
0
62
255
10
-94.89484
20
-12.173354
30
0
70
32
0
VERTEX
8
0
62
255
10
-94.812073
20
-12.802035
30
0
70
32
0
VERTEX
8
0
62
255
10
-94.725141
20
-13.430152
30
0
70
32
0
VERTEX
8
0
62
255
10
-94.634047
20
-14.05768
30
0
70
32
0
VERTEX
8
0
62
255
10
-94.538797
20
-14.68459
30
0
70
32
0
VERTEX
8
0
62
255
10
-94.439393
20
-15.310856
30
0
70
32
0
VERTEX
8
0
62
255
10
-95.343429
20
-15.470262
30
0
70
32
0
VERTEX
8
0
62
255
10
-95.974322
20
-14.718392
30
0
70
32
0
VERTEX
8
0
62
255
10
-114.3413
20
-17.144644
30
0
70
32
0
VERTEX
8
0
62
255
10
-113.30949
20
-22.996331
30
0
70
32
0
VERTEX
8
0
62
255
10
-95.220349
20
-18.994387
30
0
70
32
0
VERTEX
8
0
62
255
10
-94.884658
20
-18.072083
30
0
70
32
0
VERTEX
8
0
62
255
10
-93.980622
20
-17.912677
30
0
70
32
0
VERTEX
8
0
62
255
10
-93.859835
20
-18.535171
30
0
70
32
0
VERTEX
8
0
62
255
10
-93.734926
20
-19.156852
30
0
70
32
0
VERTEX
8
0
62
255
10
-93.605898
20
-19.777691
30
0
70
32
0
VERTEX
8
0
62
255
10
-93.472759
20
-20.397661
30
0
70
32
0
VERTEX
8
0
62
255
10
-93.335514
20
-21.016736
30
0
70
32
0
VERTEX
8
0
62
255
10
-93.194168
20
-21.634887
30
0
70
32
0
VERTEX
8
0
62
255
10
-93.048729
20
-22.252087
30
0
70
32
0
VERTEX
8
0
62
255
10
-92.899202
20
-22.86831
30
0
70
32
0
VERTEX
8
0
62
255
10
-92.745594
20
-23.483529
30
0
70
32
0
VERTEX
8
0
62
255
10
-93.632296
20
-23.72112
30
0
70
32
0
VERTEX
8
0
62
255
10
-94.326318
20
-23.027098
30
0
70
32
0
VERTEX
8
0
62
255
10
-112.41194
20
-27.044904
30
0
70
32
0
VERTEX
8
0
62
255
10
-110.87405
20
-32.784395
30
0
70
32
0
VERTEX
8
0
62
255
10
-93.202537
20
-27.221108
30
0
70
32
0
VERTEX
8
0
62
255
10
-92.948507
20
-26.273056
30
0
70
32
0
VERTEX
8
0
62
255
10
-92.061805
20
-26.035464
30
0
70
32
0
VERTEX
8
0
62
255
10
-91.887224
20
-26.645063
30
0
70
32
0
VERTEX
8
0
62
255
10
-91.708606
20
-27.253492
30
0
70
32
0
VERTEX
8
0
62
255
10
-91.52596
20
-27.860723
30
0
70
32
0
VERTEX
8
0
62
255
10
-91.339294
20
-28.46673
30
0
70
32
0
VERTEX
8
0
62
255
10
-91.148615
20
-29.071487
30
0
70
32
0
VERTEX
8
0
62
255
10
-90.953931
20
-29.674966
30
0
70
32
0
VERTEX
8
0
62
255
10
-90.755253
20
-30.277142
30
0
70
32
0
VERTEX
8
0
62
255
10
-90.552588
20
-30.877988
30
0
70
32
0
VERTEX
8
0
62
255
10
-90.345944
20
-31.477478
30
0
70
32
0
VERTEX
8
0
62
255
10
-91.208565
20
-31.791446
30
0
70
32
0
VERTEX
8
0
62
255
10
-91.960434
20
-31.160553
30
0
70
32
0
VERTEX
8
0
62
255
10
-109.62706
20
-36.739336
30
0
70
32
0
VERTEX
8
0
62
255
10
-107.59479
20
-42.322951
30
0
70
32
0
VERTEX
8
0
62
255
10
-90.475397
20
-35.240659
30
0
70
32
0
VERTEX
8
0
62
255
10
-90.304962
20
-34.274075
30
0
70
32
0
VERTEX
8
0
62
255
10
-89.442341
20
-33.960107
30
0
70
32
0
VERTEX
8
0
62
255
10
-89.215295
20
-34.55217
30
0
70
32
0
VERTEX
8
0
62
255
10
-88.984329
20
-35.142715
30
0
70
32
0
VERTEX
8
0
62
255
10
-88.749454
20
-35.731717
30
0
70
32
0
VERTEX
8
0
62
255
10
-88.510681
20
-36.319149
30
0
70
32
0
VERTEX
8
0
62
255
10
-88.26802
20
-36.904986
30
0
70
32
0
VERTEX
8
0
62
255
10
-88.021481
20
-37.489201
30
0
70
32
0
VERTEX
8
0
62
255
10
-87.771075
20
-38.07177
30
0
70
32
0
VERTEX
8
0
62
255
10
-87.516814
20
-38.652666
30
0
70
32
0
VERTEX
8
0
62
255
10
-87.258708
20
-39.231864
30
0
70
32
0
VERTEX
8
0
62
255
10
-88.090682
20
-39.61982
30
0
70
32
0
VERTEX
8
0
62
255
10
-88.894676
20
-39.056858
30
0
70
32
0
VERTEX
8
0
62
255
10
-106.00785
20
-46.15416
30
0
70
32
0
VERTEX
8
0
62
255
10
-103.49667
20
-51.539403
30
0
70
32
0
VERTEX
8
0
62
255
10
-87.059685
20
-42.992008
30
0
70
32
0
VERTEX
8
0
62
255
10
-86.974142
20
-42.014248
30
0
70
32
0
VERTEX
8
0
62
255
10
-86.142168
20
-41.626292
30
0
70
32
0
VERTEX
8
0
62
255
10
-85.864384
20
-42.196314
30
0
70
32
0
VERTEX
8
0
62
255
10
-85.582827
20
-42.764482
30
0
70
32
0
VERTEX
8
0
62
255
10
-85.297512
20
-43.330772
30
0
70
32
0
VERTEX
8
0
62
255
10
-85.008449
20
-43.895158
30
0
70
32
0
VERTEX
8
0
62
255
10
-84.715652
20
-44.457616
30
0
70
32
0
VERTEX
8
0
62
255
10
-84.419133
20
-45.018121
30
0
70
32
0
VERTEX
8
0
62
255
10
-84.118906
20
-45.576649
30
0
70
32
0
VERTEX
8
0
62
255
10
-83.814984
20
-46.133174
30
0
70
32
0
VERTEX
8
0
62
255
10
-83.50738
20
-46.687673
30
0
70
32
0
VERTEX
8
0
62
255
10
-84.302376
20
-47.146664
30
0
70
32
0
VERTEX
8
0
62
255
10
-85.152376
20
-46.655916
30
0
70
32
0
VERTEX
8
0
62
255
10
-101.58186
20
-55.217722
30
0
70
32
0
VERTEX
8
0
62
255
10
-98.610879
20
-60.363609
30
0
70
32
0
VERTEX
8
0
62
255
10
-82.981396
20
-50.416162
30
0
70
32
0
VERTEX
8
0
62
255
10
-82.981396
20
-49.434667
30
0
70
32
0
VERTEX
8
0
62
255
10
-82.186401
20
-48.975676
30
0
70
32
0
VERTEX
8
0
62
255
10
-81.859993
20
-49.519318
30
0
70
32
0
VERTEX
8
0
62
255
10
-81.529989
20
-50.060785
30
0
70
32
0
VERTEX
8
0
62
255
10
-81.196403
20
-50.600053
30
0
70
32
0
VERTEX
8
0
62
255
10
-80.859251
20
-51.137098
30
0
70
32
0
VERTEX
8
0
62
255
10
-80.518546
20
-51.671897
30
0
70
32
0
VERTEX
8
0
62
255
10
-80.174305
20
-52.204426
30
0
70
32
0
VERTEX
8
0
62
255
10
-79.826542
20
-52.734662
30
0
70
32
0
VERTEX
8
0
62
255
10
-79.475271
20
-53.262581
30
0
70
32
0
VERTEX
8
0
62
255
10
-79.12051
20
-53.78816
30
0
70
32
0
VERTEX
8
0
62
255
10
-79.872477
20
-54.314693
30
0
70
32
0
VERTEX
8
0
62
255
10
-80.762014
20
-53.899895
30
0
70
32
0
VERTEX
8
0
62
255
10
-96.382767
20
-63.861044
30
0
70
32
0
VERTEX
8
0
62
255
10
-92.9746
20
-68.728411
30
0
70
32
0
VERTEX
8
0
62
255
10
-78.271569
20
-57.456619
30
0
70
32
0
VERTEX
8
0
62
255
10
-78.357112
20
-56.478858
30
0
70
32
0
VERTEX
8
0
62
255
10
-77.605145
20
-55.952325
30
0
70
32
0
VERTEX
8
0
62
255
10
-77.232598
20
-56.465451
30
0
70
32
0
VERTEX
8
0
62
255
10
-76.856657
20
-56.976096
30
0
70
32
0
VERTEX
8
0
62
255
10
-76.477341
20
-57.484238
30
0
70
32
0
VERTEX
8
0
62
255
10
-76.094665
20
-57.989854
30
0
70
32
0
VERTEX
8
0
62
255
10
-75.708646
20
-58.492924
30
0
70
32
0
VERTEX
8
0
62
255
10
-75.319302
20
-58.993423
30
0
70
32
0
VERTEX
8
0
62
255
10
-74.926649
20
-59.491332
30
0
70
32
0
VERTEX
8
0
62
255
10
-74.530704
20
-59.986627
30
0
70
32
0
VERTEX
8
0
62
255
10
-74.131486
20
-60.479286
30
0
70
32
0
VERTEX
8
0
62
255
10
-74.834701
20
-61.069354
30
0
70
32
0
VERTEX
8
0
62
255
10
-75.757005
20
-60.733663
30
0
70
32
0
VERTEX
8
0
62
255
10
-90.450145
20
-72.018345
30
0
70
32
0
VERTEX
8
0
62
255
10
-86.630728
20
-76.570149
30
0
70
32
0
VERTEX
8
0
62
255
10
-72.966048
20
-64.059796
30
0
70
32
0
VERTEX
8
0
62
255
10
-73.136483
20
-63.093212
30
0
70
32
0
VERTEX
8
0
62
255
10
-72.433268
20
-62.503144
30
0
70
32
0
VERTEX
8
0
62
255
10
-72.017416
20
-62.981847
30
0
70
32
0
VERTEX
8
0
62
255
10
-71.598401
20
-63.457783
30
0
70
32
0
VERTEX
8
0
62
255
10
-71.17624
20
-63.930932
30
0
70
32
0
VERTEX
8
0
62
255
10
-70.750953
20
-64.401272
30
0
70
32
0
VERTEX
8
0
62
255
10
-70.322558
20
-64.868784
30
0
70
32
0
VERTEX
8
0
62
255
10
-69.891074
20
-65.333445
30
0
70
32
0
VERTEX
8
0
62
255
10
-69.456519
20
-65.795237
30
0
70
32
0
VERTEX
8
0
62
255
10
-69.018913
20
-66.254138
30
0
70
32
0
VERTEX
8
0
62
255
10
-68.578276
20
-66.710129
30
0
70
32
0
VERTEX
8
0
62
255
10
-69.227387
20
-67.359241
30
0
70
32
0
VERTEX
8
0
62
255
10
-70.175439
20
-67.105211
30
0
70
32
0
VERTEX
8
0
62
255
10
-83.829142
20
-79.627543
30
0
70
32
0
VERTEX
8
0
62
255
10
-79.627543
20
-83.829142
30
0
70
32
0
VERTEX
8
0
62
255
10
-67.105211
20
-70.175439
30
0
70
32
0
VERTEX
8
0
62
255
10
-67.359241
20
-69.227387
30
0
70
32
0
VERTEX
8
0
62
255
10
-66.710129
20
-68.578276
30
0
70
32
0
VERTEX
8
0
62
255
10
-66.254138
20
-69.018913
30
0
70
32
0
VERTEX
8
0
62
255
10
-65.795237
20
-69.456519
30
0
70
32
0
VERTEX
8
0
62
255
10
-65.333445
20
-69.891074
30
0
70
32
0
VERTEX
8
0
62
255
10
-64.868784
20
-70.322558
30
0
70
32
0
VERTEX
8
0
62
255
10
-64.401272
20
-70.750953
30
0
70
32
0
VERTEX
8
0
62
255
10
-63.930932
20
-71.17624
30
0
70
32
0
VERTEX
8
0
62
255
10
-63.457783
20
-71.598401
30
0
70
32
0
VERTEX
8
0
62
255
10
-62.981847
20
-72.017416
30
0
70
32
0
VERTEX
8
0
62
255
10
-62.503144
20
-72.433268
30
0
70
32
0
VERTEX
8
0
62
255
10
-63.093212
20
-73.136483
30
0
70
32
0
VERTEX
8
0
62
255
10
-64.059796
20
-72.966048
30
0
70
32
0
VERTEX
8
0
62
255
10
-76.570149
20
-86.630728
30
0
70
32
0
VERTEX
8
0
62
255
10
-72.018345
20
-90.450145
30
0
70
32
0
VERTEX
8
0
62
255
10
-60.733663
20
-75.757005
30
0
70
32
0
VERTEX
8
0
62
255
10
-61.069354
20
-74.834701
30
0
70
32
0
VERTEX
8
0
62
255
10
-60.479286
20
-74.131486
30
0
70
32
0
VERTEX
8
0
62
255
10
-59.986627
20
-74.530704
30
0
70
32
0
VERTEX
8
0
62
255
10
-59.491332
20
-74.926649
30
0
70
32
0
VERTEX
8
0
62
255
10
-58.993423
20
-75.319302
30
0
70
32
0
VERTEX
8
0
62
255
10
-58.492924
20
-75.708646
30
0
70
32
0
VERTEX
8
0
62
255
10
-57.989854
20
-76.094665
30
0
70
32
0
VERTEX
8
0
62
255
10
-57.484238
20
-76.477341
30
0
70
32
0
VERTEX
8
0
62
255
10
-56.976096
20
-76.856657
30
0
70
32
0
VERTEX
8
0
62
255
10
-56.465451
20
-77.232598
30
0
70
32
0
VERTEX
8
0
62
255
10
-55.952325
20
-77.605145
30
0
70
32
0
VERTEX
8
0
62
255
10
-56.478858
20
-78.357112
30
0
70
32
0
VERTEX
8
0
62
255
10
-57.456619
20
-78.271569
30
0
70
32
0
VERTEX
8
0
62
255
10
-68.728411
20
-92.9746
30
0
70
32
0
VERTEX
8
0
62
255
10
-63.861044
20
-96.382767
30
0
70
32
0
VERTEX
8
0
62
255
10
-53.899895
20
-80.762014
30
0
70
32
0
VERTEX
8
0
62
255
10
-54.314693
20
-79.872477
30
0
70
32
0
VERTEX
8
0
62
255
10
-53.78816
20
-79.12051
30
0
70
32
0
VERTEX
8
0
62
255
10
-53.262581
20
-79.475271
30
0
70
32
0
VERTEX
8
0
62
255
10
-52.734662
20
-79.826542
30
0
70
32
0
VERTEX
8
0
62
255
10
-52.204426
20
-80.174305
30
0
70
32
0
VERTEX
8
0
62
255
10
-51.671897
20
-80.518546
30
0
70
32
0
VERTEX
8
0
62
255
10
-51.137098
20
-80.859251
30
0
70
32
0
VERTEX
8
0
62
255
10
-50.600053
20
-81.196403
30
0
70
32
0
VERTEX
8
0
62
255
10
-50.060785
20
-81.529989
30
0
70
32
0
VERTEX
8
0
62
255
10
-49.519318
20
-81.859993
30
0
70
32
0
VERTEX
8
0
62
255
10
-48.975676
20
-82.186401
30
0
70
32
0
VERTEX
8
0
62
255
10
-49.434667
20
-82.981396
30
0
70
32
0
VERTEX
8
0
62
255
10
-50.416162
20
-82.981396
30
0
70
32
0
VERTEX
8
0
62
255
10
-60.363609
20
-98.610879
30
0
70
32
0
VERTEX
8
0
62
255
10
-55.217722
20
-101.58186
30
0
70
32
0
VERTEX
8
0
62
255
10
-46.655916
20
-85.152376
30
0
70
32
0
VERTEX
8
0
62
255
10
-47.146664
20
-84.302376
30
0
70
32
0
VERTEX
8
0
62
255
10
-46.687673
20
-83.50738
30
0
70
32
0
VERTEX
8
0
62
255
10
-46.133174
20
-83.814984
30
0
70
32
0
VERTEX
8
0
62
255
10
-45.576649
20
-84.118906
30
0
70
32
0
VERTEX
8
0
62
255
10
-45.018121
20
-84.419133
30
0
70
32
0
VERTEX
8
0
62
255
10
-44.457616
20
-84.715652
30
0
70
32
0
VERTEX
8
0
62
255
10
-43.895158
20
-85.008449
30
0
70
32
0
VERTEX
8
0
62
255
10
-43.330772
20
-85.297512
30
0
70
32
0
VERTEX
8
0
62
255
10
-42.764482
20
-85.582827
30
0
70
32
0
VERTEX
8
0
62
255
10
-42.196314
20
-85.864384
30
0
70
32
0
VERTEX
8
0
62
255
10
-41.626292
20
-86.142168
30
0
70
32
0
VERTEX
8
0
62
255
10
-42.014248
20
-86.974142
30
0
70
32
0
VERTEX
8
0
62
255
10
-42.992008
20
-87.059685
30
0
70
32
0
VERTEX
8
0
62
255
10
-51.539403
20
-103.49667
30
0
70
32
0
VERTEX
8
0
62
255
10
-46.15416
20
-106.00785
30
0
70
32
0
VERTEX
8
0
62
255
10
-39.056858
20
-88.894676
30
0
70
32
0
VERTEX
8
0
62
255
10
-39.61982
20
-88.090682
30
0
70
32
0
VERTEX
8
0
62
255
10
-39.231864
20
-87.258708
30
0
70
32
0
VERTEX
8
0
62
255
10
-38.652666
20
-87.516814
30
0
70
32
0
VERTEX
8
0
62
255
10
-38.07177
20
-87.771075
30
0
70
32
0
VERTEX
8
0
62
255
10
-37.489201
20
-88.021481
30
0
70
32
0
VERTEX
8
0
62
255
10
-36.904986
20
-88.26802
30
0
70
32
0
VERTEX
8
0
62
255
10
-36.319149
20
-88.510681
30
0
70
32
0
VERTEX
8
0
62
255
10
-35.731717
20
-88.749454
30
0
70
32
0
VERTEX
8
0
62
255
10
-35.142715
20
-88.984329
30
0
70
32
0
VERTEX
8
0
62
255
10
-34.55217
20
-89.215295
30
0
70
32
0
VERTEX
8
0
62
255
10
-33.960107
20
-89.442341
30
0
70
32
0
VERTEX
8
0
62
255
10
-34.274075
20
-90.304962
30
0
70
32
0
VERTEX
8
0
62
255
10
-35.240659
20
-90.475397
30
0
70
32
0
VERTEX
8
0
62
255
10
-42.322951
20
-107.59479
30
0
70
32
0
VERTEX
8
0
62
255
10
-36.739336
20
-109.62706
30
0
70
32
0
VERTEX
8
0
62
255
10
-31.160553
20
-91.960434
30
0
70
32
0
VERTEX
8
0
62
255
10
-31.791446
20
-91.208565
30
0
70
32
0
VERTEX
8
0
62
255
10
-31.477478
20
-90.345944
30
0
70
32
0
VERTEX
8
0
62
255
10
-30.877988
20
-90.552588
30
0
70
32
0
VERTEX
8
0
62
255
10
-30.277142
20
-90.755253
30
0
70
32
0
VERTEX
8
0
62
255
10
-29.674966
20
-90.953931
30
0
70
32
0
VERTEX
8
0
62
255
10
-29.071487
20
-91.148615
30
0
70
32
0
VERTEX
8
0
62
255
10
-28.46673
20
-91.339294
30
0
70
32
0
VERTEX
8
0
62
255
10
-27.860723
20
-91.52596
30
0
70
32
0
VERTEX
8
0
62
255
10
-27.253492
20
-91.708606
30
0
70
32
0
VERTEX
8
0
62
255
10
-26.645063
20
-91.887224
30
0
70
32
0
VERTEX
8
0
62
255
10
-26.035464
20
-92.061805
30
0
70
32
0
VERTEX
8
0
62
255
10
-26.273056
20
-92.948507
30
0
70
32
0
VERTEX
8
0
62
255
10
-27.221108
20
-93.202537
30
0
70
32
0
VERTEX
8
0
62
255
10
-32.784395
20
-110.87405
30
0
70
32
0
VERTEX
8
0
62
255
10
-27.044904
20
-112.41194
30
0
70
32
0
VERTEX
8
0
62
255
10
-23.027098
20
-94.326318
30
0
70
32
0
VERTEX
8
0
62
255
10
-23.72112
20
-93.632296
30
0
70
32
0
VERTEX
8
0
62
255
10
-23.483529
20
-92.745594
30
0
70
32
0
VERTEX
8
0
62
255
10
-22.86831
20
-92.899202
30
0
70
32
0
VERTEX
8
0
62
255
10
-22.252087
20
-93.048729
30
0
70
32
0
VERTEX
8
0
62
255
10
-21.634887
20
-93.194168
30
0
70
32
0
VERTEX
8
0
62
255
10
-21.016736
20
-93.335514
30
0
70
32
0
VERTEX
8
0
62
255
10
-20.397661
20
-93.472759
30
0
70
32
0
VERTEX
8
0
62
255
10
-19.777691
20
-93.605898
30
0
70
32
0
VERTEX
8
0
62
255
10
-19.156852
20
-93.734926
30
0
70
32
0
VERTEX
8
0
62
255
10
-18.535171
20
-93.859835
30
0
70
32
0
VERTEX
8
0
62
255
10
-17.912677
20
-93.980622
30
0
70
32
0
VERTEX
8
0
62
255
10
-18.072083
20
-94.884658
30
0
70
32
0
VERTEX
8
0
62
255
10
-18.994387
20
-95.220349
30
0
70
32
0
VERTEX
8
0
62
255
10
-22.996331
20
-113.30949
30
0
70
32
0
VERTEX
8
0
62
255
10
-17.144644
20
-114.3413
30
0
70
32
0
VERTEX
8
0
62
255
10
-14.718392
20
-95.974322
30
0
70
32
0
VERTEX
8
0
62
255
10
-15.470262
20
-95.343429
30
0
70
32
0
VERTEX
8
0
62
255
10
-15.310856
20
-94.439393
30
0
70
32
0
VERTEX
8
0
62
255
10
-14.68459
20
-94.538797
30
0
70
32
0
VERTEX
8
0
62
255
10
-14.05768
20
-94.634047
30
0
70
32
0
VERTEX
8
0
62
255
10
-13.430152
20
-94.725141
30
0
70
32
0
VERTEX
8
0
62
255
10
-12.802035
20
-94.812073
30
0
70
32
0
VERTEX
8
0
62
255
10
-12.173354
20
-94.89484
30
0
70
32
0
VERTEX
8
0
62
255
10
-11.544139
20
-94.973439
30
0
70
32
0
VERTEX
8
0
62
255
10
-10.914417
20
-95.047866
30
0
70
32
0
VERTEX
8
0
62
255
10
-10.284216
20
-95.118117
30
0
70
32
0
VERTEX
8
0
62
255
10
-9.6535626
20
-95.18419
30
0
70
32
0
VERTEX
8
0
62
255
10
-9.7335701
20
-96.098679
30
0
70
32
0
VERTEX
8
0
62
255
10
-10.623107
20
-96.513477
30
0
70
32
0
VERTEX
8
0
62
255
10
-13.03325
20
-114.88257
30
0
70
32
0
VERTEX
8
0
62
255
10
-7.1139031
20
-115.40045
30
0
70
32
0
VERTEX
8
0
62
255
10
-6.2976712
20
-96.891903
30
0
70
32
0
VERTEX
8
0
62
255
10
-7.1016652
20
-96.328941
30
0
70
32
0
VERTEX
8
0
62
255
10
-7.0216578
20
-95.414452
30
0
70
32
0
VERTEX
8
0
62
255
10
-6.3891121
20
-95.458894
30
0
70
32
0
VERTEX
8
0
62
255
10
-5.7562858
20
-95.499144
30
0
70
32
0
VERTEX
8
0
62
255
10
-5.1232066
20
-95.535198
30
0
70
32
0
VERTEX
8
0
62
255
10
-4.4899023
20
-95.567055
30
0
70
32
0
VERTEX
8
0
62
255
10
-3.8564008
20
-95.594714
30
0
70
32
0
VERTEX
8
0
62
255
10
-3.2227299
20
-95.618174
30
0
70
32
0
VERTEX
8
0
62
255
10
-2.5889174
20
-95.637434
30
0
70
32
0
VERTEX
8
0
62
255
10
-1.9549912
20
-95.652492
30
0
70
32
0
VERTEX
8
0
62
255
10
-1.3209792
20
-95.663349
30
0
70
32
0
VERTEX
8
0
62
255
10
-1.3209792
20
-96.581331
30
0
70
32
0
VERTEX
8
0
62
255
10
-2.1709792
20
-97.072079
30
0
70
32
0
VERTEX
8
0
62
255
10
-2.9709792
20
-115.58133
30
0
70
32
0
VERTEX
8
0
62
255
10
2.9709792
20
-115.58133
30
0
70
32
0
VERTEX
8
0
62
255
10
2.1709792
20
-97.072079
30
0
70
32
0
VERTEX
8
0
62
255
10
1.3209792
20
-96.581331
30
0
70
32
0
VERTEX
8
0
62
255
10
1.3209792
20
-95.663349
30
0
70
32
0
VERTEX
8
0
62
255
10
1.9549912
20
-95.652492
30
0
70
32
0
VERTEX
8
0
62
255
10
2.5889174
20
-95.637434
30
0
70
32
0
VERTEX
8
0
62
255
10
3.2227299
20
-95.618174
30
0
70
32
0
VERTEX
8
0
62
255
10
3.8564008
20
-95.594714
30
0
70
32
0
VERTEX
8
0
62
255
10
4.4899023
20
-95.567055
30
0
70
32
0
VERTEX
8
0
62
255
10
5.1232066
20
-95.535198
30
0
70
32
0
VERTEX
8
0
62
255
10
5.7562858
20
-95.499144
30
0
70
32
0
VERTEX
8
0
62
255
10
6.3891121
20
-95.458894
30
0
70
32
0
VERTEX
8
0
62
255
10
7.0216578
20
-95.414452
30
0
70
32
0
VERTEX
8
0
62
255
10
7.1016652
20
-96.328941
30
0
70
32
0
VERTEX
8
0
62
255
10
6.2976712
20
-96.891903
30
0
70
32
0
VERTEX
8
0
62
255
10
7.1139031
20
-115.40045
30
0
70
32
0
VERTEX
8
0
62
255
10
13.03325
20
-114.88257
30
0
70
32
0
VERTEX
8
0
62
255
10
10.623107
20
-96.513477
30
0
70
32
0
VERTEX
8
0
62
255
10
9.7335701
20
-96.098679
30
0
70
32
0
VERTEX
8
0
62
255
10
9.6535626
20
-95.18419
30
0
70
32
0
VERTEX
8
0
62
255
10
10.284216
20
-95.118117
30
0
70
32
0
VERTEX
8
0
62
255
10
10.914417
20
-95.047866
30
0
70
32
0
VERTEX
8
0
62
255
10
11.544139
20
-94.973439
30
0
70
32
0
VERTEX
8
0
62
255
10
12.173354
20
-94.89484
30
0
70
32
0
VERTEX
8
0
62
255
10
12.802035
20
-94.812073
30
0
70
32
0
VERTEX
8
0
62
255
10
13.430152
20
-94.725141
30
0
70
32
0
VERTEX
8
0
62
255
10
14.05768
20
-94.634047
30
0
70
32
0
VERTEX
8
0
62
255
10
14.68459
20
-94.538797
30
0
70
32
0
VERTEX
8
0
62
255
10
15.310856
20
-94.439393
30
0
70
32
0
VERTEX
8
0
62
255
10
15.470262
20
-95.343429
30
0
70
32
0
VERTEX
8
0
62
255
10
14.718392
20
-95.974322
30
0
70
32
0
VERTEX
8
0
62
255
10
17.144644
20
-114.3413
30
0
70
32
0
VERTEX
8
0
62
255
10
22.996331
20
-113.30949
30
0
70
32
0
VERTEX
8
0
62
255
10
18.994387
20
-95.220349
30
0
70
32
0
VERTEX
8
0
62
255
10
18.072083
20
-94.884658
30
0
70
32
0
VERTEX
8
0
62
255
10
17.912677
20
-93.980622
30
0
70
32
0
VERTEX
8
0
62
255
10
18.535171
20
-93.859835
30
0
70
32
0
VERTEX
8
0
62
255
10
19.156852
20
-93.734926
30
0
70
32
0
VERTEX
8
0
62
255
10
19.777691
20
-93.605898
30
0
70
32
0
VERTEX
8
0
62
255
10
20.397661
20
-93.472759
30
0
70
32
0
VERTEX
8
0
62
255
10
21.016736
20
-93.335514
30
0
70
32
0
VERTEX
8
0
62
255
10
21.634887
20
-93.194168
30
0
70
32
0
VERTEX
8
0
62
255
10
22.252087
20
-93.048729
30
0
70
32
0
VERTEX
8
0
62
255
10
22.86831
20
-92.899202
30
0
70
32
0
VERTEX
8
0
62
255
10
23.483529
20
-92.745594
30
0
70
32
0
VERTEX
8
0
62
255
10
23.72112
20
-93.632296
30
0
70
32
0
VERTEX
8
0
62
255
10
23.027098
20
-94.326318
30
0
70
32
0
VERTEX
8
0
62
255
10
27.044904
20
-112.41194
30
0
70
32
0
VERTEX
8
0
62
255
10
32.784395
20
-110.87405
30
0
70
32
0
VERTEX
8
0
62
255
10
27.221108
20
-93.202537
30
0
70
32
0
VERTEX
8
0
62
255
10
26.273056
20
-92.948507
30
0
70
32
0
VERTEX
8
0
62
255
10
26.035464
20
-92.061805
30
0
70
32
0
VERTEX
8
0
62
255
10
26.645063
20
-91.887224
30
0
70
32
0
VERTEX
8
0
62
255
10
27.253492
20
-91.708606
30
0
70
32
0
VERTEX
8
0
62
255
10
27.860723
20
-91.52596
30
0
70
32
0
VERTEX
8
0
62
255
10
28.46673
20
-91.339294
30
0
70
32
0
VERTEX
8
0
62
255
10
29.071487
20
-91.148615
30
0
70
32
0
VERTEX
8
0
62
255
10
29.674966
20
-90.953931
30
0
70
32
0
VERTEX
8
0
62
255
10
30.277142
20
-90.755253
30
0
70
32
0
VERTEX
8
0
62
255
10
30.877988
20
-90.552588
30
0
70
32
0
VERTEX
8
0
62
255
10
31.477478
20
-90.345944
30
0
70
32
0
VERTEX
8
0
62
255
10
31.791446
20
-91.208565
30
0
70
32
0
VERTEX
8
0
62
255
10
31.160553
20
-91.960434
30
0
70
32
0
VERTEX
8
0
62
255
10
36.739336
20
-109.62706
30
0
70
32
0
VERTEX
8
0
62
255
10
42.322951
20
-107.59479
30
0
70
32
0
VERTEX
8
0
62
255
10
35.240659
20
-90.475397
30
0
70
32
0
VERTEX
8
0
62
255
10
34.274075
20
-90.304962
30
0
70
32
0
VERTEX
8
0
62
255
10
33.960107
20
-89.442341
30
0
70
32
0
VERTEX
8
0
62
255
10
34.55217
20
-89.215295
30
0
70
32
0
VERTEX
8
0
62
255
10
35.142715
20
-88.984329
30
0
70
32
0
VERTEX
8
0
62
255
10
35.731717
20
-88.749454
30
0
70
32
0
VERTEX
8
0
62
255
10
36.319149
20
-88.510681
30
0
70
32
0
VERTEX
8
0
62
255
10
36.904986
20
-88.26802
30
0
70
32
0
VERTEX
8
0
62
255
10
37.489201
20
-88.021481
30
0
70
32
0
VERTEX
8
0
62
255
10
38.07177
20
-87.771075
30
0
70
32
0
VERTEX
8
0
62
255
10
38.652666
20
-87.516814
30
0
70
32
0
VERTEX
8
0
62
255
10
39.231864
20
-87.258708
30
0
70
32
0
VERTEX
8
0
62
255
10
39.61982
20
-88.090682
30
0
70
32
0
VERTEX
8
0
62
255
10
39.056858
20
-88.894676
30
0
70
32
0
VERTEX
8
0
62
255
10
46.15416
20
-106.00785
30
0
70
32
0
VERTEX
8
0
62
255
10
51.539403
20
-103.49667
30
0
70
32
0
VERTEX
8
0
62
255
10
42.992008
20
-87.059685
30
0
70
32
0
VERTEX
8
0
62
255
10
42.014248
20
-86.974142
30
0
70
32
0
VERTEX
8
0
62
255
10
41.626292
20
-86.142168
30
0
70
32
0
VERTEX
8
0
62
255
10
42.196314
20
-85.864384
30
0
70
32
0
VERTEX
8
0
62
255
10
42.764482
20
-85.582827
30
0
70
32
0
VERTEX
8
0
62
255
10
43.330772
20
-85.297512
30
0
70
32
0
VERTEX
8
0
62
255
10
43.895158
20
-85.008449
30
0
70
32
0
VERTEX
8
0
62
255
10
44.457616
20
-84.715652
30
0
70
32
0
VERTEX
8
0
62
255
10
45.018121
20
-84.419133
30
0
70
32
0
VERTEX
8
0
62
255
10
45.576649
20
-84.118906
30
0
70
32
0
VERTEX
8
0
62
255
10
46.133174
20
-83.814984
30
0
70
32
0
VERTEX
8
0
62
255
10
46.687673
20
-83.50738
30
0
70
32
0
VERTEX
8
0
62
255
10
47.146664
20
-84.302376
30
0
70
32
0
VERTEX
8
0
62
255
10
46.655916
20
-85.152376
30
0
70
32
0
VERTEX
8
0
62
255
10
55.217722
20
-101.58186
30
0
70
32
0
VERTEX
8
0
62
255
10
60.363609
20
-98.610879
30
0
70
32
0
VERTEX
8
0
62
255
10
50.416162
20
-82.981396
30
0
70
32
0
VERTEX
8
0
62
255
10
49.434667
20
-82.981396
30
0
70
32
0
VERTEX
8
0
62
255
10
48.975676
20
-82.186401
30
0
70
32
0
VERTEX
8
0
62
255
10
49.519318
20
-81.859993
30
0
70
32
0
VERTEX
8
0
62
255
10
50.060785
20
-81.529989
30
0
70
32
0
VERTEX
8
0
62
255
10
50.600053
20
-81.196403
30
0
70
32
0
VERTEX
8
0
62
255
10
51.137098
20
-80.859251
30
0
70
32
0
VERTEX
8
0
62
255
10
51.671897
20
-80.518546
30
0
70
32
0
VERTEX
8
0
62
255
10
52.204426
20
-80.174305
30
0
70
32
0
VERTEX
8
0
62
255
10
52.734662
20
-79.826542
30
0
70
32
0
VERTEX
8
0
62
255
10
53.262581
20
-79.475271
30
0
70
32
0
VERTEX
8
0
62
255
10
53.78816
20
-79.12051
30
0
70
32
0
VERTEX
8
0
62
255
10
54.314693
20
-79.872477
30
0
70
32
0
VERTEX
8
0
62
255
10
53.899895
20
-80.762014
30
0
70
32
0
VERTEX
8
0
62
255
10
63.861044
20
-96.382767
30
0
70
32
0
VERTEX
8
0
62
255
10
68.728411
20
-92.9746
30
0
70
32
0
VERTEX
8
0
62
255
10
57.456619
20
-78.271569
30
0
70
32
0
VERTEX
8
0
62
255
10
56.478858
20
-78.357112
30
0
70
32
0
VERTEX
8
0
62
255
10
55.952325
20
-77.605145
30
0
70
32
0
VERTEX
8
0
62
255
10
56.465451
20
-77.232598
30
0
70
32
0
VERTEX
8
0
62
255
10
56.976096
20
-76.856657
30
0
70
32
0
VERTEX
8
0
62
255
10
57.484238
20
-76.477341
30
0
70
32
0
VERTEX
8
0
62
255
10
57.989854
20
-76.094665
30
0
70
32
0
VERTEX
8
0
62
255
10
58.492924
20
-75.708646
30
0
70
32
0
VERTEX
8
0
62
255
10
58.993423
20
-75.319302
30
0
70
32
0
VERTEX
8
0
62
255
10
59.491332
20
-74.926649
30
0
70
32
0
VERTEX
8
0
62
255
10
59.986627
20
-74.530704
30
0
70
32
0
VERTEX
8
0
62
255
10
60.479286
20
-74.131486
30
0
70
32
0
VERTEX
8
0
62
255
10
61.069354
20
-74.834701
30
0
70
32
0
VERTEX
8
0
62
255
10
60.733663
20
-75.757005
30
0
70
32
0
VERTEX
8
0
62
255
10
72.018345
20
-90.450145
30
0
70
32
0
VERTEX
8
0
62
255
10
76.570149
20
-86.630728
30
0
70
32
0
VERTEX
8
0
62
255
10
64.059796
20
-72.966048
30
0
70
32
0
VERTEX
8
0
62
255
10
63.093212
20
-73.136483
30
0
70
32
0
VERTEX
8
0
62
255
10
62.503144
20
-72.433268
30
0
70
32
0
VERTEX
8
0
62
255
10
62.981847
20
-72.017416
30
0
70
32
0
VERTEX
8
0
62
255
10
63.457783
20
-71.598401
30
0
70
32
0
VERTEX
8
0
62
255
10
63.930932
20
-71.17624
30
0
70
32
0
VERTEX
8
0
62
255
10
64.401272
20
-70.750953
30
0
70
32
0
VERTEX
8
0
62
255
10
64.868784
20
-70.322558
30
0
70
32
0
VERTEX
8
0
62
255
10
65.333445
20
-69.891074
30
0
70
32
0
VERTEX
8
0
62
255
10
65.795237
20
-69.456519
30
0
70
32
0
VERTEX
8
0
62
255
10
66.254138
20
-69.018913
30
0
70
32
0
VERTEX
8
0
62
255
10
66.710129
20
-68.578276
30
0
70
32
0
VERTEX
8
0
62
255
10
67.359241
20
-69.227387
30
0
70
32
0
VERTEX
8
0
62
255
10
67.105211
20
-70.175439
30
0
70
32
0
VERTEX
8
0
62
255
10
79.627543
20
-83.829142
30
0
70
32
0
VERTEX
8
0
62
255
10
83.829142
20
-79.627543
30
0
70
32
0
VERTEX
8
0
62
255
10
70.175439
20
-67.105211
30
0
70
32
0
VERTEX
8
0
62
255
10
69.227387
20
-67.359241
30
0
70
32
0
VERTEX
8
0
62
255
10
68.578276
20
-66.710129
30
0
70
32
0
VERTEX
8
0
62
255
10
69.018913
20
-66.254138
30
0
70
32
0
VERTEX
8
0
62
255
10
69.456519
20
-65.795237
30
0
70
32
0
VERTEX
8
0
62
255
10
69.891074
20
-65.333445
30
0
70
32
0
VERTEX
8
0
62
255
10
70.322558
20
-64.868784
30
0
70
32
0
VERTEX
8
0
62
255
10
70.750953
20
-64.401272
30
0
70
32
0
VERTEX
8
0
62
255
10
71.17624
20
-63.930932
30
0
70
32
0
VERTEX
8
0
62
255
10
71.598401
20
-63.457783
30
0
70
32
0
VERTEX
8
0
62
255
10
72.017416
20
-62.981847
30
0
70
32
0
VERTEX
8
0
62
255
10
72.433268
20
-62.503144
30
0
70
32
0
VERTEX
8
0
62
255
10
73.136483
20
-63.093212
30
0
70
32
0
VERTEX
8
0
62
255
10
72.966048
20
-64.059796
30
0
70
32
0
VERTEX
8
0
62
255
10
86.630728
20
-76.570149
30
0
70
32
0
VERTEX
8
0
62
255
10
90.450145
20
-72.018345
30
0
70
32
0
VERTEX
8
0
62
255
10
75.757005
20
-60.733663
30
0
70
32
0
VERTEX
8
0
62
255
10
74.834701
20
-61.069354
30
0
70
32
0
VERTEX
8
0
62
255
10
74.131486
20
-60.479286
30
0
70
32
0
VERTEX
8
0
62
255
10
74.530704
20
-59.986627
30
0
70
32
0
VERTEX
8
0
62
255
10
74.926649
20
-59.491332
30
0
70
32
0
VERTEX
8
0
62
255
10
75.319302
20
-58.993423
30
0
70
32
0
VERTEX
8
0
62
255
10
75.708646
20
-58.492924
30
0
70
32
0
VERTEX
8
0
62
255
10
76.094665
20
-57.989854
30
0
70
32
0
VERTEX
8
0
62
255
10
76.477341
20
-57.484238
30
0
70
32
0
VERTEX
8
0
62
255
10
76.856657
20
-56.976096
30
0
70
32
0
VERTEX
8
0
62
255
10
77.232598
20
-56.465451
30
0
70
32
0
VERTEX
8
0
62
255
10
77.605145
20
-55.952325
30
0
70
32
0
VERTEX
8
0
62
255
10
78.357112
20
-56.478858
30
0
70
32
0
VERTEX
8
0
62
255
10
78.271569
20
-57.456619
30
0
70
32
0
VERTEX
8
0
62
255
10
92.9746
20
-68.728411
30
0
70
32
0
VERTEX
8
0
62
255
10
96.382767
20
-63.861044
30
0
70
32
0
VERTEX
8
0
62
255
10
80.762014
20
-53.899895
30
0
70
32
0
VERTEX
8
0
62
255
10
79.872477
20
-54.314693
30
0
70
32
0
VERTEX
8
0
62
255
10
79.12051
20
-53.78816
30
0
70
32
0
VERTEX
8
0
62
255
10
79.475271
20
-53.262581
30
0
70
32
0
VERTEX
8
0
62
255
10
79.826542
20
-52.734662
30
0
70
32
0
VERTEX
8
0
62
255
10
80.174305
20
-52.204426
30
0
70
32
0
VERTEX
8
0
62
255
10
80.518546
20
-51.671897
30
0
70
32
0
VERTEX
8
0
62
255
10
80.859251
20
-51.137098
30
0
70
32
0
VERTEX
8
0
62
255
10
81.196403
20
-50.600053
30
0
70
32
0
VERTEX
8
0
62
255
10
81.529989
20
-50.060785
30
0
70
32
0
VERTEX
8
0
62
255
10
81.859993
20
-49.519318
30
0
70
32
0
VERTEX
8
0
62
255
10
82.186401
20
-48.975676
30
0
70
32
0
VERTEX
8
0
62
255
10
82.981396
20
-49.434667
30
0
70
32
0
VERTEX
8
0
62
255
10
82.981396
20
-50.416162
30
0
70
32
0
VERTEX
8
0
62
255
10
98.610879
20
-60.363609
30
0
70
32
0
VERTEX
8
0
62
255
10
101.58186
20
-55.217722
30
0
70
32
0
VERTEX
8
0
62
255
10
85.152376
20
-46.655916
30
0
70
32
0
VERTEX
8
0
62
255
10
84.302376
20
-47.146664
30
0
70
32
0
VERTEX
8
0
62
255
10
83.50738
20
-46.687673
30
0
70
32
0
VERTEX
8
0
62
255
10
83.814984
20
-46.133174
30
0
70
32
0
VERTEX
8
0
62
255
10
84.118906
20
-45.576649
30
0
70
32
0
VERTEX
8
0
62
255
10
84.419133
20
-45.018121
30
0
70
32
0
VERTEX
8
0
62
255
10
84.715652
20
-44.457616
30
0
70
32
0
VERTEX
8
0
62
255
10
85.008449
20
-43.895158
30
0
70
32
0
VERTEX
8
0
62
255
10
85.297512
20
-43.330772
30
0
70
32
0
VERTEX
8
0
62
255
10
85.582827
20
-42.764482
30
0
70
32
0
VERTEX
8
0
62
255
10
85.864384
20
-42.196314
30
0
70
32
0
VERTEX
8
0
62
255
10
86.142168
20
-41.626292
30
0
70
32
0
VERTEX
8
0
62
255
10
86.974142
20
-42.014248
30
0
70
32
0
VERTEX
8
0
62
255
10
87.059685
20
-42.992008
30
0
70
32
0
VERTEX
8
0
62
255
10
103.49667
20
-51.539403
30
0
70
32
0
VERTEX
8
0
62
255
10
106.00785
20
-46.15416
30
0
70
32
0
VERTEX
8
0
62
255
10
88.894676
20
-39.056858
30
0
70
32
0
VERTEX
8
0
62
255
10
88.090682
20
-39.61982
30
0
70
32
0
VERTEX
8
0
62
255
10
87.258708
20
-39.231864
30
0
70
32
0
VERTEX
8
0
62
255
10
87.516814
20
-38.652666
30
0
70
32
0
VERTEX
8
0
62
255
10
87.771075
20
-38.07177
30
0
70
32
0
VERTEX
8
0
62
255
10
88.021481
20
-37.489201
30
0
70
32
0
VERTEX
8
0
62
255
10
88.26802
20
-36.904986
30
0
70
32
0
VERTEX
8
0
62
255
10
88.510681
20
-36.319149
30
0
70
32
0
VERTEX
8
0
62
255
10
88.749454
20
-35.731717
30
0
70
32
0
VERTEX
8
0
62
255
10
88.984329
20
-35.142715
30
0
70
32
0
VERTEX
8
0
62
255
10
89.215295
20
-34.55217
30
0
70
32
0
VERTEX
8
0
62
255
10
89.442341
20
-33.960107
30
0
70
32
0
VERTEX
8
0
62
255
10
90.304962
20
-34.274075
30
0
70
32
0
VERTEX
8
0
62
255
10
90.475397
20
-35.240659
30
0
70
32
0
VERTEX
8
0
62
255
10
107.59479
20
-42.322951
30
0
70
32
0
VERTEX
8
0
62
255
10
109.62706
20
-36.739336
30
0
70
32
0
VERTEX
8
0
62
255
10
91.960434
20
-31.160553
30
0
70
32
0
VERTEX
8
0
62
255
10
91.208565
20
-31.791446
30
0
70
32
0
VERTEX
8
0
62
255
10
90.345944
20
-31.477478
30
0
70
32
0
VERTEX
8
0
62
255
10
90.552588
20
-30.877988
30
0
70
32
0
VERTEX
8
0
62
255
10
90.755253
20
-30.277142
30
0
70
32
0
VERTEX
8
0
62
255
10
90.953931
20
-29.674966
30
0
70
32
0
VERTEX
8
0
62
255
10
91.148615
20
-29.071487
30
0
70
32
0
VERTEX
8
0
62
255
10
91.339294
20
-28.46673
30
0
70
32
0
VERTEX
8
0
62
255
10
91.52596
20
-27.860723
30
0
70
32
0
VERTEX
8
0
62
255
10
91.708606
20
-27.253492
30
0
70
32
0
VERTEX
8
0
62
255
10
91.887224
20
-26.645063
30
0
70
32
0
VERTEX
8
0
62
255
10
92.061805
20
-26.035464
30
0
70
32
0
VERTEX
8
0
62
255
10
92.948507
20
-26.273056
30
0
70
32
0
VERTEX
8
0
62
255
10
93.202537
20
-27.221108
30
0
70
32
0
VERTEX
8
0
62
255
10
110.87405
20
-32.784395
30
0
70
32
0
VERTEX
8
0
62
255
10
112.41194
20
-27.044904
30
0
70
32
0
VERTEX
8
0
62
255
10
94.326318
20
-23.027098
30
0
70
32
0
VERTEX
8
0
62
255
10
93.632296
20
-23.72112
30
0
70
32
0
VERTEX
8
0
62
255
10
92.745594
20
-23.483529
30
0
70
32
0
VERTEX
8
0
62
255
10
92.899202
20
-22.86831
30
0
70
32
0
VERTEX
8
0
62
255
10
93.048729
20
-22.252087
30
0
70
32
0
VERTEX
8
0
62
255
10
93.194168
20
-21.634887
30
0
70
32
0
VERTEX
8
0
62
255
10
93.335514
20
-21.016736
30
0
70
32
0
VERTEX
8
0
62
255
10
93.472759
20
-20.397661
30
0
70
32
0
VERTEX
8
0
62
255
10
93.605898
20
-19.777691
30
0
70
32
0
VERTEX
8
0
62
255
10
93.734926
20
-19.156852
30
0
70
32
0
VERTEX
8
0
62
255
10
93.859835
20
-18.535171
30
0
70
32
0
VERTEX
8
0
62
255
10
93.980622
20
-17.912677
30
0
70
32
0
VERTEX
8
0
62
255
10
94.884658
20
-18.072083
30
0
70
32
0
VERTEX
8
0
62
255
10
95.220349
20
-18.994387
30
0
70
32
0
VERTEX
8
0
62
255
10
113.30949
20
-22.996331
30
0
70
32
0
VERTEX
8
0
62
255
10
114.3413
20
-17.144644
30
0
70
32
0
VERTEX
8
0
62
255
10
95.974322
20
-14.718392
30
0
70
32
0
VERTEX
8
0
62
255
10
95.343429
20
-15.470262
30
0
70
32
0
VERTEX
8
0
62
255
10
94.439393
20
-15.310856
30
0
70
32
0
VERTEX
8
0
62
255
10
94.538797
20
-14.68459
30
0
70
32
0
VERTEX
8
0
62
255
10
94.634047
20
-14.05768
30
0
70
32
0
VERTEX
8
0
62
255
10
94.725141
20
-13.430152
30
0
70
32
0
VERTEX
8
0
62
255
10
94.812073
20
-12.802035
30
0
70
32
0
VERTEX
8
0
62
255
10
94.89484
20
-12.173354
30
0
70
32
0
VERTEX
8
0
62
255
10
94.973439
20
-11.544139
30
0
70
32
0
VERTEX
8
0
62
255
10
95.047866
20
-10.914417
30
0
70
32
0
VERTEX
8
0
62
255
10
95.118117
20
-10.284216
30
0
70
32
0
VERTEX
8
0
62
255
10
95.18419
20
-9.6535626
30
0
70
32
0
VERTEX
8
0
62
255
10
96.098679
20
-9.7335701
30
0
70
32
0
VERTEX
8
0
62
255
10
96.513477
20
-10.623107
30
0
70
32
0
VERTEX
8
0
62
255
10
114.88257
20
-13.03325
30
0
70
32
0
VERTEX
8
0
62
255
10
115.40045
20
-7.1139031
30
0
70
32
0
VERTEX
8
0
62
255
10
96.891903
20
-6.2976712
30
0
70
32
0
VERTEX
8
0
62
255
10
96.328941
20
-7.1016652
30
0
70
32
0
VERTEX
8
0
62
255
10
95.414452
20
-7.0216578
30
0
70
32
0
VERTEX
8
0
62
255
10
95.458894
20
-6.3891121
30
0
70
32
0
VERTEX
8
0
62
255
10
95.499144
20
-5.7562858
30
0
70
32
0
VERTEX
8
0
62
255
10
95.535198
20
-5.1232066
30
0
70
32
0
VERTEX
8
0
62
255
10
95.567055
20
-4.4899023
30
0
70
32
0
VERTEX
8
0
62
255
10
95.594714
20
-3.8564008
30
0
70
32
0
VERTEX
8
0
62
255
10
95.618174
20
-3.2227299
30
0
70
32
0
VERTEX
8
0
62
255
10
95.637434
20
-2.5889174
30
0
70
32
0
VERTEX
8
0
62
255
10
95.652492
20
-1.9549912
30
0
70
32
0
VERTEX
8
0
62
255
10
95.663349
20
-1.3209792
30
0
70
32
0
VERTEX
8
0
62
255
10
96.581331
20
-1.3209792
30
0
70
32
0
VERTEX
8
0
62
255
10
97.072079
20
-2.1709792
30
0
70
32
0
VERTEX
8
0
62
255
10
115.58133
20
-2.9709792
30
0
70
32
0
VERTEX
8
0
62
255
10
115.58133
20
2.9709792
30
0
70
32
0
VERTEX
8
0
62
255
10
97.072079
20
2.1709792
30
0
70
32
0
VERTEX
8
0
62
255
10
96.581331
20
1.3209792
30
0
70
32
0
VERTEX
8
0
62
255
10
95.663349
20
1.3209792
30
0
70
32
0
VERTEX
8
0
62
255
10
95.652492
20
1.9549912
30
0
70
32
0
VERTEX
8
0
62
255
10
95.637434
20
2.5889174
30
0
70
32
0
VERTEX
8
0
62
255
10
95.618174
20
3.2227299
30
0
70
32
0
VERTEX
8
0
62
255
10
95.594714
20
3.8564008
30
0
70
32
0
VERTEX
8
0
62
255
10
95.567055
20
4.4899023
30
0
70
32
0
VERTEX
8
0
62
255
10
95.535198
20
5.1232066
30
0
70
32
0
VERTEX
8
0
62
255
10
95.499144
20
5.7562858
30
0
70
32
0
VERTEX
8
0
62
255
10
95.458894
20
6.3891121
30
0
70
32
0
VERTEX
8
0
62
255
10
95.414452
20
7.0216578
30
0
70
32
0
VERTEX
8
0
62
255
10
96.328941
20
7.1016652
30
0
70
32
0
VERTEX
8
0
62
255
10
96.891903
20
6.2976712
30
0
70
32
0
VERTEX
8
0
62
255
10
115.40045
20
7.1139031
30
0
70
32
0
VERTEX
8
0
62
255
10
114.88257
20
13.03325
30
0
70
32
0
VERTEX
8
0
62
255
10
96.513477
20
10.623107
30
0
70
32
0
VERTEX
8
0
62
255
10
96.098679
20
9.7335701
30
0
70
32
0
VERTEX
8
0
62
255
10
95.18419
20
9.6535626
30
0
70
32
0
VERTEX
8
0
62
255
10
95.118117
20
10.284216
30
0
70
32
0
VERTEX
8
0
62
255
10
95.047866
20
10.914417
30
0
70
32
0
VERTEX
8
0
62
255
10
94.973439
20
11.544139
30
0
70
32
0
VERTEX
8
0
62
255
10
94.89484
20
12.173354
30
0
70
32
0
VERTEX
8
0
62
255
10
94.812073
20
12.802035
30
0
70
32
0
VERTEX
8
0
62
255
10
94.725141
20
13.430152
30
0
70
32
0
VERTEX
8
0
62
255
10
94.634047
20
14.05768
30
0
70
32
0
VERTEX
8
0
62
255
10
94.538797
20
14.68459
30
0
70
32
0
VERTEX
8
0
62
255
10
94.439393
20
15.310856
30
0
70
32
0
VERTEX
8
0
62
255
10
95.343429
20
15.470262
30
0
70
32
0
VERTEX
8
0
62
255
10
95.974322
20
14.718392
30
0
70
32
0
VERTEX
8
0
62
255
10
114.3413
20
17.144644
30
0
70
32
0
VERTEX
8
0
62
255
10
113.30949
20
22.996331
30
0
70
32
0
VERTEX
8
0
62
255
10
95.220349
20
18.994387
30
0
70
32
0
VERTEX
8
0
62
255
10
94.884658
20
18.072083
30
0
70
32
0
VERTEX
8
0
62
255
10
93.980622
20
17.912677
30
0
70
32
0
VERTEX
8
0
62
255
10
93.859835
20
18.535171
30
0
70
32
0
VERTEX
8
0
62
255
10
93.734926
20
19.156852
30
0
70
32
0
VERTEX
8
0
62
255
10
93.605898
20
19.777691
30
0
70
32
0
VERTEX
8
0
62
255
10
93.472759
20
20.397661
30
0
70
32
0
VERTEX
8
0
62
255
10
93.335514
20
21.016736
30
0
70
32
0
VERTEX
8
0
62
255
10
93.194168
20
21.634887
30
0
70
32
0
VERTEX
8
0
62
255
10
93.048729
20
22.252087
30
0
70
32
0
VERTEX
8
0
62
255
10
92.899202
20
22.86831
30
0
70
32
0
VERTEX
8
0
62
255
10
92.745594
20
23.483529
30
0
70
32
0
VERTEX
8
0
62
255
10
93.632296
20
23.72112
30
0
70
32
0
VERTEX
8
0
62
255
10
94.326318
20
23.027098
30
0
70
32
0
VERTEX
8
0
62
255
10
112.41194
20
27.044904
30
0
70
32
0
VERTEX
8
0
62
255
10
110.87405
20
32.784395
30
0
70
32
0
VERTEX
8
0
62
255
10
93.202537
20
27.221108
30
0
70
32
0
VERTEX
8
0
62
255
10
92.948507
20
26.273056
30
0
70
32
0
VERTEX
8
0
62
255
10
92.061805
20
26.035464
30
0
70
32
0
VERTEX
8
0
62
255
10
91.887224
20
26.645063
30
0
70
32
0
VERTEX
8
0
62
255
10
91.708606
20
27.253492
30
0
70
32
0
VERTEX
8
0
62
255
10
91.52596
20
27.860723
30
0
70
32
0
VERTEX
8
0
62
255
10
91.339294
20
28.46673
30
0
70
32
0
VERTEX
8
0
62
255
10
91.148615
20
29.071487
30
0
70
32
0
VERTEX
8
0
62
255
10
90.953931
20
29.674966
30
0
70
32
0
VERTEX
8
0
62
255
10
90.755253
20
30.277142
30
0
70
32
0
VERTEX
8
0
62
255
10
90.552588
20
30.877988
30
0
70
32
0
VERTEX
8
0
62
255
10
90.345944
20
31.477478
30
0
70
32
0
VERTEX
8
0
62
255
10
91.208565
20
31.791446
30
0
70
32
0
VERTEX
8
0
62
255
10
91.960434
20
31.160553
30
0
70
32
0
VERTEX
8
0
62
255
10
109.62706
20
36.739336
30
0
70
32
0
VERTEX
8
0
62
255
10
107.59479
20
42.322951
30
0
70
32
0
VERTEX
8
0
62
255
10
90.475397
20
35.240659
30
0
70
32
0
VERTEX
8
0
62
255
10
90.304962
20
34.274075
30
0
70
32
0
VERTEX
8
0
62
255
10
89.442341
20
33.960107
30
0
70
32
0
VERTEX
8
0
62
255
10
89.215295
20
34.55217
30
0
70
32
0
VERTEX
8
0
62
255
10
88.984329
20
35.142715
30
0
70
32
0
VERTEX
8
0
62
255
10
88.749454
20
35.731717
30
0
70
32
0
VERTEX
8
0
62
255
10
88.510681
20
36.319149
30
0
70
32
0
VERTEX
8
0
62
255
10
88.26802
20
36.904986
30
0
70
32
0
VERTEX
8
0
62
255
10
88.021481
20
37.489201
30
0
70
32
0
VERTEX
8
0
62
255
10
87.771075
20
38.07177
30
0
70
32
0
VERTEX
8
0
62
255
10
87.516814
20
38.652666
30
0
70
32
0
VERTEX
8
0
62
255
10
87.258708
20
39.231864
30
0
70
32
0
VERTEX
8
0
62
255
10
88.090682
20
39.61982
30
0
70
32
0
VERTEX
8
0
62
255
10
88.894676
20
39.056858
30
0
70
32
0
VERTEX
8
0
62
255
10
106.00785
20
46.15416
30
0
70
32
0
VERTEX
8
0
62
255
10
103.49667
20
51.539403
30
0
70
32
0
VERTEX
8
0
62
255
10
87.059685
20
42.992008
30
0
70
32
0
VERTEX
8
0
62
255
10
86.974142
20
42.014248
30
0
70
32
0
VERTEX
8
0
62
255
10
86.142168
20
41.626292
30
0
70
32
0
VERTEX
8
0
62
255
10
85.864384
20
42.196314
30
0
70
32
0
VERTEX
8
0
62
255
10
85.582827
20
42.764482
30
0
70
32
0
VERTEX
8
0
62
255
10
85.297512
20
43.330772
30
0
70
32
0
VERTEX
8
0
62
255
10
85.008449
20
43.895158
30
0
70
32
0
VERTEX
8
0
62
255
10
84.715652
20
44.457616
30
0
70
32
0
VERTEX
8
0
62
255
10
84.419133
20
45.018121
30
0
70
32
0
VERTEX
8
0
62
255
10
84.118906
20
45.576649
30
0
70
32
0
VERTEX
8
0
62
255
10
83.814984
20
46.133174
30
0
70
32
0
VERTEX
8
0
62
255
10
83.50738
20
46.687673
30
0
70
32
0
VERTEX
8
0
62
255
10
84.302376
20
47.146664
30
0
70
32
0
VERTEX
8
0
62
255
10
85.152376
20
46.655916
30
0
70
32
0
VERTEX
8
0
62
255
10
101.58186
20
55.217722
30
0
70
32
0
VERTEX
8
0
62
255
10
98.610879
20
60.363609
30
0
70
32
0
VERTEX
8
0
62
255
10
82.981396
20
50.416162
30
0
70
32
0
VERTEX
8
0
62
255
10
82.981396
20
49.434667
30
0
70
32
0
VERTEX
8
0
62
255
10
82.186401
20
48.975676
30
0
70
32
0
VERTEX
8
0
62
255
10
81.859993
20
49.519318
30
0
70
32
0
VERTEX
8
0
62
255
10
81.529989
20
50.060785
30
0
70
32
0
VERTEX
8
0
62
255
10
81.196403
20
50.600053
30
0
70
32
0
VERTEX
8
0
62
255
10
80.859251
20
51.137098
30
0
70
32
0
VERTEX
8
0
62
255
10
80.518546
20
51.671897
30
0
70
32
0
VERTEX
8
0
62
255
10
80.174305
20
52.204426
30
0
70
32
0
VERTEX
8
0
62
255
10
79.826542
20
52.734662
30
0
70
32
0
VERTEX
8
0
62
255
10
79.475271
20
53.262581
30
0
70
32
0
VERTEX
8
0
62
255
10
79.12051
20
53.78816
30
0
70
32
0
VERTEX
8
0
62
255
10
79.872477
20
54.314693
30
0
70
32
0
VERTEX
8
0
62
255
10
80.762014
20
53.899895
30
0
70
32
0
VERTEX
8
0
62
255
10
96.382767
20
63.861044
30
0
70
32
0
VERTEX
8
0
62
255
10
92.9746
20
68.728411
30
0
70
32
0
VERTEX
8
0
62
255
10
78.271569
20
57.456619
30
0
70
32
0
VERTEX
8
0
62
255
10
78.357112
20
56.478858
30
0
70
32
0
VERTEX
8
0
62
255
10
77.605145
20
55.952325
30
0
70
32
0
VERTEX
8
0
62
255
10
77.232598
20
56.465451
30
0
70
32
0
VERTEX
8
0
62
255
10
76.856657
20
56.976096
30
0
70
32
0
VERTEX
8
0
62
255
10
76.477341
20
57.484238
30
0
70
32
0
VERTEX
8
0
62
255
10
76.094665
20
57.989854
30
0
70
32
0
VERTEX
8
0
62
255
10
75.708646
20
58.492924
30
0
70
32
0
VERTEX
8
0
62
255
10
75.319302
20
58.993423
30
0
70
32
0
VERTEX
8
0
62
255
10
74.926649
20
59.491332
30
0
70
32
0
VERTEX
8
0
62
255
10
74.530704
20
59.986627
30
0
70
32
0
VERTEX
8
0
62
255
10
74.131486
20
60.479286
30
0
70
32
0
VERTEX
8
0
62
255
10
74.834701
20
61.069354
30
0
70
32
0
VERTEX
8
0
62
255
10
75.757005
20
60.733663
30
0
70
32
0
VERTEX
8
0
62
255
10
90.450145
20
72.018345
30
0
70
32
0
VERTEX
8
0
62
255
10
86.630728
20
76.570149
30
0
70
32
0
VERTEX
8
0
62
255
10
72.966048
20
64.059796
30
0
70
32
0
VERTEX
8
0
62
255
10
73.136483
20
63.093212
30
0
70
32
0
VERTEX
8
0
62
255
10
72.433268
20
62.503144
30
0
70
32
0
VERTEX
8
0
62
255
10
72.017416
20
62.981847
30
0
70
32
0
VERTEX
8
0
62
255
10
71.598401
20
63.457783
30
0
70
32
0
VERTEX
8
0
62
255
10
71.17624
20
63.930932
30
0
70
32
0
VERTEX
8
0
62
255
10
70.750953
20
64.401272
30
0
70
32
0
VERTEX
8
0
62
255
10
70.322558
20
64.868784
30
0
70
32
0
VERTEX
8
0
62
255
10
69.891074
20
65.333445
30
0
70
32
0
VERTEX
8
0
62
255
10
69.456519
20
65.795237
30
0
70
32
0
VERTEX
8
0
62
255
10
69.018913
20
66.254138
30
0
70
32
0
VERTEX
8
0
62
255
10
68.578276
20
66.710129
30
0
70
32
0
VERTEX
8
0
62
255
10
69.227387
20
67.359241
30
0
70
32
0
VERTEX
8
0
62
255
10
70.175439
20
67.105211
30
0
70
32
0
VERTEX
8
0
62
255
10
83.829142
20
79.627543
30
0
70
32
0
VERTEX
8
0
62
255
10
79.627543
20
83.829142
30
0
70
32
0
VERTEX
8
0
62
255
10
67.105211
20
70.175439
30
0
70
32
0
VERTEX
8
0
62
255
10
67.359241
20
69.227387
30
0
70
32
0
VERTEX
8
0
62
255
10
66.710129
20
68.578276
30
0
70
32
0
VERTEX
8
0
62
255
10
66.254138
20
69.018913
30
0
70
32
0
VERTEX
8
0
62
255
10
65.795237
20
69.456519
30
0
70
32
0
VERTEX
8
0
62
255
10
65.333445
20
69.891074
30
0
70
32
0
VERTEX
8
0
62
255
10
64.868784
20
70.322558
30
0
70
32
0
VERTEX
8
0
62
255
10
64.401272
20
70.750953
30
0
70
32
0
VERTEX
8
0
62
255
10
63.930932
20
71.17624
30
0
70
32
0
VERTEX
8
0
62
255
10
63.457783
20
71.598401
30
0
70
32
0
VERTEX
8
0
62
255
10
62.981847
20
72.017416
30
0
70
32
0
VERTEX
8
0
62
255
10
62.503144
20
72.433268
30
0
70
32
0
VERTEX
8
0
62
255
10
63.093212
20
73.136483
30
0
70
32
0
VERTEX
8
0
62
255
10
64.059796
20
72.966048
30
0
70
32
0
VERTEX
8
0
62
255
10
76.570149
20
86.630728
30
0
70
32
0
VERTEX
8
0
62
255
10
72.018345
20
90.450145
30
0
70
32
0
VERTEX
8
0
62
255
10
60.733663
20
75.757005
30
0
70
32
0
VERTEX
8
0
62
255
10
61.069354
20
74.834701
30
0
70
32
0
VERTEX
8
0
62
255
10
60.479286
20
74.131486
30
0
70
32
0
VERTEX
8
0
62
255
10
59.986627
20
74.530704
30
0
70
32
0
VERTEX
8
0
62
255
10
59.491332
20
74.926649
30
0
70
32
0
VERTEX
8
0
62
255
10
58.993423
20
75.319302
30
0
70
32
0
VERTEX
8
0
62
255
10
58.492924
20
75.708646
30
0
70
32
0
VERTEX
8
0
62
255
10
57.989854
20
76.094665
30
0
70
32
0
VERTEX
8
0
62
255
10
57.484238
20
76.477341
30
0
70
32
0
VERTEX
8
0
62
255
10
56.976096
20
76.856657
30
0
70
32
0
VERTEX
8
0
62
255
10
56.465451
20
77.232598
30
0
70
32
0
VERTEX
8
0
62
255
10
55.952325
20
77.605145
30
0
70
32
0
VERTEX
8
0
62
255
10
56.478858
20
78.357112
30
0
70
32
0
VERTEX
8
0
62
255
10
57.456619
20
78.271569
30
0
70
32
0
VERTEX
8
0
62
255
10
68.728411
20
92.9746
30
0
70
32
0
VERTEX
8
0
62
255
10
63.861044
20
96.382767
30
0
70
32
0
VERTEX
8
0
62
255
10
53.899895
20
80.762014
30
0
70
32
0
VERTEX
8
0
62
255
10
54.314693
20
79.872477
30
0
70
32
0
VERTEX
8
0
62
255
10
53.78816
20
79.12051
30
0
70
32
0
VERTEX
8
0
62
255
10
53.262581
20
79.475271
30
0
70
32
0
VERTEX
8
0
62
255
10
52.734662
20
79.826542
30
0
70
32
0
VERTEX
8
0
62
255
10
52.204426
20
80.174305
30
0
70
32
0
VERTEX
8
0
62
255
10
51.671897
20
80.518546
30
0
70
32
0
VERTEX
8
0
62
255
10
51.137098
20
80.859251
30
0
70
32
0
VERTEX
8
0
62
255
10
50.600053
20
81.196403
30
0
70
32
0
VERTEX
8
0
62
255
10
50.060785
20
81.529989
30
0
70
32
0
VERTEX
8
0
62
255
10
49.519318
20
81.859993
30
0
70
32
0
VERTEX
8
0
62
255
10
48.975676
20
82.186401
30
0
70
32
0
VERTEX
8
0
62
255
10
49.434667
20
82.981396
30
0
70
32
0
VERTEX
8
0
62
255
10
50.416162
20
82.981396
30
0
70
32
0
VERTEX
8
0
62
255
10
60.363609
20
98.610879
30
0
70
32
0
VERTEX
8
0
62
255
10
55.217722
20
101.58186
30
0
70
32
0
VERTEX
8
0
62
255
10
46.655916
20
85.152376
30
0
70
32
0
VERTEX
8
0
62
255
10
47.146664
20
84.302376
30
0
70
32
0
VERTEX
8
0
62
255
10
46.687673
20
83.50738
30
0
70
32
0
VERTEX
8
0
62
255
10
46.133174
20
83.814984
30
0
70
32
0
VERTEX
8
0
62
255
10
45.576649
20
84.118906
30
0
70
32
0
VERTEX
8
0
62
255
10
45.018121
20
84.419133
30
0
70
32
0
VERTEX
8
0
62
255
10
44.457616
20
84.715652
30
0
70
32
0
VERTEX
8
0
62
255
10
43.895158
20
85.008449
30
0
70
32
0
VERTEX
8
0
62
255
10
43.330772
20
85.297512
30
0
70
32
0
VERTEX
8
0
62
255
10
42.764482
20
85.582827
30
0
70
32
0
VERTEX
8
0
62
255
10
42.196314
20
85.864384
30
0
70
32
0
VERTEX
8
0
62
255
10
41.626292
20
86.142168
30
0
70
32
0
VERTEX
8
0
62
255
10
42.014248
20
86.974142
30
0
70
32
0
VERTEX
8
0
62
255
10
42.992008
20
87.059685
30
0
70
32
0
VERTEX
8
0
62
255
10
51.539403
20
103.49667
30
0
70
32
0
VERTEX
8
0
62
255
10
46.15416
20
106.00785
30
0
70
32
0
VERTEX
8
0
62
255
10
39.056858
20
88.894676
30
0
70
32
0
VERTEX
8
0
62
255
10
39.61982
20
88.090682
30
0
70
32
0
VERTEX
8
0
62
255
10
39.231864
20
87.258708
30
0
70
32
0
VERTEX
8
0
62
255
10
38.652666
20
87.516814
30
0
70
32
0
VERTEX
8
0
62
255
10
38.07177
20
87.771075
30
0
70
32
0
VERTEX
8
0
62
255
10
37.489201
20
88.021481
30
0
70
32
0
VERTEX
8
0
62
255
10
36.904986
20
88.26802
30
0
70
32
0
VERTEX
8
0
62
255
10
36.319149
20
88.510681
30
0
70
32
0
VERTEX
8
0
62
255
10
35.731717
20
88.749454
30
0
70
32
0
VERTEX
8
0
62
255
10
35.142715
20
88.984329
30
0
70
32
0
VERTEX
8
0
62
255
10
34.55217
20
89.215295
30
0
70
32
0
VERTEX
8
0
62
255
10
33.960107
20
89.442341
30
0
70
32
0
VERTEX
8
0
62
255
10
34.274075
20
90.304962
30
0
70
32
0
VERTEX
8
0
62
255
10
35.240659
20
90.475397
30
0
70
32
0
VERTEX
8
0
62
255
10
42.322951
20
107.59479
30
0
70
32
0
VERTEX
8
0
62
255
10
36.739336
20
109.62706
30
0
70
32
0
VERTEX
8
0
62
255
10
31.160553
20
91.960434
30
0
70
32
0
VERTEX
8
0
62
255
10
31.791446
20
91.208565
30
0
70
32
0
VERTEX
8
0
62
255
10
31.477478
20
90.345944
30
0
70
32
0
VERTEX
8
0
62
255
10
30.877988
20
90.552588
30
0
70
32
0
VERTEX
8
0
62
255
10
30.277142
20
90.755253
30
0
70
32
0
VERTEX
8
0
62
255
10
29.674966
20
90.953931
30
0
70
32
0
VERTEX
8
0
62
255
10
29.071487
20
91.148615
30
0
70
32
0
VERTEX
8
0
62
255
10
28.46673
20
91.339294
30
0
70
32
0
VERTEX
8
0
62
255
10
27.860723
20
91.52596
30
0
70
32
0
VERTEX
8
0
62
255
10
27.253492
20
91.708606
30
0
70
32
0
VERTEX
8
0
62
255
10
26.645063
20
91.887224
30
0
70
32
0
VERTEX
8
0
62
255
10
26.035464
20
92.061805
30
0
70
32
0
VERTEX
8
0
62
255
10
26.273056
20
92.948507
30
0
70
32
0
VERTEX
8
0
62
255
10
27.221108
20
93.202537
30
0
70
32
0
VERTEX
8
0
62
255
10
32.784395
20
110.87405
30
0
70
32
0
VERTEX
8
0
62
255
10
27.044904
20
112.41194
30
0
70
32
0
VERTEX
8
0
62
255
10
23.027098
20
94.326318
30
0
70
32
0
VERTEX
8
0
62
255
10
23.72112
20
93.632296
30
0
70
32
0
VERTEX
8
0
62
255
10
23.483529
20
92.745594
30
0
70
32
0
VERTEX
8
0
62
255
10
22.86831
20
92.899202
30
0
70
32
0
VERTEX
8
0
62
255
10
22.252087
20
93.048729
30
0
70
32
0
VERTEX
8
0
62
255
10
21.634887
20
93.194168
30
0
70
32
0
VERTEX
8
0
62
255
10
21.016736
20
93.335514
30
0
70
32
0
VERTEX
8
0
62
255
10
20.397661
20
93.472759
30
0
70
32
0
VERTEX
8
0
62
255
10
19.777691
20
93.605898
30
0
70
32
0
VERTEX
8
0
62
255
10
19.156852
20
93.734926
30
0
70
32
0
VERTEX
8
0
62
255
10
18.535171
20
93.859835
30
0
70
32
0
VERTEX
8
0
62
255
10
17.912677
20
93.980622
30
0
70
32
0
VERTEX
8
0
62
255
10
18.072083
20
94.884658
30
0
70
32
0
VERTEX
8
0
62
255
10
18.994387
20
95.220349
30
0
70
32
0
VERTEX
8
0
62
255
10
22.996331
20
113.30949
30
0
70
32
0
VERTEX
8
0
62
255
10
17.144644
20
114.3413
30
0
70
32
0
VERTEX
8
0
62
255
10
14.718392
20
95.974322
30
0
70
32
0
VERTEX
8
0
62
255
10
15.470262
20
95.343429
30
0
70
32
0
VERTEX
8
0
62
255
10
15.310856
20
94.439393
30
0
70
32
0
VERTEX
8
0
62
255
10
14.68459
20
94.538797
30
0
70
32
0
VERTEX
8
0
62
255
10
14.05768
20
94.634047
30
0
70
32
0
VERTEX
8
0
62
255
10
13.430152
20
94.725141
30
0
70
32
0
VERTEX
8
0
62
255
10
12.802035
20
94.812073
30
0
70
32
0
VERTEX
8
0
62
255
10
12.173354
20
94.89484
30
0
70
32
0
VERTEX
8
0
62
255
10
11.544139
20
94.973439
30
0
70
32
0
VERTEX
8
0
62
255
10
10.914417
20
95.047866
30
0
70
32
0
VERTEX
8
0
62
255
10
10.284216
20
95.118117
30
0
70
32
0
VERTEX
8
0
62
255
10
9.6535626
20
95.18419
30
0
70
32
0
VERTEX
8
0
62
255
10
9.7335701
20
96.098679
30
0
70
32
0
VERTEX
8
0
62
255
10
10.623107
20
96.513477
30
0
70
32
0
VERTEX
8
0
62
255
10
13.03325
20
114.88257
30
0
70
32
0
VERTEX
8
0
62
255
10
7.1139031
20
115.40045
30
0
70
32
0
VERTEX
8
0
62
255
10
6.2976712
20
96.891903
30
0
70
32
0
VERTEX
8
0
62
255
10
7.1016652
20
96.328941
30
0
70
32
0
VERTEX
8
0
62
255
10
7.0216578
20
95.414452
30
0
70
32
0
VERTEX
8
0
62
255
10
6.3891121
20
95.458894
30
0
70
32
0
VERTEX
8
0
62
255
10
5.7562858
20
95.499144
30
0
70
32
0
VERTEX
8
0
62
255
10
5.1232066
20
95.535198
30
0
70
32
0
VERTEX
8
0
62
255
10
4.4899023
20
95.567055
30
0
70
32
0
VERTEX
8
0
62
255
10
3.8564008
20
95.594714
30
0
70
32
0
VERTEX
8
0
62
255
10
3.2227299
20
95.618174
30
0
70
32
0
VERTEX
8
0
62
255
10
2.5889174
20
95.637434
30
0
70
32
0
VERTEX
8
0
62
255
10
1.9549912
20
95.652492
30
0
70
32
0
VERTEX
8
0
62
255
10
1.3209792
20
95.663349
30
0
70
32
0
VERTEX
8
0
62
255
10
1.3209792
20
96.581331
30
0
70
32
0
SEQEND
8
0
0
POLYLINE
8
0
62
255
66
1
10
0
20
0
30
0
70
8
0
VERTEX
8
0
62
255
10
94.957688
20
0
30
0
70
32
0
VERTEX
8
0
62
255
10
94.945914
20
1.4952684
30
0
70
32
0
VERTEX
8
0
62
255
10
94.910597
20
2.990166
30
0
70
32
0
VERTEX
8
0
62
255
10
94.851744
20
4.4843221
30
0
70
32
0
VERTEX
8
0
62
255
10
94.769371
20
5.9773663
30
0
70
32
0
VERTEX
8
0
62
255
10
94.663497
20
7.4689282
30
0
70
32
0
VERTEX
8
0
62
255
10
94.534149
20
8.958638
30
0
70
32
0
VERTEX
8
0
62
255
10
94.381359
20
10.446126
30
0
70
32
0
VERTEX
8
0
62
255
10
94.205165
20
11.931024
30
0
70
32
0
VERTEX
8
0
62
255
10
94.005611
20
13.412964
30
0
70
32
0
VERTEX
8
0
62
255
10
93.782746
20
14.891577
30
0
70
32
0
VERTEX
8
0
62
255
10
93.536625
20
16.366498
30
0
70
32
0
VERTEX
8
0
62
255
10
93.26731
20
17.83736
30
0
70
32
0
VERTEX
8
0
62
255
10
92.974867
20
19.303799
30
0
70
32
0
VERTEX
8
0
62
255
10
92.659368
20
20.765451
30
0
70
32
0
VERTEX
8
0
62
255
10
92.320893
20
22.221954
30
0
70
32
0
VERTEX
8
0
62
255
10
91.959524
20
23.672946
30
0
70
32
0
VERTEX
8
0
62
255
10
91.575352
20
25.118068
30
0
70
32
0
VERTEX
8
0
62
255
10
91.168472
20
26.556962
30
0
70
32
0
VERTEX
8
0
62
255
10
90.738984
20
27.98927
30
0
70
32
0
VERTEX
8
0
62
255
10
90.286996
20
29.414637
30
0
70
32
0
VERTEX
8
0
62
255
10
89.812618
20
30.832711
30
0
70
32
0
VERTEX
8
0
62
255
10
89.31597
20
32.243139
30
0
70
32
0
VERTEX
8
0
62
255
10
88.797174
20
33.645571
30
0
70
32
0
VERTEX
8
0
62
255
10
88.256358
20
35.03966
30
0
70
32
0
VERTEX
8
0
62
255
10
87.693657
20
36.42506
30
0
70
32
0
VERTEX
8
0
62
255
10
87.10921
20
37.801428
30
0
70
32
0
VERTEX
8
0
62
255
10
86.503163
20
39.168422
30
0
70
32
0
VERTEX
8
0
62
255
10
85.875665
20
40.525704
30
0
70
32
0
VERTEX
8
0
62
255
10
85.226872
20
41.872936
30
0
70
32
0
VERTEX
8
0
62
255
10
84.556946
20
43.209784
30
0
70
32
0
VERTEX
8
0
62
255
10
83.866051
20
44.535918
30
0
70
32
0
VERTEX
8
0
62
255
10
83.15436
20
45.851008
30
0
70
32
0
VERTEX
8
0
62
255
10
82.422049
20
47.154728
30
0
70
32
0
VERTEX
8
0
62
255
10
81.669299
20
48.446756
30
0
70
32
0
VERTEX
8
0
62
255
10
80.896297
20
49.726769
30
0
70
32
0
VERTEX
8
0
62
255
10
80.103236
20
50.994452
30
0
70
32
0
VERTEX
8
0
62
255
10
79.290311
20
52.249489
30
0
70
32
0
VERTEX
8
0
62
255
10
78.457724
20
53.49157
30
0
70
32
0
VERTEX
8
0
62
255
10
77.605681
20
54.720387
30
0
70
32
0
VERTEX
8
0
62
255
10
76.734395
20
55.935634
30
0
70
32
0
VERTEX
8
0
62
255
10
75.84408
20
57.137011
30
0
70
32
0
VERTEX
8
0
62
255
10
74.934958
20
58.324219
30
0
70
32
0
VERTEX
8
0
62
255
10
74.007254
20
59.496965
30
0
70
32
0
VERTEX
8
0
62
255
10
73.061199
20
60.654956
30
0
70
32
0
VERTEX
8
0
62
255
10
72.097026
20
61.797907
30
0
70
32
0
VERTEX
8
0
62
255
10
71.114975
20
62.925534
30
0
70
32
0
VERTEX
8
0
62
255
10
70.115289
20
64.037557
30
0
70
32
0
VERTEX
8
0
62
255
10
69.098217
20
65.1337
30
0
70
32
0
VERTEX
8
0
62
255
10
68.06401
20
66.213692
30
0
70
32
0
VERTEX
8
0
62
255
10
67.012925
20
67.277265
30
0
70
32
0
VERTEX
8
0
62
255
10
65.945223
20
68.324154
30
0
70
32
0
VERTEX
8
0
62
255
10
64.861168
20
69.354101
30
0
70
32
0
VERTEX
8
0
62
255
10
63.761029
20
70.366851
30
0
70
32
0
VERTEX
8
0
62
255
10
62.645079
20
71.362151
30
0
70
32
0
VERTEX
8
0
62
255
10
61.513595
20
72.339755
30
0
70
32
0
VERTEX
8
0
62
255
10
60.366857
20
73.29942
30
0
70
32
0
VERTEX
8
0
62
255
10
59.20515
20
74.24091
30
0
70
32
0
VERTEX
8
0
62
255
10
58.028761
20
75.16399
30
0
70
32
0
VERTEX
8
0
62
255
10
56.837983
20
76.068431
30
0
70
32
0
VERTEX
8
0
62
255
10
55.633111
20
76.954009
30
0
70
32
0
VERTEX
8
0
62
255
10
54.414443
20
77.820504
30
0
70
32
0
VERTEX
8
0
62
255
10
53.182282
20
78.667703
30
0
70
32
0
VERTEX
8
0
62
255
10
51.936933
20
79.495393
30
0
70
32
0
VERTEX
8
0
62
255
10
50.678704
20
80.303371
30
0
70
32
0
VERTEX
8
0
62
255
10
49.407909
20
81.091436
30
0
70
32
0
VERTEX
8
0
62
255
10
48.124863
20
81.859392
30
0
70
32
0
VERTEX
8
0
62
255
10
46.829882
20
82.60705
30
0
70
32
0
VERTEX
8
0
62
255
10
45.523289
20
83.334223
30
0
70
32
0
VERTEX
8
0
62
255
10
44.205407
20
84.040731
30
0
70
32
0
VERTEX
8
0
62
255
10
42.876564
20
84.7264
30
0
70
32
0
VERTEX
8
0
62
255
10
41.537088
20
85.391058
30
0
70
32
0
VERTEX
8
0
62
255
10
40.187312
20
86.034542
30
0
70
32
0
VERTEX
8
0
62
255
10
38.827571
20
86.656692
30
0
70
32
0
VERTEX
8
0
62
255
10
37.458202
20
87.257353
30
0
70
32
0
VERTEX
8
0
62
255
10
36.079544
20
87.836376
30
0
70
32
0
VERTEX
8
0
62
255
10
34.691939
20
88.393619
30
0
70
32
0
VERTEX
8
0
62
255
10
33.295732
20
88.928942
30
0
70
32
0
VERTEX
8
0
62
255
10
31.891268
20
89.442213
30
0
70
32
0
VERTEX
8
0
62
255
10
30.478896
20
89.933305
30
0
70
32
0
VERTEX
8
0
62
255
10
29.058966
20
90.402096
30
0
70
32
0
VERTEX
8
0
62
255
10
27.63183
20
90.84847
30
0
70
32
0
VERTEX
8
0
62
255
10
26.197842
20
91.272316
30
0
70
32
0
VERTEX
8
0
62
255
10
24.757358
20
91.673528
30
0
70
32
0
VERTEX
8
0
62
255
10
23.310734
20
92.052008
30
0
70
32
0
VERTEX
8
0
62
255
10
21.85833
20
92.407661
30
0
70
32
0
VERTEX
8
0
62
255
10
20.400506
20
92.7404
30
0
70
32
0
VERTEX
8
0
62
255
10
18.937624
20
93.050142
30
0
70
32
0
VERTEX
8
0
62
255
10
17.470045
20
93.33681
30
0
70
32
0
VERTEX
8
0
62
255
10
15.998134
20
93.600332
30
0
70
32
0
VERTEX
8
0
62
255
10
14.522256
20
93.840645
30
0
70
32
0
VERTEX
8
0
62
255
10
13.042776
20
94.057687
30
0
70
32
0
VERTEX
8
0
62
255
10
11.560063
20
94.251406
30
0
70
32
0
VERTEX
8
0
62
255
10
10.074483
20
94.421752
30
0
70
32
0
VERTEX
8
0
62
255
10
8.5864044
20
94.568685
30
0
70
32
0
VERTEX
8
0
62
255
10
7.0961969
20
94.692167
30
0
70
32
0
VERTEX
8
0
62
255
10
5.6042297
20
94.792168
30
0
70
32
0
VERTEX
8
0
62
255
10
4.1108729
20
94.868663
30
0
70
32
0
VERTEX
8
0
62
255
10
2.6164966
20
94.921633
30
0
70
32
0
VERTEX
8
0
62
255
10
1.1214716
20
94.951065
30
0
70
32
0
VERTEX
8
0
62
255
10
-0.37383158
20
94.956952
30
0
70
32
0
VERTEX
8
0
62
255
10
-1.869042
20
94.939292
30
0
70
32
0
VERTEX
8
0
62
255
10
-3.363789
20
94.89809
30
0
70
32
0
VERTEX
8
0
62
255
10
-4.8577019
20
94.833355
30
0
70
32
0
VERTEX
8
0
62
255
10
-6.3504102
20
94.745104
30
0
70
32
0
VERTEX
8
0
62
255
10
-7.8415437
20
94.633359
30
0
70
32
0
VERTEX
8
0
62
255
10
-9.3307328
20
94.498148
30
0
70
32
0
VERTEX
8
0
62
255
10
-10.817608
20
94.339503
30
0
70
32
0
VERTEX
8
0
62
255
10
-12.301801
20
94.157465
30
0
70
32
0
VERTEX
8
0
62
255
10
-13.782943
20
93.952078
30
0
70
32
0
VERTEX
8
0
62
255
10
-15.260668
20
93.723394
30
0
70
32
0
VERTEX
8
0
62
255
10
-16.734608
20
93.471468
30
0
70
32
0
VERTEX
8
0
62
255
10
-18.204398
20
93.196365
30
0
70
32
0
VERTEX
8
0
62
255
10
-19.669675
20
92.898151
30
0
70
32
0
VERTEX
8
0
62
255
10
-21.130073
20
92.5769
30
0
70
32
0
VERTEX
8
0
62
255
10
-22.585232
20
92.232694
30
0
70
32
0
VERTEX
8
0
62
255
10
-24.034791
20
91.865616
30
0
70
32
0
VERTEX
8
0
62
255
10
-25.47839
20
91.475757
30
0
70
32
0
VERTEX
8
0
62
255
10
-26.91567
20
91.063215
30
0
70
32
0
VERTEX
8
0
62
255
10
-28.346276
20
90.628092
30
0
70
32
0
VERTEX
8
0
62
255
10
-29.769853
20
90.170496
30
0
70
32
0
VERTEX
8
0
62
255
10
-31.186048
20
89.69054
30
0
70
32
0
VERTEX
8
0
62
255
10
-32.59451
20
89.188342
30
0
70
32
0
VERTEX
8
0
62
255
10
-33.994889
20
88.664029
30
0
70
32
0
VERTEX
8
0
62
255
10
-35.386838
20
88.117729
30
0
70
32
0
VERTEX
8
0
62
255
10
-36.770013
20
87.549578
30
0
70
32
0
VERTEX
8
0
62
255
10
-38.144069
20
86.959718
30
0
70
32
0
VERTEX
8
0
62
255
10
-39.508666
20
86.348293
30
0
70
32
0
VERTEX
8
0
62
255
10
-40.863467
20
85.715457
30
0
70
32
0
VERTEX
8
0
62
255
10
-42.208134
20
85.061366
30
0
70
32
0
VERTEX
8
0
62
255
10
-43.542335
20
84.386181
30
0
70
32
0
VERTEX
8
0
62
255
10
-44.865739
20
83.690071
30
0
70
32
0
VERTEX
8
0
62
255
10
-46.178017
20
82.973208
30
0
70
32
0
VERTEX
8
0
62
255
10
-47.478844
20
82.23577
30
0
70
32
0
VERTEX
8
0
62
255
10
-48.767898
20
81.47794
30
0
70
32
0
VERTEX
8
0
62
255
10
-50.044858
20
80.699905
30
0
70
32
0
VERTEX
8
0
62
255
10
-51.309409
20
79.901859
30
0
70
32
0
VERTEX
8
0
62
255
10
-52.561236
20
79.083999
30
0
70
32
0
VERTEX
8
0
62
255
10
-53.80003
20
78.246529
30
0
70
32
0
VERTEX
8
0
62
255
10
-55.025483
20
77.389655
30
0
70
32
0
VERTEX
8
0
62
255
10
-56.23729
20
76.513591
30
0
70
32
0
VERTEX
8
0
62
255
10
-57.435153
20
75.618554
30
0
70
32
0
VERTEX
8
0
62
255
10
-58.618773
20
74.704765
30
0
70
32
0
VERTEX
8
0
62
255
10
-59.787857
20
73.772452
30
0
70
32
0
VERTEX
8
0
62
255
10
-60.942115
20
72.821845
30
0
70
32
0
VERTEX
8
0
62
255
10
-62.081262
20
71.85318
30
0
70
32
0
VERTEX
8
0
62
255
10
-63.205013
20
70.866697
30
0
70
32
0
VERTEX
8
0
62
255
10
-64.313092
20
69.862642
30
0
70
32
0
VERTEX
8
0
62
255
10
-65.405223
20
68.841262
30
0
70
32
0
VERTEX
8
0
62
255
10
-66.481135
20
67.802811
30
0
70
32
0
VERTEX
8
0
62
255
10
-67.540561
20
66.747547
30
0
70
32
0
VERTEX
8
0
62
255
10
-68.58324
20
65.675732
30
0
70
32
0
VERTEX
8
0
62
255
10
-69.608911
20
64.587631
30
0
70
32
0
VERTEX
8
0
62
255
10
-70.617321
20
63.483513
30
0
70
32
0
VERTEX
8
0
62
255
10
-71.60822
20
62.363654
30
0
70
32
0
VERTEX
8
0
62
255
10
-72.581362
20
61.22833
30
0
70
32
0
VERTEX
8
0
62
255
10
-73.536506
20
60.077823
30
0
70
32
0
VERTEX
8
0
62
255
10
-74.473415
20
58.912418
30
0
70
32
0
VERTEX
8
0
62
255
10
-75.391856
20
57.732405
30
0
70
32
0
VERTEX
8
0
62
255
10
-76.291602
20
56.538075
30
0
70
32
0
VERTEX
8
0
62
255
10
-77.17243
20
55.329725
30
0
70
32
0
VERTEX
8
0
62
255
10
-78.034121
20
54.107656
30
0
70
32
0
VERTEX
8
0
62
255
10
-78.876462
20
52.872169
30
0
70
32
0
VERTEX
8
0
62
255
10
-79.699244
20
51.623571
30
0
70
32
0
VERTEX
8
0
62
255
10
-80.502262
20
50.362172
30
0
70
32
0
VERTEX
8
0
62
255
10
-81.285318
20
49.088284
30
0
70
32
0
VERTEX
8
0
62
255
10
-82.048217
20
47.802224
30
0
70
32
0
VERTEX
8
0
62
255
10
-82.79077
20
46.50431
30
0
70
32
0
VERTEX
8
0
62
255
10
-83.512794
20
45.194864
30
0
70
32
0
VERTEX
8
0
62
255
10
-84.214109
20
43.874211
30
0
70
32
0
VERTEX
8
0
62
255
10
-84.89454
20
42.542679
30
0
70
32
0
VERTEX
8
0
62
255
10
-85.553921
20
41.200597
30
0
70
32
0
VERTEX
8
0
62
255
10
-86.192086
20
39.848298
30
0
70
32
0
VERTEX
8
0
62
255
10
-86.808877
20
38.486118
30
0
70
32
0
VERTEX
8
0
62
255
10
-87.404143
20
37.114395
30
0
70
32
0
VERTEX
8
0
62
255
10
-87.977735
20
35.733468
30
0
70
32
0
VERTEX
8
0
62
255
10
-88.52951
20
34.34368
30
0
70
32
0
VERTEX
8
0
62
255
10
-89.059332
20
32.945376
30
0
70
32
0
VERTEX
8
0
62
255
10
-89.567071
20
31.538902
30
0
70
32
0
VERTEX
8
0
62
255
10
-90.052599
20
30.124608
30
0
70
32
0
VERTEX
8
0
62
255
10
-90.515796
20
28.702843
30
0
70
32
0
VERTEX
8
0
62
255
10
-90.956548
20
27.273961
30
0
70
32
0
VERTEX
8
0
62
255
10
-91.374745
20
25.838316
30
0
70
32
0
VERTEX
8
0
62
255
10
-91.770283
20
24.396263
30
0
70
32
0
VERTEX
8
0
62
255
10
-92.143065
20
22.948161
30
0
70
32
0
VERTEX
8
0
62
255
10
-92.492998
20
21.494369
30
0
70
32
0
VERTEX
8
0
62
255
10
-92.819995
20
20.035246
30
0
70
32
0
VERTEX
8
0
62
255
10
-93.123975
20
18.571155
30
0
70
32
0
VERTEX
8
0
62
255
10
-93.404863
20
17.102459
30
0
70
32
0
VERTEX
8
0
62
255
10
-93.662589
20
15.629522
30
0
70
32
0
VERTEX
8
0
62
255
10
-93.897089
20
14.152709
30
0
70
32
0
VERTEX
8
0
62
255
10
-94.108305
20
12.672387
30
0
70
32
0
VERTEX
8
0
62
255
10
-94.296185
20
11.188922
30
0
70
32
0
VERTEX
8
0
62
255
10
-94.460682
20
9.7026829
30
0
70
32
0
VERTEX
8
0
62
255
10
-94.601755
20
8.2140377
30
0
70
32
0
VERTEX
8
0
62
255
10
-94.71937
20
6.7233556
30
0
70
32
0
VERTEX
8
0
62
255
10
-94.813496
20
5.2310064
30
0
70
32
0
VERTEX
8
0
62
255
10
-94.884112
20
3.7373599
30
0
70
32
0
VERTEX
8
0
62
255
10
-94.931198
20
2.2427867
30
0
70
32
0
VERTEX
8
0
62
255
10
-94.954745
20
0.74765737
30
0
70
32
0
VERTEX
8
0
62
255
10
-94.954745
20
-0.74765737
30
0
70
32
0
VERTEX
8
0
62
255
10
-94.931198
20
-2.2427867
30
0
70
32
0
VERTEX
8
0
62
255
10
-94.884112
20
-3.7373599
30
0
70
32
0
VERTEX
8
0
62
255
10
-94.813496
20
-5.2310064
30
0
70
32
0
VERTEX
8
0
62
255
10
-94.71937
20
-6.7233556
30
0
70
32
0
VERTEX
8
0
62
255
10
-94.601755
20
-8.2140377
30
0
70
32
0
VERTEX
8
0
62
255
10
-94.460682
20
-9.7026829
30
0
70
32
0
VERTEX
8
0
62
255
10
-94.296185
20
-11.188922
30
0
70
32
0
VERTEX
8
0
62
255
10
-94.108305
20
-12.672387
30
0
70
32
0
VERTEX
8
0
62
255
10
-93.897089
20
-14.152709
30
0
70
32
0
VERTEX
8
0
62
255
10
-93.662589
20
-15.629522
30
0
70
32
0
VERTEX
8
0
62
255
10
-93.404863
20
-17.102459
30
0
70
32
0
VERTEX
8
0
62
255
10
-93.123975
20
-18.571155
30
0
70
32
0
VERTEX
8
0
62
255
10
-92.819995
20
-20.035246
30
0
70
32
0
VERTEX
8
0
62
255
10
-92.492998
20
-21.494369
30
0
70
32
0
VERTEX
8
0
62
255
10
-92.143065
20
-22.948161
30
0
70
32
0
VERTEX
8
0
62
255
10
-91.770283
20
-24.396263
30
0
70
32
0
VERTEX
8
0
62
255
10
-91.374745
20
-25.838316
30
0
70
32
0
VERTEX
8
0
62
255
10
-90.956548
20
-27.273961
30
0
70
32
0
VERTEX
8
0
62
255
10
-90.515796
20
-28.702843
30
0
70
32
0
VERTEX
8
0
62
255
10
-90.052599
20
-30.124608
30
0
70
32
0
VERTEX
8
0
62
255
10
-89.567071
20
-31.538902
30
0
70
32
0
VERTEX
8
0
62
255
10
-89.059332
20
-32.945376
30
0
70
32
0
VERTEX
8
0
62
255
10
-88.52951
20
-34.34368
30
0
70
32
0
VERTEX
8
0
62
255
10
-87.977735
20
-35.733468
30
0
70
32
0
VERTEX
8
0
62
255
10
-87.404143
20
-37.114395
30
0
70
32
0
VERTEX
8
0
62
255
10
-86.808877
20
-38.486118
30
0
70
32
0
VERTEX
8
0
62
255
10
-86.192086
20
-39.848298
30
0
70
32
0
VERTEX
8
0
62
255
10
-85.553921
20
-41.200597
30
0
70
32
0
VERTEX
8
0
62
255
10
-84.89454
20
-42.542679
30
0
70
32
0
VERTEX
8
0
62
255
10
-84.214109
20
-43.874211
30
0
70
32
0
VERTEX
8
0
62
255
10
-83.512794
20
-45.194864
30
0
70
32
0
VERTEX
8
0
62
255
10
-82.79077
20
-46.50431
30
0
70
32
0
VERTEX
8
0
62
255
10
-82.048217
20
-47.802224
30
0
70
32
0
VERTEX
8
0
62
255
10
-81.285318
20
-49.088284
30
0
70
32
0
VERTEX
8
0
62
255
10
-80.502262
20
-50.362172
30
0
70
32
0
VERTEX
8
0
62
255
10
-79.699244
20
-51.623571
30
0
70
32
0
VERTEX
8
0
62
255
10
-78.876462
20
-52.872169
30
0
70
32
0
VERTEX
8
0
62
255
10
-78.034121
20
-54.107656
30
0
70
32
0
VERTEX
8
0
62
255
10
-77.17243
20
-55.329725
30
0
70
32
0
VERTEX
8
0
62
255
10
-76.291602
20
-56.538075
30
0
70
32
0
VERTEX
8
0
62
255
10
-75.391856
20
-57.732405
30
0
70
32
0
VERTEX
8
0
62
255
10
-74.473415
20
-58.912418
30
0
70
32
0
VERTEX
8
0
62
255
10
-73.536506
20
-60.077823
30
0
70
32
0
VERTEX
8
0
62
255
10
-72.581362
20
-61.22833
30
0
70
32
0
VERTEX
8
0
62
255
10
-71.60822
20
-62.363654
30
0
70
32
0
VERTEX
8
0
62
255
10
-70.617321
20
-63.483513
30
0
70
32
0
VERTEX
8
0
62
255
10
-69.608911
20
-64.587631
30
0
70
32
0
VERTEX
8
0
62
255
10
-68.58324
20
-65.675732
30
0
70
32
0
VERTEX
8
0
62
255
10
-67.540561
20
-66.747547
30
0
70
32
0
VERTEX
8
0
62
255
10
-66.481135
20
-67.802811
30
0
70
32
0
VERTEX
8
0
62
255
10
-65.405223
20
-68.841262
30
0
70
32
0
VERTEX
8
0
62
255
10
-64.313092
20
-69.862642
30
0
70
32
0
VERTEX
8
0
62
255
10
-63.205013
20
-70.866697
30
0
70
32
0
VERTEX
8
0
62
255
10
-62.081262
20
-71.85318
30
0
70
32
0
VERTEX
8
0
62
255
10
-60.942115
20
-72.821845
30
0
70
32
0
VERTEX
8
0
62
255
10
-59.787857
20
-73.772452
30
0
70
32
0
VERTEX
8
0
62
255
10
-58.618773
20
-74.704765
30
0
70
32
0
VERTEX
8
0
62
255
10
-57.435153
20
-75.618554
30
0
70
32
0
VERTEX
8
0
62
255
10
-56.23729
20
-76.513591
30
0
70
32
0
VERTEX
8
0
62
255
10
-55.025483
20
-77.389655
30
0
70
32
0
VERTEX
8
0
62
255
10
-53.80003
20
-78.246529
30
0
70
32
0
VERTEX
8
0
62
255
10
-52.561236
20
-79.083999
30
0
70
32
0
VERTEX
8
0
62
255
10
-51.309409
20
-79.901859
30
0
70
32
0
VERTEX
8
0
62
255
10
-50.044858
20
-80.699905
30
0
70
32
0
VERTEX
8
0
62
255
10
-48.767898
20
-81.47794
30
0
70
32
0
VERTEX
8
0
62
255
10
-47.478844
20
-82.23577
30
0
70
32
0
VERTEX
8
0
62
255
10
-46.178017
20
-82.973208
30
0
70
32
0
VERTEX
8
0
62
255
10
-44.865739
20
-83.690071
30
0
70
32
0
VERTEX
8
0
62
255
10
-43.542335
20
-84.386181
30
0
70
32
0
VERTEX
8
0
62
255
10
-42.208134
20
-85.061366
30
0
70
32
0
VERTEX
8
0
62
255
10
-40.863467
20
-85.715457
30
0
70
32
0
VERTEX
8
0
62
255
10
-39.508666
20
-86.348293
30
0
70
32
0
VERTEX
8
0
62
255
10
-38.144069
20
-86.959718
30
0
70
32
0
VERTEX
8
0
62
255
10
-36.770013
20
-87.549578
30
0
70
32
0
VERTEX
8
0
62
255
10
-35.386838
20
-88.117729
30
0
70
32
0
VERTEX
8
0
62
255
10
-33.994889
20
-88.664029
30
0
70
32
0
VERTEX
8
0
62
255
10
-32.59451
20
-89.188342
30
0
70
32
0
VERTEX
8
0
62
255
10
-31.186048
20
-89.69054
30
0
70
32
0
VERTEX
8
0
62
255
10
-29.769853
20
-90.170496
30
0
70
32
0
VERTEX
8
0
62
255
10
-28.346276
20
-90.628092
30
0
70
32
0
VERTEX
8
0
62
255
10
-26.91567
20
-91.063215
30
0
70
32
0
VERTEX
8
0
62
255
10
-25.47839
20
-91.475757
30
0
70
32
0
VERTEX
8
0
62
255
10
-24.034791
20
-91.865616
30
0
70
32
0
VERTEX
8
0
62
255
10
-22.585232
20
-92.232694
30
0
70
32
0
VERTEX
8
0
62
255
10
-21.130073
20
-92.5769
30
0
70
32
0
VERTEX
8
0
62
255
10
-19.669675
20
-92.898151
30
0
70
32
0
VERTEX
8
0
62
255
10
-18.204398
20
-93.196365
30
0
70
32
0
VERTEX
8
0
62
255
10
-16.734608
20
-93.471468
30
0
70
32
0
VERTEX
8
0
62
255
10
-15.260668
20
-93.723394
30
0
70
32
0
VERTEX
8
0
62
255
10
-13.782943
20
-93.952078
30
0
70
32
0
VERTEX
8
0
62
255
10
-12.301801
20
-94.157465
30
0
70
32
0
VERTEX
8
0
62
255
10
-10.817608
20
-94.339503
30
0
70
32
0
VERTEX
8
0
62
255
10
-9.3307328
20
-94.498148
30
0
70
32
0
VERTEX
8
0
62
255
10
-7.8415437
20
-94.633359
30
0
70
32
0
VERTEX
8
0
62
255
10
-6.3504102
20
-94.745104
30
0
70
32
0
VERTEX
8
0
62
255
10
-4.8577019
20
-94.833355
30
0
70
32
0
VERTEX
8
0
62
255
10
-3.363789
20
-94.89809
30
0
70
32
0
VERTEX
8
0
62
255
10
-1.869042
20
-94.939292
30
0
70
32
0
VERTEX
8
0
62
255
10
-0.37383158
20
-94.956952
30
0
70
32
0
VERTEX
8
0
62
255
10
1.1214716
20
-94.951065
30
0
70
32
0
VERTEX
8
0
62
255
10
2.6164966
20
-94.921633
30
0
70
32
0
VERTEX
8
0
62
255
10
4.1108729
20
-94.868663
30
0
70
32
0
VERTEX
8
0
62
255
10
5.6042297
20
-94.792168
30
0
70
32
0
VERTEX
8
0
62
255
10
7.0961969
20
-94.692167
30
0
70
32
0
VERTEX
8
0
62
255
10
8.5864044
20
-94.568685
30
0
70
32
0
VERTEX
8
0
62
255
10
10.074483
20
-94.421752
30
0
70
32
0
VERTEX
8
0
62
255
10
11.560063
20
-94.251406
30
0
70
32
0
VERTEX
8
0
62
255
10
13.042776
20
-94.057687
30
0
70
32
0
VERTEX
8
0
62
255
10
14.522256
20
-93.840645
30
0
70
32
0
VERTEX
8
0
62
255
10
15.998134
20
-93.600332
30
0
70
32
0
VERTEX
8
0
62
255
10
17.470045
20
-93.33681
30
0
70
32
0
VERTEX
8
0
62
255
10
18.937624
20
-93.050142
30
0
70
32
0
VERTEX
8
0
62
255
10
20.400506
20
-92.7404
30
0
70
32
0
VERTEX
8
0
62
255
10
21.85833
20
-92.407661
30
0
70
32
0
VERTEX
8
0
62
255
10
23.310734
20
-92.052008
30
0
70
32
0
VERTEX
8
0
62
255
10
24.757358
20
-91.673528
30
0
70
32
0
VERTEX
8
0
62
255
10
26.197842
20
-91.272316
30
0
70
32
0
VERTEX
8
0
62
255
10
27.63183
20
-90.84847
30
0
70
32
0
VERTEX
8
0
62
255
10
29.058966
20
-90.402096
30
0
70
32
0
VERTEX
8
0
62
255
10
30.478896
20
-89.933305
30
0
70
32
0
VERTEX
8
0
62
255
10
31.891268
20
-89.442213
30
0
70
32
0
VERTEX
8
0
62
255
10
33.295732
20
-88.928942
30
0
70
32
0
VERTEX
8
0
62
255
10
34.691939
20
-88.393619
30
0
70
32
0
VERTEX
8
0
62
255
10
36.079544
20
-87.836376
30
0
70
32
0
VERTEX
8
0
62
255
10
37.458202
20
-87.257353
30
0
70
32
0
VERTEX
8
0
62
255
10
38.827571
20
-86.656692
30
0
70
32
0
VERTEX
8
0
62
255
10
40.187312
20
-86.034542
30
0
70
32
0
VERTEX
8
0
62
255
10
41.537088
20
-85.391058
30
0
70
32
0
VERTEX
8
0
62
255
10
42.876564
20
-84.7264
30
0
70
32
0
VERTEX
8
0
62
255
10
44.205407
20
-84.040731
30
0
70
32
0
VERTEX
8
0
62
255
10
45.523289
20
-83.334223
30
0
70
32
0
VERTEX
8
0
62
255
10
46.829882
20
-82.60705
30
0
70
32
0
VERTEX
8
0
62
255
10
48.124863
20
-81.859392
30
0
70
32
0
VERTEX
8
0
62
255
10
49.407909
20
-81.091436
30
0
70
32
0
VERTEX
8
0
62
255
10
50.678704
20
-80.303371
30
0
70
32
0
VERTEX
8
0
62
255
10
51.936933
20
-79.495393
30
0
70
32
0
VERTEX
8
0
62
255
10
53.182282
20
-78.667703
30
0
70
32
0
VERTEX
8
0
62
255
10
54.414443
20
-77.820504
30
0
70
32
0
VERTEX
8
0
62
255
10
55.633111
20
-76.954009
30
0
70
32
0
VERTEX
8
0
62
255
10
56.837983
20
-76.068431
30
0
70
32
0
VERTEX
8
0
62
255
10
58.028761
20
-75.16399
30
0
70
32
0
VERTEX
8
0
62
255
10
59.20515
20
-74.24091
30
0
70
32
0
VERTEX
8
0
62
255
10
60.366857
20
-73.29942
30
0
70
32
0
VERTEX
8
0
62
255
10
61.513595
20
-72.339755
30
0
70
32
0
VERTEX
8
0
62
255
10
62.645079
20
-71.362151
30
0
70
32
0
VERTEX
8
0
62
255
10
63.761029
20
-70.366851
30
0
70
32
0
VERTEX
8
0
62
255
10
64.861168
20
-69.354101
30
0
70
32
0
VERTEX
8
0
62
255
10
65.945223
20
-68.324154
30
0
70
32
0
VERTEX
8
0
62
255
10
67.012925
20
-67.277265
30
0
70
32
0
VERTEX
8
0
62
255
10
68.06401
20
-66.213692
30
0
70
32
0
VERTEX
8
0
62
255
10
69.098217
20
-65.1337
30
0
70
32
0
VERTEX
8
0
62
255
10
70.115289
20
-64.037557
30
0
70
32
0
VERTEX
8
0
62
255
10
71.114975
20
-62.925534
30
0
70
32
0
VERTEX
8
0
62
255
10
72.097026
20
-61.797907
30
0
70
32
0
VERTEX
8
0
62
255
10
73.061199
20
-60.654956
30
0
70
32
0
VERTEX
8
0
62
255
10
74.007254
20
-59.496965
30
0
70
32
0
VERTEX
8
0
62
255
10
74.934958
20
-58.324219
30
0
70
32
0
VERTEX
8
0
62
255
10
75.84408
20
-57.137011
30
0
70
32
0
VERTEX
8
0
62
255
10
76.734395
20
-55.935634
30
0
70
32
0
VERTEX
8
0
62
255
10
77.605681
20
-54.720387
30
0
70
32
0
VERTEX
8
0
62
255
10
78.457724
20
-53.49157
30
0
70
32
0
VERTEX
8
0
62
255
10
79.290311
20
-52.249489
30
0
70
32
0
VERTEX
8
0
62
255
10
80.103236
20
-50.994452
30
0
70
32
0
VERTEX
8
0
62
255
10
80.896297
20
-49.726769
30
0
70
32
0
VERTEX
8
0
62
255
10
81.669299
20
-48.446756
30
0
70
32
0
VERTEX
8
0
62
255
10
82.422049
20
-47.154728
30
0
70
32
0
VERTEX
8
0
62
255
10
83.15436
20
-45.851008
30
0
70
32
0
VERTEX
8
0
62
255
10
83.866051
20
-44.535918
30
0
70
32
0
VERTEX
8
0
62
255
10
84.556946
20
-43.209784
30
0
70
32
0
VERTEX
8
0
62
255
10
85.226872
20
-41.872936
30
0
70
32
0
VERTEX
8
0
62
255
10
85.875665
20
-40.525704
30
0
70
32
0
VERTEX
8
0
62
255
10
86.503163
20
-39.168422
30
0
70
32
0
VERTEX
8
0
62
255
10
87.10921
20
-37.801428
30
0
70
32
0
VERTEX
8
0
62
255
10
87.693657
20
-36.42506
30
0
70
32
0
VERTEX
8
0
62
255
10
88.256358
20
-35.03966
30
0
70
32
0
VERTEX
8
0
62
255
10
88.797174
20
-33.645571
30
0
70
32
0
VERTEX
8
0
62
255
10
89.31597
20
-32.243139
30
0
70
32
0
VERTEX
8
0
62
255
10
89.812618
20
-30.832711
30
0
70
32
0
VERTEX
8
0
62
255
10
90.286996
20
-29.414637
30
0
70
32
0
VERTEX
8
0
62
255
10
90.738984
20
-27.98927
30
0
70
32
0
VERTEX
8
0
62
255
10
91.168472
20
-26.556962
30
0
70
32
0
VERTEX
8
0
62
255
10
91.575352
20
-25.118068
30
0
70
32
0
VERTEX
8
0
62
255
10
91.959524
20
-23.672946
30
0
70
32
0
VERTEX
8
0
62
255
10
92.320893
20
-22.221954
30
0
70
32
0
VERTEX
8
0
62
255
10
92.659368
20
-20.765451
30
0
70
32
0
VERTEX
8
0
62
255
10
92.974867
20
-19.303799
30
0
70
32
0
VERTEX
8
0
62
255
10
93.26731
20
-17.83736
30
0
70
32
0
VERTEX
8
0
62
255
10
93.536625
20
-16.366498
30
0
70
32
0
VERTEX
8
0
62
255
10
93.782746
20
-14.891577
30
0
70
32
0
VERTEX
8
0
62
255
10
94.005611
20
-13.412964
30
0
70
32
0
VERTEX
8
0
62
255
10
94.205165
20
-11.931024
30
0
70
32
0
VERTEX
8
0
62
255
10
94.381359
20
-10.446126
30
0
70
32
0
VERTEX
8
0
62
255
10
94.534149
20
-8.958638
30
0
70
32
0
VERTEX
8
0
62
255
10
94.663497
20
-7.4689282
30
0
70
32
0
VERTEX
8
0
62
255
10
94.769371
20
-5.9773663
30
0
70
32
0
VERTEX
8
0
62
255
10
94.851744
20
-4.4843221
30
0
70
32
0
VERTEX
8
0
62
255
10
94.910597
20
-2.990166
30
0
70
32
0
VERTEX
8
0
62
255
10
94.945914
20
-1.4952684
30
0
70
32
0
VERTEX
8
0
62
255
10
94.957688
20
-2.3257926e-14
30
0
70
32
0
SEQEND
8
0
0
POLYLINE
8
0
62
255
66
1
10
0
20
0
30
0
70
8
0
VERTEX
8
0
62
255
10
31.652563
20
0
30
0
70
32
0
VERTEX
8
0
62
255
10
31.648638
20
0.4984228
30
0
70
32
0
VERTEX
8
0
62
255
10
31.636866
20
0.996722
30
0
70
32
0
VERTEX
8
0
62
255
10
31.617248
20
1.494774
30
0
70
32
0
VERTEX
8
0
62
255
10
31.58979
20
1.9924554
30
0
70
32
0
VERTEX
8
0
62
255
10
31.554499
20
2.4896427
30
0
70
32
0
VERTEX
8
0
62
255
10
31.511383
20
2.9862127
30
0
70
32
0
VERTEX
8
0
62
255
10
31.460453
20
3.4820421
30
0
70
32
0
VERTEX
8
0
62
255
10
31.401722
20
3.9770081
30
0
70
32
0
VERTEX
8
0
62
255
10
31.335204
20
4.4709879
30
0
70
32
0
VERTEX
8
0
62
255
10
31.260915
20
4.963859
30
0
70
32
0
VERTEX
8
0
62
255
10
31.178875
20
5.4554992
30
0
70
32
0
VERTEX
8
0
62
255
10
31.089103
20
5.9457866
30
0
70
32
0
VERTEX
8
0
62
255
10
30.991622
20
6.4345996
30
0
70
32
0
VERTEX
8
0
62
255
10
30.886456
20
6.9218169
30
0
70
32
0
VERTEX
8
0
62
255
10
30.773631
20
7.4073179
30
0
70
32
0
VERTEX
8
0
62
255
10
30.653175
20
7.890982
30
0
70
32
0
VERTEX
8
0
62
255
10
30.525117
20
8.3726894
30
0
70
32
0
VERTEX
8
0
62
255
10
30.389491
20
8.8523206
30
0
70
32
0
VERTEX
8
0
62
255
10
30.246328
20
9.3297566
30
0
70
32
0
VERTEX
8
0
62
255
10
30.095665
20
9.8048791
30
0
70
32
0
VERTEX
8
0
62
255
10
29.937539
20
10.27757
30
0
70
32
0
VERTEX
8
0
62
255
10
29.77199
20
10.747713
30
0
70
32
0
VERTEX
8
0
62
255
10
29.599058
20
11.21519
30
0
70
32
0
VERTEX
8
0
62
255
10
29.418786
20
11.679887
30
0
70
32
0
VERTEX
8
0
62
255
10
29.231219
20
12.141687
30
0
70
32
0
VERTEX
8
0
62
255
10
29.036403
20
12.600476
30
0
70
32
0
VERTEX
8
0
62
255
10
28.834388
20
13.056141
30
0
70
32
0
VERTEX
8
0
62
255
10
28.625222
20
13.508568
30
0
70
32
0
VERTEX
8
0
62
255
10
28.408957
20
13.957645
30
0
70
32
0
VERTEX
8
0
62
255
10
28.185649
20
14.403261
30
0
70
32
0
VERTEX
8
0
62
255
10
27.95535
20
14.845306
30
0
70
32
0
VERTEX
8
0
62
255
10
27.71812
20
15.283669
30
0
70
32
0
VERTEX
8
0
62
255
10
27.474016
20
15.718243
30
0
70
32
0
VERTEX
8
0
62
255
10
27.2231
20
16.148919
30
0
70
32
0
VERTEX
8
0
62
255
10
26.965432
20
16.57559
30
0
70
32
0
VERTEX
8
0
62
255
10
26.701079
20
16.998151
30
0
70
32
0
VERTEX
8
0
62
255
10
26.430104
20
17.416496
30
0
70
32
0
VERTEX
8
0
62
255
10
26.152575
20
17.830523
30
0
70
32
0
VERTEX
8
0
62
255
10
25.86856
20
18.240129
30
0
70
32
0
VERTEX
8
0
62
255
10
25.578132
20
18.645211
30
0
70
32
0
VERTEX
8
0
62
255
10
25.28136
20
19.04567
30
0
70
32
0
VERTEX
8
0
62
255
10
24.978319
20
19.441406
30
0
70
32
0
VERTEX
8
0
62
255
10
24.669085
20
19.832322
30
0
70
32
0
VERTEX
8
0
62
255
10
24.353733
20
20.218319
30
0
70
32
0
VERTEX
8
0
62
255
10
24.032342
20
20.599302
30
0
70
32
0
VERTEX
8
0
62
255
10
23.704992
20
20.975178
30
0
70
32
0
VERTEX
8
0
62
255
10
23.371763
20
21.345852
30
0
70
32
0
VERTEX
8
0
62
255
10
23.032739
20
21.711233
30
0
70
32
0
VERTEX
8
0
62
255
10
22.688003
20
22.071231
30
0
70
32
0
VERTEX
8
0
62
255
10
22.337642
20
22.425755
30
0
70
32
0
VERTEX
8
0
62
255
10
21.981741
20
22.774718
30
0
70
32
0
VERTEX
8
0
62
255
10
21.620389
20
23.118034
30
0
70
32
0
VERTEX
8
0
62
255
10
21.253676
20
23.455617
30
0
70
32
0
VERTEX
8
0
62
255
10
20.881693
20
23.787384
30
0
70
32
0
VERTEX
8
0
62
255
10
20.504532
20
24.113252
30
0
70
32
0
VERTEX
8
0
62
255
10
20.122286
20
24.43314
30
0
70
32
0
VERTEX
8
0
62
255
10
19.73505
20
24.74697
30
0
70
32
0
VERTEX
8
0
62
255
10
19.34292
20
25.054663
30
0
70
32
0
VERTEX
8
0
62
255
10
18.945994
20
25.356144
30
0
70
32
0
VERTEX
8
0
62
255
10
18.54437
20
25.651336
30
0
70
32
0
VERTEX
8
0
62
255
10
18.138148
20
25.940168
30
0
70
32
0
VERTEX
8
0
62
255
10
17.727427
20
26.222568
30
0
70
32
0
VERTEX
8
0
62
255
10
17.312311
20
26.498464
30
0
70
32
0
VERTEX
8
0
62
255
10
16.892901
20
26.76779
30
0
70
32
0
VERTEX
8
0
62
255
10
16.469303
20
27.030479
30
0
70
32
0
VERTEX
8
0
62
255
10
16.041621
20
27.286464
30
0
70
32
0
VERTEX
8
0
62
255
10
15.609961
20
27.535683
30
0
70
32
0
VERTEX
8
0
62
255
10
15.17443
20
27.778074
30
0
70
32
0
VERTEX
8
0
62
255
10
14.735136
20
28.013577
30
0
70
32
0
VERTEX
8
0
62
255
10
14.292188
20
28.242133
30
0
70
32
0
VERTEX
8
0
62
255
10
13.845696
20
28.463686
30
0
70
32
0
VERTEX
8
0
62
255
10
13.395771
20
28.678181
30
0
70
32
0
VERTEX
8
0
62
255
10
12.942524
20
28.885564
30
0
70
32
0
VERTEX
8
0
62
255
10
12.486067
20
29.085784
30
0
70
32
0
VERTEX
8
0
62
255
10
12.026515
20
29.278792
30
0
70
32
0
VERTEX
8
0
62
255
10
11.56398
20
29.46454
30
0
70
32
0
VERTEX
8
0
62
255
10
11.098577
20
29.642981
30
0
70
32
0
VERTEX
8
0
62
255
10
10.630423
20
29.814071
30
0
70
32
0
VERTEX
8
0
62
255
10
10.159632
20
29.977768
30
0
70
32
0
VERTEX
8
0
62
255
10
9.6863219
20
30.134032
30
0
70
32
0
VERTEX
8
0
62
255
10
9.2106099
20
30.282823
30
0
70
32
0
VERTEX
8
0
62
255
10
8.7326139
20
30.424105
30
0
70
32
0
VERTEX
8
0
62
255
10
8.2524525
20
30.557843
30
0
70
32
0
VERTEX
8
0
62
255
10
7.7702448
20
30.684003
30
0
70
32
0
VERTEX
8
0
62
255
10
7.2861102
20
30.802554
30
0
70
32
0
VERTEX
8
0
62
255
10
6.8001688
20
30.913467
30
0
70
32
0
VERTEX
8
0
62
255
10
6.3125412
20
31.016714
30
0
70
32
0
VERTEX
8
0
62
255
10
5.8233482
20
31.11227
30
0
70
32
0
VERTEX
8
0
62
255
10
5.3327112
20
31.200111
30
0
70
32
0
VERTEX
8
0
62
255
10
4.8407518
20
31.280215
30
0
70
32
0
VERTEX
8
0
62
255
10
4.3475921
20
31.352562
30
0
70
32
0
VERTEX
8
0
62
255
10
3.8533543
20
31.417135
30
0
70
32
0
VERTEX
8
0
62
255
10
3.3581609
20
31.473917
30
0
70
32
0
VERTEX
8
0
62
255
10
2.8621348
20
31.522895
30
0
70
32
0
VERTEX
8
0
62
255
10
2.365399
20
31.564056
30
0
70
32
0
VERTEX
8
0
62
255
10
1.8680766
20
31.597389
30
0
70
32
0
VERTEX
8
0
62
255
10
1.370291
20
31.622888
30
0
70
32
0
VERTEX
8
0
62
255
10
0.87216555
20
31.640544
30
0
70
32
0
VERTEX
8
0
62
255
10
0.37382386
20
31.650355
30
0
70
32
0
VERTEX
8
0
62
255
10
-0.12461053
20
31.652317
30
0
70
32
0
VERTEX
8
0
62
255
10
-0.62301402
20
31.646431
30
0
70
32
0
VERTEX
8
0
62
255
10
-1.121263
20
31.632697
30
0
70
32
0
VERTEX
8
0
62
255
10
-1.619234
20
31.611118
30
0
70
32
0
VERTEX
8
0
62
255
10
-2.1168034
20
31.581701
30
0
70
32
0
VERTEX
8
0
62
255
10
-2.6138479
20
31.544453
30
0
70
32
0
VERTEX
8
0
62
255
10
-3.1102443
20
31.499383
30
0
70
32
0
VERTEX
8
0
62
255
10
-3.6058694
20
31.446501
30
0
70
32
0
VERTEX
8
0
62
255
10
-4.1006003
20
31.385822
30
0
70
32
0
VERTEX
8
0
62
255
10
-4.5943144
20
31.317359
30
0
70
32
0
VERTEX
8
0
62
255
10
-5.0868892
20
31.241131
30
0
70
32
0
VERTEX
8
0
62
255
10
-5.5782026
20
31.157156
30
0
70
32
0
VERTEX
8
0
62
255
10
-6.0681328
20
31.065455
30
0
70
32
0
VERTEX
8
0
62
255
10
-6.5565582
20
30.96605
30
0
70
32
0
VERTEX
8
0
62
255
10
-7.0433578
20
30.858967
30
0
70
32
0
VERTEX
8
0
62
255
10
-7.5284108
20
30.744231
30
0
70
32
0
VERTEX
8
0
62
255
10
-8.011597
20
30.621872
30
0
70
32
0
VERTEX
8
0
62
255
10
-8.4927965
20
30.491919
30
0
70
32
0
VERTEX
8
0
62
255
10
-8.97189
20
30.354405
30
0
70
32
0
VERTEX
8
0
62
255
10
-9.4487588
20
30.209364
30
0
70
32
0
VERTEX
8
0
62
255
10
-9.9232845
20
30.056832
30
0
70
32
0
VERTEX
8
0
62
255
10
-10.395349
20
29.896847
30
0
70
32
0
VERTEX
8
0
62
255
10
-10.864837
20
29.729447
30
0
70
32
0
VERTEX
8
0
62
255
10
-11.33163
20
29.554676
30
0
70
32
0
VERTEX
8
0
62
255
10
-11.795613
20
29.372576
30
0
70
32
0
VERTEX
8
0
62
255
10
-12.256671
20
29.183193
30
0
70
32
0
VERTEX
8
0
62
255
10
-12.71469
20
28.986573
30
0
70
32
0
VERTEX
8
0
62
255
10
-13.169555
20
28.782764
30
0
70
32
0
VERTEX
8
0
62
255
10
-13.621156
20
28.571819
30
0
70
32
0
VERTEX
8
0
62
255
10
-14.069378
20
28.353789
30
0
70
32
0
VERTEX
8
0
62
255
10
-14.514112
20
28.128727
30
0
70
32
0
VERTEX
8
0
62
255
10
-14.955246
20
27.89669
30
0
70
32
0
VERTEX
8
0
62
255
10
-15.392672
20
27.657736
30
0
70
32
0
VERTEX
8
0
62
255
10
-15.826281
20
27.411923
30
0
70
32
0
VERTEX
8
0
62
255
10
-16.255966
20
27.159313
30
0
70
32
0
VERTEX
8
0
62
255
10
-16.681619
20
26.899968
30
0
70
32
0
VERTEX
8
0
62
255
10
-17.103136
20
26.633953
30
0
70
32
0
VERTEX
8
0
62
255
10
-17.520412
20
26.361333
30
0
70
32
0
VERTEX
8
0
62
255
10
-17.933343
20
26.082176
30
0
70
32
0
VERTEX
8
0
62
255
10
-18.341828
20
25.796552
30
0
70
32
0
VERTEX
8
0
62
255
10
-18.745763
20
25.50453
30
0
70
32
0
VERTEX
8
0
62
255
10
-19.145051
20
25.206185
30
0
70
32
0
VERTEX
8
0
62
255
10
-19.539591
20
24.901588
30
0
70
32
0
VERTEX
8
0
62
255
10
-19.929286
20
24.590817
30
0
70
32
0
VERTEX
8
0
62
255
10
-20.314038
20
24.273948
30
0
70
32
0
VERTEX
8
0
62
255
10
-20.693754
20
23.95106
30
0
70
32
0
VERTEX
8
0
62
255
10
-21.068338
20
23.622232
30
0
70
32
0
VERTEX
8
0
62
255
10
-21.437697
20
23.287547
30
0
70
32
0
VERTEX
8
0
62
255
10
-21.801741
20
22.947087
30
0
70
32
0
VERTEX
8
0
62
255
10
-22.160378
20
22.600937
30
0
70
32
0
VERTEX
8
0
62
255
10
-22.51352
20
22.249182
30
0
70
32
0
VERTEX
8
0
62
255
10
-22.86108
20
21.891911
30
0
70
32
0
VERTEX
8
0
62
255
10
-23.20297
20
21.52921
30
0
70
32
0
VERTEX
8
0
62
255
10
-23.539107
20
21.161171
30
0
70
32
0
VERTEX
8
0
62
255
10
-23.869407
20
20.787885
30
0
70
32
0
VERTEX
8
0
62
255
10
-24.193787
20
20.409443
30
0
70
32
0
VERTEX
8
0
62
255
10
-24.512169
20
20.025941
30
0
70
32
0
VERTEX
8
0
62
255
10
-24.824472
20
19.637473
30
0
70
32
0
VERTEX
8
0
62
255
10
-25.130619
20
19.244135
30
0
70
32
0
VERTEX
8
0
62
255
10
-25.430534
20
18.846025
30
0
70
32
0
VERTEX
8
0
62
255
10
-25.724143
20
18.443242
30
0
70
32
0
VERTEX
8
0
62
255
10
-26.011374
20
18.035885
30
0
70
32
0
VERTEX
8
0
62
255
10
-26.292154
20
17.624056
30
0
70
32
0
VERTEX
8
0
62
255
10
-26.566415
20
17.207857
30
0
70
32
0
VERTEX
8
0
62
255
10
-26.834087
20
16.787391
30
0
70
32
0
VERTEX
8
0
62
255
10
-27.095106
20
16.362761
30
0
70
32
0
VERTEX
8
0
62
255
10
-27.349406
20
15.934075
30
0
70
32
0
VERTEX
8
0
62
255
10
-27.596923
20
15.501437
30
0
70
32
0
VERTEX
8
0
62
255
10
-27.837598
20
15.064955
30
0
70
32
0
VERTEX
8
0
62
255
10
-28.07137
20
14.624737
30
0
70
32
0
VERTEX
8
0
62
255
10
-28.29818
20
14.180893
30
0
70
32
0
VERTEX
8
0
62
255
10
-28.517974
20
13.733532
30
0
70
32
0
VERTEX
8
0
62
255
10
-28.730695
20
13.282766
30
0
70
32
0
VERTEX
8
0
62
255
10
-28.936292
20
12.828706
30
0
70
32
0
VERTEX
8
0
62
255
10
-29.134714
20
12.371465
30
0
70
32
0
VERTEX
8
0
62
255
10
-29.325912
20
11.911156
30
0
70
32
0
VERTEX
8
0
62
255
10
-29.509837
20
11.447893
30
0
70
32
0
VERTEX
8
0
62
255
10
-29.686444
20
10.981792
30
0
70
32
0
VERTEX
8
0
62
255
10
-29.85569
20
10.512967
30
0
70
32
0
VERTEX
8
0
62
255
10
-30.017533
20
10.041536
30
0
70
32
0
VERTEX
8
0
62
255
10
-30.171932
20
9.5676144
30
0
70
32
0
VERTEX
8
0
62
255
10
-30.318849
20
9.0913204
30
0
70
32
0
VERTEX
8
0
62
255
10
-30.458248
20
8.612772
30
0
70
32
0
VERTEX
8
0
62
255
10
-30.590094
20
8.1320878
30
0
70
32
0
VERTEX
8
0
62
255
10
-30.714355
20
7.6493871
30
0
70
32
0
VERTEX
8
0
62
255
10
-30.830999
20
7.1647895
30
0
70
32
0
VERTEX
8
0
62
255
10
-30.939998
20
6.6784153
30
0
70
32
0
VERTEX
8
0
62
255
10
-31.041325
20
6.190385
30
0
70
32
0
VERTEX
8
0
62
255
10
-31.134954
20
5.7008196
30
0
70
32
0
VERTEX
8
0
62
255
10
-31.220863
20
5.2098406
30
0
70
32
0
VERTEX
8
0
62
255
10
-31.29903
20
4.7175697
30
0
70
32
0
VERTEX
8
0
62
255
10
-31.369435
20
4.2241289
30
0
70
32
0
VERTEX
8
0
62
255
10
-31.432062
20
3.7296407
30
0
70
32
0
VERTEX
8
0
62
255
10
-31.486894
20
3.2342276
30
0
70
32
0
VERTEX
8
0
62
255
10
-31.533918
20
2.7380126
30
0
70
32
0
VERTEX
8
0
62
255
10
-31.573123
20
2.2411185
30
0
70
32
0
VERTEX
8
0
62
255
10
-31.604499
20
1.7436688
30
0
70
32
0
VERTEX
8
0
62
255
10
-31.628037
20
1.2457866
30
0
70
32
0
VERTEX
8
0
62
255
10
-31.643733
20
0.74759558
30
0
70
32
0
VERTEX
8
0
62
255
10
-31.651582
20
0.24921912
30
0
70
32
0
VERTEX
8
0
62
255
10
-31.651582
20
-0.24921912
30
0
70
32
0
VERTEX
8
0
62
255
10
-31.643733
20
-0.74759558
30
0
70
32
0
VERTEX
8
0
62
255
10
-31.628037
20
-1.2457866
30
0
70
32
0
VERTEX
8
0
62
255
10
-31.604499
20
-1.7436688
30
0
70
32
0
VERTEX
8
0
62
255
10
-31.573123
20
-2.2411185
30
0
70
32
0
VERTEX
8
0
62
255
10
-31.533918
20
-2.7380126
30
0
70
32
0
VERTEX
8
0
62
255
10
-31.486894
20
-3.2342276
30
0
70
32
0
VERTEX
8
0
62
255
10
-31.432062
20
-3.7296407
30
0
70
32
0
VERTEX
8
0
62
255
10
-31.369435
20
-4.2241289
30
0
70
32
0
VERTEX
8
0
62
255
10
-31.29903
20
-4.7175697
30
0
70
32
0
VERTEX
8
0
62
255
10
-31.220863
20
-5.2098406
30
0
70
32
0
VERTEX
8
0
62
255
10
-31.134954
20
-5.7008196
30
0
70
32
0
VERTEX
8
0
62
255
10
-31.041325
20
-6.190385
30
0
70
32
0
VERTEX
8
0
62
255
10
-30.939998
20
-6.6784153
30
0
70
32
0
VERTEX
8
0
62
255
10
-30.830999
20
-7.1647895
30
0
70
32
0
VERTEX
8
0
62
255
10
-30.714355
20
-7.6493871
30
0
70
32
0
VERTEX
8
0
62
255
10
-30.590094
20
-8.1320878
30
0
70
32
0
VERTEX
8
0
62
255
10
-30.458248
20
-8.612772
30
0
70
32
0
VERTEX
8
0
62
255
10
-30.318849
20
-9.0913204
30
0
70
32
0
VERTEX
8
0
62
255
10
-30.171932
20
-9.5676144
30
0
70
32
0
VERTEX
8
0
62
255
10
-30.017533
20
-10.041536
30
0
70
32
0
VERTEX
8
0
62
255
10
-29.85569
20
-10.512967
30
0
70
32
0
VERTEX
8
0
62
255
10
-29.686444
20
-10.981792
30
0
70
32
0
VERTEX
8
0
62
255
10
-29.509837
20
-11.447893
30
0
70
32
0
VERTEX
8
0
62
255
10
-29.325912
20
-11.911156
30
0
70
32
0
VERTEX
8
0
62
255
10
-29.134714
20
-12.371465
30
0
70
32
0
VERTEX
8
0
62
255
10
-28.936292
20
-12.828706
30
0
70
32
0
VERTEX
8
0
62
255
10
-28.730695
20
-13.282766
30
0
70
32
0
VERTEX
8
0
62
255
10
-28.517974
20
-13.733532
30
0
70
32
0
VERTEX
8
0
62
255
10
-28.29818
20
-14.180893
30
0
70
32
0
VERTEX
8
0
62
255
10
-28.07137
20
-14.624737
30
0
70
32
0
VERTEX
8
0
62
255
10
-27.837598
20
-15.064955
30
0
70
32
0
VERTEX
8
0
62
255
10
-27.596923
20
-15.501437
30
0
70
32
0
VERTEX
8
0
62
255
10
-27.349406
20
-15.934075
30
0
70
32
0
VERTEX
8
0
62
255
10
-27.095106
20
-16.362761
30
0
70
32
0
VERTEX
8
0
62
255
10
-26.834087
20
-16.787391
30
0
70
32
0
VERTEX
8
0
62
255
10
-26.566415
20
-17.207857
30
0
70
32
0
VERTEX
8
0
62
255
10
-26.292154
20
-17.624056
30
0
70
32
0
VERTEX
8
0
62
255
10
-26.011374
20
-18.035885
30
0
70
32
0
VERTEX
8
0
62
255
10
-25.724143
20
-18.443242
30
0
70
32
0
VERTEX
8
0
62
255
10
-25.430534
20
-18.846025
30
0
70
32
0
VERTEX
8
0
62
255
10
-25.130619
20
-19.244135
30
0
70
32
0
VERTEX
8
0
62
255
10
-24.824472
20
-19.637473
30
0
70
32
0
VERTEX
8
0
62
255
10
-24.512169
20
-20.025941
30
0
70
32
0
VERTEX
8
0
62
255
10
-24.193787
20
-20.409443
30
0
70
32
0
VERTEX
8
0
62
255
10
-23.869407
20
-20.787885
30
0
70
32
0
VERTEX
8
0
62
255
10
-23.539107
20
-21.161171
30
0
70
32
0
VERTEX
8
0
62
255
10
-23.20297
20
-21.52921
30
0
70
32
0
VERTEX
8
0
62
255
10
-22.86108
20
-21.891911
30
0
70
32
0
VERTEX
8
0
62
255
10
-22.51352
20
-22.249182
30
0
70
32
0
VERTEX
8
0
62
255
10
-22.160378
20
-22.600937
30
0
70
32
0
VERTEX
8
0
62
255
10
-21.801741
20
-22.947087
30
0
70
32
0
VERTEX
8
0
62
255
10
-21.437697
20
-23.287547
30
0
70
32
0
VERTEX
8
0
62
255
10
-21.068338
20
-23.622232
30
0
70
32
0
VERTEX
8
0
62
255
10
-20.693754
20
-23.95106
30
0
70
32
0
VERTEX
8
0
62
255
10
-20.314038
20
-24.273948
30
0
70
32
0
VERTEX
8
0
62
255
10
-19.929286
20
-24.590817
30
0
70
32
0
VERTEX
8
0
62
255
10
-19.539591
20
-24.901588
30
0
70
32
0
VERTEX
8
0
62
255
10
-19.145051
20
-25.206185
30
0
70
32
0
VERTEX
8
0
62
255
10
-18.745763
20
-25.50453
30
0
70
32
0
VERTEX
8
0
62
255
10
-18.341828
20
-25.796552
30
0
70
32
0
VERTEX
8
0
62
255
10
-17.933343
20
-26.082176
30
0
70
32
0
VERTEX
8
0
62
255
10
-17.520412
20
-26.361333
30
0
70
32
0
VERTEX
8
0
62
255
10
-17.103136
20
-26.633953
30
0
70
32
0
VERTEX
8
0
62
255
10
-16.681619
20
-26.899968
30
0
70
32
0
VERTEX
8
0
62
255
10
-16.255966
20
-27.159313
30
0
70
32
0
VERTEX
8
0
62
255
10
-15.826281
20
-27.411923
30
0
70
32
0
VERTEX
8
0
62
255
10
-15.392672
20
-27.657736
30
0
70
32
0
VERTEX
8
0
62
255
10
-14.955246
20
-27.89669
30
0
70
32
0
VERTEX
8
0
62
255
10
-14.514112
20
-28.128727
30
0
70
32
0
VERTEX
8
0
62
255
10
-14.069378
20
-28.353789
30
0
70
32
0
VERTEX
8
0
62
255
10
-13.621156
20
-28.571819
30
0
70
32
0
VERTEX
8
0
62
255
10
-13.169555
20
-28.782764
30
0
70
32
0
VERTEX
8
0
62
255
10
-12.71469
20
-28.986573
30
0
70
32
0
VERTEX
8
0
62
255
10
-12.256671
20
-29.183193
30
0
70
32
0
VERTEX
8
0
62
255
10
-11.795613
20
-29.372576
30
0
70
32
0
VERTEX
8
0
62
255
10
-11.33163
20
-29.554676
30
0
70
32
0
VERTEX
8
0
62
255
10
-10.864837
20
-29.729447
30
0
70
32
0
VERTEX
8
0
62
255
10
-10.395349
20
-29.896847
30
0
70
32
0
VERTEX
8
0
62
255
10
-9.9232845
20
-30.056832
30
0
70
32
0
VERTEX
8
0
62
255
10
-9.4487588
20
-30.209364
30
0
70
32
0
VERTEX
8
0
62
255
10
-8.97189
20
-30.354405
30
0
70
32
0
VERTEX
8
0
62
255
10
-8.4927965
20
-30.491919
30
0
70
32
0
VERTEX
8
0
62
255
10
-8.011597
20
-30.621872
30
0
70
32
0
VERTEX
8
0
62
255
10
-7.5284108
20
-30.744231
30
0
70
32
0
VERTEX
8
0
62
255
10
-7.0433578
20
-30.858967
30
0
70
32
0
VERTEX
8
0
62
255
10
-6.5565582
20
-30.96605
30
0
70
32
0
VERTEX
8
0
62
255
10
-6.0681328
20
-31.065455
30
0
70
32
0
VERTEX
8
0
62
255
10
-5.5782026
20
-31.157156
30
0
70
32
0
VERTEX
8
0
62
255
10
-5.0868892
20
-31.241131
30
0
70
32
0
VERTEX
8
0
62
255
10
-4.5943144
20
-31.317359
30
0
70
32
0
VERTEX
8
0
62
255
10
-4.1006003
20
-31.385822
30
0
70
32
0
VERTEX
8
0
62
255
10
-3.6058694
20
-31.446501
30
0
70
32
0
VERTEX
8
0
62
255
10
-3.1102443
20
-31.499383
30
0
70
32
0
VERTEX
8
0
62
255
10
-2.6138479
20
-31.544453
30
0
70
32
0
VERTEX
8
0
62
255
10
-2.1168034
20
-31.581701
30
0
70
32
0
VERTEX
8
0
62
255
10
-1.619234
20
-31.611118
30
0
70
32
0
VERTEX
8
0
62
255
10
-1.121263
20
-31.632697
30
0
70
32
0
VERTEX
8
0
62
255
10
-0.62301402
20
-31.646431
30
0
70
32
0
VERTEX
8
0
62
255
10
-0.12461053
20
-31.652317
30
0
70
32
0
VERTEX
8
0
62
255
10
0.37382386
20
-31.650355
30
0
70
32
0
VERTEX
8
0
62
255
10
0.87216555
20
-31.640544
30
0
70
32
0
VERTEX
8
0
62
255
10
1.370291
20
-31.622888
30
0
70
32
0
VERTEX
8
0
62
255
10
1.8680766
20
-31.597389
30
0
70
32
0
VERTEX
8
0
62
255
10
2.365399
20
-31.564056
30
0
70
32
0
VERTEX
8
0
62
255
10
2.8621348
20
-31.522895
30
0
70
32
0
VERTEX
8
0
62
255
10
3.3581609
20
-31.473917
30
0
70
32
0
VERTEX
8
0
62
255
10
3.8533543
20
-31.417135
30
0
70
32
0
VERTEX
8
0
62
255
10
4.3475921
20
-31.352562
30
0
70
32
0
VERTEX
8
0
62
255
10
4.8407518
20
-31.280215
30
0
70
32
0
VERTEX
8
0
62
255
10
5.3327112
20
-31.200111
30
0
70
32
0
VERTEX
8
0
62
255
10
5.8233482
20
-31.11227
30
0
70
32
0
VERTEX
8
0
62
255
10
6.3125412
20
-31.016714
30
0
70
32
0
VERTEX
8
0
62
255
10
6.8001688
20
-30.913467
30
0
70
32
0
VERTEX
8
0
62
255
10
7.2861102
20
-30.802554
30
0
70
32
0
VERTEX
8
0
62
255
10
7.7702448
20
-30.684003
30
0
70
32
0
VERTEX
8
0
62
255
10
8.2524525
20
-30.557843
30
0
70
32
0
VERTEX
8
0
62
255
10
8.7326139
20
-30.424105
30
0
70
32
0
VERTEX
8
0
62
255
10
9.2106099
20
-30.282823
30
0
70
32
0
VERTEX
8
0
62
255
10
9.6863219
20
-30.134032
30
0
70
32
0
VERTEX
8
0
62
255
10
10.159632
20
-29.977768
30
0
70
32
0
VERTEX
8
0
62
255
10
10.630423
20
-29.814071
30
0
70
32
0
VERTEX
8
0
62
255
10
11.098577
20
-29.642981
30
0
70
32
0
VERTEX
8
0
62
255
10
11.56398
20
-29.46454
30
0
70
32
0
VERTEX
8
0
62
255
10
12.026515
20
-29.278792
30
0
70
32
0
VERTEX
8
0
62
255
10
12.486067
20
-29.085784
30
0
70
32
0
VERTEX
8
0
62
255
10
12.942524
20
-28.885564
30
0
70
32
0
VERTEX
8
0
62
255
10
13.395771
20
-28.678181
30
0
70
32
0
VERTEX
8
0
62
255
10
13.845696
20
-28.463686
30
0
70
32
0
VERTEX
8
0
62
255
10
14.292188
20
-28.242133
30
0
70
32
0
VERTEX
8
0
62
255
10
14.735136
20
-28.013577
30
0
70
32
0
VERTEX
8
0
62
255
10
15.17443
20
-27.778074
30
0
70
32
0
VERTEX
8
0
62
255
10
15.609961
20
-27.535683
30
0
70
32
0
VERTEX
8
0
62
255
10
16.041621
20
-27.286464
30
0
70
32
0
VERTEX
8
0
62
255
10
16.469303
20
-27.030479
30
0
70
32
0
VERTEX
8
0
62
255
10
16.892901
20
-26.76779
30
0
70
32
0
VERTEX
8
0
62
255
10
17.312311
20
-26.498464
30
0
70
32
0
VERTEX
8
0
62
255
10
17.727427
20
-26.222568
30
0
70
32
0
VERTEX
8
0
62
255
10
18.138148
20
-25.940168
30
0
70
32
0
VERTEX
8
0
62
255
10
18.54437
20
-25.651336
30
0
70
32
0
VERTEX
8
0
62
255
10
18.945994
20
-25.356144
30
0
70
32
0
VERTEX
8
0
62
255
10
19.34292
20
-25.054663
30
0
70
32
0
VERTEX
8
0
62
255
10
19.73505
20
-24.74697
30
0
70
32
0
VERTEX
8
0
62
255
10
20.122286
20
-24.43314
30
0
70
32
0
VERTEX
8
0
62
255
10
20.504532
20
-24.113252
30
0
70
32
0
VERTEX
8
0
62
255
10
20.881693
20
-23.787384
30
0
70
32
0
VERTEX
8
0
62
255
10
21.253676
20
-23.455617
30
0
70
32
0
VERTEX
8
0
62
255
10
21.620389
20
-23.118034
30
0
70
32
0
VERTEX
8
0
62
255
10
21.981741
20
-22.774718
30
0
70
32
0
VERTEX
8
0
62
255
10
22.337642
20
-22.425755
30
0
70
32
0
VERTEX
8
0
62
255
10
22.688003
20
-22.071231
30
0
70
32
0
VERTEX
8
0
62
255
10
23.032739
20
-21.711233
30
0
70
32
0
VERTEX
8
0
62
255
10
23.371763
20
-21.345852
30
0
70
32
0
VERTEX
8
0
62
255
10
23.704992
20
-20.975178
30
0
70
32
0
VERTEX
8
0
62
255
10
24.032342
20
-20.599302
30
0
70
32
0
VERTEX
8
0
62
255
10
24.353733
20
-20.218319
30
0
70
32
0
VERTEX
8
0
62
255
10
24.669085
20
-19.832322
30
0
70
32
0
VERTEX
8
0
62
255
10
24.978319
20
-19.441406
30
0
70
32
0
VERTEX
8
0
62
255
10
25.28136
20
-19.04567
30
0
70
32
0
VERTEX
8
0
62
255
10
25.578132
20
-18.645211
30
0
70
32
0
VERTEX
8
0
62
255
10
25.86856
20
-18.240129
30
0
70
32
0
VERTEX
8
0
62
255
10
26.152575
20
-17.830523
30
0
70
32
0
VERTEX
8
0
62
255
10
26.430104
20
-17.416496
30
0
70
32
0
VERTEX
8
0
62
255
10
26.701079
20
-16.998151
30
0
70
32
0
VERTEX
8
0
62
255
10
26.965432
20
-16.57559
30
0
70
32
0
VERTEX
8
0
62
255
10
27.2231
20
-16.148919
30
0
70
32
0
VERTEX
8
0
62
255
10
27.474016
20
-15.718243
30
0
70
32
0
VERTEX
8
0
62
255
10
27.71812
20
-15.283669
30
0
70
32
0
VERTEX
8
0
62
255
10
27.95535
20
-14.845306
30
0
70
32
0
VERTEX
8
0
62
255
10
28.185649
20
-14.403261
30
0
70
32
0
VERTEX
8
0
62
255
10
28.408957
20
-13.957645
30
0
70
32
0
VERTEX
8
0
62
255
10
28.625222
20
-13.508568
30
0
70
32
0
VERTEX
8
0
62
255
10
28.834388
20
-13.056141
30
0
70
32
0
VERTEX
8
0
62
255
10
29.036403
20
-12.600476
30
0
70
32
0
VERTEX
8
0
62
255
10
29.231219
20
-12.141687
30
0
70
32
0
VERTEX
8
0
62
255
10
29.418786
20
-11.679887
30
0
70
32
0
VERTEX
8
0
62
255
10
29.599058
20
-11.21519
30
0
70
32
0
VERTEX
8
0
62
255
10
29.77199
20
-10.747713
30
0
70
32
0
VERTEX
8
0
62
255
10
29.937539
20
-10.27757
30
0
70
32
0
VERTEX
8
0
62
255
10
30.095665
20
-9.8048791
30
0
70
32
0
VERTEX
8
0
62
255
10
30.246328
20
-9.3297566
30
0
70
32
0
VERTEX
8
0
62
255
10
30.389491
20
-8.8523206
30
0
70
32
0
VERTEX
8
0
62
255
10
30.525117
20
-8.3726894
30
0
70
32
0
VERTEX
8
0
62
255
10
30.653175
20
-7.890982
30
0
70
32
0
VERTEX
8
0
62
255
10
30.773631
20
-7.4073179
30
0
70
32
0
VERTEX
8
0
62
255
10
30.886456
20
-6.9218169
30
0
70
32
0
VERTEX
8
0
62
255
10
30.991622
20
-6.4345996
30
0
70
32
0
VERTEX
8
0
62
255
10
31.089103
20
-5.9457866
30
0
70
32
0
VERTEX
8
0
62
255
10
31.178875
20
-5.4554992
30
0
70
32
0
VERTEX
8
0
62
255
10
31.260915
20
-4.963859
30
0
70
32
0
VERTEX
8
0
62
255
10
31.335204
20
-4.4709879
30
0
70
32
0
VERTEX
8
0
62
255
10
31.401722
20
-3.9770081
30
0
70
32
0
VERTEX
8
0
62
255
10
31.460453
20
-3.4820421
30
0
70
32
0
VERTEX
8
0
62
255
10
31.511383
20
-2.9862127
30
0
70
32
0
VERTEX
8
0
62
255
10
31.554499
20
-2.4896427
30
0
70
32
0
VERTEX
8
0
62
255
10
31.58979
20
-1.9924554
30
0
70
32
0
VERTEX
8
0
62
255
10
31.617248
20
-1.494774
30
0
70
32
0
VERTEX
8
0
62
255
10
31.636866
20
-0.996722
30
0
70
32
0
VERTEX
8
0
62
255
10
31.648638
20
-0.4984228
30
0
70
32
0
VERTEX
8
0
62
255
10
31.652563
20
-7.7526419e-15
30
0
70
32
0
SEQEND
8
0
0
POLYLINE
8
0
62
255
66
1
10
0
20
0
30
0
70
8
0
VERTEX
8
0
62
255
10
1.8709792
20
97.572079
30
0
70
32
0
VERTEX
8
0
62
255
10
2.6709792
20
115.28133
30
0
70
32
0
VERTEX
8
0
62
255
10
-2.6709792
20
115.28133
30
0
70
32
0
VERTEX
8
0
62
255
10
-1.8709792
20
97.572079
30
0
70
32
0
VERTEX
8
0
62
255
10
1.8709792
20
97.572079
30
0
70
32
0
SEQEND
8
0
0
POLYLINE
8
0
62
255
66
1
10
0
20
0
30
0
70
8
0
VERTEX
8
0
62
255
10
-6.6401075
20
97.363854
30
0
70
32
0
VERTEX
8
0
62
255
10
-7.3866147
20
115.07544
30
0
70
32
0
VERTEX
8
0
62
255
10
-12.708245
20
114.60986
30
0
70
32
0
VERTEX
8
0
62
255
10
-10.367826
20
97.037721
30
0
70
32
0
VERTEX
8
0
62
255
10
-6.6401075
20
97.363854
30
0
70
32
0
SEQEND
8
0
0
POLYLINE
8
0
62
255
66
1
10
0
20
0
30
0
70
8
0
VERTEX
8
0
62
255
10
-15.100659
20
96.414632
30
0
70
32
0
VERTEX
8
0
62
255
10
-17.387992
20
113.99376
30
0
70
32
0
VERTEX
8
0
62
255
10
-22.648794
20
113.06614
30
0
70
32
0
VERTEX
8
0
62
255
10
-18.785768
20
95.764847
30
0
70
32
0
VERTEX
8
0
62
255
10
-15.100659
20
96.414632
30
0
70
32
0
SEQEND
8
0
0
POLYLINE
8
0
62
255
66
1
10
0
20
0
30
0
70
8
0
VERTEX
8
0
62
255
10
-23.446285
20
94.731636
30
0
70
32
0
VERTEX
8
0
62
255
10
-27.257036
20
112.04451
30
0
70
32
0
VERTEX
8
0
62
255
10
-32.416972
20
110.66191
30
0
70
32
0
VERTEX
8
0
62
255
10
-27.060739
20
93.763146
30
0
70
32
0
VERTEX
8
0
62
255
10
-23.446285
20
94.731636
30
0
70
32
0
SEQEND
8
0
0
POLYLINE
8
0
62
255
66
1
10
0
20
0
30
0
70
8
0
VERTEX
8
0
62
255
10
-31.613471
20
92.327675
30
0
70
32
0
VERTEX
8
0
62
255
10
-36.918638
20
109.24254
30
0
70
32
0
VERTEX
8
0
62
255
10
-41.938437
20
107.41549
30
0
70
32
0
VERTEX
8
0
62
255
10
-35.129762
20
91.04785
30
0
70
32
0
VERTEX
8
0
62
255
10
-31.613471
20
92.327675
30
0
70
32
0
SEQEND
8
0
0
POLYLINE
8
0
62
255
66
1
10
0
20
0
30
0
70
8
0
VERTEX
8
0
62
255
10
-39.540059
20
89.221045
30
0
70
32
0
VERTEX
8
0
62
255
10
-46.299266
20
105.60917
30
0
70
32
0
VERTEX
8
0
62
255
10
-51.140725
20
103.35156
30
0
70
32
0
VERTEX
8
0
62
255
10
-42.931425
20
87.639625
30
0
70
32
0
VERTEX
8
0
62
255
10
-39.540059
20
89.221045
30
0
70
32
0
SEQEND
8
0
0
POLYLINE
8
0
62
255
66
1
10
0
20
0
30
0
70
8
0
VERTEX
8
0
62
255
10
-47.165724
20
85.435388
30
0
70
32
0
VERTEX
8
0
62
255
10
-55.32753
20
101.17205
30
0
70
32
0
VERTEX
8
0
62
255
10
-59.953801
20
98.501071
30
0
70
32
0
VERTEX
8
0
62
255
10
-50.406355
20
83.564409
30
0
70
32
0
VERTEX
8
0
62
255
10
-47.165724
20
85.435388
30
0
70
32
0
SEQEND
8
0
0
POLYLINE
8
0
62
255
66
1
10
0
20
0
30
0
70
8
0
VERTEX
8
0
62
255
10
-54.432429
20
80.999517
30
0
70
32
0
VERTEX
8
0
62
255
10
-63.934717
20
95.964949
30
0
70
32
0
VERTEX
8
0
62
255
10
-68.310593
20
92.900927
30
0
70
32
0
VERTEX
8
0
62
255
10
-57.497661
20
78.853218
30
0
70
32
0
VERTEX
8
0
62
255
10
-54.432429
20
80.999517
30
0
70
32
0
SEQEND
8
0
0
POLYLINE
8
0
62
255
66
1
10
0
20
0
30
0
70
8
0
VERTEX
8
0
62
255
10
-61.28487
20
75.947191
30
0
70
32
0
VERTEX
8
0
62
255
10
-72.055322
20
90.027495
30
0
70
32
0
VERTEX
8
0
62
255
10
-76.1475
20
86.593751
30
0
70
32
0
VERTEX
8
0
62
255
10
-64.151376
20
73.541906
30
0
70
32
0
VERTEX
8
0
62
255
10
-61.28487
20
75.947191
30
0
70
32
0
SEQEND
8
0
0
POLYLINE
8
0
62
255
66
1
10
0
20
0
30
0
70
8
0
VERTEX
8
0
62
255
10
-67.670896
20
70.31686
30
0
70
32
0
VERTEX
8
0
62
255
10
-79.627543
20
83.404878
30
0
70
32
0
VERTEX
8
0
62
255
10
-83.404878
20
79.627543
30
0
70
32
0
VERTEX
8
0
62
255
10
-70.31686
20
67.670896
30
0
70
32
0
VERTEX
8
0
62
255
10
-67.670896
20
70.31686
30
0
70
32
0
SEQEND
8
0
0
POLYLINE
8
0
62
255
66
1
10
0
20
0
30
0
70
8
0
VERTEX
8
0
62
255
10
-73.541906
20
64.151376
30
0
70
32
0
VERTEX
8
0
62
255
10
-86.593751
20
76.1475
30
0
70
32
0
VERTEX
8
0
62
255
10
-90.027495
20
72.055322
30
0
70
32
0
VERTEX
8
0
62
255
10
-75.947191
20
61.28487
30
0
70
32
0
VERTEX
8
0
62
255
10
-73.541906
20
64.151376
30
0
70
32
0
SEQEND
8
0
0
POLYLINE
8
0
62
255
66
1
10
0
20
0
30
0
70
8
0
VERTEX
8
0
62
255
10
-78.853218
20
57.497661
30
0
70
32
0
VERTEX
8
0
62
255
10
-92.900927
20
68.310593
30
0
70
32
0
VERTEX
8
0
62
255
10
-95.964949
20
63.934717
30
0
70
32
0
VERTEX
8
0
62
255
10
-80.999517
20
54.432429
30
0
70
32
0
VERTEX
8
0
62
255
10
-78.853218
20
57.497661
30
0
70
32
0
SEQEND
8
0
0
POLYLINE
8
0
62
255
66
1
10
0
20
0
30
0
70
8
0
VERTEX
8
0
62
255
10
-83.564409
20
50.406355
30
0
70
32
0
VERTEX
8
0
62
255
10
-98.501071
20
59.953801
30
0
70
32
0
VERTEX
8
0
62
255
10
-101.17205
20
55.32753
30
0
70
32
0
VERTEX
8
0
62
255
10
-85.435388
20
47.165724
30
0
70
32
0
VERTEX
8
0
62
255
10
-83.564409
20
50.406355
30
0
70
32
0
SEQEND
8
0
0
POLYLINE
8
0
62
255
66
1
10
0
20
0
30
0
70
8
0
VERTEX
8
0
62
255
10
-87.639625
20
42.931425
30
0
70
32
0
VERTEX
8
0
62
255
10
-103.35156
20
51.140725
30
0
70
32
0
VERTEX
8
0
62
255
10
-105.60917
20
46.299266
30
0
70
32
0
VERTEX
8
0
62
255
10
-89.221045
20
39.540059
30
0
70
32
0
VERTEX
8
0
62
255
10
-87.639625
20
42.931425
30
0
70
32
0
SEQEND
8
0
0
POLYLINE
8
0
62
255
66
1
10
0
20
0
30
0
70
8
0
VERTEX
8
0
62
255
10
-91.04785
20
35.129762
30
0
70
32
0
VERTEX
8
0
62
255
10
-107.41549
20
41.938437
30
0
70
32
0
VERTEX
8
0
62
255
10
-109.24254
20
36.918638
30
0
70
32
0
VERTEX
8
0
62
255
10
-92.327675
20
31.613471
30
0
70
32
0
VERTEX
8
0
62
255
10
-91.04785
20
35.129762
30
0
70
32
0
SEQEND
8
0
0
POLYLINE
8
0
62
255
66
1
10
0
20
0
30
0
70
8
0
VERTEX
8
0
62
255
10
-93.763146
20
27.060739
30
0
70
32
0
VERTEX
8
0
62
255
10
-110.66191
20
32.416972
30
0
70
32
0
VERTEX
8
0
62
255
10
-112.04451
20
27.257036
30
0
70
32
0
VERTEX
8
0
62
255
10
-94.731636
20
23.446285
30
0
70
32
0
VERTEX
8
0
62
255
10
-93.763146
20
27.060739
30
0
70
32
0
SEQEND
8
0
0
POLYLINE
8
0
62
255
66
1
10
0
20
0
30
0
70
8
0
VERTEX
8
0
62
255
10
-95.764847
20
18.785768
30
0
70
32
0
VERTEX
8
0
62
255
10
-113.06614
20
22.648794
30
0
70
32
0
VERTEX
8
0
62
255
10
-113.99376
20
17.387992
30
0
70
32
0
VERTEX
8
0
62
255
10
-96.414632
20
15.100659
30
0
70
32
0
VERTEX
8
0
62
255
10
-95.764847
20
18.785768
30
0
70
32
0
SEQEND
8
0
0
POLYLINE
8
0
62
255
66
1
10
0
20
0
30
0
70
8
0
VERTEX
8
0
62
255
10
-97.037721
20
10.367826
30
0
70
32
0
VERTEX
8
0
62
255
10
-114.60986
20
12.708245
30
0
70
32
0
VERTEX
8
0
62
255
10
-115.07544
20
7.3866147
30
0
70
32
0
VERTEX
8
0
62
255
10
-97.363854
20
6.6401075
30
0
70
32
0
VERTEX
8
0
62
255
10
-97.037721
20
10.367826
30
0
70
32
0
SEQEND
8
0
0
POLYLINE
8
0
62
255
66
1
10
0
20
0
30
0
70
8
0
VERTEX
8
0
62
255
10
-97.572079
20
1.8709792
30
0
70
32
0
VERTEX
8
0
62
255
10
-115.28133
20
2.6709792
30
0
70
32
0
VERTEX
8
0
62
255
10
-115.28133
20
-2.6709792
30
0
70
32
0
VERTEX
8
0
62
255
10
-97.572079
20
-1.8709792
30
0
70
32
0
VERTEX
8
0
62
255
10
-97.572079
20
1.8709792
30
0
70
32
0
SEQEND
8
0
0
POLYLINE
8
0
62
255
66
1
10
0
20
0
30
0
70
8
0
VERTEX
8
0
62
255
10
-97.363854
20
-6.6401075
30
0
70
32
0
VERTEX
8
0
62
255
10
-115.07544
20
-7.3866147
30
0
70
32
0
VERTEX
8
0
62
255
10
-114.60986
20
-12.708245
30
0
70
32
0
VERTEX
8
0
62
255
10
-97.037721
20
-10.367826
30
0
70
32
0
VERTEX
8
0
62
255
10
-97.363854
20
-6.6401075
30
0
70
32
0
SEQEND
8
0
0
POLYLINE
8
0
62
255
66
1
10
0
20
0
30
0
70
8
0
VERTEX
8
0
62
255
10
-96.414632
20
-15.100659
30
0
70
32
0
VERTEX
8
0
62
255
10
-113.99376
20
-17.387992
30
0
70
32
0
VERTEX
8
0
62
255
10
-113.06614
20
-22.648794
30
0
70
32
0
VERTEX
8
0
62
255
10
-95.764847
20
-18.785768
30
0
70
32
0
VERTEX
8
0
62
255
10
-96.414632
20
-15.100659
30
0
70
32
0
SEQEND
8
0
0
POLYLINE
8
0
62
255
66
1
10
0
20
0
30
0
70
8
0
VERTEX
8
0
62
255
10
-94.731636
20
-23.446285
30
0
70
32
0
VERTEX
8
0
62
255
10
-112.04451
20
-27.257036
30
0
70
32
0
VERTEX
8
0
62
255
10
-110.66191
20
-32.416972
30
0
70
32
0
VERTEX
8
0
62
255
10
-93.763146
20
-27.060739
30
0
70
32
0
VERTEX
8
0
62
255
10
-94.731636
20
-23.446285
30
0
70
32
0
SEQEND
8
0
0
POLYLINE
8
0
62
255
66
1
10
0
20
0
30
0
70
8
0
VERTEX
8
0
62
255
10
-92.327675
20
-31.613471
30
0
70
32
0
VERTEX
8
0
62
255
10
-109.24254
20
-36.918638
30
0
70
32
0
VERTEX
8
0
62
255
10
-107.41549
20
-41.938437
30
0
70
32
0
VERTEX
8
0
62
255
10
-91.04785
20
-35.129762
30
0
70
32
0
VERTEX
8
0
62
255
10
-92.327675
20
-31.613471
30
0
70
32
0
SEQEND
8
0
0
POLYLINE
8
0
62
255
66
1
10
0
20
0
30
0
70
8
0
VERTEX
8
0
62
255
10
-89.221045
20
-39.540059
30
0
70
32
0
VERTEX
8
0
62
255
10
-105.60917
20
-46.299266
30
0
70
32
0
VERTEX
8
0
62
255
10
-103.35156
20
-51.140725
30
0
70
32
0
VERTEX
8
0
62
255
10
-87.639625
20
-42.931425
30
0
70
32
0
VERTEX
8
0
62
255
10
-89.221045
20
-39.540059
30
0
70
32
0
SEQEND
8
0
0
POLYLINE
8
0
62
255
66
1
10
0
20
0
30
0
70
8
0
VERTEX
8
0
62
255
10
-85.435388
20
-47.165724
30
0
70
32
0
VERTEX
8
0
62
255
10
-101.17205
20
-55.32753
30
0
70
32
0
VERTEX
8
0
62
255
10
-98.501071
20
-59.953801
30
0
70
32
0
VERTEX
8
0
62
255
10
-83.564409
20
-50.406355
30
0
70
32
0
VERTEX
8
0
62
255
10
-85.435388
20
-47.165724
30
0
70
32
0
SEQEND
8
0
0
POLYLINE
8
0
62
255
66
1
10
0
20
0
30
0
70
8
0
VERTEX
8
0
62
255
10
-80.999517
20
-54.432429
30
0
70
32
0
VERTEX
8
0
62
255
10
-95.964949
20
-63.934717
30
0
70
32
0
VERTEX
8
0
62
255
10
-92.900927
20
-68.310593
30
0
70
32
0
VERTEX
8
0
62
255
10
-78.853218
20
-57.497661
30
0
70
32
0
VERTEX
8
0
62
255
10
-80.999517
20
-54.432429
30
0
70
32
0
SEQEND
8
0
0
POLYLINE
8
0
62
255
66
1
10
0
20
0
30
0
70
8
0
VERTEX
8
0
62
255
10
-75.947191
20
-61.28487
30
0
70
32
0
VERTEX
8
0
62
255
10
-90.027495
20
-72.055322
30
0
70
32
0
VERTEX
8
0
62
255
10
-86.593751
20
-76.1475
30
0
70
32
0
VERTEX
8
0
62
255
10
-73.541906
20
-64.151376
30
0
70
32
0
VERTEX
8
0
62
255
10
-75.947191
20
-61.28487
30
0
70
32
0
SEQEND
8
0
0
POLYLINE
8
0
62
255
66
1
10
0
20
0
30
0
70
8
0
VERTEX
8
0
62
255
10
-70.31686
20
-67.670896
30
0
70
32
0
VERTEX
8
0
62
255
10
-83.404878
20
-79.627543
30
0
70
32
0
VERTEX
8
0
62
255
10
-79.627543
20
-83.404878
30
0
70
32
0
VERTEX
8
0
62
255
10
-67.670896
20
-70.31686
30
0
70
32
0
VERTEX
8
0
62
255
10
-70.31686
20
-67.670896
30
0
70
32
0
SEQEND
8
0
0
POLYLINE
8
0
62
255
66
1
10
0
20
0
30
0
70
8
0
VERTEX
8
0
62
255
10
-64.151376
20
-73.541906
30
0
70
32
0
VERTEX
8
0
62
255
10
-76.1475
20
-86.593751
30
0
70
32
0
VERTEX
8
0
62
255
10
-72.055322
20
-90.027495
30
0
70
32
0
VERTEX
8
0
62
255
10
-61.28487
20
-75.947191
30
0
70
32
0
VERTEX
8
0
62
255
10
-64.151376
20
-73.541906
30
0
70
32
0
SEQEND
8
0
0
POLYLINE
8
0
62
255
66
1
10
0
20
0
30
0
70
8
0
VERTEX
8
0
62
255
10
-57.497661
20
-78.853218
30
0
70
32
0
VERTEX
8
0
62
255
10
-68.310593
20
-92.900927
30
0
70
32
0
VERTEX
8
0
62
255
10
-63.934717
20
-95.964949
30
0
70
32
0
VERTEX
8
0
62
255
10
-54.432429
20
-80.999517
30
0
70
32
0
VERTEX
8
0
62
255
10
-57.497661
20
-78.853218
30
0
70
32
0
SEQEND
8
0
0
POLYLINE
8
0
62
255
66
1
10
0
20
0
30
0
70
8
0
VERTEX
8
0
62
255
10
-50.406355
20
-83.564409
30
0
70
32
0
VERTEX
8
0
62
255
10
-59.953801
20
-98.501071
30
0
70
32
0
VERTEX
8
0
62
255
10
-55.32753
20
-101.17205
30
0
70
32
0
VERTEX
8
0
62
255
10
-47.165724
20
-85.435388
30
0
70
32
0
VERTEX
8
0
62
255
10
-50.406355
20
-83.564409
30
0
70
32
0
SEQEND
8
0
0
POLYLINE
8
0
62
255
66
1
10
0
20
0
30
0
70
8
0
VERTEX
8
0
62
255
10
-42.931425
20
-87.639625
30
0
70
32
0
VERTEX
8
0
62
255
10
-51.140725
20
-103.35156
30
0
70
32
0
VERTEX
8
0
62
255
10
-46.299266
20
-105.60917
30
0
70
32
0
VERTEX
8
0
62
255
10
-39.540059
20
-89.221045
30
0
70
32
0
VERTEX
8
0
62
255
10
-42.931425
20
-87.639625
30
0
70
32
0
SEQEND
8
0
0
POLYLINE
8
0
62
255
66
1
10
0
20
0
30
0
70
8
0
VERTEX
8
0
62
255
10
-35.129762
20
-91.04785
30
0
70
32
0
VERTEX
8
0
62
255
10
-41.938437
20
-107.41549
30
0
70
32
0
VERTEX
8
0
62
255
10
-36.918638
20
-109.24254
30
0
70
32
0
VERTEX
8
0
62
255
10
-31.613471
20
-92.327675
30
0
70
32
0
VERTEX
8
0
62
255
10
-35.129762
20
-91.04785
30
0
70
32
0
SEQEND
8
0
0
POLYLINE
8
0
62
255
66
1
10
0
20
0
30
0
70
8
0
VERTEX
8
0
62
255
10
-27.060739
20
-93.763146
30
0
70
32
0
VERTEX
8
0
62
255
10
-32.416972
20
-110.66191
30
0
70
32
0
VERTEX
8
0
62
255
10
-27.257036
20
-112.04451
30
0
70
32
0
VERTEX
8
0
62
255
10
-23.446285
20
-94.731636
30
0
70
32
0
VERTEX
8
0
62
255
10
-27.060739
20
-93.763146
30
0
70
32
0
SEQEND
8
0
0
POLYLINE
8
0
62
255
66
1
10
0
20
0
30
0
70
8
0
VERTEX
8
0
62
255
10
-18.785768
20
-95.764847
30
0
70
32
0
VERTEX
8
0
62
255
10
-22.648794
20
-113.06614
30
0
70
32
0
VERTEX
8
0
62
255
10
-17.387992
20
-113.99376
30
0
70
32
0
VERTEX
8
0
62
255
10
-15.100659
20
-96.414632
30
0
70
32
0
VERTEX
8
0
62
255
10
-18.785768
20
-95.764847
30
0
70
32
0
SEQEND
8
0
0
POLYLINE
8
0
62
255
66
1
10
0
20
0
30
0
70
8
0
VERTEX
8
0
62
255
10
-10.367826
20
-97.037721
30
0
70
32
0
VERTEX
8
0
62
255
10
-12.708245
20
-114.60986
30
0
70
32
0
VERTEX
8
0
62
255
10
-7.3866147
20
-115.07544
30
0
70
32
0
VERTEX
8
0
62
255
10
-6.6401075
20
-97.363854
30
0
70
32
0
VERTEX
8
0
62
255
10
-10.367826
20
-97.037721
30
0
70
32
0
SEQEND
8
0
0
POLYLINE
8
0
62
255
66
1
10
0
20
0
30
0
70
8
0
VERTEX
8
0
62
255
10
-1.8709792
20
-97.572079
30
0
70
32
0
VERTEX
8
0
62
255
10
-2.6709792
20
-115.28133
30
0
70
32
0
VERTEX
8
0
62
255
10
2.6709792
20
-115.28133
30
0
70
32
0
VERTEX
8
0
62
255
10
1.8709792
20
-97.572079
30
0
70
32
0
VERTEX
8
0
62
255
10
-1.8709792
20
-97.572079
30
0
70
32
0
SEQEND
8
0
0
POLYLINE
8
0
62
255
66
1
10
0
20
0
30
0
70
8
0
VERTEX
8
0
62
255
10
6.6401075
20
-97.363854
30
0
70
32
0
VERTEX
8
0
62
255
10
7.3866147
20
-115.07544
30
0
70
32
0
VERTEX
8
0
62
255
10
12.708245
20
-114.60986
30
0
70
32
0
VERTEX
8
0
62
255
10
10.367826
20
-97.037721
30
0
70
32
0
VERTEX
8
0
62
255
10
6.6401075
20
-97.363854
30
0
70
32
0
SEQEND
8
0
0
POLYLINE
8
0
62
255
66
1
10
0
20
0
30
0
70
8
0
VERTEX
8
0
62
255
10
15.100659
20
-96.414632
30
0
70
32
0
VERTEX
8
0
62
255
10
17.387992
20
-113.99376
30
0
70
32
0
VERTEX
8
0
62
255
10
22.648794
20
-113.06614
30
0
70
32
0
VERTEX
8
0
62
255
10
18.785768
20
-95.764847
30
0
70
32
0
VERTEX
8
0
62
255
10
15.100659
20
-96.414632
30
0
70
32
0
SEQEND
8
0
0
POLYLINE
8
0
62
255
66
1
10
0
20
0
30
0
70
8
0
VERTEX
8
0
62
255
10
23.446285
20
-94.731636
30
0
70
32
0
VERTEX
8
0
62
255
10
27.257036
20
-112.04451
30
0
70
32
0
VERTEX
8
0
62
255
10
32.416972
20
-110.66191
30
0
70
32
0
VERTEX
8
0
62
255
10
27.060739
20
-93.763146
30
0
70
32
0
VERTEX
8
0
62
255
10
23.446285
20
-94.731636
30
0
70
32
0
SEQEND
8
0
0
POLYLINE
8
0
62
255
66
1
10
0
20
0
30
0
70
8
0
VERTEX
8
0
62
255
10
31.613471
20
-92.327675
30
0
70
32
0
VERTEX
8
0
62
255
10
36.918638
20
-109.24254
30
0
70
32
0
VERTEX
8
0
62
255
10
41.938437
20
-107.41549
30
0
70
32
0
VERTEX
8
0
62
255
10
35.129762
20
-91.04785
30
0
70
32
0
VERTEX
8
0
62
255
10
31.613471
20
-92.327675
30
0
70
32
0
SEQEND
8
0
0
POLYLINE
8
0
62
255
66
1
10
0
20
0
30
0
70
8
0
VERTEX
8
0
62
255
10
39.540059
20
-89.221045
30
0
70
32
0
VERTEX
8
0
62
255
10
46.299266
20
-105.60917
30
0
70
32
0
VERTEX
8
0
62
255
10
51.140725
20
-103.35156
30
0
70
32
0
VERTEX
8
0
62
255
10
42.931425
20
-87.639625
30
0
70
32
0
VERTEX
8
0
62
255
10
39.540059
20
-89.221045
30
0
70
32
0
SEQEND
8
0
0
POLYLINE
8
0
62
255
66
1
10
0
20
0
30
0
70
8
0
VERTEX
8
0
62
255
10
47.165724
20
-85.435388
30
0
70
32
0
VERTEX
8
0
62
255
10
55.32753
20
-101.17205
30
0
70
32
0
VERTEX
8
0
62
255
10
59.953801
20
-98.501071
30
0
70
32
0
VERTEX
8
0
62
255
10
50.406355
20
-83.564409
30
0
70
32
0
VERTEX
8
0
62
255
10
47.165724
20
-85.435388
30
0
70
32
0
SEQEND
8
0
0
POLYLINE
8
0
62
255
66
1
10
0
20
0
30
0
70
8
0
VERTEX
8
0
62
255
10
54.432429
20
-80.999517
30
0
70
32
0
VERTEX
8
0
62
255
10
63.934717
20
-95.964949
30
0
70
32
0
VERTEX
8
0
62
255
10
68.310593
20
-92.900927
30
0
70
32
0
VERTEX
8
0
62
255
10
57.497661
20
-78.853218
30
0
70
32
0
VERTEX
8
0
62
255
10
54.432429
20
-80.999517
30
0
70
32
0
SEQEND
8
0
0
POLYLINE
8
0
62
255
66
1
10
0
20
0
30
0
70
8
0
VERTEX
8
0
62
255
10
61.28487
20
-75.947191
30
0
70
32
0
VERTEX
8
0
62
255
10
72.055322
20
-90.027495
30
0
70
32
0
VERTEX
8
0
62
255
10
76.1475
20
-86.593751
30
0
70
32
0
VERTEX
8
0
62
255
10
64.151376
20
-73.541906
30
0
70
32
0
VERTEX
8
0
62
255
10
61.28487
20
-75.947191
30
0
70
32
0
SEQEND
8
0
0
POLYLINE
8
0
62
255
66
1
10
0
20
0
30
0
70
8
0
VERTEX
8
0
62
255
10
67.670896
20
-70.31686
30
0
70
32
0
VERTEX
8
0
62
255
10
79.627543
20
-83.404878
30
0
70
32
0
VERTEX
8
0
62
255
10
83.404878
20
-79.627543
30
0
70
32
0
VERTEX
8
0
62
255
10
70.31686
20
-67.670896
30
0
70
32
0
VERTEX
8
0
62
255
10
67.670896
20
-70.31686
30
0
70
32
0
SEQEND
8
0
0
POLYLINE
8
0
62
255
66
1
10
0
20
0
30
0
70
8
0
VERTEX
8
0
62
255
10
73.541906
20
-64.151376
30
0
70
32
0
VERTEX
8
0
62
255
10
86.593751
20
-76.1475
30
0
70
32
0
VERTEX
8
0
62
255
10
90.027495
20
-72.055322
30
0
70
32
0
VERTEX
8
0
62
255
10
75.947191
20
-61.28487
30
0
70
32
0
VERTEX
8
0
62
255
10
73.541906
20
-64.151376
30
0
70
32
0
SEQEND
8
0
0
POLYLINE
8
0
62
255
66
1
10
0
20
0
30
0
70
8
0
VERTEX
8
0
62
255
10
78.853218
20
-57.497661
30
0
70
32
0
VERTEX
8
0
62
255
10
92.900927
20
-68.310593
30
0
70
32
0
VERTEX
8
0
62
255
10
95.964949
20
-63.934717
30
0
70
32
0
VERTEX
8
0
62
255
10
80.999517
20
-54.432429
30
0
70
32
0
VERTEX
8
0
62
255
10
78.853218
20
-57.497661
30
0
70
32
0
SEQEND
8
0
0
POLYLINE
8
0
62
255
66
1
10
0
20
0
30
0
70
8
0
VERTEX
8
0
62
255
10
83.564409
20
-50.406355
30
0
70
32
0
VERTEX
8
0
62
255
10
98.501071
20
-59.953801
30
0
70
32
0
VERTEX
8
0
62
255
10
101.17205
20
-55.32753
30
0
70
32
0
VERTEX
8
0
62
255
10
85.435388
20
-47.165724
30
0
70
32
0
VERTEX
8
0
62
255
10
83.564409
20
-50.406355
30
0
70
32
0
SEQEND
8
0
0
POLYLINE
8
0
62
255
66
1
10
0
20
0
30
0
70
8
0
VERTEX
8
0
62
255
10
87.639625
20
-42.931425
30
0
70
32
0
VERTEX
8
0
62
255
10
103.35156
20
-51.140725
30
0
70
32
0
VERTEX
8
0
62
255
10
105.60917
20
-46.299266
30
0
70
32
0
VERTEX
8
0
62
255
10
89.221045
20
-39.540059
30
0
70
32
0
VERTEX
8
0
62
255
10
87.639625
20
-42.931425
30
0
70
32
0
SEQEND
8
0
0
POLYLINE
8
0
62
255
66
1
10
0
20
0
30
0
70
8
0
VERTEX
8
0
62
255
10
91.04785
20
-35.129762
30
0
70
32
0
VERTEX
8
0
62
255
10
107.41549
20
-41.938437
30
0
70
32
0
VERTEX
8
0
62
255
10
109.24254
20
-36.918638
30
0
70
32
0
VERTEX
8
0
62
255
10
92.327675
20
-31.613471
30
0
70
32
0
VERTEX
8
0
62
255
10
91.04785
20
-35.129762
30
0
70
32
0
SEQEND
8
0
0
POLYLINE
8
0
62
255
66
1
10
0
20
0
30
0
70
8
0
VERTEX
8
0
62
255
10
93.763146
20
-27.060739
30
0
70
32
0
VERTEX
8
0
62
255
10
110.66191
20
-32.416972
30
0
70
32
0
VERTEX
8
0
62
255
10
112.04451
20
-27.257036
30
0
70
32
0
VERTEX
8
0
62
255
10
94.731636
20
-23.446285
30
0
70
32
0
VERTEX
8
0
62
255
10
93.763146
20
-27.060739
30
0
70
32
0
SEQEND
8
0
0
POLYLINE
8
0
62
255
66
1
10
0
20
0
30
0
70
8
0
VERTEX
8
0
62
255
10
95.764847
20
-18.785768
30
0
70
32
0
VERTEX
8
0
62
255
10
113.06614
20
-22.648794
30
0
70
32
0
VERTEX
8
0
62
255
10
113.99376
20
-17.387992
30
0
70
32
0
VERTEX
8
0
62
255
10
96.414632
20
-15.100659
30
0
70
32
0
VERTEX
8
0
62
255
10
95.764847
20
-18.785768
30
0
70
32
0
SEQEND
8
0
0
POLYLINE
8
0
62
255
66
1
10
0
20
0
30
0
70
8
0
VERTEX
8
0
62
255
10
97.037721
20
-10.367826
30
0
70
32
0
VERTEX
8
0
62
255
10
114.60986
20
-12.708245
30
0
70
32
0
VERTEX
8
0
62
255
10
115.07544
20
-7.3866147
30
0
70
32
0
VERTEX
8
0
62
255
10
97.363854
20
-6.6401075
30
0
70
32
0
VERTEX
8
0
62
255
10
97.037721
20
-10.367826
30
0
70
32
0
SEQEND
8
0
0
POLYLINE
8
0
62
255
66
1
10
0
20
0
30
0
70
8
0
VERTEX
8
0
62
255
10
97.572079
20
-1.8709792
30
0
70
32
0
VERTEX
8
0
62
255
10
115.28133
20
-2.6709792
30
0
70
32
0
VERTEX
8
0
62
255
10
115.28133
20
2.6709792
30
0
70
32
0
VERTEX
8
0
62
255
10
97.572079
20
1.8709792
30
0
70
32
0
VERTEX
8
0
62
255
10
97.572079
20
-1.8709792
30
0
70
32
0
SEQEND
8
0
0
POLYLINE
8
0
62
255
66
1
10
0
20
0
30
0
70
8
0
VERTEX
8
0
62
255
10
97.363854
20
6.6401075
30
0
70
32
0
VERTEX
8
0
62
255
10
115.07544
20
7.3866147
30
0
70
32
0
VERTEX
8
0
62
255
10
114.60986
20
12.708245
30
0
70
32
0
VERTEX
8
0
62
255
10
97.037721
20
10.367826
30
0
70
32
0
VERTEX
8
0
62
255
10
97.363854
20
6.6401075
30
0
70
32
0
SEQEND
8
0
0
POLYLINE
8
0
62
255
66
1
10
0
20
0
30
0
70
8
0
VERTEX
8
0
62
255
10
96.414632
20
15.100659
30
0
70
32
0
VERTEX
8
0
62
255
10
113.99376
20
17.387992
30
0
70
32
0
VERTEX
8
0
62
255
10
113.06614
20
22.648794
30
0
70
32
0
VERTEX
8
0
62
255
10
95.764847
20
18.785768
30
0
70
32
0
VERTEX
8
0
62
255
10
96.414632
20
15.100659
30
0
70
32
0
SEQEND
8
0
0
POLYLINE
8
0
62
255
66
1
10
0
20
0
30
0
70
8
0
VERTEX
8
0
62
255
10
94.731636
20
23.446285
30
0
70
32
0
VERTEX
8
0
62
255
10
112.04451
20
27.257036
30
0
70
32
0
VERTEX
8
0
62
255
10
110.66191
20
32.416972
30
0
70
32
0
VERTEX
8
0
62
255
10
93.763146
20
27.060739
30
0
70
32
0
VERTEX
8
0
62
255
10
94.731636
20
23.446285
30
0
70
32
0
SEQEND
8
0
0
POLYLINE
8
0
62
255
66
1
10
0
20
0
30
0
70
8
0
VERTEX
8
0
62
255
10
92.327675
20
31.613471
30
0
70
32
0
VERTEX
8
0
62
255
10
109.24254
20
36.918638
30
0
70
32
0
VERTEX
8
0
62
255
10
107.41549
20
41.938437
30
0
70
32
0
VERTEX
8
0
62
255
10
91.04785
20
35.129762
30
0
70
32
0
VERTEX
8
0
62
255
10
92.327675
20
31.613471
30
0
70
32
0
SEQEND
8
0
0
POLYLINE
8
0
62
255
66
1
10
0
20
0
30
0
70
8
0
VERTEX
8
0
62
255
10
89.221045
20
39.540059
30
0
70
32
0
VERTEX
8
0
62
255
10
105.60917
20
46.299266
30
0
70
32
0
VERTEX
8
0
62
255
10
103.35156
20
51.140725
30
0
70
32
0
VERTEX
8
0
62
255
10
87.639625
20
42.931425
30
0
70
32
0
VERTEX
8
0
62
255
10
89.221045
20
39.540059
30
0
70
32
0
SEQEND
8
0
0
POLYLINE
8
0
62
255
66
1
10
0
20
0
30
0
70
8
0
VERTEX
8
0
62
255
10
85.435388
20
47.165724
30
0
70
32
0
VERTEX
8
0
62
255
10
101.17205
20
55.32753
30
0
70
32
0
VERTEX
8
0
62
255
10
98.501071
20
59.953801
30
0
70
32
0
VERTEX
8
0
62
255
10
83.564409
20
50.406355
30
0
70
32
0
VERTEX
8
0
62
255
10
85.435388
20
47.165724
30
0
70
32
0
SEQEND
8
0
0
POLYLINE
8
0
62
255
66
1
10
0
20
0
30
0
70
8
0
VERTEX
8
0
62
255
10
80.999517
20
54.432429
30
0
70
32
0
VERTEX
8
0
62
255
10
95.964949
20
63.934717
30
0
70
32
0
VERTEX
8
0
62
255
10
92.900927
20
68.310593
30
0
70
32
0
VERTEX
8
0
62
255
10
78.853218
20
57.497661
30
0
70
32
0
VERTEX
8
0
62
255
10
80.999517
20
54.432429
30
0
70
32
0
SEQEND
8
0
0
POLYLINE
8
0
62
255
66
1
10
0
20
0
30
0
70
8
0
VERTEX
8
0
62
255
10
75.947191
20
61.28487
30
0
70
32
0
VERTEX
8
0
62
255
10
90.027495
20
72.055322
30
0
70
32
0
VERTEX
8
0
62
255
10
86.593751
20
76.1475
30
0
70
32
0
VERTEX
8
0
62
255
10
73.541906
20
64.151376
30
0
70
32
0
VERTEX
8
0
62
255
10
75.947191
20
61.28487
30
0
70
32
0
SEQEND
8
0
0
POLYLINE
8
0
62
255
66
1
10
0
20
0
30
0
70
8
0
VERTEX
8
0
62
255
10
70.31686
20
67.670896
30
0
70
32
0
VERTEX
8
0
62
255
10
83.404878
20
79.627543
30
0
70
32
0
VERTEX
8
0
62
255
10
79.627543
20
83.404878
30
0
70
32
0
VERTEX
8
0
62
255
10
67.670896
20
70.31686
30
0
70
32
0
VERTEX
8
0
62
255
10
70.31686
20
67.670896
30
0
70
32
0
SEQEND
8
0
0
POLYLINE
8
0
62
255
66
1
10
0
20
0
30
0
70
8
0
VERTEX
8
0
62
255
10
64.151376
20
73.541906
30
0
70
32
0
VERTEX
8
0
62
255
10
76.1475
20
86.593751
30
0
70
32
0
VERTEX
8
0
62
255
10
72.055322
20
90.027495
30
0
70
32
0
VERTEX
8
0
62
255
10
61.28487
20
75.947191
30
0
70
32
0
VERTEX
8
0
62
255
10
64.151376
20
73.541906
30
0
70
32
0
SEQEND
8
0
0
POLYLINE
8
0
62
255
66
1
10
0
20
0
30
0
70
8
0
VERTEX
8
0
62
255
10
57.497661
20
78.853218
30
0
70
32
0
VERTEX
8
0
62
255
10
68.310593
20
92.900927
30
0
70
32
0
VERTEX
8
0
62
255
10
63.934717
20
95.964949
30
0
70
32
0
VERTEX
8
0
62
255
10
54.432429
20
80.999517
30
0
70
32
0
VERTEX
8
0
62
255
10
57.497661
20
78.853218
30
0
70
32
0
SEQEND
8
0
0
POLYLINE
8
0
62
255
66
1
10
0
20
0
30
0
70
8
0
VERTEX
8
0
62
255
10
50.406355
20
83.564409
30
0
70
32
0
VERTEX
8
0
62
255
10
59.953801
20
98.501071
30
0
70
32
0
VERTEX
8
0
62
255
10
55.32753
20
101.17205
30
0
70
32
0
VERTEX
8
0
62
255
10
47.165724
20
85.435388
30
0
70
32
0
VERTEX
8
0
62
255
10
50.406355
20
83.564409
30
0
70
32
0
SEQEND
8
0
0
POLYLINE
8
0
62
255
66
1
10
0
20
0
30
0
70
8
0
VERTEX
8
0
62
255
10
42.931425
20
87.639625
30
0
70
32
0
VERTEX
8
0
62
255
10
51.140725
20
103.35156
30
0
70
32
0
VERTEX
8
0
62
255
10
46.299266
20
105.60917
30
0
70
32
0
VERTEX
8
0
62
255
10
39.540059
20
89.221045
30
0
70
32
0
VERTEX
8
0
62
255
10
42.931425
20
87.639625
30
0
70
32
0
SEQEND
8
0
0
POLYLINE
8
0
62
255
66
1
10
0
20
0
30
0
70
8
0
VERTEX
8
0
62
255
10
35.129762
20
91.04785
30
0
70
32
0
VERTEX
8
0
62
255
10
41.938437
20
107.41549
30
0
70
32
0
VERTEX
8
0
62
255
10
36.918638
20
109.24254
30
0
70
32
0
VERTEX
8
0
62
255
10
31.613471
20
92.327675
30
0
70
32
0
VERTEX
8
0
62
255
10
35.129762
20
91.04785
30
0
70
32
0
SEQEND
8
0
0
POLYLINE
8
0
62
255
66
1
10
0
20
0
30
0
70
8
0
VERTEX
8
0
62
255
10
27.060739
20
93.763146
30
0
70
32
0
VERTEX
8
0
62
255
10
32.416972
20
110.66191
30
0
70
32
0
VERTEX
8
0
62
255
10
27.257036
20
112.04451
30
0
70
32
0
VERTEX
8
0
62
255
10
23.446285
20
94.731636
30
0
70
32
0
VERTEX
8
0
62
255
10
27.060739
20
93.763146
30
0
70
32
0
SEQEND
8
0
0
POLYLINE
8
0
62
255
66
1
10
0
20
0
30
0
70
8
0
VERTEX
8
0
62
255
10
18.785768
20
95.764847
30
0
70
32
0
VERTEX
8
0
62
255
10
22.648794
20
113.06614
30
0
70
32
0
VERTEX
8
0
62
255
10
17.387992
20
113.99376
30
0
70
32
0
VERTEX
8
0
62
255
10
15.100659
20
96.414632
30
0
70
32
0
VERTEX
8
0
62
255
10
18.785768
20
95.764847
30
0
70
32
0
SEQEND
8
0
0
POLYLINE
8
0
62
255
66
1
10
0
20
0
30
0
70
8
0
VERTEX
8
0
62
255
10
10.367826
20
97.037721
30
0
70
32
0
VERTEX
8
0
62
255
10
12.708245
20
114.60986
30
0
70
32
0
VERTEX
8
0
62
255
10
7.3866147
20
115.07544
30
0
70
32
0
VERTEX
8
0
62
255
10
6.6401075
20
97.363854
30
0
70
32
0
VERTEX
8
0
62
255
10
10.367826
20
97.037721
30
0
70
32
0
SEQEND
8
0
0
POLYLINE
8
0
62
255
66
1
10
0
20
0
30
0
70
8
0
VERTEX
8
0
62
255
10
16.129531
20
89.20953
30
0
70
32
0
VERTEX
8
0
62
255
10
16.129531
20
90.577779
30
0
70
32
0
VERTEX
8
0
62
255
10
-16.129531
20
90.577779
30
0
70
32
0
VERTEX
8
0
62
255
10
-16.129531
20
89.20953
30
0
70
32
0
VERTEX
8
0
62
255
10
16.129531
20
89.20953
30
0
70
32
0
SEQEND
8
0
0
POLYLINE
8
0
62
255
66
1
10
0
20
0
30
0
70
8
0
VERTEX
8
0
62
255
10
-30.636182
20
85.322485
30
0
70
32
0
VERTEX
8
0
62
255
10
-31.320306
20
86.507423
30
0
70
32
0
VERTEX
8
0
62
255
10
-59.257473
20
70.377892
30
0
70
32
0
VERTEX
8
0
62
255
10
-58.573348
20
69.192954
30
0
70
32
0
VERTEX
8
0
62
255
10
-30.636182
20
85.322485
30
0
70
32
0
SEQEND
8
0
0
POLYLINE
8
0
62
255
66
1
10
0
20
0
30
0
70
8
0
VERTEX
8
0
62
255
10
-69.192954
20
58.573348
30
0
70
32
0
VERTEX
8
0
62
255
10
-70.377892
20
59.257473
30
0
70
32
0
VERTEX
8
0
62
255
10
-86.507423
20
31.320306
30
0
70
32
0
VERTEX
8
0
62
255
10
-85.322485
20
30.636182
30
0
70
32
0
VERTEX
8
0
62
255
10
-69.192954
20
58.573348
30
0
70
32
0
SEQEND
8
0
0
POLYLINE
8
0
62
255
66
1
10
0
20
0
30
0
70
8
0
VERTEX
8
0
62
255
10
-89.20953
20
16.129531
30
0
70
32
0
VERTEX
8
0
62
255
10
-90.577779
20
16.129531
30
0
70
32
0
VERTEX
8
0
62
255
10
-90.577779
20
-16.129531
30
0
70
32
0
VERTEX
8
0
62
255
10
-89.20953
20
-16.129531
30
0
70
32
0
VERTEX
8
0
62
255
10
-89.20953
20
16.129531
30
0
70
32
0
SEQEND
8
0
0
POLYLINE
8
0
62
255
66
1
10
0
20
0
30
0
70
8
0
VERTEX
8
0
62
255
10
-85.322485
20
-30.636182
30
0
70
32
0
VERTEX
8
0
62
255
10
-86.507423
20
-31.320306
30
0
70
32
0
VERTEX
8
0
62
255
10
-70.377892
20
-59.257473
30
0
70
32
0
VERTEX
8
0
62
255
10
-69.192954
20
-58.573348
30
0
70
32
0
VERTEX
8
0
62
255
10
-85.322485
20
-30.636182
30
0
70
32
0
SEQEND
8
0
0
POLYLINE
8
0
62
255
66
1
10
0
20
0
30
0
70
8
0
VERTEX
8
0
62
255
10
-58.573348
20
-69.192954
30
0
70
32
0
VERTEX
8
0
62
255
10
-59.257473
20
-70.377892
30
0
70
32
0
VERTEX
8
0
62
255
10
-31.320306
20
-86.507423
30
0
70
32
0
VERTEX
8
0
62
255
10
-30.636182
20
-85.322485
30
0
70
32
0
VERTEX
8
0
62
255
10
-58.573348
20
-69.192954
30
0
70
32
0
SEQEND
8
0
0
POLYLINE
8
0
62
255
66
1
10
0
20
0
30
0
70
8
0
VERTEX
8
0
62
255
10
-16.129531
20
-89.20953
30
0
70
32
0
VERTEX
8
0
62
255
10
-16.129531
20
-90.577779
30
0
70
32
0
VERTEX
8
0
62
255
10
16.129531
20
-90.577779
30
0
70
32
0
VERTEX
8
0
62
255
10
16.129531
20
-89.20953
30
0
70
32
0
VERTEX
8
0
62
255
10
-16.129531
20
-89.20953
30
0
70
32
0
SEQEND
8
0
0
POLYLINE
8
0
62
255
66
1
10
0
20
0
30
0
70
8
0
VERTEX
8
0
62
255
10
30.636182
20
-85.322485
30
0
70
32
0
VERTEX
8
0
62
255
10
31.320306
20
-86.507423
30
0
70
32
0
VERTEX
8
0
62
255
10
59.257473
20
-70.377892
30
0
70
32
0
VERTEX
8
0
62
255
10
58.573348
20
-69.192954
30
0
70
32
0
VERTEX
8
0
62
255
10
30.636182
20
-85.322485
30
0
70
32
0
SEQEND
8
0
0
POLYLINE
8
0
62
255
66
1
10
0
20
0
30
0
70
8
0
VERTEX
8
0
62
255
10
69.192954
20
-58.573348
30
0
70
32
0
VERTEX
8
0
62
255
10
70.377892
20
-59.257473
30
0
70
32
0
VERTEX
8
0
62
255
10
86.507423
20
-31.320306
30
0
70
32
0
VERTEX
8
0
62
255
10
85.322485
20
-30.636182
30
0
70
32
0
VERTEX
8
0
62
255
10
69.192954
20
-58.573348
30
0
70
32
0
SEQEND
8
0
0
POLYLINE
8
0
62
255
66
1
10
0
20
0
30
0
70
8
0
VERTEX
8
0
62
255
10
89.20953
20
-16.129531
30
0
70
32
0
VERTEX
8
0
62
255
10
90.577779
20
-16.129531
30
0
70
32
0
VERTEX
8
0
62
255
10
90.577779
20
16.129531
30
0
70
32
0
VERTEX
8
0
62
255
10
89.20953
20
16.129531
30
0
70
32
0
VERTEX
8
0
62
255
10
89.20953
20
-16.129531
30
0
70
32
0
SEQEND
8
0
0
POLYLINE
8
0
62
255
66
1
10
0
20
0
30
0
70
8
0
VERTEX
8
0
62
255
10
85.322485
20
30.636182
30
0
70
32
0
VERTEX
8
0
62
255
10
86.507423
20
31.320306
30
0
70
32
0
VERTEX
8
0
62
255
10
70.377892
20
59.257473
30
0
70
32
0
VERTEX
8
0
62
255
10
69.192954
20
58.573348
30
0
70
32
0
VERTEX
8
0
62
255
10
85.322485
20
30.636182
30
0
70
32
0
SEQEND
8
0
0
POLYLINE
8
0
62
255
66
1
10
0
20
0
30
0
70
8
0
VERTEX
8
0
62
255
10
58.573348
20
69.192954
30
0
70
32
0
VERTEX
8
0
62
255
10
59.257473
20
70.377892
30
0
70
32
0
VERTEX
8
0
62
255
10
31.320306
20
86.507423
30
0
70
32
0
VERTEX
8
0
62
255
10
30.636182
20
85.322485
30
0
70
32
0
VERTEX
8
0
62
255
10
58.573348
20
69.192954
30
0
70
32
0
SEQEND
8
0
0
ENDSEC
0
EOF
